<svg width="1920" height="373" viewBox="0 0 1920 373" fill="none" xmlns="http://www.w3.org/2000/svg">
<path d="M1919.1 194.5C1916.6 194.5 1914.1 194.5 1911.6 194.5C1277.1 194.5 642.6 194.5 8.1 194.5C5.6 194.5 3.1 194.5 0.3 194.5C0.2 192.8 0 191.4 0 189.9C0 160.7 0 131.5 0 102.3C0 96.8 1.3 96 6.6 97.6C12.6 99.4 18.5 101.4 24.5 102.8C28 103.6 29.1 105.3 29 108.7C28.8 118 28.9 127.2 28.9 137.9C38.2 133.9 46.7 130.3 55.9 126.4C55.9 130.2 55.9 133.4 55.9 136.5C62.9 137.3 66.7 134.5 66.4 128.6C65.6 114.5 69.4 101.2 72.2 87.6C74.2 77.9 76 68.1 77.9 58.4C78 57.6 78.3 56.9 79.1 56.1C83.8 81.3 94.5 105.4 92.7 132.6C97.8 130.6 102.1 128.8 107 126.8C107.2 131.4 107.4 135.5 107.7 140.5C117.4 136.4 126.2 132.6 135.8 128.5C136 133.1 136.2 136.8 136.4 140.9C144.9 140.9 153.1 141.2 161.2 140.7C163.2 140.6 165.6 138.1 166.9 136.1C169.9 131.8 172.2 127.1 174.9 122.6C175.6 121.4 176.5 120.4 177.3 119.3C183.5 128.3 189.5 137 195.1 145.2C194.2 147.1 193.3 149.1 192.1 151.5C198.1 152.3 202.9 153.1 207.8 153.4C213.3 153.8 214.3 152.6 214.3 147.3C214.3 141 214.2 134.7 214.3 128.4C214.5 110.8 214.6 93.2 215.2 75.7C215.3 73.2 217.1 70.2 219.1 68.4C224.6 63.3 226.9 57.5 225.9 49.9C225.5 47 227.4 43.7 228.3 40.7C229 38.5 229.9 36.3 231.2 32.6C232.2 35.6 232.9 37.4 233.4 39.3C234.5 43.8 236.8 48.4 236.4 52.8C235.8 59.7 239.3 63.9 243.4 68.1C246.1 70.8 247.1 73.6 247 77.6C246.9 86 247.7 94.4 248.2 102.8C248.3 104 248.9 105.1 249.6 107.7C257.6 97 264.9 87.3 272.5 77.1C280.5 87.7 288.1 97.8 295.7 108C296.2 108 296.6 107.9 297.1 107.9C297.7 104.8 298.6 101.7 299 98.6C299.3 96.3 299.3 93.9 299 91.6C297.8 81.6 299.6 72.8 307.9 66C309.1 65 309.3 62.5 309.6 60.6C310.5 55.2 311.1 49.8 312.1 44.4C312.6 41.9 313.7 39.6 314.6 36.9C315.1 37.8 315.9 38.6 316.2 39.6C318.1 47 321.7 53.9 320.8 62C320.5 64.5 323.3 67.9 325.5 70C329.7 74 331.1 78.3 331.1 84.2C331 98.4 331.9 112.6 332.8 126.8C332.9 128.9 335.2 130.9 336.5 133C336.6 133.1 336.7 133.3 336.8 133.4C347.3 140 347.3 140.1 356.8 132.1C358.8 130.4 360.1 129.8 362.2 131.9C364.9 134.5 368.2 136.5 370.9 139.1C374 142 376.7 142.5 379.9 139.2C381.6 137.4 383.7 136 386 134.1C390 137.8 393.7 141.7 397.9 145C400.2 146.8 403.2 148.1 406.1 148.4C411 149 416 148.6 421.7 148.6C421.7 146.2 421.7 144.5 421.7 142.7C421.7 128.3 421.8 113.8 421.6 99.4C421.5 96.1 422.8 94.1 425.5 92.8C431.5 89.9 437.6 86.9 444.1 83.8C449.9 88.9 456 94 461.8 99.5C463 100.6 463.5 103 463.5 104.8C463.7 113.9 463.7 123.1 463.5 132.2C463.4 135.6 464.5 137 468 137C471.6 137 472.5 135.4 472.4 132.1C472.2 123.3 472.3 114.6 472.3 105.4C476.6 105.4 481.5 104 484.1 105.8C486.2 107.3 485.5 112.7 486.1 117.1C488.1 115.8 490.5 114.9 492 113.3C495.7 109.2 500 110 504.2 111.2C512.7 113.7 514.1 113.5 518.9 106.5C522.4 101.5 525.8 96.5 529.2 91.6C530.2 90.2 531.4 88.9 532.9 87.1C539.3 96.6 545.3 105.4 551.6 114.8C558.5 106.4 565.1 98.4 572.1 90C575.5 93.8 578.6 97.3 581.6 100.9C586 106.1 586.1 106.3 592 102.6C603.6 95.3 615.1 87.8 626.7 80.3C627.1 80 627.6 79.9 628.1 79.7C638.2 87.8 648.3 95.9 658.4 103.9C663 107.6 668.3 105.8 671.7 101.2C674.7 97 679.1 93.9 683 90.4C687.2 86.5 691.1 82.2 695.8 78.9C701.1 75.2 700.6 70.7 699.7 65.5C699.4 63.8 699.5 61 700.6 60.2C703.9 57.9 705.2 55 704.3 51C707.2 54.8 709.8 58.1 712.1 61.5C712.7 62.3 713 63.8 712.7 64.7C710.8 70.3 712.5 74.6 716.7 78.4C723 84.1 729 90.2 735.6 95.6C739.7 99 741.9 102.5 741 107.8C740.8 109.2 741 110.7 741 113.4C743.2 112.4 745.1 112.1 746.2 110.9C754.2 102.6 762 94.1 769.9 85.6C771 84.4 772 83 773 81.8C776 78.4 780.2 78.1 783.2 81.5C790.3 89.5 797.5 97.3 804 105.7C805.5 107.6 804.7 111.5 804.2 114.4C803.8 116.8 803.6 118 806.3 119.4C807.8 120.2 808.1 123.7 808.2 126.1C808.5 131.9 808.9 132.4 815.1 132.2C815.3 132 815.7 131.7 815.7 131.4C816.6 123.6 816.6 123.6 824.8 123.6C830.1 123.6 835.4 123.6 840.4 123.6C840.8 122.9 841.1 122.6 841.1 122.3C841.6 114.6 841.6 114.6 849.7 114.6C856.3 114.6 863 114.6 870.2 114.6C869 91.7 880.2 72.4 884.9 51.3C885.3 51.4 885.8 51.5 886.2 51.5C890.1 64.2 894.1 76.8 897.8 89.5C898.8 93.1 900.7 94.2 904.2 94.1C911.7 93.9 919.2 94.2 926.7 94C930.4 93.9 931.6 95.1 931.6 98.8C931.5 105.4 931.7 105.4 938.1 105.4C947.7 105.4 947.7 105.4 950.9 94.3C953.4 85.6 956 77 959.2 68.2C964 84.9 972.8 100.5 971.2 119.4C977.2 119.4 983.4 120.8 988.2 118.9C991.8 117.5 994.1 112 996 107.8C997.1 105.5 996.9 103.4 1000.3 103C1003 102.7 1006.2 93.7 1005.1 90.6C1004.3 88.3 1003.1 86.1 1002.6 83.7C1001.5 78.5 1002.6 73.7 1005.7 69.3C1010 63.2 1013.8 56.8 1017.8 50.5C1018.3 49.7 1018.3 48.6 1018.4 47.7C1019 39 1019.3 30.2 1020.3 21.5C1021.1 14.3 1022.8 7.1 1025.1 0C1026.5 8.8 1027.9 17.5 1029.1 26.3C1029.7 30.2 1030.1 34.2 1030.2 38.2C1030.4 44.9 1029.7 51.2 1035.6 56.8C1040 60.9 1043.2 67.2 1045.1 73C1046.6 77.4 1046.4 83.1 1044.8 87.5C1042.7 93.1 1044.6 97.4 1046.5 102C1046.8 102.7 1048.1 103.3 1049 103.3C1051.5 103.5 1052.8 104.3 1053.1 107.1C1053.2 108.2 1055.7 109.8 1057.1 109.8C1066.3 110.1 1075.4 109.9 1084.6 109.9C1085.9 109.9 1088.1 109.5 1088.5 110.2C1093.1 117.8 1098.9 110.6 1104 111.6C1104.3 111.7 1104.6 111.6 1105 111.6C1106.8 116.5 1111.1 116.5 1115.5 113.9C1121.8 110.1 1117 104.3 1119.6 99.8C1135.3 99.8 1151.2 99.8 1167.5 99.8C1167.6 101.8 1167.7 103.6 1167.8 105.3C1168 110 1169.9 111.2 1174.1 108.8C1180.3 105.2 1183.4 99.8 1183.1 92.1C1189.9 92.1 1196.6 92.1 1201.8 92.1C1204.9 98.3 1207.5 103.6 1210.1 109C1210.8 108.8 1211.5 108.6 1212.1 108.4C1215.1 102.9 1212.1 96.6 1214 90.6C1216.1 90.5 1218.1 89.3 1219.1 93C1219.9 96 1223.5 95.8 1225.6 93.2C1227.2 91.2 1229.2 89.4 1232 86.5C1232 84.2 1232 80.3 1232 76.9C1239.2 70.2 1246.2 70.8 1252.4 76.1C1253.2 81 1253.1 86.2 1255.3 90.1C1256.3 91.9 1259 98.7 1264.6 93.8C1264.1 92.5 1263.5 91 1262.7 89.2C1264.2 89.1 1265.2 89 1266.7 88.8C1267.5 94.8 1268.3 100.6 1269.1 106.5C1271.1 105.3 1273.2 104 1275.7 102.5C1277.3 99.5 1272.9 93.4 1279.4 92C1283.3 91.2 1287.5 91.9 1291.7 92C1291.5 97.9 1289.7 102.6 1295 105.8C1299 108.2 1302.2 107.7 1304 103.4C1305.2 100.7 1306.1 97.9 1307.1 95.1C1308.3 91.6 1315.6 89.3 1319.4 91.3C1320.8 92 1322.1 92.9 1322.3 93C1323.8 97.7 1324.7 101.6 1326.4 105.1C1327.4 107.2 1329.4 108.2 1331.2 105C1331.8 103.9 1333.9 103.6 1335.7 102.8C1335.7 99.9 1335.7 96.8 1335.7 94C1340.9 89.1 1346.1 90.1 1351.3 93.8C1350.6 105.1 1350.5 102.7 1357.1 106.5C1357.2 103.6 1357.6 101.1 1357.4 98.5C1357.2 94.8 1358.9 93.4 1362.4 93.5C1365.7 93.6 1369 93.5 1372.3 93.5C1372.7 91.4 1373 90 1373.5 87.4C1377.1 91.1 1379 96.9 1385 94.1C1387.4 104.2 1390.3 106.1 1398.6 103C1398.6 100.5 1398.6 97.9 1398.6 94.7C1403.5 93.4 1408.3 91 1413.1 91C1417.8 91 1422.5 93.5 1427.5 95C1427.5 96.8 1427.5 98.7 1427.5 100.7C1427.4 103.2 1428.1 104.4 1430.8 105.8C1435 107.9 1438.7 111.3 1441.8 114.8C1443.2 116.4 1442.5 119.9 1442.5 122.5C1442.6 127.3 1442.5 132.1 1442.5 138.3C1445.6 135.9 1447.9 134.5 1449.7 132.5C1452.6 129.2 1455.2 129.7 1458 132.5C1459.1 133.5 1460.4 134.3 1462.8 136.1C1462.8 130.1 1462.8 125.6 1462.8 121C1462.8 115.9 1462.8 110.7 1462.8 105.6C1462.8 102.3 1462.2 98.8 1466.8 97.6C1467.4 97.4 1467.8 95.7 1468 94.7C1469.4 81.2 1470.7 67.7 1472 54.2C1472.1 53.4 1472.3 52.6 1473.4 51.5C1473.9 52.6 1474.6 53.7 1474.8 54.9C1476.2 68.1 1477.4 81.2 1478.8 94.4C1478.9 95.5 1479.2 97.3 1479.8 97.4C1485.3 98.7 1484 103 1484.1 106.6C1484.2 115.3 1484.1 124.1 1484.1 132.8C1484.5 133 1484.9 133.3 1485.4 133.5C1489.9 129.7 1494.4 125.9 1499 122.3C1505.4 117.3 1503.4 116.1 1510.3 122.2C1516.3 127.5 1522.6 132.5 1528.4 138C1534.2 143.4 1539.7 149.3 1546.6 154.7C1546.8 150.6 1547 146.5 1547.2 142C1554.7 142 1562.1 142 1570.2 142C1570.2 144.6 1569.8 147.3 1570.3 149.8C1570.6 151.3 1572.3 152.5 1573.3 153.9C1574.2 152.6 1575.8 151.3 1575.9 149.9C1576.2 142.1 1576 134.3 1576 125.4C1579.7 125.4 1583.3 125.2 1586.9 125.4C1590.4 125.6 1592.5 124.5 1594.3 121.2C1598.2 113.8 1602.6 106.8 1606.9 99.6C1607.5 98.6 1608.4 97.7 1609.2 96.7C1619.1 109 1624 124.3 1638 133.7C1635.4 134.1 1633.7 134.4 1632 134.7C1630.4 141 1630.8 141.5 1636.8 141.5C1652.3 141.5 1667.8 141.5 1683.3 141.5C1684.9 141.5 1686.6 141.3 1688.8 141.2C1688.8 130 1689.1 119.1 1688.7 108.2C1688.5 103.4 1689.9 100.5 1694.6 99.2C1703.4 96.7 1706.2 90.4 1707.4 81.7C1709.9 63.3 1713.7 45 1717.8 26.6C1718.3 28.8 1719.1 30.9 1719.4 33.1C1720.3 41.1 1721 49.2 1721.9 57.3C1723.1 68.3 1724.3 79.3 1725.9 90.2C1726.1 91.8 1728.3 94 1729.9 94.4C1740.2 96.7 1743.7 102.9 1742 113C1741.5 115.9 1742.1 119 1741.9 121.9C1741.6 125.4 1742.7 127.1 1746.6 126.9C1750.7 126.6 1755 127.2 1759.1 126.6C1760.9 126.4 1763.1 124.4 1763.8 122.7C1765.7 117.9 1767 112.9 1769.2 107.8C1775.3 120.7 1778.6 134.6 1781.3 148.6C1782.2 148.3 1783.1 148.1 1784 147.8C1784.1 146.2 1784.3 144.6 1784.3 143C1784.3 127.9 1784.2 112.8 1784.4 97.7C1784.4 95 1785.7 92.3 1786.6 89.7C1786.7 89.5 1789.1 90 1790.2 90.5C1791.1 90.9 1791.7 91.8 1792.5 92.5C1793.3 91.6 1794.4 90.8 1794.9 89.7C1797.6 83.4 1800.1 77.1 1803.2 69.7C1806.2 76.9 1808.8 83 1811.3 89.1C1812.7 92.5 1814 95.4 1816.8 89.9C1817.1 89.3 1819.7 89.2 1819.8 89.5C1820.7 91.9 1821.9 94.4 1821.9 96.9C1822.1 115.1 1822 133.3 1822 152.3C1826.1 152.3 1830.4 152.3 1834.6 152.3C1839.8 152.3 1844 156.3 1844.5 161.4C1844.6 162.7 1845.6 163.8 1846.2 165C1847.2 164.1 1848.3 163.2 1849.3 162.4C1851.4 160.9 1853.4 159.2 1855.6 157.9C1859.1 155.9 1868.7 158.2 1872.1 160.7C1873.8 161.9 1877.2 162.1 1879.1 161.2C1881.4 160.1 1883.4 157.5 1884.4 155.1C1885.2 153.2 1884.4 150.5 1884.5 148.2C1884.6 146.6 1884.8 144.6 1885.7 143.6C1889.2 139.8 1892.6 135.7 1896.9 133.1C1900.2 131 1900.8 128.9 1900.9 125.5C1901 122.9 1902 120.2 1902.5 117.6C1903.3 117.6 1904.1 117.7 1904.9 117.7C1905.4 120.8 1905.6 123.9 1906.5 126.9C1907.1 129 1908.4 131.2 1909.9 132.8C1912.7 135.8 1915.8 138.5 1918.8 141.4C1919.1 158.7 1919.1 176.6 1919.1 194.5ZM1240.3 106.7C1243.3 106.3 1246.5 106.7 1248.3 105.2C1249.5 104.2 1249.5 99.5 1248.3 98.5C1246.6 97 1243.3 97.3 1240.2 96.8C1240.3 100.4 1240.3 103.1 1240.3 106.7ZM1190.1 141.9C1190.7 142.4 1191.3 142.8 1192 143.3C1193.8 142.4 1196.9 141.8 1197.2 140.6C1197.9 137.9 1197.4 134.8 1196.8 132C1196.7 131.4 1192.1 131.2 1192 131.4C1191.1 134.8 1190.6 138.4 1190.1 141.9ZM1181.3 143.2C1181.3 138.6 1181.3 135.1 1181.3 130.6C1179 131.2 1175.8 131.4 1175.6 132.2C1174.9 135 1174.8 138.1 1175.6 140.8C1175.9 142 1178.9 142.3 1181.3 143.2ZM1254.6 134.4C1256.5 136.8 1257.7 139.8 1259.2 140C1263.3 140.6 1263 137 1263 134.2C1263 131.4 1263.4 127.8 1259.2 128.6C1257.6 128.9 1256.5 131.9 1254.6 134.4ZM1147.2 125.5C1144.9 123.2 1143.5 120.6 1141.8 120.3C1138 119.7 1138.5 123.1 1138.5 125.5C1138.5 128 1138.1 131.6 1142.1 131.1C1143.7 130.9 1144.9 128.1 1147.2 125.5ZM1426.5 127.1C1428.8 126.4 1432 126.2 1432.2 125.3C1432.9 122.8 1432.8 119.7 1432.1 117.2C1431.8 116.2 1428.7 116.1 1426.5 115.4C1426.5 119.7 1426.5 122.9 1426.5 127.1ZM620.7 117.5C620.7 121 620.6 124.6 620.8 128.2C620.9 129.2 622 130.2 622.6 131.1C623.7 130.1 625.4 129.2 625.7 128C626.2 125.6 625.8 123.1 625.9 120.6C625.9 117.2 624.2 116.4 620.7 117.5ZM631.6 117.4C631.6 121.1 631.4 124.5 631.7 127.9C631.8 129 633.1 130 633.8 131.1C634.8 130 636.4 129 636.6 127.8C637.1 125.6 636.7 123.2 636.8 120.9C637 117.6 635.6 116.3 631.6 117.4ZM1161.3 125.5C1159.4 123.2 1158.3 120.5 1156.8 120.3C1152.7 119.8 1154 123.4 1153.9 125.6C1153.9 127.9 1153 131.4 1156.8 131C1158.2 130.9 1159.4 128 1161.3 125.5ZM1389.6 132.5C1389.9 135.9 1390 139.4 1390.6 142.8C1390.6 143 1393.5 142.8 1394.9 142.8C1395.7 132.1 1395.6 131.9 1389.6 132.5ZM1362.7 142.5C1364.4 142.5 1366 142.5 1367.5 142.5C1367.5 138.8 1367.5 135.4 1367.5 131.7C1365.7 131.8 1364.3 131.9 1362.7 132.1C1362.7 135.7 1362.7 138.9 1362.7 142.5ZM91.1 159.2C91.1 160.3 90.8 161.6 91.2 162.6C91.6 163.8 92.5 164.9 93.2 166C94 165 95.3 164 95.5 162.8C95.9 160.6 95.8 158.2 95.5 155.9C95.4 155 94 154.3 93.2 153.5C92.5 154.2 91.5 154.8 91.3 155.7C90.8 156.8 91.1 158.1 91.1 159.2ZM99.1 165.6C99.8 165.8 100.5 165.9 101.2 166.1C105.4 163.8 103 159.4 103.4 156C103.5 155.3 102.2 154.5 101.6 153.7C100.8 154.5 99.3 155.2 99.3 156C99 159.2 99.1 162.4 99.1 165.6ZM1289.6 145.4C1292.2 144.2 1294.6 143.8 1295.3 142.6C1296.1 141.1 1296 138.4 1295.1 137.1C1294.3 136 1291.8 136 1289.6 135.3C1289.6 138.8 1289.6 141.4 1289.6 145.4ZM1225.3 118.4C1229.1 119 1231.8 119.3 1232 114.9C1232.1 112 1230.6 110.7 1228.1 111C1222.9 111.8 1226.4 115.7 1225.3 118.4ZM1256.4 118.4C1260.4 119.1 1263.6 119 1262.8 114.5C1262.6 113.1 1260 110.9 1258.8 111.1C1254 112 1257 115.7 1256.4 118.4ZM1908.1 173.3C1906.9 170.4 1906.2 168.1 1905 166.1C1904.8 165.7 1902.4 165.6 1902.1 166.1C1900.9 168.1 1900.1 170.4 1898.7 173.3C1902.3 173.3 1904.4 173.3 1908.1 173.3ZM1198.3 122.6C1197.5 120.1 1197.2 118.1 1196.1 116.8C1195.5 116.1 1192.7 116.2 1192.1 117C1191 118.3 1190.9 120.3 1190.3 122.6C1193.1 122.6 1195 122.6 1198.3 122.6ZM1427.5 145.3C1428.6 147.1 1429.5 148.5 1430.4 150C1431.3 148.4 1432.8 146.8 1432.8 145.2C1432.8 143.6 1431.2 142 1430.3 140.5C1429.4 141.9 1428.6 143.4 1427.5 145.3ZM1899.4 156.9C1895 156.9 1891.1 156.9 1886.6 156.9C1886.7 157.9 1886.9 159.2 1886.9 159.8C1891.4 159.8 1895.3 159.8 1899.6 159.8C1899.6 159.1 1899.5 157.9 1899.4 156.9ZM1361.5 125C1364.6 124.4 1367 124.6 1367.6 123.7C1368.4 122.5 1368 120.3 1367.4 118.7C1367.2 118.2 1364.3 117.7 1364.1 118.1C1363.2 119.7 1362.7 121.7 1361.5 125ZM1609.2 118.5C1610.9 120.3 1611.9 121.5 1612.9 122.6C1613.8 121.3 1615.4 120 1615.5 118.6C1615.6 117.6 1613.9 116.4 1613 115.3C1612 116.1 1611 117 1609.2 118.5ZM183.4 150.9C182.7 151.6 181.9 152.3 181.2 153.1C182.3 154.8 183.4 156.5 184.5 158.2C185.5 156.9 187.6 155.2 187.3 154.3C186.9 152.9 184.8 152 183.4 150.9ZM125.6 159.2C125.6 160.5 125.4 161.9 125.7 163.1C126 164.2 126.9 165.1 127.5 166C128.1 165 129.1 164 129.3 163C129.6 160.7 129.5 158.4 129.3 156.1C129.2 155.2 128.3 154.5 127.7 153.6C127 154.5 126.1 155.2 125.7 156.2C125.3 157.2 125.6 158.2 125.6 159.2ZM1910.6 160.2C1910.1 158.8 1909.9 156.9 1909.2 156.8C1906.7 156.2 1904.2 156 1901.6 156C1901.3 156 1901.1 158.7 1900.8 160.2C1904.2 160.2 1906.9 160.2 1910.6 160.2ZM1609.3 119.2C1607.8 117.4 1606.9 116.3 1605.9 115.3C1605 116.3 1603.3 117.3 1603.3 118.3C1603.3 119.7 1604.4 121.2 1605.1 122.6C1606.3 121.6 1607.5 120.7 1609.3 119.2ZM1383.4 124.1C1382.1 121.6 1381.1 119.6 1380.1 117.7C1379.1 118.9 1377.6 120.1 1377.4 121.4C1376.8 124.8 1379.1 125 1383.4 124.1ZM1625.1 135.4C1625.1 133.1 1625.1 131.4 1625.1 129.4C1622.4 129.1 1620.2 128.9 1620.3 132.5C1620.3 136.1 1622.3 136 1625.1 135.4ZM171.8 152.4C171 151.9 170.3 151.4 169.5 150.9C168.4 152.2 166.7 153.4 166.5 154.8C166.4 155.8 168.5 157 169.6 158.1C170.4 156.2 171.1 154.3 171.8 152.4ZM176.1 151C175.4 151.5 174.8 152 174.1 152.4C175 154.3 175.8 156.2 176.7 158.1C177.6 156.9 179.5 155.5 179.3 154.4C179.1 153.2 177.2 152.2 176.1 151ZM1599.3 132.6C1597.8 131 1596.9 130.1 1596.1 129.3C1595.3 130.4 1593.9 131.5 1593.7 132.7C1593.6 133.6 1595 134.7 1595.8 135.8C1596.8 134.9 1597.8 134 1599.3 132.6ZM1284.7 128C1286.1 125.7 1287.2 124.8 1287.1 123.9C1287 122.8 1285.9 121.8 1285.3 120.7C1284.5 121.5 1283.1 122.2 1283 123C1282.8 124.2 1283.7 125.4 1284.7 128Z" fill="url(#paint0_linear_534_2569)"/>
<rect y="194" width="1919" height="179" fill="url(#paint1_linear_534_2569)"/>
<defs>
<linearGradient id="paint0_linear_534_2569" x1="1023.5" y1="15" x2="1029.5" y2="356" gradientUnits="userSpaceOnUse">
<stop stop-color="#4E6471"/>
<stop offset="0.427686" stop-color="#012A40"/>
</linearGradient>
<linearGradient id="paint1_linear_534_2569" x1="1012" y1="194" x2="1014.91" y2="414.742" gradientUnits="userSpaceOnUse">
<stop stop-color="#012A40"/>
<stop offset="0.649266"/>
</linearGradient>
</defs>
</svg>
