<svg width="1920" height="196" viewBox="0 0 1920 196" fill="none" xmlns="http://www.w3.org/2000/svg">
<path d="M1919.55 195.3C1917.05 195.3 1914.55 195.3 1912.05 195.3C1277.55 195.3 643.05 195.3 8.54995 195.3C6.04995 195.3 3.54995 195.3 0.749951 195.3C0.649951 193.6 0.449951 192.2 0.449951 190.7C0.449951 161.5 0.449951 132.3 0.449951 103.1C0.449951 97.6001 1.74995 96.8 7.04995 98.4C13.05 100.2 18.95 102.2 24.95 103.6C28.45 104.4 29.55 106.1 29.45 109.5C29.25 118.8 29.35 128 29.35 138.7C38.65 134.7 47.15 131.1 56.35 127.2C56.35 131 56.35 134.2 56.35 137.3C63.35 138.1 67.15 135.3 66.85 129.4C66.0499 115.3 69.8499 102 72.6499 88.4C74.6499 78.7001 76.45 68.9 78.35 59.2001C78.45 58.4001 78.7499 57.7 79.5499 56.9C84.2499 82.1001 94.95 106.2 93.1499 133.4C98.2499 131.4 102.55 129.6 107.45 127.6C107.65 132.2 107.85 136.3 108.15 141.3C117.85 137.2 126.65 133.4 136.25 129.3C136.45 133.9 136.65 137.6 136.85 141.7C145.35 141.7 153.55 142 161.65 141.5C163.65 141.4 166.05 138.9 167.35 136.9C170.35 132.6 172.65 127.9 175.35 123.4C176.05 122.2 176.95 121.2 177.75 120.1C183.95 129.1 189.95 137.8 195.55 146C194.65 147.9 193.75 149.9 192.55 152.3C198.55 153.1 203.35 153.9 208.25 154.2C213.75 154.6 214.75 153.4 214.75 148.1C214.75 141.8 214.65 135.5 214.75 129.2C214.95 111.6 215.05 94 215.65 76.5C215.75 74 217.55 71.0001 219.55 69.2001C225.05 64.1001 227.35 58.3 226.35 50.7001C225.95 47.8 227.85 44.5 228.75 41.5C229.45 39.3 230.35 37.1 231.65 33.4C232.65 36.4 233.35 38.2 233.85 40.1C234.95 44.6 237.25 49.2 236.85 53.6C236.25 60.5 239.75 64.7 243.85 68.9C246.55 71.6 247.55 74.4 247.45 78.4C247.35 86.8 248.15 95.2001 248.65 103.6C248.75 104.8 249.35 105.9 250.05 108.5C258.05 97.8 265.35 88.1 272.95 77.9C280.95 88.5 288.55 98.6001 296.15 108.8C296.65 108.8 297.05 108.7 297.55 108.7C298.15 105.6 299.05 102.5 299.45 99.4C299.75 97.1 299.75 94.7001 299.45 92.4C298.25 82.4 300.05 73.6001 308.35 66.8C309.55 65.8 309.75 63.3 310.05 61.4C310.95 56 311.55 50.6001 312.55 45.2001C313.05 42.7001 314.15 40.4001 315.05 37.7001C315.55 38.6001 316.35 39.4 316.65 40.4C318.55 47.8 322.15 54.7001 321.25 62.8C320.95 65.3 323.75 68.7001 325.95 70.8C330.15 74.8 331.55 79.1 331.55 85C331.45 99.2 332.35 113.4 333.25 127.6C333.35 129.7 335.65 131.7 336.95 133.8C337.05 133.9 337.15 134.1 337.25 134.2C347.75 140.8 347.75 140.9 357.25 132.9C359.25 131.2 360.55 130.6 362.65 132.7C365.35 135.3 368.65 137.3 371.35 139.9C374.45 142.8 377.15 143.3 380.35 140C382.05 138.2 384.15 136.8 386.45 134.9C390.45 138.6 394.15 142.5 398.35 145.8C400.65 147.6 403.65 148.9 406.55 149.2C411.45 149.8 416.45 149.4 422.15 149.4C422.15 147 422.15 145.3 422.15 143.5C422.15 129.1 422.25 114.6 422.05 100.2C421.95 96.9 423.25 94.9001 425.95 93.6001C431.95 90.7001 438.05 87.7001 444.55 84.6001C450.35 89.7001 456.45 94.8 462.25 100.3C463.45 101.4 463.95 103.8 463.95 105.6C464.15 114.7 464.15 123.9 463.95 133C463.85 136.4 464.95 137.8 468.45 137.8C472.05 137.8 472.95 136.2 472.85 132.9C472.65 124.1 472.75 115.4 472.75 106.2C477.05 106.2 481.95 104.8 484.55 106.6C486.65 108.1 485.95 113.5 486.55 117.9C488.55 116.6 490.95 115.7 492.45 114.1C496.15 110 500.45 110.8 504.65 112C513.15 114.5 514.55 114.3 519.35 107.3C522.85 102.3 526.25 97.3 529.65 92.4C530.65 91 531.85 89.7001 533.35 87.9C539.75 97.4 545.75 106.2 552.05 115.6C558.95 107.2 565.55 99.2001 572.55 90.8C575.95 94.6001 579.05 98.1001 582.05 101.7C586.45 106.9 586.55 107.1 592.45 103.4C604.05 96.1 615.55 88.6001 627.15 81.1001C627.55 80.8 628.05 80.7 628.55 80.5C638.65 88.6 648.75 96.7001 658.85 104.7C663.45 108.4 668.75 106.6 672.15 102C675.15 97.8 679.55 94.7001 683.45 91.2001C687.65 87.3 691.55 83.0001 696.25 79.7001C701.55 76.0001 701.05 71.5 700.15 66.3C699.85 64.6 699.95 61.8 701.05 61C704.35 58.7001 705.65 55.8 704.75 51.8C707.65 55.6 710.25 58.9 712.55 62.3C713.15 63.1 713.45 64.6 713.15 65.5C711.25 71.1 712.95 75.4 717.15 79.2001C723.45 84.9 729.45 91 736.05 96.4C740.15 99.8 742.35 103.3 741.45 108.6C741.25 110 741.45 111.5 741.45 114.2C743.65 113.2 745.55 112.9 746.65 111.7C754.65 103.4 762.45 94.9 770.35 86.4C771.45 85.2001 772.45 83.8 773.45 82.6001C776.45 79.2001 780.65 78.9 783.65 82.3C790.75 90.3 797.95 98.1 804.45 106.5C805.95 108.4 805.15 112.3 804.65 115.2C804.25 117.6 804.05 118.8 806.75 120.2C808.25 121 808.55 124.5 808.65 126.9C808.95 132.7 809.35 133.2 815.55 133C815.75 132.8 816.15 132.5 816.15 132.2C817.05 124.4 817.05 124.4 825.25 124.4C830.55 124.4 835.85 124.4 840.85 124.4C841.25 123.7 841.55 123.4 841.55 123.1C842.05 115.4 842.05 115.4 850.15 115.4C856.75 115.4 863.45 115.4 870.65 115.4C869.45 92.5 880.65 73.2001 885.35 52.1C885.75 52.2 886.25 52.3 886.65 52.3C890.55 65 894.55 77.6001 898.25 90.3C899.25 93.9 901.15 95 904.65 94.9C912.15 94.7001 919.65 95 927.15 94.8C930.85 94.7001 932.05 95.9001 932.05 99.6001C931.95 106.2 932.15 106.2 938.55 106.2C948.15 106.2 948.15 106.2 951.35 95.1001C953.85 86.4001 956.45 77.8 959.65 69C964.45 85.7 973.25 101.3 971.65 120.2C977.65 120.2 983.85 121.6 988.65 119.7C992.25 118.3 994.55 112.8 996.45 108.6C997.55 106.3 997.35 104.2 1000.75 103.8C1003.45 103.5 1006.65 94.5 1005.55 91.4C1004.75 89.1 1003.55 86.9 1003.05 84.5C1001.95 79.3 1003.05 74.5001 1006.15 70.1001C1010.45 64.0001 1014.25 57.6 1018.25 51.3C1018.75 50.5 1018.75 49.4001 1018.85 48.5C1019.45 39.8 1019.75 31 1020.75 22.3C1021.55 15.1 1023.25 7.90005 1025.55 0.800049C1026.95 9.60005 1028.35 18.3 1029.55 27.1C1030.15 31 1030.55 35 1030.65 39C1030.85 45.7001 1030.15 52 1036.05 57.6C1040.45 61.7 1043.65 68 1045.55 73.8C1047.05 78.2001 1046.85 83.9 1045.25 88.3C1043.15 93.9 1045.05 98.2001 1046.95 102.8C1047.25 103.5 1048.55 104.1 1049.45 104.1C1051.95 104.3 1053.25 105.1 1053.55 107.9C1053.65 109 1056.15 110.6 1057.55 110.6C1066.75 110.9 1075.85 110.7 1085.05 110.7C1086.35 110.7 1088.55 110.3 1088.95 111C1093.55 118.6 1099.35 111.4 1104.45 112.4C1104.75 112.5 1105.05 112.4 1105.45 112.4C1107.25 117.3 1111.55 117.3 1115.95 114.7C1122.25 110.9 1117.45 105.1 1120.05 100.6C1135.75 100.6 1151.65 100.6 1167.95 100.6C1168.05 102.6 1168.15 104.4 1168.25 106.1C1168.45 110.8 1170.35 112 1174.55 109.6C1180.75 106 1183.85 100.6 1183.55 92.9C1190.35 92.9 1197.05 92.9 1202.25 92.9C1205.35 99.1 1207.95 104.4 1210.55 109.8C1211.25 109.6 1211.95 109.4 1212.55 109.2C1215.55 103.7 1212.55 97.4 1214.45 91.4C1216.55 91.3 1218.55 90.1001 1219.55 93.8C1220.35 96.8 1223.95 96.6 1226.05 94C1227.65 92 1229.65 90.2001 1232.45 87.3C1232.45 85 1232.45 81.1001 1232.45 77.7001C1239.65 71.0001 1246.65 71.6 1252.85 76.9C1253.65 81.8 1253.55 87 1255.75 90.9C1256.75 92.7001 1259.45 99.5001 1265.05 94.6001C1264.55 93.3 1263.95 91.8 1263.15 90C1264.65 89.9 1265.65 89.8 1267.15 89.6001C1267.95 95.6001 1268.75 101.4 1269.55 107.3C1271.55 106.1 1273.65 104.8 1276.15 103.3C1277.75 100.3 1273.35 94.2001 1279.85 92.8C1283.75 92 1287.95 92.7001 1292.15 92.8C1291.95 98.7001 1290.15 103.4 1295.45 106.6C1299.45 109 1302.65 108.5 1304.45 104.2C1305.65 101.5 1306.55 98.7001 1307.55 95.9C1308.75 92.4 1316.05 90.1001 1319.85 92.1001C1321.25 92.8 1322.55 93.7001 1322.75 93.8C1324.25 98.5 1325.15 102.4 1326.85 105.9C1327.85 108 1329.85 109 1331.65 105.8C1332.25 104.7 1334.35 104.4 1336.15 103.6C1336.15 100.7 1336.15 97.6001 1336.15 94.8C1341.35 89.9 1346.55 90.9001 1351.75 94.6001C1351.05 105.9 1350.95 103.5 1357.55 107.3C1357.65 104.4 1358.05 101.9 1357.85 99.3C1357.65 95.6001 1359.35 94.2001 1362.85 94.3C1366.15 94.4 1369.45 94.3 1372.75 94.3C1373.15 92.2001 1373.45 90.8 1373.95 88.2001C1377.55 91.9 1379.45 97.7001 1385.45 94.9C1387.85 105 1390.75 106.9 1399.05 103.8C1399.05 101.3 1399.05 98.7 1399.05 95.5C1403.95 94.2 1408.75 91.8 1413.55 91.8C1418.25 91.8 1422.95 94.3 1427.95 95.8C1427.95 97.6001 1427.95 99.5 1427.95 101.5C1427.85 104 1428.55 105.2 1431.25 106.6C1435.45 108.7 1439.15 112.1 1442.25 115.6C1443.65 117.2 1442.95 120.7 1442.95 123.3C1443.05 128.1 1442.95 132.9 1442.95 139.1C1446.05 136.7 1448.35 135.3 1450.15 133.3C1453.05 130 1455.65 130.5 1458.45 133.3C1459.55 134.3 1460.85 135.1 1463.25 136.9C1463.25 130.9 1463.25 126.4 1463.25 121.8C1463.25 116.7 1463.25 111.5 1463.25 106.4C1463.25 103.1 1462.65 99.6 1467.25 98.4C1467.85 98.2001 1468.25 96.5 1468.45 95.5C1469.85 82 1471.15 68.5 1472.45 55C1472.55 54.2001 1472.75 53.4 1473.85 52.3C1474.35 53.4 1475.05 54.5 1475.25 55.7001C1476.65 68.9 1477.85 82.0001 1479.25 95.2001C1479.35 96.3 1479.65 98.1001 1480.25 98.2001C1485.75 99.5001 1484.45 103.8 1484.55 107.4C1484.65 116.1 1484.55 124.9 1484.55 133.6C1484.95 133.8 1485.35 134.1 1485.85 134.3C1490.35 130.5 1494.85 126.7 1499.45 123.1C1505.85 118.1 1503.85 116.9 1510.75 123C1516.75 128.3 1523.05 133.3 1528.85 138.8C1534.65 144.2 1540.15 150.1 1547.05 155.5C1547.25 151.4 1547.45 147.3 1547.65 142.8C1555.15 142.8 1562.55 142.8 1570.65 142.8C1570.65 145.4 1570.25 148.1 1570.75 150.6C1571.05 152.1 1572.75 153.3 1573.75 154.7C1574.65 153.4 1576.25 152.1 1576.35 150.7C1576.65 142.9 1576.45 135.1 1576.45 126.2C1580.15 126.2 1583.75 126 1587.35 126.2C1590.85 126.4 1592.95 125.3 1594.75 122C1598.65 114.6 1603.05 107.6 1607.35 100.4C1607.95 99.4 1608.85 98.5 1609.65 97.5C1619.55 109.8 1624.45 125.1 1638.45 134.5C1635.85 134.9 1634.15 135.2 1632.45 135.5C1630.85 141.8 1631.25 142.3 1637.25 142.3C1652.75 142.3 1668.25 142.3 1683.75 142.3C1685.35 142.3 1687.05 142.1 1689.25 142C1689.25 130.8 1689.55 119.9 1689.15 109C1688.95 104.2 1690.35 101.3 1695.05 100C1703.85 97.5 1706.65 91.2 1707.85 82.5C1710.35 64.1 1714.15 45.8 1718.25 27.4C1718.75 29.6 1719.55 31.7 1719.85 33.9C1720.75 41.9 1721.45 50 1722.35 58.1C1723.55 69.1001 1724.75 80.1 1726.35 91C1726.55 92.6 1728.75 94.8 1730.35 95.2001C1740.65 97.5001 1744.15 103.7 1742.45 113.8C1741.95 116.7 1742.55 119.8 1742.35 122.7C1742.05 126.2 1743.15 127.9 1747.05 127.7C1751.15 127.4 1755.45 128 1759.55 127.4C1761.35 127.2 1763.55 125.2 1764.25 123.5C1766.15 118.7 1767.45 113.7 1769.65 108.6C1775.75 121.5 1779.05 135.4 1781.75 149.4C1782.65 149.1 1783.55 148.9 1784.45 148.6C1784.55 147 1784.75 145.4 1784.75 143.8C1784.75 128.7 1784.65 113.6 1784.85 98.5C1784.85 95.8 1786.15 93.1 1787.05 90.5C1787.15 90.3 1789.55 90.8 1790.65 91.3C1791.55 91.7001 1792.15 92.6001 1792.95 93.3C1793.75 92.4 1794.85 91.6 1795.35 90.5C1798.05 84.2 1800.55 77.9 1803.65 70.5C1806.65 77.7 1809.25 83.8 1811.75 89.9C1813.15 93.3 1814.45 96.2001 1817.25 90.7001C1817.55 90.1001 1820.15 90 1820.25 90.3C1821.15 92.7001 1822.35 95.2001 1822.35 97.7001C1822.55 115.9 1822.45 134.1 1822.45 153.1C1826.55 153.1 1830.85 153.1 1835.05 153.1C1840.25 153.1 1844.45 157.1 1844.95 162.2C1845.05 163.5 1846.05 164.6 1846.65 165.8C1847.65 164.9 1848.75 164 1849.75 163.2C1851.85 161.7 1853.85 160 1856.05 158.7C1859.55 156.7 1869.15 159 1872.55 161.5C1874.25 162.7 1877.65 162.9 1879.55 162C1881.85 160.9 1883.85 158.3 1884.85 155.9C1885.65 154 1884.85 151.3 1884.95 149C1885.05 147.4 1885.25 145.4 1886.15 144.4C1889.65 140.6 1893.05 136.5 1897.35 133.9C1900.65 131.8 1901.25 129.7 1901.35 126.3C1901.45 123.7 1902.45 121 1902.95 118.4C1903.75 118.4 1904.55 118.5 1905.35 118.5C1905.85 121.6 1906.05 124.7 1906.95 127.7C1907.55 129.8 1908.85 132 1910.35 133.6C1913.15 136.6 1916.25 139.3 1919.25 142.2C1919.55 159.5 1919.55 177.4 1919.55 195.3ZM1240.75 107.5C1243.75 107.1 1246.95 107.5 1248.75 106C1249.95 105 1249.95 100.3 1248.75 99.3C1247.05 97.8 1243.75 98.1001 1240.65 97.6001C1240.75 101.2 1240.75 103.9 1240.75 107.5ZM1190.55 142.7C1191.15 143.2 1191.75 143.6 1192.45 144.1C1194.25 143.2 1197.35 142.6 1197.65 141.4C1198.35 138.7 1197.85 135.6 1197.25 132.8C1197.15 132.2 1192.55 132 1192.45 132.2C1191.55 135.6 1191.05 139.2 1190.55 142.7ZM1181.75 144C1181.75 139.4 1181.75 135.9 1181.75 131.4C1179.45 132 1176.25 132.2 1176.05 133C1175.35 135.8 1175.25 138.9 1176.05 141.6C1176.35 142.8 1179.35 143.1 1181.75 144ZM1255.05 135.2C1256.95 137.6 1258.15 140.6 1259.65 140.8C1263.75 141.4 1263.45 137.8 1263.45 135C1263.45 132.2 1263.85 128.6 1259.65 129.4C1258.05 129.7 1256.95 132.7 1255.05 135.2ZM1147.65 126.3C1145.35 124 1143.95 121.4 1142.25 121.1C1138.45 120.5 1138.95 123.9 1138.95 126.3C1138.95 128.8 1138.55 132.4 1142.55 131.9C1144.15 131.7 1145.35 128.9 1147.65 126.3ZM1426.95 127.9C1429.25 127.2 1432.45 127 1432.65 126.1C1433.35 123.6 1433.25 120.5 1432.55 118C1432.25 117 1429.15 116.9 1426.95 116.2C1426.95 120.5 1426.95 123.7 1426.95 127.9ZM621.15 118.3C621.15 121.8 621.05 125.4 621.25 129C621.35 130 622.45 131 623.05 131.9C624.15 130.9 625.85 130 626.15 128.8C626.65 126.4 626.25 123.9 626.35 121.4C626.35 118 624.65 117.2 621.15 118.3ZM632.05 118.2C632.05 121.9 631.85 125.3 632.15 128.7C632.25 129.8 633.55 130.8 634.25 131.9C635.25 130.8 636.85 129.8 637.05 128.6C637.55 126.4 637.15 124 637.25 121.7C637.45 118.4 636.05 117.1 632.05 118.2ZM1161.75 126.3C1159.85 124 1158.75 121.3 1157.25 121.1C1153.15 120.6 1154.45 124.2 1154.35 126.4C1154.35 128.7 1153.45 132.2 1157.25 131.8C1158.65 131.7 1159.85 128.8 1161.75 126.3ZM1390.05 133.3C1390.35 136.7 1390.45 140.2 1391.05 143.6C1391.05 143.8 1393.95 143.6 1395.35 143.6C1396.15 132.9 1396.05 132.7 1390.05 133.3ZM1363.15 143.3C1364.85 143.3 1366.45 143.3 1367.95 143.3C1367.95 139.6 1367.95 136.2 1367.95 132.5C1366.15 132.6 1364.75 132.7 1363.15 132.9C1363.15 136.5 1363.15 139.7 1363.15 143.3ZM91.5499 160C91.5499 161.1 91.2499 162.4 91.6499 163.4C92.0499 164.6 92.95 165.7 93.6499 166.8C94.45 165.8 95.75 164.8 95.95 163.6C96.35 161.4 96.25 159 95.95 156.7C95.85 155.8 94.45 155.1 93.6499 154.3C92.95 155 91.95 155.6 91.75 156.5C91.25 157.6 91.5499 158.9 91.5499 160ZM99.5499 166.4C100.25 166.6 100.95 166.7 101.65 166.9C105.85 164.6 103.45 160.2 103.85 156.8C103.95 156.1 102.65 155.3 102.05 154.5C101.25 155.3 99.75 156 99.75 156.8C99.45 160 99.5499 163.2 99.5499 166.4ZM1290.05 146.2C1292.65 145 1295.05 144.6 1295.75 143.4C1296.55 141.9 1296.45 139.2 1295.55 137.9C1294.75 136.8 1292.25 136.8 1290.05 136.1C1290.05 139.6 1290.05 142.2 1290.05 146.2ZM1225.75 119.2C1229.55 119.8 1232.25 120.1 1232.45 115.7C1232.55 112.8 1231.05 111.5 1228.55 111.8C1223.35 112.6 1226.85 116.5 1225.75 119.2ZM1256.85 119.2C1260.85 119.9 1264.05 119.8 1263.25 115.3C1263.05 113.9 1260.45 111.7 1259.25 111.9C1254.45 112.8 1257.45 116.5 1256.85 119.2ZM1908.55 174.1C1907.35 171.2 1906.65 168.9 1905.45 166.9C1905.25 166.5 1902.85 166.4 1902.55 166.9C1901.35 168.9 1900.55 171.2 1899.15 174.1C1902.75 174.1 1904.85 174.1 1908.55 174.1ZM1198.75 123.4C1197.95 120.9 1197.65 118.9 1196.55 117.6C1195.95 116.9 1193.15 117 1192.55 117.8C1191.45 119.1 1191.35 121.1 1190.75 123.4C1193.55 123.4 1195.45 123.4 1198.75 123.4ZM1427.95 146.1C1429.05 147.9 1429.95 149.3 1430.85 150.8C1431.75 149.2 1433.25 147.6 1433.25 146C1433.25 144.4 1431.65 142.8 1430.75 141.3C1429.85 142.7 1429.05 144.2 1427.95 146.1ZM1899.85 157.7C1895.45 157.7 1891.55 157.7 1887.05 157.7C1887.15 158.7 1887.35 160 1887.35 160.6C1891.85 160.6 1895.75 160.6 1900.05 160.6C1900.05 159.9 1899.95 158.7 1899.85 157.7ZM1361.95 125.8C1365.05 125.2 1367.45 125.4 1368.05 124.5C1368.85 123.3 1368.45 121.1 1367.85 119.5C1367.65 119 1364.75 118.5 1364.55 118.9C1363.65 120.5 1363.15 122.5 1361.95 125.8ZM1609.65 119.3C1611.35 121.1 1612.35 122.3 1613.35 123.4C1614.25 122.1 1615.85 120.8 1615.95 119.4C1616.05 118.4 1614.35 117.2 1613.45 116.1C1612.45 116.9 1611.45 117.8 1609.65 119.3ZM183.85 151.7C183.15 152.4 182.35 153.1 181.65 153.9C182.75 155.6 183.85 157.3 184.95 159C185.95 157.7 188.05 156 187.75 155.1C187.35 153.7 185.25 152.8 183.85 151.7ZM126.05 160C126.05 161.3 125.85 162.7 126.15 163.9C126.45 165 127.35 165.9 127.95 166.8C128.55 165.8 129.55 164.8 129.75 163.8C130.05 161.5 129.95 159.2 129.75 156.9C129.65 156 128.75 155.3 128.15 154.4C127.45 155.3 126.55 156 126.15 157C125.75 158 126.05 159 126.05 160ZM1911.05 161C1910.55 159.6 1910.35 157.7 1909.65 157.6C1907.15 157 1904.65 156.8 1902.05 156.8C1901.75 156.8 1901.55 159.5 1901.25 161C1904.65 161 1907.35 161 1911.05 161ZM1609.75 120C1608.25 118.2 1607.35 117.1 1606.35 116.1C1605.45 117.1 1603.75 118.1 1603.75 119.1C1603.75 120.5 1604.85 122 1605.55 123.4C1606.75 122.4 1607.95 121.5 1609.75 120ZM1383.85 124.9C1382.55 122.4 1381.55 120.4 1380.55 118.5C1379.55 119.7 1378.05 120.9 1377.85 122.2C1377.25 125.6 1379.55 125.8 1383.85 124.9ZM1625.55 136.2C1625.55 133.9 1625.55 132.2 1625.55 130.2C1622.85 129.9 1620.65 129.7 1620.75 133.3C1620.75 136.9 1622.75 136.8 1625.55 136.2ZM172.25 153.2C171.45 152.7 170.75 152.2 169.95 151.7C168.85 153 167.15 154.2 166.95 155.6C166.85 156.6 168.95 157.8 170.05 158.9C170.85 157 171.55 155.1 172.25 153.2ZM176.55 151.8C175.85 152.3 175.25 152.8 174.55 153.2C175.45 155.1 176.25 157 177.15 158.9C178.05 157.7 179.95 156.3 179.75 155.2C179.55 154 177.65 153 176.55 151.8ZM1599.75 133.4C1598.25 131.8 1597.35 130.9 1596.55 130.1C1595.75 131.2 1594.35 132.3 1594.15 133.5C1594.05 134.4 1595.45 135.5 1596.25 136.6C1597.25 135.7 1598.25 134.8 1599.75 133.4ZM1285.15 128.8C1286.55 126.5 1287.65 125.6 1287.55 124.7C1287.45 123.6 1286.35 122.6 1285.75 121.5C1284.95 122.3 1283.55 123 1283.45 123.8C1283.25 125 1284.15 126.2 1285.15 128.8Z" fill="#050505"/>
</svg>
