<?xml version="1.0" encoding="UTF-8"?>
<!DOCTYPE svg PUBLIC "-//W3C//DTD SVG 1.1//EN" "http://www.w3.org/Graphics/SVG/1.1/DTD/svg11.dtd">
<!-- Creator: CorelDRAW -->
<svg xmlns="http://www.w3.org/2000/svg" xml:space="preserve" width="4.7222mm" height="26.8544mm" version="1.1" style="shape-rendering:geometricPrecision; text-rendering:geometricPrecision; image-rendering:optimizeQuality; fill-rule:evenodd; clip-rule:evenodd"
viewBox="0 0 472 2685"
 xmlns:xlink="http://www.w3.org/1999/xlink">
 <defs>
  <style type="text/css">
   <![CDATA[
    .fil0 {fill:black;fill-rule:nonzero}
   ]]>
  </style>
 </defs>
 <g id="Capa_x0020_1">
  <metadata id="CorelCorpID_0Corel-Layer"/>
  <g id="HP-19-7.eps">
   <path class="fil0" d="M192 855c0,0 7,-339 123,-533 117,-195 167,-255 21,-322 0,0 -195,354 -226,865 0,0 185,164 156,822l101 10c0,0 70,-539 -175,-842z"/>
   <path class="fil0" d="M409 1797c3,-46 -24,-86 -61,-89l-77 -5c-36,-3 -69,32 -72,78l-9 111c59,3 159,7 211,9l8 -104z"/>
   <path class="fil0" d="M351 2673l20 -234 11 246 85 -7c0,0 -8,-468 4,-598 11,-105 -70,-155 -70,-155l-217 -14c0,0 -74,14 -96,107 -45,187 -88,621 -88,621l55 19 38 -183 -6 191 60 2c0,0 65,-396 69,-401 3,-5 -49,412 -49,412l100 -3 38 -554 -10 563 56 -12z"/>
  </g>
 </g>
</svg>
