<?xml version="1.0" encoding="utf-8"?>
<!-- Generator: Adobe Illustrator 27.5.0, SVG Export Plug-In . SVG Version: 6.00 Build 0)  -->
<svg version="1.1" xmlns="http://www.w3.org/2000/svg" xmlns:xlink="http://www.w3.org/1999/xlink" x="0px" y="0px"
	 viewBox="0 0 500 500" style="enable-background:new 0 0 500 500;" xml:space="preserve">
<g id="BACKGROUND">
	<rect y="0" style="fill-rule:evenodd;clip-rule:evenodd;fill:#FFFFFF;" width="500" height="500"/>
</g>
<g id="OBJECTS">
	<g>
		<path style="fill-rule:evenodd;clip-rule:evenodd;fill:#0F0B0D;" d="M275.502,99.171l-73.803-0.011l-0.24-0.2
			c-0.993-0.851-2.454-1.986-3.719-2.888c-0.742-0.533-2.349-1.75-3.582-2.714c-3.136-2.447-6.057-4.619-6.794-5.053
			c-0.867-0.511-1.367-0.753-2.202-0.753c-0.406,0-0.891,0.054-1.591,0.147c-0.112,0.014-0.218,0.022-0.319,0.022
			c-0.461,0-0.792-0.165-1.184-0.588c-0.121-0.131-0.216-0.244-0.283-0.327c0.258-0.213,0.856-0.621,1.378-0.878
			c0.322-0.167,0.887-0.362,1.239-0.43c1.695-0.358,2.841-1.356,6.137-5.345c1.658-2.009,2.331-2.683,2.455-2.76l0.232-0.125
			l0.423,0.263c1.271,0.801,1.608,0.972,2.288,0.972c0.802,0,1.358-0.334,2.478-1.488c0.991-1.002,2.835-3.216,3.721-4.468
			c0.464-0.661,0.899-1.122,1.551-1.646c1.619-1.302,4.814-4.243,11.396-10.49c5.791-5.497,7.49-7.024,9.089-8.17
			c0.992-0.715,1.361-0.868,2.083-0.868c0.166,0,0.348,0.009,0.555,0.023c0.315,0.025,0.542,0.04,0.722,0.04
			c0.428,0,0.634-0.082,1-0.269c0.87-0.435,2.822-2.185,4.306-3.577c3.314-3.084,4.922-5.11,9.561-12.04
			c2.062-3.078,2.563-3.692,3.349-4.111c0.116-0.062,0.347-0.116,0.495-0.116c0.148,0,0.242,0.095,1.084,1.283
			c2.564,3.659,4.542,7.706,4.701,9.621c0.039,0.487-0.019,1.035-0.224,2.092c-0.433,2.175-0.37,3.175,0.294,4.651
			c0.408,0.919,1.032,1.786,2.381,3.312c1.766,2.018,2.393,3.135,2.393,4.267c0,0.342-0.061,1.01-0.138,1.521
			c-0.162,1.18-0.077,2.256,0.244,3.117c0.129,0.365,0.728,1.47,1.333,2.459c1.853,3.086,2.518,4.615,2.633,6.056
			c0.042,0.487-0.003,1.372-0.119,2.366c-0.256,2.187-0.184,3.335,0.334,5.34c0.644,2.467,0.924,3.609,1.249,5.094
			c0.29,1.334,0.499,1.929,0.967,1.929h0.088l0.165-0.073c0.216-0.145,0.27-0.454,0.27-0.616c0-0.453-0.702-3.462-1.381-6.109
			c-0.676-2.597-0.749-3.429-0.482-5.566c0.272-2.191,0.104-3.638-0.649-5.348c0.49,0.353,1.589,1.062,2.469,1.612
			c3.549,2.203,5.252,3.587,9.112,7.404c2.204,2.184,2.654,2.568,3.014,2.568c0.102,0,0.436-0.041,0.436-0.57
			c0-0.574-4.577-4.946-5.429-5.699c-1.915-1.679-4.079-3.318-5.651-4.278c-1.88-1.145-3.241-2.063-4.046-2.729
			c-1.305-1.074-2.855-3.269-3.252-4.605c-0.128-0.443-0.139-0.726-0.064-1.682c0.162-2.271,0.115-3.305-0.18-3.953
			c-0.4-0.881-1.153-1.929-2.369-3.301c-1.743-1.975-2.405-3.111-2.625-4.5c-0.091-0.598-0.023-1.281,0.258-2.608
			c0.35-1.668,0.16-3.39-0.562-5.117c-0.914-2.164-2.416-4.846-3.918-7.003c-0.13-0.188-0.244-0.358-0.342-0.507
			c0.539,0.284,1.28,0.717,1.829,1.114c0.499,0.351,1.602,1.074,2.413,1.579c2.14,1.337,2.887,2.034,4.995,4.656
			c1.719,2.145,3.045,3.4,7.468,7.066c4.999,4.13,5.095,4.209,5.589,4.209c0.346,0,1.067-0.454,1.148-0.506
			c0.491-0.32,0.874-0.456,1.285-0.456c0.967,0,2.319,0.773,4.634,2.293c1.659,1.088,2.96,2.165,5.356,4.429
			c2.797,2.631,3.496,3.018,6.798,3.758c5.305,1.189,6.032,1.544,9.726,4.742c1.541,1.335,2.448,2.359,5.391,6.087
			c2.399,3.031,2.639,3.329,3.277,3.922c0.876,0.83,1.42,1.076,2.643,1.193c0.709,0.061,1.004,0.136,1.375,0.351
			c0.672,0.399,1.857,1.607,3.334,3.401c1.762,2.157,3.364,3.979,3.985,4.531c0.727,0.638,1.073,0.86,2.106,0.86
			c0.246,0,0.537-0.011,0.893-0.03c0.447-0.021,0.761-0.034,0.998-0.034c0.45,0,0.569,0.045,0.878,0.19
			c0.626,0.298,1.245,0.766,2.757,2.086c3.207,2.81,5.457,4.357,8.301,5.708c1.36,0.642,2.213,0.944,4.804,1.705
			c1.937,0.574,3.27,1.308,7.502,4.129l0.661,0.439H275.502z M194.01,86.141c-0.295,0-0.676,0.22-1.314,0.759
			c-0.693,0.585-0.968,0.882-0.878,1.204c0.052,0.187,0.212,0.303,0.476,0.345c0.002,0,0.003,0,0.004,0
			c0.521,0,1.715-0.998,2.043-1.39c0.108-0.129,0.214-0.286,0.182-0.465C194.466,86.312,194.269,86.141,194.01,86.141z
			 M222.61,57.819c-0.271,0-0.568,0.194-1.176,0.767c-1.343,1.286-3.173,2.798-4.9,4.045c-2.74,1.995-3.643,2.955-5.083,5.408
			c-0.695,1.169-1.169,1.692-2.302,2.543c-1.27,0.95-1.932,1.606-2.722,2.701c-0.69,0.94-0.856,1.09-1.978,1.778
			c-1.143,0.691-1.836,1.435-2.846,3.063c-0.995,1.605-1.333,1.969-3.294,3.546c-1.676,1.343-1.989,1.665-1.968,2.028
			c0.006,0.109,0.054,0.265,0.245,0.386c0.206,0.129,0.305,0.146,0.373,0.146c0.425,0,4.248-3.419,4.28-3.454
			c0.367-0.402,0.998-1.273,1.408-1.943c0.93-1.495,1.432-2.068,2.235-2.552c1.288-0.779,1.767-1.195,2.443-2.119
			c0.727-1.011,1.512-1.786,2.8-2.767c1.248-0.967,1.619-1.409,2.649-3.16c1.049-1.765,2.226-2.984,4.343-4.498
			c1.671-1.201,3.779-2.937,5.128-4.22c0.706-0.657,0.981-0.988,0.85-1.33C222.972,57.856,222.715,57.819,222.61,57.819z"/>
		<path style="fill-rule:evenodd;clip-rule:evenodd;fill:#0F0B0D;" d="M151.153,92.169c-0.261-0.37-0.799-1.159-1.615-2.384
			c-2.882-4.344-3.311-4.732-5.743-5.196c-2.65-0.519-3.376-1.009-5.972-4.033c-0.589-0.688-1.616-1.835-2.272-2.545l-0.714-0.76
			c0.908-0.08,1.602-0.598,3.469-2.267c3.213-2.889,6.151-4.979,8.06-5.734c0.424-0.168,0.919-0.264,1.359-0.264
			c0.321,0,0.598,0.051,0.779,0.143c0.121,0.065,0.72,0.554,1.468,1.227c2.931,2.706,4.102,3.531,5.01,3.531
			c0.871,0,1.444-0.387,6.139-4.14c3.02-2.403,4.816-3.574,6.197-4.041c0.456-0.146,0.735-0.192,1.581-0.192
			c0,0,0.742,0.009,0.905,0.009c0.697,0,0.967-0.048,1.38-0.244c0.336-0.162,1.623-1.132,2.674-1.977
			c3.215-2.561,5.81-4.218,7.119-4.545c0.201-0.052,0.419-0.078,0.65-0.078c0.485,0,0.982,0.119,1.328,0.318
			c0.207,0.122,1.803,1.582,4.149,3.903c3.758,3.704,5.543,5.285,7.96,7.052c2.488,1.809,4.223,2.688,5.302,2.688
			c0.062,0,0.122-0.003,0.181-0.009c-0.67,0.878-2.161,2.651-3.16,3.675c-0.644,0.654-1.017,0.967-1.397,0.967
			c-0.347,0-0.812-0.255-1.497-0.696c-0.524-0.342-0.933-0.495-1.324-0.495c-0.35,0-0.682,0.122-1.044,0.386
			c-0.302,0.22-1.623,1.745-2.723,3.069c-2.818,3.427-3.822,4.379-4.883,4.631c-1.316,0.32-2.01,0.609-2.859,1.189l-0.654,0.439
			l-0.114-0.139c-1.099-1.325-2.075-2.381-3.485-3.769c-2.877-2.856-4.259-3.82-5.477-3.82c-0.064,0-0.128,0.003-0.19,0.008
			c-1.014,0.082-1.774,0.542-3.388,2.053c-2.518,2.365-3.95,3.496-5.283,4.174c-0.616,0.323-0.691,0.338-2.005,0.391l-1.529,0.058
			l-0.696,0.488c-1.071,0.728-3.708,3.049-5.874,5.171C152.149,91.219,151.486,91.859,151.153,92.169z"/>
		<path style="fill-rule:evenodd;clip-rule:evenodd;fill:#0F0B0D;" d="M416.802,99.171l-0.309-0.443
			c-1.105-1.541-3.702-4.962-4.849-6.355c-1.742-2.132-3.462-3.826-5.75-5.663c-2.853-2.288-3.394-3.02-4.141-5.591
			c-0.833-2.866-1.99-4.444-4.952-6.756c-4.012-3.112-5.473-4.789-5.795-6.644c-0.092-0.562-0.079-1.004,0.068-2.362
			c0.237-2.169,0.24-2.911,0.014-3.781c-0.251-0.958-0.595-1.607-1.226-2.309c0.522,0.18,1.508,1.018,3.832,3.235
			c4.286,4.084,5.575,5.261,6.777,5.261c0.483,0,0.918-0.199,1.396-0.44c0.379-0.193,0.686-0.282,0.967-0.282
			c0.181,0,0.36,0.038,0.546,0.116c0.541,0.221,1.61,1.185,4.768,4.299c0.031,0.031,3.131,3.09,3.435,3.254
			c0.324,0.175,0.63,0.291,1.071,0.291c0.239,0,0.517-0.031,0.959-0.106c0.371-0.068,0.649-0.097,0.905-0.097
			c0.584,0,1.105,0.157,2.062,0.625c1.852,0.905,4.485,2.81,10.437,7.551c2.135,1.707,5.082,4.024,6.569,5.164l2.766,2.122
			l0.667,1.042c0.911,1.4,1.654,2.375,3.615,4.745c1.873,2.271,2.237,2.756,2.237,3.027c-0.639,0.084-3.694,0.097-13.013,0.097
			H416.802z"/>
		<path style="fill-rule:evenodd;clip-rule:evenodd;fill:#0F0B0D;" d="M350.678,99.171c0,0-3.068-2.064-3.479-2.346
			c0.068-0.069,0.156-0.156,0.265-0.258c5.676-5.159,7.624-7.14,8.337-8.475c0.147-0.28,0.266-0.874,0.297-1.289
			c0.096-1.047,0.096-1.047,4.567-6.57l0.208-0.256c1.141-1.423,2.624-2.88,6.105-5.994c3.165-2.826,3.805-3.252,4.896-3.252
			c0.466,0,0.91,0.093,1.583,0.331c0.506,0.172,1.194,0.345,1.536,0.345c1.637-0.024,3.859-1.892,7.702-6.447
			c2.149-2.542,3.552-4.014,4.691-4.921c0.348-0.284,0.644-0.494,0.795-0.59c0.11,0.076,0.299,0.226,0.531,0.436
			c1.07,0.968,1.497,2.382,1.271,4.203c-0.078,0.576-0.155,1.678-0.187,2.42c-0.068,1.723,0.133,2.565,0.898,3.754
			c0.643,1.019,2.574,2.896,4.804,4.669c3.4,2.697,4.299,3.871,5.064,6.61c0.787,2.822,1.487,3.739,4.994,6.54
			c1.9,1.52,3.039,2.636,4.691,4.594c1.032,1.232,4.048,5.196,4.911,6.408c-1.513,0.088-8.117,0.088-31.984,0.088H350.678z
			 M354.256,92.018c-0.413,0-3.137,2.183-3.137,2.676c0,0.38,0.243,0.514,0.452,0.514c0.266,0,0.601-0.166,1.786-1.108
			c1.204-0.958,1.455-1.235,1.411-1.56c-0.047-0.281-0.238-0.49-0.467-0.519L354.256,92.018z M371.325,73.959
			c-0.232,0-0.554,0.118-1.189,0.436c-1.296,0.643-2.387,1.503-4.024,3.174c-1.616,1.659-2.484,2.726-3.576,4.391
			c-0.759,1.144-0.874,1.282-2.435,2.399c-0.681,0.481-1.256,1.278-1.707,2.367c-0.36,0.831-0.578,1.197-1.532,2.371
			c-0.843,1.059-0.843,1.128-0.843,1.243c0,0.18,0.147,0.346,0.27,0.453c0.042,0.035,0.157,0.133,0.33,0.133
			c0.244,0,0.437-0.185,0.731-0.488c0.838-0.872,1.546-1.903,2.104-3.066c0.676-1.416,0.83-1.603,2.047-2.496
			c1.059-0.778,1.196-0.927,2.101-2.289c1.155-1.728,1.983-2.736,3.543-4.319c1.406-1.438,2.345-2.172,3.588-2.804
			c0.758-0.392,1.096-0.624,1.096-0.965C371.829,74.101,371.557,73.959,371.325,73.959z"/>
		<path style="fill-rule:evenodd;clip-rule:evenodd;fill:#0F0B0D;" d="M345.013,95.442c-1.903-1.191-3.105-1.726-5.145-2.29
			c-2.966-0.835-4.746-1.648-7.325-3.346c-1.604-1.065-2.535-1.788-4.529-3.513c-2.33-2.012-3.133-2.648-4.509-2.648
			c-0.293,0-0.617,0.028-0.999,0.07c-0.481,0.056-0.772,0.086-0.981,0.086c-0.218,0-0.308-0.032-0.508-0.124
			c-0.552-0.256-1.819-1.589-3.874-4.074c-0.98-1.188-2.301-2.684-2.883-3.266c-1.306-1.284-1.959-1.628-3.327-1.756
			c-0.708-0.066-0.995-0.167-1.277-0.329c-0.533-0.308-1.424-1.239-2.446-2.556c-0.655-0.858-2.534-3.224-3.252-4.118
			c0.761-0.096,1.434-0.609,3.158-2.141c1.453-1.283,2.19-1.739,3.158-1.953c0.348-0.078,0.676-0.117,1.003-0.117
			c1.622,0,3.327,0.965,6.079,3.44c4.013,3.599,6.01,5.313,6.891,5.915c0.843,0.573,1.041,0.675,1.646,0.675
			c1.356,0,3.123-1.207,5.906-4.034c1.758-1.79,1.777-1.79,2.095-1.79c1.201,0,5.089,3.167,6.367,4.208
			c1.579,1.292,4.165,3.091,4.817,3.271c0.138,0.04,0.295,0.06,0.475,0.06c0.227,0,0.495-0.031,0.843-0.098
			c0.476-0.091,1.074-0.141,1.684-0.141c0.609,0,1.185,0.05,1.623,0.141c1.714,0.371,4.374,1.436,7.905,3.164
			c0.736,0.358,1.84,0.88,2.297,1.067l-0.234,0.281c-1.548,1.854-4.008,4.959-4.309,5.475c-0.261,0.439-0.373,0.829-0.443,1.542
			c-0.071,0.735-0.107,0.833-0.556,1.486c-0.608,0.901-2.477,2.799-5.266,5.346l-0.822,0.75c-0.838,0.764-1.574,1.436-1.797,1.651
			l-0.376,0.354L345.013,95.442z"/>
		<path style="fill-rule:evenodd;clip-rule:evenodd;fill:#0F0B0D;" d="M61.993,99.171c-3.194,0-4.651,0-4.861-0.133
			c0.163-0.306,2.448-3.421,4.636-6.106c3.783-4.654,7.738-8.838,12.827-13.565l3.865-3.592c1.495-1.409,2.607-2.353,3.134-2.659
			c0.209-0.122,0.463-0.186,0.737-0.186c0.263,0,0.544,0.06,0.814,0.172c0.119,0.049,0.248,0.097,0.403,0.097
			c0.245,0,0.483-0.113,0.998-0.366c1.033-0.516,3.22-2.042,5.574-3.888c4.482-3.496,5.858-4.453,7.012-4.872
			c0.207-0.072,0.477-0.131,0.713-0.167c-0.621,0.819-2.074,2.661-3.729,4.682c-1.166,1.431-2.682,3.339-3.381,4.254l-0.109,0.143
			c-3.977,5.178-3.977,5.178-5.009,5.178c-1.355,0.011-2.517,0.721-4.608,2.813c-2.521,2.521-4.286,4.686-7.263,8.913
			c-2.2,3.111-3.827,5.29-5.616,7.518l-1.419,1.766H61.993z"/>
		<path style="fill-rule:evenodd;clip-rule:evenodd;fill:#0F0B0D;" d="M89.623,99.149l-21.228-0.032l0.863-1.071
			c1.607-2.007,3.648-4.745,5.326-7.147c3.22-4.615,6.093-8.081,8.31-10.025c1.253-1.085,1.701-1.317,2.816-1.46
			c0.5-0.061,1.144-0.203,1.404-0.357c0.647-0.388,1.475-1.343,3.693-4.26c1.214-1.607,3.11-4.02,4.228-5.38
			c1.153-1.416,2.578-3.19,3.164-3.961c0.463-0.6,0.835-1.038,1.008-1.221c0.536,0.326,3.152,2.453,5.715,4.822
			c2.435,2.257,2.947,2.623,3.912,2.799c0.117,0.02,0.242,0.031,0.381,0.031c1,0,2.699-0.556,5.679-1.859
			c2.809-1.22,3.309-1.389,4.12-1.389c0.001,0,0.001,0,0.001,0c1.027,0,1.603,0.316,3.513,2.403
			c0.369,0.404,0.594,0.633,0.918,0.633c0.067,0,0.133-0.01,0.211-0.031c0.105-0.022,0.569-0.075,1.04-0.109
			c0.199-0.014,0.349-0.024,0.472-0.024c0.262,0,0.333,0.035,0.705,0.279c0.284,0.182,1.098,0.834,1.818,1.455
			c1.009,0.867,3.906,3.146,4.45,3.146c0.261,0.142,2.388,2.258,4.367,4.571c3.169,3.69,3.949,4.233,6.947,4.839
			c1.419,0.282,1.889,0.495,2.516,1.141c0.219,0.228,1.334,1.784,2.752,3.897c2.459,3.679,3.59,5.274,5.26,7.42l0.665,0.857
			l-21.254,0.032c-6.019,0.005-13.953,0.008-21.886,0.008C103.576,99.157,95.642,99.155,89.623,99.149z M146.721,94.833
			c-0.221,0-0.478,0.163-0.478,0.623c0,0.365,1.345,2.255,1.572,2.398l0.076,0.048l0.143,0.011c0.158,0,0.331-0.078,0.463-0.211
			c0.363-0.339,0.161-0.631-0.377-1.411c-0.318-0.472-0.685-0.972-0.813-1.124C147.094,94.938,146.906,94.833,146.721,94.833z
			 M125.016,75.13c-0.226,0-0.369,0.144-0.43,0.205c-0.072,0.071-0.222,0.222-0.201,0.442c0.025,0.26,0.25,0.422,0.716,0.735
			c0.3,0.194,1.094,0.939,1.775,1.664c2.189,2.365,2.516,2.634,4.999,4.115c2.011,1.193,2.516,1.622,3.601,3.055
			c1.394,1.858,1.886,2.264,4.052,3.335c2.009,0.983,2.585,1.448,3.852,3.11c0.879,1.146,1.096,1.146,1.24,1.146
			c0.317,0,0.457-0.146,0.519-0.268c0.16-0.317-0.073-0.736-0.529-1.352c-1.613-2.132-2.26-2.665-4.622-3.808
			c-1.879-0.913-2.338-1.303-3.772-3.205c-0.971-1.295-1.622-1.851-3.315-2.836c-2.592-1.521-3.18-1.986-4.834-3.825
			c-0.678-0.755-1.568-1.623-1.983-1.935C125.511,75.296,125.271,75.13,125.016,75.13z"/>
		<path style="fill-rule:evenodd;clip-rule:evenodd;fill:#0F0B0D;" d="M156.311,99.171L155,97.485
			c-0.759-0.987-1.812-2.387-2.333-3.114l-0.794-1.113l1.36-1.369c2.444-2.479,5.785-5.382,6.591-5.825
			c0.187-0.098,0.563-0.136,1.432-0.147c0.001,0,0.001,0,0.002,0c1.216,0,1.375-0.028,2.111-0.378
			c1.445-0.678,3.248-2.05,5.513-4.192c1.602-1.515,1.863-1.715,2.541-1.945c0.186-0.062,0.346-0.091,0.501-0.091
			c0.447,0,0.941,0.248,1.823,0.915c1.024,0.776,5.227,5.052,6.334,6.444c1.218,1.52,1.567,1.901,2.197,2.153
			c0.306,0.13,0.582,0.187,0.915,0.187c0.302,0,0.668-0.048,1.223-0.16c0.329-0.068,0.536-0.11,0.684-0.11
			c0.148,0,0.275,0.041,0.571,0.151c1.005,0.373,2.685,1.572,8.168,5.832c1.363,1.047,3.248,2.485,4.196,3.193
			c0.688,0.5,1.311,0.965,1.688,1.254H156.311z"/>
	</g>
	<g>
		<path style="fill-rule:evenodd;clip-rule:evenodd;fill:#0F0B0D;" d="M277.433,218.591l-0.825-0.756
			c-0.529-0.483-2.29-2.202-3.704-3.596c-2.418-2.399-2.871-2.79-3.235-2.79c-0.102,0-0.433,0.041-0.433,0.564
			c0,0.495,6.155,6.387,6.217,6.445l0.142,0.133h-62.317l-4.385-2.231c-4.542-2.314-6.57-3.428-8.684-4.764
			c-2.999-1.896-3.414-2.073-5.557-2.364c-2.388-0.335-2.896-0.676-4.944-3.322c-0.536-0.689-1.256-1.558-1.488-1.763
			c-0.8-0.674-1.583-0.999-2.399-0.999c-1.182,0-2.416,0.678-3.885,2.132c-0.46,0.46-1.729,1.859-2.815,3.133
			c-2.072,2.432-4.407,4.836-5.95,6.125c-0.5,0.428-1.852,1.51-3.083,2.464l-2.038,1.589h-15.771
			c1.052-1.301,3.132-3.618,4.001-4.447c1.101-1.059,1.144-1.1,2.891-1.936c3.024-1.463,4.867-2.849,7.044-5.3
			c1.511-1.708,4.778-5.453,6.025-6.929c1.247-1.479,1.901-1.899,2.229-1.991c0.054-0.017,0.255-0.043,0.697-0.043
			c0.159,0,0.327,0.004,0.491,0.01c0.226,0.014,0.412,0.023,0.571,0.023c0.499,0,0.781-0.087,1.263-0.272
			c0.917-0.346,2.27-1.206,3.912-2.484c2.991-2.342,4.585-3.82,5.686-5.272c0.434-0.583,0.911-1.116,1.068-1.233
			c0.89-0.687,3.261-3.486,6.192-7.311c2.028-2.646,3.389-4.041,4.413-4.523c0.333-0.157,0.594-0.228,0.848-0.228
			c0.495,0,1.066,0.265,2.108,0.976c0.747,0.509,1.121,0.722,1.507,0.722c0.352,0,0.628-0.188,0.927-0.416
			c0.778-0.586,2.898-3.302,5.402-6.918c2.257-3.266,2.762-3.73,3.444-3.73c0.233,0,0.446,0.063,0.632,0.187
			c0.068,0.052,0.186,0.139,0.314,0.231c0.154,0.112,0.321,0.232,0.452,0.333c0.352,0.251,0.673,0.364,1.022,0.364
			c0.35,0,0.729-0.113,1.227-0.365c1.531-0.782,3.848-2.825,8.55-7.537c2.309-2.317,3.877-3.801,4.686-4.502
			c-0.149,0.507-0.165,0.888-0.125,2.114c0.033,1.297,0.115,1.876,0.552,3.867c0.486,2.204,0.595,3.037,0.832,6.367
			c0.157,2.039,0.494,3.425,1.164,4.786c0.294,0.589,0.455,0.988,0.473,1.061c-0.001-0.003-0.002-0.004-0.004-0.004
			c-0.021,0-0.105,0.215-0.252,0.519c-0.182,0.344-0.796,1.032-1.986,2.223c-0.878,0.867-1.948,2.011-2.218,2.423
			c-0.777,1.187-1.375,2.637-2.064,5.004c-1.014,3.506-1.58,4.906-2.524,6.243c-0.627,0.872-1.415,1.553-3.119,2.697
			c-2.401,1.626-3.111,2.21-5.432,4.466c-1.275,1.229-2.774,2.604-3.41,3.129c-1.833,1.533-4.871,4.202-4.635,4.865
			c0.113,0.338,0.368,0.375,0.473,0.375c0.341,0,0.736-0.307,2.012-1.564c0.819-0.82,2.11-2.002,2.819-2.583
			c0.768-0.627,2.384-2.129,3.503-3.218c2.25-2.196,2.952-2.774,5.369-4.418c3.59-2.434,4.437-3.734,6.036-9.273
			c1.196-4.159,1.569-4.833,3.99-7.212c0.919-0.896,1.837-1.905,2.09-2.295l0.168-0.262l0.104,0.157
			c0.212,0.302,0.836,1.123,1.373,1.824c0.512,0.656,1.486,1.961,2.17,2.929c0.929,1.298,1.745,2.252,3.232,3.782
			c1.129,1.174,2.606,2.807,3.293,3.639c0.732,0.874,1.867,2.206,2.532,2.959c0.649,0.747,1.571,1.82,2.027,2.384
			c1.494,1.832,1.861,2.142,2.207,2.142c0.121,0,0.409-0.05,0.48-0.517c0.061-0.57-3.911-5.032-3.951-5.078
			c-0.485-0.529-1.487-1.7-2.191-2.559c-0.794-0.945-2.315-2.612-3.392-3.721c-1.47-1.513-2.233-2.403-3.138-3.666
			c-0.607-0.854-1.611-2.202-2.239-3.004c-3.017-3.868-3.627-5.413-3.842-9.729c-0.102-1.877-0.32-3.344-0.835-5.605
			c-0.699-3.072-0.688-4.452,0.05-5.907c0.17-0.335,0.226-0.335,0.267-0.335c0.189,0,0.616,0.225,1.001,0.435
			c2.547,1.384,3.939,2.029,4.657,2.156c2.534,0.456,5.995,2.613,9.033,5.629c1.803,1.793,2.931,3.286,6.699,8.879
			c2.431,3.614,3.048,4.48,3.666,5.144c0.662,0.691,1.006,0.891,2.015,0.891c0.246,0,0.539-0.011,0.896-0.03
			c0.312-0.016,0.58-0.025,0.816-0.025c0.999,0,1.408,0.173,2.394,0.813c0.868,0.565,2.029,1.703,7.762,7.609
			c1.758,1.796,3.831,3.863,4.214,4.156c0.516,0.39,1.016,0.57,1.573,0.57c0.764,0,1.645-0.325,3.04-1.124
			c0.823-0.468,1.274-0.692,1.615-0.692c0.129,0,0.263,0.031,0.446,0.102c0.601,0.227,1.109,0.613,3.02,2.295
			c1.742,1.548,2.857,2.797,6.277,7.037c2.914,3.61,4.172,5.109,8.109,9.537c4.454,4.992,6.678,7.422,8.501,9.286l0.889,0.916
			H277.433z M248.115,186.586c-0.187,0-0.356,0.147-0.464,0.27c-0.331,0.357-0.331,0.357,1.022,2.091l0.131,0.169
			c0.554,0.717,2.044,2.686,3.306,4.371c3.433,4.629,4.191,5.31,8.1,7.287c1.081,0.546,2.266,1.221,2.641,1.505
			c0.384,0.291,1.291,1.209,2.021,2.046c2.199,2.532,3.082,3.462,5.56,5.854c2.463,2.374,2.638,2.374,2.792,2.374
			c0.3-0.052,0.447-0.165,0.5-0.341c0.123-0.409-0.194-0.786-2.823-3.363c-1.545-1.512-3.628-3.683-4.643-4.839
			c-1.124-1.283-2.171-2.359-2.668-2.741c-0.441-0.337-1.889-1.164-3.163-1.806c-2.585-1.324-3.557-2.014-4.728-3.355
			c-0.417-0.483-1.986-2.519-3.425-4.445c-1.424-1.909-2.93-3.885-3.25-4.286C248.347,186.586,248.229,186.586,248.115,186.586z"/>
		<path style="fill-rule:evenodd;clip-rule:evenodd;fill:#0F0B0D;" d="M310.092,218.591l-1.856-1.95
			c-2.73-2.85-3.348-3.526-6.394-6.927l-4.028-4.517c-1.722-1.925-3.218-3.703-5.716-6.792c-1.111-1.383-2.474-3.04-3.03-3.705
			l-0.716-0.839l0.262-0.09c1.694-0.572,3.286-1.619,7.094-4.667c1.757-1.399,2.298-1.782,2.893-2.049
			c0.315-0.142,0.668-0.211,1.082-0.211c0.52,0,1.158,0.109,1.949,0.335c0.971,0.279,1.651,0.44,2.247,0.44
			c0.352,0,0.683-0.054,1.106-0.18c1.516-0.471,2.892-1.543,5.893-4.587c3.956-4.011,6.937-7.469,12.27-14.232
			c4.94-6.268,7.013-8.483,8.871-9.475c0.011-0.006,0.022-0.012,0.034-0.018c-1.315,1.992-1.998,5.21-1.744,8.237
			c0.111,1.382,0.268,2.418,0.647,4.261c0.304,1.465,0.471,3.222,0.387,4.087c-0.043,0.409-0.196,1.463-0.345,2.316
			c-0.328,1.827-0.388,3.878-0.152,5.224c0.312,1.748,1.114,3.585,2.452,5.616c1.702,2.575,8.255,10.863,9.155,10.863
			c0.316,0,0.447-0.144,0.502-0.265c0.158-0.351-0.103-0.753-1.552-2.389c-1.692-1.907-4.466-5.303-5.709-6.989
			c-1.933-2.624-2.927-4.443-3.434-6.277c-0.421-1.504-0.415-3.505,0.018-5.948c0.423-2.394,0.375-4.089-0.197-6.974
			c-0.502-2.598-0.604-3.41-0.604-4.827c0-2.527,0.766-5.215,1.905-6.689c0.252-0.326,0.332-0.375,0.357-0.375
			c0.134,0,0.598,0.474,0.848,0.729c0.803,0.824,1.633,2.057,4.443,6.597c2.349,3.787,5.141,7.959,5.857,8.754
			c0.464,0.51,1.021,0.92,2.206,1.627c2.65,1.579,4.323,2.975,7.161,5.977c2.208,2.337,3,3.112,4.037,3.948
			c0.858,0.687,3.845,2.703,5.69,3.874c1.004,0.624,4.344,3.303,6.163,4.943c1.722,1.557,2.679,2.083,3.793,2.083
			c0.131,0,0.265-0.008,0.402-0.022c0.976-0.1,1.548-0.151,1.959-0.151c0.382,0,0.611,0.047,0.877,0.128
			c1.3,0.37,2.575,1.209,4.552,2.992c2.53,2.268,4.047,3.46,6.243,4.906c2.79,1.838,3.435,2.078,6.9,2.563
			c1.562,0.213,2.522,0.473,3.951,1.068c2.848,1.197,4.696,2.424,9.886,6.563c1.167,0.927,2.672,2.094,3.348,2.607l0.471,0.353
			l-27.117,0.032l-27.93,0.021l-1.856-1.939c-1.079-1.133-2.529-2.616-3.217-3.303c-4.933-4.899-8.199-8.058-9.984-9.657
			c-3.167-2.862-3.885-3.661-5.906-6.575c-1.139-1.624-1.367-1.766-1.584-1.797l-0.122-0.01c-0.261,0-0.371,0.156-0.407,0.224
			c-0.166,0.314,0.026,0.706,1.14,2.33c2.01,2.91,2.79,3.781,5.97,6.663c1.221,1.107,3.169,2.963,4.344,4.137
			c1.11,1.111,3.147,3.126,4.52,4.476c1.358,1.326,3.229,3.217,4.172,4.215l1.168,1.236H310.092z M390.136,209.992
			c-1.158,0-1.307,0.147-1.382,0.34c-0.069,0.193-0.058,0.354,0.032,0.488c0.181,0.272,0.578,0.318,1.582,0.373
			c1.405,0.073,2.076,0.237,3.416,0.833c1.469,0.666,2.658,1.408,4.102,2.561c0.995,0.804,1.41,1.063,1.707,1.063
			c0.078,0,0.466-0.027,0.466-0.556c0-0.623-3.245-2.88-4.102-3.355c-1.429-0.786-2.829-1.361-3.842-1.578
			C391.629,210.058,390.852,209.992,390.136,209.992z M383.106,205.975c-0.228,0-0.407,0.133-0.493,0.366
			c-0.166,0.436,0.27,0.869,2.123,2.101c0.943,0.634,1.381,0.859,1.674,0.859c0.238,0,0.478-0.161,0.478-0.521
			c0-0.322-0.285-0.568-1.087-1.099c-0.505-0.319-1.236-0.83-1.601-1.117C383.652,206.135,383.356,205.975,383.106,205.975z
			 M359.926,190.832c-0.266,0-0.553,0.203-0.553,0.65c0,0.642,6.334,6.529,6.768,6.849c1.36,1.006,2.447,1.634,3.322,1.918
			c0.612,0.207,1.001,0.244,2.6,0.244c1.704,0,1.835,0.028,2.348,0.247c0.931,0.385,2.68,1.476,4.356,2.718
			c1.181,0.877,1.614,1.13,1.933,1.13c0.097,0,0.419-0.033,0.499-0.452c0.129-0.711-4.463-3.564-4.51-3.592
			c-1.692-1.021-2.345-1.297-3.723-1.297c-0.234,0-0.489,0.008-0.777,0.021c-0.248,0.011-0.478,0.017-0.693,0.017
			c-1.444,0-2.148-0.252-3.766-1.346c-1.553-1.035-3.123-2.465-6.002-5.465C360.151,190.832,360.075,190.832,359.926,190.832z"/>
		<path style="fill-rule:evenodd;clip-rule:evenodd;fill:#0F0B0D;" d="M99.135,218.591l-0.528-0.815
			c-0.842-1.309-3.656-5.371-5.68-8.199c-4.071-5.666-5.171-6.565-8.412-6.868c-0.67-0.053-1.449-0.19-1.702-0.278
			c-0.721-0.244-1.427-0.986-2.362-2.483c-0.481-0.764-1.342-2.106-1.921-2.978c-0.322-0.501-0.623-0.965-0.831-1.283
			c1.057-0.087,2.507-1.284,7.212-5.886c3.737-3.639,7.343-6.979,8.385-7.769c0.497-0.381,1.024-0.675,1.349-0.819
			c-0.019,0.113-0.045,0.249-0.079,0.404c-0.435,2.041,0.179,3.739,2.628,7.267c0.55,0.794,1.275,1.915,1.536,2.416
			c0.697,1.31,0.812,1.839,0.771,3.538c-0.089,3.973-0.005,4.621,0.815,6.306c0.554,1.142,1.381,2.265,3.052,4.142
			c0.705,0.803,1.856,2.149,2.54,2.975c1.823,2.208,1.932,2.34,2.264,2.34h0.056l0.13-0.036c0.237-0.095,0.39-0.304,0.39-0.523
			c0-0.304-1.07-1.691-3.179-4.124c-2.76-3.198-3.02-3.512-3.47-4.191c-0.605-0.908-1.026-1.838-1.252-2.765
			c-0.149-0.606-0.177-0.951-0.111-2.964c0.121-3.595-0.069-4.182-2.546-7.859c-1.458-2.149-2.195-3.493-2.393-4.358
			c-0.16-0.672-0.133-1.694,0.062-2.381l0.103-0.38l0.195,0.027c1.528,0.209,4.222,1.897,8.48,5.312
			c2.266,1.821,2.394,1.868,2.448,1.888c0.27,0.269,5.459,6.739,7.731,9.727c0.152,0.2,1.493,1.96,1.716,2.143
			c0.143,0.124,0.32,0.197,0.49,0.197c0.161,0,0.304-0.063,0.402-0.178c0.101-0.118,0.142-0.278,0.115-0.451
			c-0.087-0.502-4.43-5.939-5.759-7.594c-1.145-1.421-2.137-2.673-2.52-3.164c0.002-0.001,0.004-0.002,0.006-0.003
			c1.305-0.416,3.474-2.162,9.665-7.782c6.093-5.522,7.259-6.476,8.318-6.802c0.159-0.045,0.24-0.065,0.312-0.065
			c0.085,0,0.2,0.027,0.428,0.09c0.169,0.048,0.517,0.246,0.742,0.451c0.64,0.582,1.056,0.859,1.689,0.859
			c0.358,0,0.76-0.089,1.293-0.232c1.002-0.278,1.54-0.386,1.92-0.386c0.142,0,0.266,0.015,0.39,0.048
			c0.777,0.214,1.668,1.129,5.611,5.757c2.9,3.408,3.264,3.408,3.504,3.408c0.534,0,2.475-2.289,3.585-3.653
			c0.799-0.991,1.668-1.993,1.949-2.273c0.39-0.383,0.937-0.734,1.316-0.914c-0.45,0.93-0.543,1.728-0.434,3.606
			c0.175,3.224,0.081,3.447-0.711,4.221c-0.482,0.46-0.962,0.753-2.446,1.49c-0.95,0.475-2.143,1.125-2.499,1.39
			c-1.166,0.901-2.242,2.574-2.619,4.071c-0.098,0.404-0.22,1.467-0.281,2.262c-0.156,2.46-0.375,2.77-3.344,4.738
			c-2.412,1.604-3.479,2.512-5.187,4.417c-2.058,2.284-4.768,4.868-5.919,5.643c-0.568,0.382-1.552,1.082-2.186,1.541
			c-0.631,0.457-1.608,1.152-2.184,1.554c-1.407,0.968-2.788,2.215-4.924,4.449l-1.704,1.776H99.135z"/>
		<path style="fill-rule:evenodd;clip-rule:evenodd;fill:#0F0B0D;" d="M133.735,218.591c-10.793,0-15.093-0.004-16.366-0.071
			c0.889-0.966,3.516-3.556,4.281-4.161c0.498-0.398,1.486-1.122,2.164-1.601c1.196-0.827,2.024-1.415,4.019-2.855
			c1.168-0.834,2.471-2.082,4.804-4.603c2.731-2.928,3.317-3.445,5.691-5.024c2.066-1.362,2.914-2.112,3.359-2.968
			c0.338-0.675,0.456-1.288,0.579-2.986c0.158-2.232,0.667-3.476,1.945-4.754c0.516-0.525,0.826-0.743,2.696-1.683
			c2.31-1.182,3.156-1.757,3.619-2.834c0.379-0.88,0.393-1.571,0.243-3.49c-0.177-2.265,0.022-3.432,0.709-4.159
			c0.113-0.121,0.175-0.15,0.318-0.15c0.242,0,0.67,0.112,1.239,0.279c2.452,0.701,4.993,2.461,10.879,7.535
			c2.853,2.462,3.734,3.074,4.179,3.236c0.11,0.037,0.217,0.054,0.327,0.054c0.614,0,1.378-0.498,3.143-2.051
			c2.268-1.98,3.16-2.474,3.509-2.54c0.14-0.026,0.293-0.039,0.452-0.039c0.513,0,1.071,0.126,1.494,0.338
			c1.057,0.512,4.872,3.335,6.483,4.796c0.889,0.805,1.411,1.193,1.811,1.325c-1.05,1.121-4.685,4.176-6.553,5.423
			c-1.428,0.958-1.876,1.127-2.997,1.127l-0.577-0.007c-1.664,0-2.166,0.416-3.991,2.539c-2.265,2.643-5.448,6.284-6.264,7.178
			c-2.015,2.176-3.812,3.492-6.198,4.54c-2.368,1.038-3.296,1.873-7.091,6.377l-1.028,1.228H133.735z M123.195,216.015
			c-0.336,0-0.786,0.244-1.377,0.746c-0.211,0.18-0.29,0.449-0.203,0.687c0.08,0.219,0.282,0.354,0.525,0.354
			c0.399,0,1.218-0.61,1.468-0.921c0.044-0.055,0.177-0.22,0.133-0.417C123.689,216.189,123.479,216.015,123.195,216.015z
			 M137.136,204.26c-0.274,0-0.66,0.172-1.253,0.557c-1.145,0.756-1.988,1.553-3.474,3.28c-0.719,0.835-1.445,1.614-1.69,1.812
			c-0.25,0.211-1.478,1.079-3.061,2.162c-2.585,1.747-2.715,1.947-2.747,2.2c-0.009,0.058-0.042,0.265,0.095,0.425l0.094,0.11
			l0.238,0.035c0.319,0,0.797-0.246,2.846-1.632c3.182-2.146,3.605-2.496,5.037-4.159c1.484-1.731,2.571-2.759,3.527-3.332
			c0.667-0.397,0.903-0.639,0.903-0.922C137.651,204.475,137.444,204.26,137.136,204.26z"/>
		<path style="fill-rule:evenodd;clip-rule:evenodd;fill:#0F0B0D;" d="M413.118,217.381c-0.934-0.706-2.673-2.054-3.868-3.01
			c-4.191-3.33-6.046-4.62-8.273-5.749c-2.286-1.165-3.809-1.657-6.034-1.947c-2.935-0.366-3.725-0.672-6.507-2.52
			c-2.189-1.448-3.24-2.263-5.353-4.153c-2.142-1.91-3.202-2.702-4.362-3.26c-0.891-0.432-1.666-0.625-2.512-0.625
			c-0.255,0-0.515,0.017-0.787,0.052c-0.51,0.067-0.934,0.099-1.298,0.099c-0.472,0-0.835-0.057-1.077-0.171
			c-0.466-0.207-1.239-0.813-2.59-2.029c-0.517-0.451-1.424-1.216-2.015-1.697l-0.527-0.426c0.823-0.147,1.682-0.654,2.917-1.718
			c5.167-4.451,6.607-5.427,8.105-5.498c0.109-0.007,0.21-0.01,0.307-0.01c0.791,0,1.324,0.23,2.375,1.025
			c0.417,0.317,1.152,0.809,1.462,0.864c0.088,0.017,0.184,0.026,0.284,0.026c0.925,0,2.163-0.782,5.757-3.638
			c2.65-2.099,3.949-2.934,5.343-3.434c0.324-0.118,0.808-0.178,1.44-0.178l0.689-0.007v0.794c0,1.36,0.19,2.173,0.814,3.477
			c0.915,1.94,1.98,3.108,6.703,7.348c1.522,1.381,3.164,2.87,3.643,3.317c3.707,3.498,3.998,3.676,4.295,3.676
			c0.323,0,0.449-0.149,0.499-0.275c0.148-0.376-0.076-0.706-2.625-3.086c-1.403-1.313-3.75-3.449-5.121-4.674
			c-5.118-4.602-6.273-6.009-6.862-8.367c-0.157-0.618-0.188-1.599-0.144-1.988c0.313,0.064,1.024,0.321,2.113,0.884
			c1.98,1.023,7.533,4.955,12.917,9.146c1.318,1.016,1.641,1.196,1.889,1.196h0.074l0.111-0.043c0.01,0.001,0.098,0.006,0.292,0.107
			c0.436,0.226,0.84,0.327,1.309,0.327c0.615,0,1.393-0.171,2.774-0.611c0.835-0.269,1.48-0.394,2.029-0.394
			c0.491,0,0.933,0.1,1.39,0.314c0.803,0.365,2.023,1.274,3.35,2.494c4.815,4.405,16.701,16.127,17.205,16.891
			c0.635,0.963,2.415,7.257,2.322,8.213c-0.018,0.176-0.018,0.176-0.323,0.293c-0.406,0.155-2.132,0.164-15.498,0.164l-15.026,0.011
			L413.118,217.381z"/>
		<path style="fill-rule:evenodd;clip-rule:evenodd;fill:#0F0B0D;" d="M76.398,218.591c-17.134,0-21.523-0.014-21.904-0.14
			c-0.025-0.023-0.067-0.116-0.067-0.157c0.084-0.55,2.968-5.932,5.802-10.66c3.06-5.093,7.015-10.486,9.842-13.421
			c1.042-1.093,1.63-1.574,2.169-1.774c0.125-0.047,0.267-0.071,0.424-0.071c0.54,0,1.181,0.27,1.714,0.723
			c0.307,0.265,2.568,3.595,4.673,6.96c1.927,3.098,2.696,3.677,5.139,3.869c3.002,0.251,3.813,0.932,7.88,6.619
			c1.482,2.061,4.524,6.476,5.469,7.915l0.089,0.137H76.398z"/>
		<path style="fill-rule:evenodd;clip-rule:evenodd;fill:#0F0B0D;" d="M175.669,218.569l-5.569-0.028l1.209-0.936
			c3.832-2.962,5.223-4.291,8.754-8.371c1.86-2.156,3.385-3.732,4.079-4.215c0.19-0.13,0.561-0.324,0.808-0.424
			c0.037-0.014,0.075-0.027,0.111-0.041c-0.554,0.946-0.735,1.952-0.51,2.873c0.234,0.992,0.928,1.907,2.97,3.915
			c1.03,1.008,2.533,2.565,3.351,3.47c0.817,0.894,2.026,2.222,2.678,2.94l0.728,0.787l-5.712,0.029
			c-1.763,0.005-4.095,0.008-6.432,0.008C179.797,218.577,177.454,218.574,175.669,218.569z"/>
		<path style="fill-rule:evenodd;clip-rule:evenodd;fill:#0F0B0D;" d="M195.936,218.569l-1.191-1.323
			c-2.651-2.975-4.446-4.893-6.402-6.838c-2.348-2.337-2.662-2.882-2.662-3.805c0-0.63,0.249-1.247,0.718-1.787
			c0.097-0.114,0.183-0.204,0.244-0.261c0.213,0.144,0.881,0.671,1.21,1.054c0.239,0.272,0.799,0.983,1.263,1.587
			c1.579,2.084,2.692,2.849,4.576,3.145l1.697,0.282c0.904,0.144,1.894,0.635,4.238,2.101c2.682,1.679,4.384,2.618,8.278,4.565
			c0.979,0.489,1.854,0.933,2.481,1.253c-1.778,0.037-5.271,0.037-6.64,0.037l0,0L195.936,218.569z"/>
	</g>
	<g>
		<path style="fill-rule:evenodd;clip-rule:evenodd;fill:#0F0B0D;" d="M364.865,347.483l-1.785-1.117
			c-3.255-2.037-6.617-4.347-9.994-6.865c-4.819-3.61-6.065-4.414-7.842-5.062c-0.951-0.344-1.869-0.504-2.889-0.504
			c-0.836,0-1.763,0.104-2.917,0.327c-0.542,0.102-1.05,0.154-1.507,0.154c-0.567,0-1.049-0.078-1.43-0.234
			c-0.962-0.392-1.858-1.223-4.358-4.043c-4.585-5.159-6.922-7.114-9.264-7.747c-0.355-0.098-0.604-0.213-0.652-0.25
			c-0.095-0.183-0.277-0.233-0.405-0.233c-0.202,0-0.359,0.125-0.458,0.219c-0.044,0.027-0.273,0.095-0.598,0.135
			c-2.283,0.228-4.583,2.35-8.478,7.826c-3.563,5.006-5.584,7.427-8.009,9.593c-2.455,2.205-4.304,3.572-8.606,6.36l-2.22,1.442
			h-25.247l0.729-0.652c2.428-2.159,4.091-3.457,6.355-4.959c3.334-2.194,3.961-2.69,6.716-5.314
			c1.681-1.595,1.819-1.836,1.782-2.118c-0.039-0.216-0.159-0.454-0.386-0.522c-0.017-0.001-0.035-0.002-0.052-0.002
			c-0.207,0-0.496,0.134-2.266,1.829c-2.254,2.145-3.309,3.002-5.377,4.363c-0.872,0.567-1.92,1.255-2.334,1.539
			c-1.057,0.707-3.155,2.405-5.342,4.322l-1.718,1.513l-16.102-0.022l-15.378-0.032l0.583-0.509
			c0.679-0.589,2.345-2.147,3.713-3.471c3.473-3.354,4.285-3.934,8.69-6.206c2.603-1.352,3.582-2.024,4.368-3
			c0.68-0.851,1.113-1.734,1.717-3.503c1.393-4.05,1.839-4.728,3.669-5.587c3.859-1.809,5.976-3.778,10.296-9.579
			c1.783-2.397,2.736-3.457,3.52-3.91c0.218-0.136,1-0.485,1.954-0.874c2.825-1.119,3.525-1.651,7.496-5.688
			c2.982-3.013,4.484-4.635,5.736-6.196c0.503-0.635,0.906-1.024,1.348-1.302c0.953-0.584,5.392-4.918,7.418-7.244
			c3.196-3.646,5.23-5.576,8.708-8.264c2.468-1.926,3.76-3.047,6.013-5.215c1.942-1.857,2.904-2.595,3.809-2.924
			c0.065-0.021,0.124-0.042,0.179-0.06v1.486c0.012,1.531,0.073,2.394,0.254,3.553c0.471,3.026,0.434,4.197-0.169,5.443
			c-0.568,1.147-1.273,1.624-4.437,2.996c-2.324,0.997-3.297,1.568-4.158,2.441c-1.011,1.01-1.276,1.629-1.288,3.004
			c0,1.408,0.136,1.809,1.623,4.77c1.349,2.707,1.413,3.035,1.206,3.854c-0.253,0.971-0.734,1.603-3.683,4.829
			c-3.251,3.553-3.801,3.991-8.397,6.701c-2.488,1.464-3.743,2.851-4.067,4.499c-0.069,0.344-0.17,1.236-0.233,1.936
			c-0.285,3.222-0.736,3.912-4.023,6.16c-0.93,0.649-2.085,1.473-2.545,1.844c-0.574,0.456-5.189,4.642-5.189,5.142
			c0,0.201,0.075,0.327,0.139,0.398c0.097,0.108,0.236,0.168,0.392,0.167c0.185,0,0.391-0.084,0.595-0.241
			c0.181-0.145,1.152-1.05,2.126-1.981c2.067-2.002,2.945-2.726,4.945-4.082c3.96-2.696,4.503-3.526,4.838-7.406
			c0.187-2.183,0.528-2.997,1.655-3.958c0.709-0.596,1.183-0.906,2.98-1.949c3.417-1.971,4.645-2.983,7.728-6.373
			c3.516-3.86,4.021-4.53,4.021-6.253c0-1.18-0.164-1.647-1.354-3.849c-1.621-3.03-1.881-4.155-1.266-5.466
			c0.224-0.488,1.176-1.407,1.888-1.823c0.299-0.183,1.419-0.71,2.667-1.257c2.384-1.037,3.12-1.448,3.94-2.201
			c1.575-1.424,1.9-3.309,1.285-7.471c-0.204-1.424-0.291-2.466-0.291-3.482c-0.002-0.379-0.006-1.019,0.035-1.331
			c0.031,0.023,0.07,0.054,0.117,0.093c0.385,0.303,0.706,0.728,3.518,4.506c0.897,1.211,2.645,3.444,3.895,4.975
			c2.616,3.217,3.415,4.272,4.75,6.268c1.213,1.83,2.613,3.678,3.255,4.296c0.232,0.225,0.974,1.256,2.052,2.989
			c2.785,4.491,5.303,8.176,8.42,12.324c0.903,1.193,2.015,2.819,2.487,3.591c0.842,1.412,1.082,1.651,1.377,1.651
			c0.234,0,0.463-0.148,0.558-0.359c0.26-0.675-3.13-5.269-3.813-6.184c-3.15-4.211-4.883-6.743-7.726-11.289l-1.312-2.097
			l0.201-0.105c0.305-0.14,1.139-0.682,1.798-1.142c1.257-0.88,2.026-1.222,2.742-1.222c0.414,0,0.83,0.116,1.348,0.375
			c0.319,0.155,1.713,1.186,3.179,2.35c3.052,2.439,3.686,2.845,7.541,4.833c3.196,1.653,3.766,1.974,4.696,2.642
			c0.768,0.559,4.534,4.356,4.974,5.015c0.181,0.264,0.828,1.435,1.474,2.671c1.682,3.233,1.942,3.605,4.637,6.628
			c2.83,3.183,3.636,4.476,3.92,6.286c0.289,1.8,0.483,2.509,0.943,3.452c0.945,1.901,2.554,3.721,7.488,8.47
			c1.004,0.972,2.579,2.624,3.51,3.683c0.938,1.055,2.896,3.135,4.366,4.639c1.852,1.873,2.75,2.872,3.206,3.567
			c0.149,0.23,0.261,0.405,0.346,0.539c-1.449,0.026-5.943,0.044-11.95,0.044H364.865z M350.533,321.04
			c-0.219,0-0.396,0.088-0.543,0.268c-0.173,0.202-0.167,0.385-0.13,0.502c0.087,0.28,0.401,0.4,0.727,0.488
			c0.449,0.122,1.467,0.861,2.013,1.546c0.202,0.258,0.881,1.221,1.729,2.454c1.643,2.444,2.416,3.403,6.358,7.9
			c1.753,1.989,4.148,4.795,5.361,6.253c0.368,0.442,2.214,2.658,2.434,2.86c0.182,0.167,0.388,0.26,0.582,0.26
			c0.308,0,0.531-0.233,0.531-0.555c0-0.351-2.645-3.557-7.861-9.525c-4.159-4.747-4.803-5.538-6.257-7.699
			c-0.612-0.907-1.278-1.856-1.475-2.13c-0.711-0.953-1.776-1.929-2.479-2.276C351.032,321.134,350.762,321.04,350.533,321.04z"/>
		<path style="fill-rule:evenodd;clip-rule:evenodd;fill:#0F0B0D;" d="M177.989,347.483c0.467-0.742,1.723-2.377,2.832-3.675
			c0.765-0.908,1.867-2.227,2.445-2.948c1.973-2.459,10.371-13.464,12.125-15.861c1.989-2.734,2.375-3.004,3.65-3.298
			c1.115-0.255,1.634-0.618,3.267-2.285c1.696-1.73,2.378-2.642,5.611-7.514c3.753-5.656,5.528-7.933,7.305-9.367
			c1.742-1.407,3.483-2.895,5.173-4.421c2.147-1.949,2.754-2.26,3.6-2.26c0.851,0.01,1.896,0.825,3.103,2.423
			c0.786,1.041,1.106,1.677,1.906,3.777c0.831,2.179,1.385,3.164,2.372,4.217c0.874,0.94,1.522,1.323,2.234,1.323
			c0.357,0,0.722-0.098,1.148-0.31c0.853-0.426,3.591-3.133,5.613-5.395c2.123-2.395,2.421-2.553,3.523-2.553
			c0.548,0,0.699,0.039,2.074,0.699c1.275,0.617,1.631,0.762,2.192,0.762c1.14-0.013,2.025-0.594,4.579-2.959
			c0.661-0.606,1.848-1.599,2.646-2.213c0.813-0.625,2.187-1.759,3.063-2.527c2.422-2.112,3.256-2.703,4.067-2.864
			c-0.141,0.787-0.091,2.188,0.031,3.38c0.103,0.972,0.173,2.006,0.173,2.363c-0.01,1.571-0.58,3.034-1.602,4.118
			c-0.773,0.826-1.399,1.274-3.721,2.668c-2.942,1.762-4.052,2.614-6.598,5.06c-0.851,0.81-2.163,2.026-2.885,2.659
			c-1.934,1.698-5.066,4.529-5.265,4.813c-0.16,0.234-0.188,0.525-0.073,0.743c0.094,0.177,0.27,0.283,0.471,0.283
			c0.101,0,0.289,0,2.313-1.857c1.065-0.968,2.512-2.261,3.208-2.883c0.233-0.204,0.437-0.384,0.613-0.541
			c-0.816,1.608-1.18,2.891-1.426,4.908c-0.502,3.92-0.95,4.685-4.799,8.189c-3.588,3.267-4.455,4.216-6.188,6.774
			c-0.804,1.171-0.997,1.607-0.86,1.942c0.047,0.115,0.158,0.264,0.417,0.315c0.006,0,0.012,0,0.018,0
			c0.312,0,0.543-0.179,1.163-1.114c1.839-2.748,2.632-3.646,5.654-6.398c1.169-1.062,2.527-2.352,2.966-2.813
			c1.882-1.982,2.37-3.189,2.903-7.173c0.202-1.499,0.591-2.724,1.341-4.224c1.273-2.557,1.92-3.417,3.644-4.853
			c1.153-0.959,1.963-1.509,4.338-2.945c1.078-0.654,2.148-1.346,2.489-1.609c1.472-1.13,2.522-2.642,2.878-4.149
			c0.2-0.88,0.223-2.884,0.05-4.291c-0.147-1.307-0.147-2.781,0.001-3.28c0.016-0.054,0.041-0.134,0.062-0.193
			c0.034,0.005,0.073,0.012,0.118,0.02c0.548,0.102,1.319,0.415,2.11,0.858c0.849,0.47,2.971,2.106,4.208,3.244
			c0.718,0.671,1.117,0.946,1.471,1.013c0.114,0.021,0.258,0.034,0.431,0.034c0.85,0,2.429-0.284,4.333-0.778
			c1.513-0.385,2.556-0.608,3.408-0.608c1.406,0,2.268,0.595,4.147,2.383c0.495,0.468,1.505,1.39,1.788,1.541l0.013,0.006
			l-0.122,0.155c-1.615,2.058-8.112,8.763-9.522,9.829c-1.188,0.885-1.596,1.105-3.357,1.809c-0.79,0.316-1.802,0.755-2.124,0.947
			c-0.851,0.499-2.017,1.752-3.563,3.826c-4.332,5.842-6.065,7.509-9.765,9.39c-1.281,0.652-1.903,1.043-2.292,1.443
			c-0.663,0.674-1.514,2.431-2.336,4.819c-0.73,2.129-1.082,2.814-1.881,3.666c-0.727,0.789-1.387,1.204-4.412,2.777
			c-3.861,2.003-4.722,2.634-8.379,6.149c-1.237,1.194-3.001,2.829-3.853,3.57l-1.427,1.263H177.989z"/>
		<path style="fill-rule:evenodd;clip-rule:evenodd;fill:#0F0B0D;" d="M139.523,335.555c-0.15-0.178-0.43-0.529-0.832-1.047
			c-3.534-4.522-6.182-7.472-7.456-8.312c-0.392-0.269-1.126-0.596-1.578-0.743c-0.521-0.167-1.001-0.348-1.124-0.415
			c-0.407-0.203-1.093-0.929-2.376-2.512c-0.627-0.781-2.185-2.449-3.788-4.052c-0.952-0.943-1.703-1.691-2.069-2.093
			c1.322-0.273,3.301-1.748,6.765-5.001c2.179-2.04,2.775-2.512,3.542-2.798c0.375-0.14,0.672-0.195,1.06-0.195
			c0.371,0,0.842,0.049,1.624,0.168c0.446,0.064,0.813,0.107,1.158,0.107c1.053,0,1.896-0.409,4.036-1.579
			c2.69-1.465,2.823-1.511,3.731-1.654c0.242-0.04,0.449-0.061,0.673-0.061c0.274,0,0.584,0.031,1.071,0.106
			c1.381,0.206,3.843,1.001,5.377,1.736c1.044,0.494,1.559,0.701,2.051,0.701c0.173,0,0.345-0.025,0.559-0.081
			c1.468-0.404,5.251-3.85,9.202-8.381c2.56-2.926,4.265-4.503,4.819-4.768c0.325-0.154,0.498-0.206,0.687-0.206
			c0.063,0,0.128,0.005,0.2,0.016c1.083,0.132,2.206,0.921,4.299,3.013c0.826,0.837,1.664,1.619,1.877,1.789
			c0.833,0.621,2.331,1.088,4.461,1.392c1.389,0.202,2.185,0.462,3.872,1.267c0.628,0.299,1.451,0.66,1.74,0.738
			c0.305,0.086,0.645,0.129,1.009,0.129c0.582,0,1.237-0.107,2.001-0.327c0.589-0.171,1.313-0.34,1.581-0.371
			c0.143-0.019,0.278-0.029,0.414-0.029c0.878,0,1.813,0.401,2.944,1.262c1.375,1.036,2.395,1.385,4.046,1.385
			c0.531,0,1.148-0.037,1.943-0.114c1.583-0.153,2.907-0.255,4.215-0.255c1.77,0,3.54,0.185,6.186,0.527
			c1.829,0.23,2.686,0.312,3.274,0.312c0.134,0,0.256-0.005,0.369-0.014c-0.168,0.231-0.385,0.521-0.598,0.804
			c-0.601,0.802-2.254,3.172-3.755,5.425c-1.482,2.223-2.927,4.344-3.29,4.83c-0.772,1.019-3.023,3.382-3.594,3.773
			c-0.165,0.114-0.688,0.333-1.179,0.468c-0.508,0.138-1.118,0.366-1.389,0.52c-0.666,0.385-1.531,1.342-2.81,3.104
			c-0.577,0.792-2.012,2.696-3.186,4.239l-1.982,2.575l-0.049-0.026c-0.411-0.211-3.636-2.52-4.807-3.462
			c-0.566-0.453-1.896-1.6-2.905-2.505c-3.495-3.108-4.607-3.791-6.612-4.06c-0.942-0.126-1.272-0.279-1.371-0.339
			c-0.438-0.276-0.87-0.988-1.485-2.456c-1.845-4.364-3.922-6.669-6.007-6.669c-0.462,0-0.922,0.114-1.368,0.339
			c-1.104,0.559-2.493,2.254-3.464,3.577l-2.701,3.702c-0.817,1.124-1.945,2.741-2.419,3.503c-2.57,4.086-3.191,4.679-5.54,5.295
			c-1.945,0.521-2.215,0.708-3.608,2.506c-1.511,1.954-2.877,2.994-5.845,4.45C140.202,335.235,139.742,335.453,139.523,335.555z"/>
		<path style="fill-rule:evenodd;clip-rule:evenodd;fill:#0F0B0D;" d="M129.317,347.483l-0.755-1.047
			c-1.96-2.683-3.509-4.45-7.204-8.222c-3.235-3.3-3.884-4.096-5.343-6.549c-1.696-2.842-2.649-3.873-5.666-6.132
			c-2.834-2.112-3.63-2.906-4.259-4.248c-0.579-1.221-0.645-1.691-0.645-4.57v-2.805l-0.457-0.926
			c-0.545-1.09-1.559-2.15-3.742-3.914c-2.551-2.061-3.567-3.214-4.026-4.57c-0.267-0.769-0.264-1.821-0.084-2.25
			c0.043-0.099,0.073-0.16,0.089-0.178c-0.016,0.032,0.032,0.04,0.094,0.05c2.527,0.444,5.799,2.879,11.292,8.403
			c1.08,1.081,2.247,2.161,2.601,2.409c0.362,0.241,1.069,0.556,1.614,0.718c1.005,0.311,1.466,0.53,3.079,1.463
			c0.579,0.335,1.426,0.777,1.842,0.936c0.492,0.207,0.891,0.525,2.127,1.698c2.888,2.727,3.655,3.542,5.863,6.231
			c1.36,1.652,2.088,2.23,3.244,2.573c0.404,0.124,0.988,0.346,1.271,0.483c0.655,0.327,2.78,2.432,5.063,5.259
			c1.816,2.259,2.407,3.018,5.109,6.652c0.891,1.208,2.834,3.693,4.198,5.398c1.057,1.321,2.008,2.513,2.466,3.088
			c-0.946,0.049-3.568,0.051-8.634,0.051H129.317z"/>
		<path style="fill-rule:evenodd;clip-rule:evenodd;fill:#0F0B0D;" d="M109.974,347.483l-2.543-2.502
			c-6.108-5.997-8.72-7.886-12.707-9.186c-0.844-0.275-1.845-0.655-2.185-0.83c-0.872-0.432-2.222-1.838-3.213-3.345
			c-2.696-4.099-3.191-4.818-3.781-5.497c-0.789-0.914-1.726-1.653-2.569-2.03c-0.557-0.259-0.867-0.287-1.847-0.287
			c-1.074,0.01-1.302,0.051-2.038,0.362c-1.801,0.773-3.697,2.449-5.968,5.274c-0.722,0.905-2.625,3.415-4.132,5.429
			c-1.576,2.12-4.04,5.319-5.492,7.133c-1.31,1.648-2.971,3.769-3.47,4.453l-0.754,1.026h-5.706l-0.096-0.182
			c-0.221-0.433-0.108-1.127,0.297-1.806c0.201-0.322,0.907-1.57,1.654-2.891l0.179-0.316c1.728-3.055,4.397-7.52,6.644-11.113
			c6.028-9.601,10.37-15.902,13.274-19.263c1.206-1.407,3.982-4.151,5.606-5.541c1.701-1.451,2.686-2.141,3.676-2.141
			c0.633,0,1.328,0.273,2.178,0.684c1.16,0.564,1.439,0.674,2.033,0.674l0.112-0.001c0.949-0.012,1.774-0.391,4.008-1.847
			c0.988-0.655,1.982-1.225,2.261-1.347c0.098-0.04,0.315-0.126,0.48-0.18c-0.139,0.708-0.085,1.872,0.119,2.562
			c0.455,1.526,1.778,3.088,4.425,5.227c1.833,1.48,2.681,2.278,3.126,2.945c0.648,0.973,0.688,1.211,0.709,4.26
			c0.021,2.735,0.022,2.841,0.344,3.749c0.703,1.984,1.761,3.174,4.919,5.535c2.949,2.198,3.869,3.198,5.469,5.949
			c1.409,2.42,2.262,3.451,6.089,7.355c1.541,1.56,3.372,3.52,3.999,4.28c0.868,1.03,2.087,2.61,2.629,3.362
			c-1.258,0.023-4.638,0.045-8.647,0.045H109.974z"/>
		<path style="fill-rule:evenodd;clip-rule:evenodd;fill:#0F0B0D;" d="M390.736,347.471l-0.724-1.131
			c-0.743-1.158-1.192-1.669-3.699-4.209c-1.582-1.615-3.613-3.768-4.528-4.8c-0.941-1.061-2.586-2.75-3.667-3.765
			c-5.779-5.468-6.961-7.088-7.438-10.204c-0.279-1.785-0.519-2.439-1.355-3.687c-0.747-1.136-1.371-1.906-3.509-4.332
			c-1.961-2.219-2.391-2.845-3.833-5.589c-1.446-2.759-1.814-3.313-3.025-4.557c-0.129-0.134-0.246-0.256-0.347-0.362
			c0.254-0.014,0.559-0.052,0.826-0.105c0.353-0.068,0.88-0.118,1.251-0.118l0.173,0.005c1.217,0.081,3.167,1.063,5.638,2.838
			c2.049,1.468,3.065,2.131,5.725,3.736c3.675,2.213,5.224,2.923,6.375,2.923c0.49,0,0.917-0.137,1.344-0.43
			c0.3-0.215,1.035-1.084,1.575-1.801c1.762-2.349,2.749-3.114,6.599-5.113c0.734-0.382,1.629-0.835,2.379-1.154
			c-0.584,0.577-1.14,1.322-1.446,1.973c-0.76,1.58-0.628,3.371,0.374,5.04c0.568,0.935,1.13,1.643,2.615,3.293
			c1.621,1.803,2.375,2.795,2.78,3.658c0.278,0.586,0.295,0.673,0.254,1.338c-0.04,0.507-0.16,0.979-0.415,1.626
			c-0.77,1.894-0.826,2.89-0.229,4.095c0.809,1.663,2.157,2.654,7.212,5.299c4.457,2.332,5.797,3.231,8.963,6.011
			c0.98,0.854,1.354,1.101,1.667,1.101c0.105,0,0.363-0.036,0.487-0.367c0.164-0.421-0.016-0.588-2.441-2.655
			c-2.432-2.093-3.773-2.952-8.44-5.406c-3.25-1.71-4.694-2.613-5.519-3.448c-0.698-0.719-1.004-1.327-1.053-2.098
			c-0.038-0.509,0.009-0.703,0.459-1.881c0.468-1.229,0.543-1.493,0.543-2.398c0.011-0.846-0.039-1.095-0.357-1.767
			c-0.454-0.952-1.373-2.168-2.979-3.94c-2.169-2.383-2.906-3.526-3.158-4.897c-0.29-1.551,0.953-3.647,2.661-4.485l0.566-0.279
			l0.851,0.439c1.33,0.687,2.755,1.731,4.12,3.019c0.649,0.615,1.597,1.418,2.111,1.79c0.925,0.67,2.405,2.188,3.959,4.061
			c2.097,2.512,2.452,2.915,3.269,3.562c1.456,1.179,2.465,1.654,4.69,2.213c1.512,0.373,1.713,0.529,3.581,2.771
			c1.473,1.758,3.385,3.857,8.895,9.766c0.551,0.595,2.327,2.32,2.863,2.32c0.337,0,0.469-0.154,0.52-0.282
			c0.134-0.34-0.137-0.716-1.318-1.826c-1.874-1.765-7.7-8.062-10.22-11.045c-1.762-2.087-2.395-2.569-3.764-2.868
			c-1.975-0.419-3.096-0.925-4.443-2.008c-0.803-0.642-1.185-1.059-3.144-3.438c-0.461-0.563-1.141-1.328-1.505-1.714l-0.244-0.252
			c0.994-0.101,2.265-0.792,3.882-2.111c1.595-1.274,2.466-1.738,3.582-1.903c0.263-0.039,0.538-0.057,0.824-0.057
			c2.769,0,6.558,1.784,9.888,4.655c1.371,1.178,4.333,4.176,6.339,6.415c4.365,4.895,6.076,7.422,12.209,18.019
			c2.934,5.076,3.416,5.825,4.807,7.756c0.607,0.831,1.231,1.761,1.416,2.052c0.106,0.177,0.279,0.441,0.429,0.624
			c-1.402,0.09-7.757,0.094-27.848,0.094l0,0L390.736,347.471z M392.449,340.204c-0.17,0-0.323,0.091-0.408,0.241
			c-0.134,0.236-0.091,0.587,0.118,0.935c0.176,0.297,2.152,2.559,2.623,2.559h0.051l0.057-0.017
			c0.226-0.069,0.304-0.236,0.329-0.329c0.082-0.299-0.061-0.667-1.046-1.755c-0.584-0.644-1.066-1.189-1.145-1.295
			C392.833,340.313,392.643,340.204,392.449,340.204z M377.455,325.801c-0.16,0-0.43,0.107-0.43,0.505
			c0,0.743,4.861,5.114,6.405,6.402c1.534,1.274,5.502,4.929,6.475,5.932c0.342,0.359,0.636,0.533,0.896,0.533
			c0.231,0,0.417-0.131,0.51-0.361c0.105-0.261-0.055-0.561-0.588-1.109c-1.393-1.416-4.84-4.554-6.708-6.108
			c-1.195-1-3.002-2.657-4.027-3.691C378.198,326.093,377.775,325.801,377.455,325.801z"/>
		<path style="fill-rule:evenodd;clip-rule:evenodd;fill:#0F0B0D;" d="M151.846,347.46l-3.117-0.032l-2.455-3.042
			c-2.276-2.832-5.235-6.662-5.973-7.732l-0.041-0.057l1.502-0.76c3.193-1.606,4.567-2.651,6.126-4.66
			c1.318-1.703,1.381-1.718,2.987-2.13c2.212-0.553,3.525-1.566,5.018-3.868c0.438-0.667,1.128-1.736,1.568-2.418
			c0.788-1.202,1.428-2.099,4.834-6.722c0.881-1.208,1.724-2.187,2.345-2.735c-0.811,1.339-1.04,3.087-0.719,5.412
			c0.531,3.829,0.529,3.845,0.419,4.719c-0.213,1.766-0.823,2.828-2.841,4.985c-2.788,2.99-3.246,4.092-3.501,8.425
			c-0.204,3.605-0.419,4.496-1.767,7.331c-0.511,1.068-1.027,2.299-1.169,2.737l-0.181,0.566L151.846,347.46z"/>
		<path style="fill-rule:evenodd;clip-rule:evenodd;fill:#0F0B0D;" d="M166.214,347.483c-5.865,0-9.051-0.008-9.975-0.069
			c0.03-0.102,0.061-0.216,0.089-0.327c0.064-0.216,0.465-1.142,0.903-2.039c1.477-3.031,1.738-4.07,1.99-7.944
			c0.267-4.203,0.624-5.08,3.183-7.819c1.993-2.148,2.576-3.047,2.97-4.577c0.295-1.18,0.275-2.593-0.069-4.882
			c-0.355-2.341-0.376-3.873-0.067-4.821c0.257-0.813,0.912-1.825,1.269-2.086c0.11-0.08,0.169-0.092,0.208-0.092
			c0.259,0,0.795,0.504,1.334,1.049c1.118,1.13,1.704,2.063,2.613,4.161c0.91,2.123,1.298,2.804,1.89,3.314
			c0.584,0.519,1.065,0.652,2.416,0.834c1.477,0.207,2.56,0.901,5.516,3.538c0.929,0.824,2.21,1.94,2.83,2.448
			c1.142,0.929,4.348,3.271,5.046,3.684c0.059,0.038,0.107,0.07,0.146,0.099c-0.743,1.038-4.632,6.111-6.173,8.025
			c-0.456,0.565-1.576,1.913-2.478,2.99c-0.969,1.142-2.098,2.6-2.569,3.317l-0.798,1.188L166.214,347.483L166.214,347.483z"/>
		<path style="fill-rule:evenodd;clip-rule:evenodd;fill:#0F0B0D;" d="M306.438,347.46l-10.632-0.03l1.123-0.723
			c4.215-2.712,7.07-4.925,9.544-7.4c2.079-2.08,3.639-4.009,6.674-8.258c2.089-2.912,2.965-4.004,4.256-5.308
			c1.179-1.179,1.933-1.731,2.78-2.037c0.102-0.036,0.229-0.079,0.345-0.117c-0.016,0.04-0.031,0.076-0.043,0.104
			c-0.564,1.406-0.464,3.033,0.279,4.589c0.555,1.165,1.098,1.881,2.905,3.834c1.908,2.057,2.034,2.22,3.372,4.341
			c2.343,3.744,3.785,5.025,9.639,8.559c0.923,0.564,2.368,1.467,3.205,2l0.641,0.417l-10.685,0.03
			c-3.222,0.005-7.467,0.008-11.71,0.008C313.889,347.468,309.649,347.465,306.438,347.46z"/>
		<path style="fill-rule:evenodd;clip-rule:evenodd;fill:#0F0B0D;" d="M340.998,346.238c-1.07-0.696-2.836-1.808-3.941-2.468
			c-3.479-2.093-5.049-3.222-6.459-4.643c-0.909-0.91-1.432-1.606-2.438-3.242c-1.156-1.872-1.726-2.607-3.585-4.62
			c-1.733-1.861-2.521-2.919-2.91-3.908c-0.191-0.484-0.229-0.756-0.24-1.717c0-1.058,0.018-1.169,0.273-1.689
			c0.224-0.447,0.286-0.447,0.38-0.447c0.155,0,0.42,0.08,0.771,0.203c1.951,0.664,4.269,2.684,8.273,7.206
			c3.595,4.061,4.374,4.639,6.411,4.754c0.177,0.01,0.343,0.015,0.508,0.015c0.545,0,1.066-0.06,1.857-0.217
			c0.857-0.16,1.728-0.244,2.515-0.244c0.655,0,1.223,0.06,1.642,0.173c1.711,0.452,3.317,1.437,7.809,4.794
			c4.119,3.079,7.069,5.116,10.494,7.245l-9.229,0.03l-10.236,0.022L340.998,346.238z"/>
		<path style="fill-rule:evenodd;clip-rule:evenodd;fill:#0F0B0D;" d="M63.623,347.483c-0.747,0-2.122,0-2.805-0.036
			c0.763-1.032,2.863-3.669,3.627-4.629c1.415-1.783,4.096-5.247,5.96-7.736c3.863-5.139,4.73-6.205,6.182-7.604
			c1.165-1.122,2.248-1.865,3.218-2.205c0.152-0.055,0.314-0.105,0.465-0.145c-0.18,0.222-0.358,0.491-0.479,0.733
			c-0.301,0.626-0.338,0.839-0.326,1.906c0,0.927,0.078,1.479,0.379,2.686c0.43,1.786,0.516,2.912,0.278,3.648
			c-0.223,0.67-1.027,1.474-2.149,2.147c-3.394,2.063-4.036,2.694-5.29,5.202c-0.323,0.647-0.784,1.431-1.011,1.756
			c-0.674,0.932-2.179,2.363-3.576,3.4l-1.16,0.876H63.623z"/>
		<path style="fill-rule:evenodd;clip-rule:evenodd;fill:#0F0B0D;" d="M88.477,347.483c-9.275,0-16.891-0.031-19.365-0.063
			l0.364-0.281c1.165-0.897,2.491-2.206,3.154-3.11c0.278-0.369,0.812-1.278,1.213-2.069c1.106-2.17,1.728-2.793,4.434-4.446
			c2.019-1.222,2.775-2.044,3.112-3.381c0.243-0.937,0.171-1.784-0.336-3.936c-0.201-0.891-0.39-1.821-0.43-2.116
			c-0.145-1.109,0.346-2.191,1.194-2.63c0.215-0.112,0.367-0.159,0.506-0.159c0.213,0,0.464,0.115,0.893,0.41
			c0.865,0.591,1.869,1.763,2.985,3.484l1.917,2.919c1.164,1.778,2.147,2.89,3.187,3.602c0.691,0.469,1.214,0.698,2.8,1.225
			c1.009,0.337,2.315,0.857,2.85,1.135c2.542,1.314,5.426,3.684,9.644,7.924l1.484,1.491H88.477z"/>
	</g>
	<g>
		<path style="fill-rule:evenodd;clip-rule:evenodd;fill:#0F0B0D;" d="M135.635,470.374c-9.19,0-13.94-0.002-16.152-0.034
			c1.204-0.291,2.713-0.563,4.439-0.803c3.493-0.498,4.494-0.691,7.653-1.475c4.285-1.07,4.285-1.07,9.499-1.189
			c4.903-0.11,5.065-0.129,8.68-1.033c3.248-0.817,3.616-0.944,5.617-1.951c2.086-1.043,2.529-1.208,5.925-2.21
			c5.407-1.585,6.321-2.053,13.976-7.171c3.944-2.643,5.428-3.746,7.22-5.362c0.781-0.707,1.408-1.155,2.394-1.713
			c3.116-1.755,7.762-4.974,11.559-8.007c3.457-2.772,5.67-4.743,10.765-9.586c4.047-3.851,5.216-4.836,7.819-6.586
			c1.461-0.981,2.678-1.619,5.209-2.728c2.98-1.302,4.693-2.31,6.787-3.994c4.086-3.297,7.247-7.154,13.53-16.507
			c4.609-6.87,7.163-10.205,8.539-11.151l0.235-0.168l0.314,0.348c2.135,2.38,3.36,5.471,3.36,8.478
			c0,2.134-0.426,4.079-1.825,8.328c-1.439,4.338-1.691,5.503-1.691,7.794c-0.012,2.449,0.713,4.754,3.369,10.719
			c2.657,5.969,3.467,8.577,3.467,11.162c-0.011,1.342-0.03,1.472-0.33,2.311c-0.406,1.153-0.883,1.961-2.32,3.928
			c-1.377,1.891-2.348,3.473-2.887,4.707c-0.903,2.095-1.293,4.754-1.07,7.294c0.099,1.047,0.701,5.572,0.88,5.878
			c0.155,0.197,0.39,0.253,0.553,0.253c0.191,0,0.306-0.087,0.368-0.159c0.227-0.265,0.205-0.63-0.2-3.249
			c-0.418-2.737-0.479-5.47-0.156-6.962c0.534-2.466,1.362-4.054,4.03-7.72c1.165-1.602,1.925-3.053,2.196-4.195
			c0.25-1.056,0.251-3.056,0.003-4.365c-0.444-2.275-1.34-4.765-3.309-9.192c-0.511-1.144-0.95-2.146-1.293-2.943
			c1.202,1.399,2.843,2.921,5.553,5.183c2.307,1.921,4.16,3.547,5.833,5.115c0.847,0.805,3.265,3.09,5.377,5.083
			c0.157,0.15,3.862,3.662,4.134,3.828c0.143,0.1,0.295,0.155,0.438,0.155c0.257,0,0.516-0.184,0.516-0.596
			c0-0.173,0-0.322-3.549-3.668c-1.904-1.796-4.222-3.992-5.146-4.885c-1.948-1.884-3.391-3.165-6.712-5.958
			c-3.853-3.229-5.391-4.75-6.582-6.511c-1.32-1.959-1.863-3.564-1.874-5.542c-0.021-1.942,0.175-2.792,1.748-7.574
			c0.511-1.555,1.088-3.539,1.26-4.332c1.044-4.95,0.219-8.804-2.672-12.494c-0.172-0.222-0.339-0.437-0.457-0.598
			c0.041-0.002,0.083-0.002,0.127-0.002c1.043,0,3.022,0.331,4.236,0.709c1.268,0.393,1.671,0.731,6.166,5.182
			c4.636,4.583,4.841,4.813,10.95,12.288c6.455,7.885,8.403,10.102,12.258,13.957c4.077,4.077,11.325,10.513,19.887,17.655
			c3.381,2.834,3.82,3.235,5.227,4.782c1.371,1.514,6.119,6.5,8.467,8.891c2.866,2.932,4.558,4.33,6.966,5.754
			c1.721,1.018,9.214,4.722,11.965,5.918c6.578,2.862,8.615,3.323,15.574,3.52c3.892,0.11,5.232,0.222,9.557,0.803
			c5.097,0.694,8.509,0.939,13.04,0.939c6.208,0.009,11.02,0.55,14.655,1.649l-151.281,0.003c-42.928,0-73.848-0.014-80.977-0.03
			c0.853-0.327,2.141-0.817,3.965-1.5c5.269-1.984,8.79-3.657,17.129-8.139c4.431-2.361,4.628-2.635,4.628-2.987
			c0-0.413-0.27-0.559-0.502-0.559c-0.223,0-0.502,0.116-0.965,0.401c-1.621,0.983-9.059,4.91-12.242,6.463
			c-3.344,1.611-4.983,2.311-8.77,3.744c-1.906,0.718-4.237,1.611-5.163,1.971l-1.633,0.643L135.635,470.374z M213.506,431.426
			c-0.094,0-0.273,0.064-1.891,1.702c-1.735,1.757-2.662,2.497-5.832,4.653c-3.651,2.497-4.416,3.115-7.443,6.01
			c-2.994,2.873-3.892,3.698-5.869,5.445c-4.376,3.844-4.51,4.084-4.561,4.173c-0.086,0.173-0.119,0.407-0.017,0.577
			c0.097,0.165,0.264,0.262,0.458,0.262c0.285,0,0.623-0.198,1.131-0.66c0.347-0.315,1.805-1.62,3.241-2.893
			c1.535-1.372,4.005-3.651,5.506-5.081c4.157-3.952,4.385-4.141,8.126-6.718c3.137-2.161,4.4-3.152,5.876-4.607
			c1.626-1.612,1.981-2.106,1.812-2.519c-0.074-0.201-0.269-0.347-0.471-0.347C213.572,431.423,213.509,431.426,213.506,431.426z"/>
		<path style="fill-rule:evenodd;clip-rule:evenodd;fill:#0F0B0D;" d="M352.277,465.705c-6.301-0.174-8.258-0.6-13.962-3.035
			c-2.996-1.266-11.028-5.187-12.829-6.261c-2.702-1.614-4.81-3.476-9.022-7.968c-1.122-1.198-2.844-3.019-3.837-4.033l-1.336-1.369
			l0.221-0.016c1.23-0.103,2.404-0.528,5.025-1.816c4.534-2.229,5.871-3.124,11.924-7.983c3.913-3.134,6.318-4.976,9.895-7.579
			c8.334-6.069,10.314-7.283,12.462-7.641l0.115-0.019c0.268-0.045,0.454-0.078,0.584-0.084c0.005,0.072,0.004,0.178,0.004,0.275
			c0,1.519,0.549,2.756,2.447,5.603c2.027,3.035,2.582,4.287,2.582,5.825c0,1.483-0.67,2.848-2.108,4.297
			c-1.06,1.07-2.131,1.815-4.777,3.323c-2.861,1.629-3.801,2.305-5.292,3.808c-1.452,1.44-2.233,2.43-3.343,4.236l-0.114,0.186
			c-1.121,1.842-1.121,1.842-4.167,4.388l-0.335,0.28c-1.37,1.153-1.565,1.416-1.525,1.718c0.044,0.261,0.221,0.472,0.431,0.524
			c0.001,0,0.002,0,0.003,0c0.667,0,5.108-3.992,5.574-4.569c0.224-0.284,0.763-1.107,1.179-1.8c1.309-2.172,2.891-4.04,4.452-5.259
			c1.04-0.817,1.512-1.118,3.882-2.479c3.21-1.836,4.679-2.966,5.82-4.481c1.994-2.618,2.078-5.189,0.272-8.334
			c-0.296-0.511-1.059-1.688-1.644-2.565c-0.581-0.872-1.275-1.979-1.48-2.411c-0.503-1.017-0.725-2.045-0.65-2.455l0.023-0.122
			l0.611,0.052c3.06,0.258,6.205,1.184,9.347,2.754c2.408,1.204,5.694,3.169,12.557,7.507c1.72,1.089,4.574,2.864,6.338,3.953
			c1.862,1.143,3.55,2.22,3.901,2.471c0.748,0.551,4.783,3.966,5.73,4.838c-0.445,0.389-1.646,1.353-3.397,2.68
			c-0.656,0.503-2.183,1.702-3.383,2.674c-2.442,1.971-3.709,2.92-5.42,4.065c-2.547,1.701-3.31,2.387-4.808,4.313
			c-1.923,2.461-2.606,2.971-6.088,4.556c-3.185,1.434-4.281,2.08-6.896,4.063c-0.689,0.517-1.9,1.388-2.653,1.895
			c-0.762,0.512-1.731,1.201-2.158,1.524l-0.731,0.565L352.277,465.705z"/>
		<path style="fill-rule:evenodd;clip-rule:evenodd;fill:#0F0B0D;" d="M82.817,470.374c-18.616-0.011-31.931-0.046-32.38-0.084
			c0.001-0.008-0.016-0.079-0.032-0.29c-0.06-0.878,0.238-1.524,2.9-6.28c7.035-12.584,12.365-20.892,15.009-23.396
			c0.815-0.77,0.972-0.868,1.869-0.868c0,0,0.812,0.013,0.963,0.013c0.683,0,0.893-0.064,1.493-0.34
			c0.924-0.439,1.882-1.316,3.417-3.129c1.527-1.789,2.53-2.688,4.288-3.85c1.778-1.179,2.543-1.613,3.41-1.938
			c0.028-0.011,0.055-0.02,0.081-0.031c-1.204,1.425-1.44,3.263-0.914,6.794c0.563,3.814,0.322,4.59-2.34,7.551
			c-2.001,2.222-2.564,3.17-3.546,5.972c-1.047,2.969-1.72,4.069-4.802,7.842c-0.789,0.963-0.972,1.293-0.886,1.603
			c0.031,0.11,0.114,0.258,0.337,0.337l0.051,0.018l0.154,0.023c0.368,0,0.612-0.293,2.018-2.058
			c2.563-3.207,3.272-4.403,4.22-7.113c1.04-2.961,1.392-3.561,3.422-5.84c0.701-0.774,1.497-1.733,1.736-2.092
			c1.195-1.775,1.367-3.328,0.766-6.919c-0.264-1.585-0.248-3.085,0.044-4.013c0.403-1.283,1.53-2.317,2.195-2.317
			c0.704,0,1.868,0.651,3.114,1.741c0.322,0.286,1.533,1.439,3.408,3.244c6.812,6.608,12.222,11.065,18.669,15.384
			c1.919,1.286,4.99,3.163,6.321,3.861c0.341,0.176,0.965,0.598,1.363,0.923c1.985,1.6,5.097,3.352,7.568,4.264
			c0.629,0.233,2.359,0.769,3.667,1.151c2.722,0.788,3.05,0.906,7.025,2.504c1.38,0.544,3.544,1.31,4.825,1.707
			c1.241,0.372,2.052,0.628,2.577,0.807c-0.437,0.023-1.051,0.041-1.885,0.041c-3.163,0.01-6.687,0.199-8.022,0.429
			c-0.689,0.118-2.438,0.51-3.898,0.875c-2.932,0.742-3.951,0.935-7.784,1.475c-3.048,0.437-3.974,0.643-6.603,1.47l-1.718,0.541
			L82.817,470.374z M69.921,462.693c-0.304,0-0.644,0.27-1.455,1.153c-1.126,1.236-1.07,1.405-1.024,1.54
			c0.062,0.215,0.3,0.335,0.501,0.373c0.005,0,0.011,0,0.016,0c0.367,0,0.643-0.228,1.449-1.121c1.05-1.183,1.004-1.386,0.977-1.508
			C70.309,462.726,70.011,462.693,69.921,462.693z"/>
		<path style="fill-rule:evenodd;clip-rule:evenodd;fill:#0F0B0D;" d="M442.087,469.136c-0.696-0.542-2.236-1.652-3.4-2.47
			c-6.148-4.26-7.669-5.604-11.622-10.278c-3.018-3.563-4.358-4.844-8.958-8.576c-4.143-3.366-6.243-5.37-7.752-7.391
			c-0.95-1.263-1.856-3.073-2.156-4.307c-0.48-2.024-0.123-4.028,0.932-5.226c0.219-0.247,0.227-0.247,0.317-0.247
			c0.088,0,0.2,0.015,0.355,0.036c2.17,0.254,4.407,1.398,7.257,3.71c2.732,2.227,4.934,4.47,13.084,13.337
			c8.044,8.744,10.558,11.397,14.945,15.772c3.055,3.044,4.276,4.363,4.394,4.566c0.141,0.355,0.152,0.995,0.05,1.18
			c-0.031,0.053-0.172,0.191-0.347,0.298c-0.239,0.14-0.533,0.184-2.275,0.248c-1.092,0.042-2.441,0.118-2.946,0.165l-0.747,0.074
			L442.087,469.136z"/>
		<path style="fill-rule:evenodd;clip-rule:evenodd;fill:#0F0B0D;" d="M391.898,469.75c-4.925-1.708-7.864-2.096-17.47-2.303
			c-6.058-0.132-7.094-0.217-13.845-1.13c-1.117-0.143-2.417-0.307-2.898-0.35l-0.099-0.009c0.293-0.216,0.801-0.571,1.368-0.955
			c0.653-0.432,2.065-1.435,3.211-2.282c2.415-1.803,3.404-2.388,6.226-3.68c3.827-1.759,4.857-2.53,6.888-5.154
			c1.455-1.862,1.87-2.215,5.546-4.723c0.808-0.554,2.174-1.577,3.047-2.28c1.574-1.277,3.594-2.874,6.974-5.516
			c1.223-0.95,1.718-1.268,2.407-1.546c1.998-0.821,4.739-2.556,8.626-5.461c3.204-2.387,4.052-2.924,5.339-3.385
			c0.172-0.06,0.331-0.11,0.466-0.148c-0.107,0.182-0.19,0.342-0.207,0.374c-1.037,2.075-0.944,4.729,0.256,7.286
			c1.293,2.778,3.554,5.308,8.064,9.025l1.128,0.933c0.939,0.776,1.945,1.608,2.57,2.135c1.996,1.647,4.181,3.764,5.57,5.396
			l0.12,0.143c0.58,0.689,1.421,1.688,1.949,2.306c1.348,1.6,4.044,4.269,5.442,5.387c1.165,0.934,2.479,1.885,5.623,4.072
			c1.04,0.726,2.304,1.644,2.815,2.047l0.381,0.299c-1.311,0.042-8.132,0.098-23.909,0.121l-23.733,0.044L391.898,469.75z"/>
		<path style="fill-rule:evenodd;clip-rule:evenodd;fill:#0F0B0D;" d="M146.319,464.772c-0.587-0.243-1.973-0.717-3.092-1.057
			c-2.59-0.779-3.454-1.085-6.168-2.179c-2.918-1.183-3.706-1.457-6.486-2.253c-2.614-0.74-3.866-1.187-5.581-1.996
			c-1.063-0.507-2.287-1.205-2.903-1.604c2.979-0.571,20.277-3.048,24.982-3.45c2.333-0.193,7.511-0.449,23.088-1.143
			c5.123-0.228,7.201-0.523,9.667-1.366c0.049-0.017,0.097-0.034,0.145-0.05c-0.311,0.251-0.693,0.548-1.142,0.885
			c-0.704,0.523-2.771,1.954-4.611,3.169c-7.209,4.787-8.091,5.233-13.49,6.807c-1.163,0.339-2.596,0.786-3.195,0.996
			c-0.705,0.246-2.661,1.042-2.886,1.37c-0.099,0.086-0.941,0.501-1.91,0.828c-0.491,0.177-1.912,0.569-3.241,0.896l-2.238,0.551
			L146.319,464.772z"/>
	</g>
</g>
</svg>
