<svg width="750" height="409" viewBox="0 0 750 409" fill="none" xmlns="http://www.w3.org/2000/svg">
<path d="M754.106 407.941C752.005 403.196 748.369 398.689 744.073 394.549C742.537 393.069 741.745 391.872 739.578 391.466C738.138 391.196 736.774 392.138 735.377 391.274C732.967 389.782 733.556 386.59 731.734 384.49C727.087 379.132 724.834 372.016 720.407 366.336C716.723 361.609 713.618 355.832 709.203 351.452C706.038 348.311 703.592 345.514 699.11 345.041C694.343 344.538 692.402 343.438 688.194 340.576C683.534 337.406 678.061 335.829 673.504 332.753C672.474 332.058 671.488 330.762 670.582 330.042C669.807 329.426 668.822 328.945 667.953 328.206C666.617 327.069 664.496 325.599 663.445 324.227C660.335 320.167 659.01 314.77 655.243 310.882C651.871 307.403 647.85 305.285 643.911 302.707C641.231 300.953 638.971 296.949 636.078 295.811C633.153 294.66 628.751 295.813 625.685 295.686C619.726 295.439 616.795 291.096 611.638 289.061C608.736 287.916 604.051 286.076 601.251 285.429C597.944 284.665 596.962 286.035 594.187 287.673C589.712 290.314 584.675 292.293 579.409 290.817C575.253 289.653 571.699 286.495 567.052 286.845C565.133 286.99 563.142 288.031 561.004 288.118C559.114 288.195 556.935 287.68 555.082 288.006C551.281 288.674 550.773 289.991 547.214 288.452C544.367 287.221 543.378 286.527 541.916 283.584C540.728 281.192 540.163 278.593 539.028 276.084C538.643 275.232 537.954 273.654 537.189 272.972C534.864 270.899 531.909 272.202 529.427 270.565C527.614 269.369 527.879 267.754 526.694 265.953C525.282 263.807 523.236 262.241 520.993 261.018C516.456 258.544 511.74 258.533 508.47 254.031C505.558 250.022 504.906 246.655 501.005 243.385C498.858 241.585 496.864 239.606 495.416 237.116C493.036 233.021 492.091 228.984 489.107 225.092C485.447 220.319 480.951 217.48 475.701 214.592C470.02 211.467 463.765 209.992 457.851 207.421C453.015 205.319 448.945 202.27 444.413 199.553C440.459 197.183 436.933 195.257 432.12 195.01C429.176 194.859 425.989 195.754 423.086 194.968C419.197 193.915 416.78 190.147 414.081 187.505C407.775 181.332 401.144 181.723 393.464 178.743C384.367 175.214 377.423 167.739 368.827 163.578C360.402 159.499 354.393 154.274 347.199 148.422C340.902 143.3 335.313 137.068 328.673 132.431C321.97 127.751 315.549 123.326 309.096 118.291C302.132 112.856 297.918 104.636 291.057 98.9794C289.171 97.4244 286.545 96.4104 284.937 94.5624C283.713 93.1564 283.933 92.0754 282.17 91.4854C279.496 90.5904 276.507 92.0534 274.294 93.0574C269.383 95.2864 265.371 96.4694 259.89 96.1214C257.649 95.9794 256.203 95.2614 254.045 94.8914C250.369 94.2614 247.928 96.2674 244.482 96.2284C239.701 96.1754 238.762 89.5844 235.368 86.6514C232.617 84.2734 229.696 84.0814 226.512 82.6644C223.457 81.3054 221.454 79.0254 219.138 76.6994C214.767 72.3094 211.337 65.5134 205.596 62.9084C202.958 61.7114 200.235 61.5304 197.656 60.1654C194.122 58.2954 193.011 55.7714 190.602 52.8924C185.795 47.1484 177.705 45.1484 172.592 39.1714C164.398 29.5924 155.96 20.3974 146.73 11.6494C144.367 9.41037 141.549 8.05937 139.075 6.03137C138.29 5.38837 136.375 2.89436 135.141 2.88136C131.314 2.84236 127.325 10.1844 125.039 12.5114C122.535 15.0614 119.898 16.3794 117.056 18.4634C114.418 20.3984 112.654 22.5964 109.714 24.1294C102.526 27.8784 94.0256 32.6264 86.2216 34.3724C79.2496 35.9324 72.3806 36.6344 65.7026 39.0934C62.8726 40.1354 57.1776 43.9704 55.5236 40.6954C54.7316 39.1264 55.4865 37.9524 54.2085 36.0994C53.1415 34.5534 51.1606 33.0114 49.6316 31.9334C44.7996 28.5254 38.6876 27.6764 33.5486 24.6054C23.5726 18.6424 16.2295 9.48837 6.40255 3.29337C-2.22345 -2.14463 -7.99445 -0.622631 -12.0234 8.76337C-17.8934 22.4384 -21.9905 37.6214 -26.4645 51.7374C-37.1815 85.5504 -43.1575 120.298 -49.1905 155.2C-58.4435 208.725 -65.9785 264.572 -61.2975 318.957C-59.3995 341.01 -54.7075 366.823 -41.4435 385.309C-25.9795 406.86 -1.72145 412.458 22.6506 418.327C43.7336 423.404 64.8456 427.801 85.7876 433.491C116.137 441.737 146.202 449.671 177.35 454.405C200.938 457.99 224.854 460.682 248.664 462.281C280.243 464.402 311.847 463.031 343.456 463.896C364.573 464.474 385.683 466.02 406.819 464.953C425.263 464.021 443.683 461.343 461.958 458.734C478.01 456.443 493.787 453.214 509.924 451.461C528.686 449.423 547.797 446.229 566.692 446.134C577.768 446.079 588.775 447.401 599.861 447.186C611.949 446.951 623.901 445.255 635.939 444.343C642.572 443.841 647.776 443.836 654.133 445.608C661.991 447.798 667.327 446.159 675.03 444.098C680.633 442.598 686.159 441.117 691.708 439.438C696.739 437.916 700.401 437.469 704.999 440.254C707.182 441.576 708.581 443.344 711.225 443.955C716.994 445.287 724.87 441.174 730.265 439.575C737.151 437.533 745.23 436.141 750.101 430.596C756.948 422.803 757.276 415.102 754.106 407.941Z" fill="url(#paint0_linear_471_2573)"/>
<defs>
<linearGradient id="paint0_linear_471_2573" x1="327.081" y1="315.211" x2="439.575" y2="63.2239" gradientUnits="userSpaceOnUse">
<stop stop-color="#012A40"/>
<stop offset="1" stop-color="#000F1C"/>
</linearGradient>
</defs>
</svg>
