<svg width="370" height="170" viewBox="0 0 370 170" fill="none" xmlns="http://www.w3.org/2000/svg">
<path d="M7.37909 81.2223C10.0541 79.1983 15.3201 78.0733 17.7331 77.9393C22.1991 77.6903 27.1271 78.7023 31.4861 79.5373C37.8691 80.7613 42.5921 78.8093 48.7311 77.7183C56.7781 76.2893 63.7161 72.8163 71.5181 70.5863C74.0191 69.8713 76.5191 69.5813 78.9231 68.5283C81.0221 67.6083 83.4321 65.5843 85.8491 65.8793C88.9331 66.2553 89.9751 69.0303 93.1511 67.1183C96.9261 64.8473 99.9811 61.2963 104.632 60.9533C107.949 60.7093 111.267 61.4693 114.509 60.5363C117.297 59.7343 119.11 59.0213 121.996 59.0023C124.524 58.9863 125.754 59.8983 127.928 60.9723C130.439 62.2123 134.104 63.9023 136.951 64.0453C138.526 64.1243 139.672 63.5483 141.15 63.2213C144.063 62.5773 147.271 62.9903 150.244 63.0223C158.643 63.1133 168.35 60.8213 175 55.5543C183.693 48.6693 191.201 39.4733 201.753 35.2213C212.189 31.0163 220.774 23.6373 231.073 18.9473C236.785 16.3463 242.86 14.2723 247.915 10.5463C252.038 7.5073 256.475 5.2943 261.017 2.9793C263.948 1.4863 267.055 -0.159696 269.997 1.9273C273.386 4.3313 276.721 8.5343 279.479 11.5683C285.781 18.4983 291.226 25.9083 298.774 31.5973C303.364 35.0563 309.44 38.6923 314.985 40.0193C320.604 41.3643 326.308 42.5653 331.919 43.9743C335.462 44.8633 338.719 46.9483 342.245 47.8243C344.009 48.2623 344.628 47.5793 346.218 47.1963C348.455 46.6583 349.859 47.7073 351.992 48.0293C354.997 48.4823 358.361 49.6913 361.45 49.4593C367.676 48.9923 372.242 44.2623 377.983 42.5053C384.454 40.5243 386.96 44.2373 389.6 49.9743C395.612 63.0403 402.389 76.0613 405.997 90.0403C408.243 98.7453 409.368 108.006 409.654 116.99C409.89 124.422 409.437 131.548 404.108 137.082C397.234 144.222 386.494 146.64 377.434 149.699C362.452 154.758 347.056 158.257 331.586 161.466C284.252 171.284 236.59 170.796 188.685 165.92C167.403 163.754 146.099 161.923 124.777 160.198C105.935 158.675 86.9351 157.971 68.2241 155.138C54.6781 153.087 41.1261 150.204 29.2511 143.07C22.4411 138.979 16.1581 134.131 9.60208 129.661C5.37908 126.782 1.33309 122.866 0.535093 117.566C0.0270932 114.194 1.27709 110.582 2.02209 107.299C2.76209 104.038 2.6091 100.661 2.5751 97.3453C2.5481 94.6253 2.0761 90.2563 3.5011 87.7953C4.0491 86.8483 4.95409 86.6553 5.48309 85.8833C6.17009 84.8813 5.4941 84.0193 5.9191 82.9533C6.1781 82.3193 6.69309 81.7413 7.37909 81.2223Z" fill="url(#paint0_linear_471_2567)"/>
<defs>
<linearGradient id="paint0_linear_471_2567" x1="261.143" y1="-13.694" x2="198.757" y2="124.941" gradientUnits="userSpaceOnUse">
<stop stop-color="#4E6471"/>
<stop offset="1" stop-color="#5B6972"/>
</linearGradient>
</defs>
</svg>
