<svg width="336" height="122" viewBox="0 0 336 122" fill="none" xmlns="http://www.w3.org/2000/svg">
<path d="M346.266 43.2081C343.164 41.3251 338.993 39.9491 336.586 38.5431C334.516 37.3331 331.416 33.8891 329.032 34.0151C327.907 34.0741 327.152 35.3131 325.949 35.0991C324.946 34.9211 323.509 33.2731 322.66 32.6601C321.704 31.9711 320.738 31.3571 320.002 30.4141C319.339 29.5651 319.184 28.383 318.271 27.706C317.419 27.074 316.854 27.418 315.975 27.025C314.559 26.391 313.583 25.0941 312.472 23.9401C309.337 20.6861 305.037 20.2641 301.175 18.0191C298.85 16.6681 296.777 12.6901 294.252 12.1511C293.142 13.4381 291.814 15.727 290.272 14.144C288.566 16.39 286.382 16.574 283.998 16.948C281.391 17.357 279.837 19.0141 277.002 18.9961C273.874 18.9761 273.798 18.9351 271.803 17.0001C269.768 15.0261 266.854 14.899 264.493 13.387C262.712 12.247 260.715 9.87206 258.78 9.19906C256.459 8.39306 254.385 9.53704 252.202 7.74904C251.336 7.04004 251.016 6.48306 250.028 5.97506C249.285 5.59306 248.574 5.84505 247.732 5.27105C246.058 4.12905 245.307 1.60905 243.254 1.15505C241.565 2.70305 241.458 4.53405 240.465 6.49105C238.928 9.51705 235.673 12.223 232.571 13.527C228.885 15.078 225.148 16.2771 221.514 18.0001C218.033 19.6511 214.584 21.977 210.73 22.02C206.789 22.064 202.111 22.6961 198.227 22.0491C195.839 21.6511 194.762 20.3761 193.001 18.9761C190.662 17.1161 187.632 16.8301 185.204 15.0241C183.322 13.6251 182.02 11.904 179.982 10.73C178.393 9.81505 176.848 8.85606 175.591 7.50106C173.969 5.75206 170.55 1.36906 168.025 1.53106C165.971 1.66306 162.924 5.16206 161.034 6.07206C158.699 7.19606 156.297 7.04305 153.783 7.00405C150.731 6.95605 149.19 7.72705 146.274 8.78205C142.388 10.188 137.788 11.1711 133.726 11.8021C129.566 12.4481 125.215 11.8201 121.027 11.9531C115.912 12.1151 111.056 13.873 105.961 14.049C102.117 14.182 98.7514 13.991 94.9864 14.775C91.8124 15.436 89.9594 14.1861 87.0574 13.9551C84.4814 13.7501 81.5634 15.0221 79.0274 15.5091C74.9654 16.2891 73.0024 15.7211 69.2574 14.2231C66.5834 13.1541 63.9045 12.6221 61.0585 13.2231C56.4625 14.1941 52.8314 13.6611 48.2774 12.0521C43.7034 10.4361 39.8344 8.73806 34.8784 8.22306C27.1804 7.42306 21.4364 7.14406 14.1344 3.97706C11.5034 2.83606 4.05344 -1.51995 1.01844 1.76705C-0.0685577 2.94405 1.48844 8.47604 1.77244 9.51204C3.33844 15.219 7.23644 20.8121 9.65144 26.0991C13.8934 35.3831 16.9494 45.1641 21.1334 54.4711C25.5914 64.3881 31.7104 75.0161 38.7614 83.4541C48.4304 95.0251 60.8674 99.0571 74.6714 103.108C86.5184 106.585 98.4355 109.916 110.442 112.791C135.123 118.7 160.682 120.539 185.991 121.437C211.694 122.349 237.495 118.07 263.032 115.455C276.145 114.112 289.361 112.834 302.521 112.066C310.873 111.579 319.001 113.446 327.35 112.942C334.53 112.509 344.533 112.451 349.472 106.55C353.686 101.516 354.8 95.7441 355.549 89.3761C356.427 81.9171 356.164 74.364 354.794 66.981C354.093 63.206 353.144 59.451 351.917 55.813C351.384 54.233 350.521 52.6541 350.222 51.0091C349.961 49.5751 350.48 47.895 349.805 46.551C349.149 45.258 347.846 44.1671 346.266 43.2081Z" fill="url(#paint0_linear_471_2571)"/>
<defs>
<linearGradient id="paint0_linear_471_2571" x1="211.655" y1="-25.8133" x2="165.782" y2="76.1272" gradientUnits="userSpaceOnUse">
<stop stop-color="#012A40"/>
<stop offset="1" stop-color="#033E50"/>
</linearGradient>
</defs>
</svg>
