<svg width="503" height="207" viewBox="0 0 503 207" fill="none" xmlns="http://www.w3.org/2000/svg">
<path d="M498.006 130.234C496.066 129.198 493.615 128.707 491.797 127.867C487.836 126.037 483.883 124.159 479.987 122.194C473.239 118.791 466.333 115.626 459.725 111.952C454.218 108.889 449.027 105.554 443.166 103.151C437.554 100.851 431.692 99.086 426.013 96.952C414.847 92.755 403.861 88.746 393.134 83.431C382.869 78.345 373.325 71.944 363.849 65.536C356.066 60.273 350.213 53.899 341.132 50.984C334.362 48.811 327.762 47.539 320.847 46C317.886 45.341 314.87 45.057 312.018 44.003C310.094 43.292 308.131 42.403 306.092 42.079C303.735 41.704 303.13 42.475 301.255 43.048C299.857 43.475 297.33 42.974 295.984 42.774C293.371 42.386 290.658 42.241 288.064 41.778C277.392 39.869 269.733 32.913 260.333 27.952C255.684 25.499 251.061 23.09 246.267 20.954C244.832 20.315 243.61 19.322 242.191 18.703C240.538 17.982 238.904 18.086 237.155 17.755C232.486 16.869 227.799 16.837 223.055 16.243C220.631 15.939 218.668 15.981 216.367 15.053C214.093 14.136 211.85 12.685 209.406 12.201C205.964 11.518 202.449 11.622 198.956 10.799C192.556 9.29002 186.011 7.28401 179.845 5.00501C174.649 3.08501 167.018 -0.454981 161.155 0.927019C160.006 1.19802 159.213 1.89502 158.149 2.37102C156.269 3.21302 154.034 3.45502 152.048 3.97302C143.378 6.23502 134.359 6.40801 125.809 9.22801C121.61 10.613 117.608 11.84 113.338 12.973C109.5 13.992 106.095 15.812 102.342 17.053C95.2424 19.401 87.8184 22.441 80.4624 23.775C74.7264 24.815 68.9034 26.041 63.1174 26.795C56.7114 27.629 51.1544 25.879 44.9344 24.779C38.1074 23.572 31.5604 21.18 24.5424 20.953C22.3964 20.884 20.2374 21.108 18.0924 21.024C15.5934 20.926 13.3964 20.06 10.9054 19.946C6.77939 19.757 2.15639 19.089 -1.94161 19.679C-7.47261 20.476 -11.2656 22.414 -16.0106 25.236C-19.7926 27.486 -23.8906 29.282 -28.0176 30.786C-33.0436 32.617 -38.4106 33.422 -43.0806 36.136C-46.8886 38.349 -49.5546 40.451 -49.8626 45.093C-50.6276 56.638 -39.2956 66.716 -31.7406 73.548C-3.79761 98.816 29.3494 117.221 63.2054 133.262C85.7734 143.955 108.914 153.498 132.294 162.26C147.267 167.979 162.425 173.153 177.769 177.781C193.357 182.131 209.095 185.853 224.982 188.946C273.607 199.047 323.348 204.318 372.998 205.932C406.51 207.021 441.727 205.684 473.016 192.357C485.291 187.129 492.697 177.907 498.268 165.94C500.644 160.835 500.969 155.128 501.913 149.727C502.715 145.14 500.295 141.311 500.629 136.963C500.725 135.717 501.306 134.653 500.897 133.392C500.413 131.899 499.329 130.941 498.006 130.234Z" fill="url(#paint0_linear_471_2525)"/>
<defs>
<linearGradient id="paint0_linear_471_2525" x1="213.095" y1="28.5899" x2="231.094" y2="118.585" gradientUnits="userSpaceOnUse">
<stop stop-color="#20495B"/>
<stop offset="1" stop-color="#2D5161"/>
</linearGradient>
</defs>
</svg>
