<svg width="301" height="145" viewBox="0 0 301 145" fill="none" xmlns="http://www.w3.org/2000/svg">
<path d="M11.3203 67.8772C14.6713 65.5212 18.7563 64.1732 22.1093 61.7322C25.9373 58.9452 30.3423 56.8942 35.0523 56.1512C37.2403 55.8062 39.4143 56.2392 41.5953 55.9892C44.4033 55.6672 46.2773 54.6312 48.7813 53.2652C54.0563 50.3882 60.8403 45.9482 66.9933 46.0002C69.6653 46.0232 69.2983 45.9432 70.9453 43.9972C71.8503 42.9282 73.4753 41.5402 74.7033 41.1032C76.5823 44.7852 82.3693 46.0052 86.0023 47.0372C91.1823 48.5082 97.2103 48.3202 101.952 51.1442C105.764 53.4142 108.567 55.8322 113.23 56.1192C117.145 56.3602 121.181 55.9092 125.104 55.9522C132.416 56.0322 139.158 58.6912 146.255 60.3132C154.916 62.2922 161.777 55.8182 168.848 51.6642C173.708 48.8082 178.692 47.3932 184.106 46.0352C189.91 44.5792 195.097 41.2742 201.003 39.9622C209.281 38.1222 217.54 36.2402 225.867 34.6142C234.369 32.9542 242.879 33.2982 251.404 32.0062C255.617 31.3672 259.873 31.0302 263.978 29.8452C269.841 28.1522 274.853 24.3532 280.547 22.5802C284.24 21.4292 287.287 22.2412 290.962 22.7782C295.877 23.4952 301.858 23.4712 306.588 21.9882C313.812 19.7232 320.916 16.1012 327.163 11.9152C333.956 7.36221 340.835 2.30821 348.929 0.467208C354.148 -0.720792 357.361 0.331212 361.071 4.02821C365.608 8.55121 369.57 16.3172 372.069 22.0162C380.235 40.6382 380.647 61.6882 376.031 81.3082C369.498 109.076 340.316 124.619 315.154 132.478C296.661 138.254 277.32 141.991 258.016 143.395C230.214 145.416 201.324 144.78 173.581 142.115C152.524 140.092 131.132 138.203 110.453 133.624C95.1063 130.226 79.9353 125.375 65.0803 120.252C53.2873 116.185 41.7633 112.298 31.1453 105.616C25.3693 101.981 20.3693 97.2882 14.4503 93.8712C12.2043 92.5742 9.8843 91.5602 7.4903 90.5882C5.3683 89.7272 3.0133 89.3242 1.7623 87.1342C-0.123695 83.8082 1.49031 77.7912 4.06931 75.0862C4.75131 74.3712 5.66831 74.2032 6.39631 73.6152C7.32331 72.8662 7.37232 72.4602 7.91532 71.4542C8.69532 70.0082 9.0703 69.6212 10.4863 68.5012C10.7573 68.2842 11.0363 68.0772 11.3203 67.8772Z" fill="url(#paint0_linear_471_2527)"/>
<defs>
<linearGradient id="paint0_linear_471_2527" x1="191.323" y1="52.0087" x2="186.323" y2="124.009" gradientUnits="userSpaceOnUse">
<stop stop-color="#012A40"/>
<stop offset="1" stop-color="#033E50"/>
</linearGradient>
</defs>
</svg>
