<svg width="586" height="244" viewBox="0 0 586 244" fill="none" xmlns="http://www.w3.org/2000/svg">
<path d="M582.064 0.64291C581.482 0.65491 580.793 0.783904 579.975 1.0559C574.941 2.7289 570.664 6.4239 565.771 8.4859C562.682 9.7879 559.18 10.0739 556.212 11.6239C553.589 12.9929 552.093 15.4529 549.915 17.3399C548.821 18.2879 547.658 19.0029 546.189 19.1649C543.03 19.5129 539.874 17.4399 536.837 18.0239C535.057 18.3659 534.079 19.7849 532.915 20.9829C530.91 23.0469 528.694 24.0439 526.059 25.1169C523.187 26.2859 519.761 24.5819 517.066 26.1999C515.168 27.3399 515.844 29.3279 513.16 28.8229C512.075 28.6189 511.255 27.3779 510.189 27.1499C508.225 26.7309 506.864 28.3059 505.162 28.7989C502.633 29.5319 499.696 28.7379 497.112 28.9469C495.69 29.0619 493.678 29.4939 492.34 29.9759C491.072 30.4319 490.334 31.3639 489.164 31.8279C487.868 32.3429 486.682 31.7369 485.36 31.9469C484.072 32.1519 483.27 32.6549 482.137 33.2499C479.078 34.8559 476.04 35.1169 472.89 36.1729C470.052 37.1249 468.039 39.7859 465.389 41.0699C463.01 42.2229 460.561 41.9199 458.138 42.9759C456.147 43.8429 454.06 45.1069 452.115 46.2499C449.901 47.5509 448.821 49.9999 446.19 50.7959C444.834 51.2059 443.277 50.5359 442.035 50.9469C441.134 51.2449 441.029 51.8479 440.194 52.2759C438.877 52.9509 437.467 53.4799 436.167 54.0269C433.027 55.3469 429.649 56.0829 426.409 57.1939C422.58 58.5079 419.715 61.5049 416.138 63.0209C413.892 63.9729 412.222 64.4659 410.138 65.7749C407.957 67.1449 405.391 67.7259 403.138 69.0239C401.182 70.1509 399.287 70.5569 397.115 70.9969C395.631 71.2979 394.674 71.8279 393.161 72.0199C392.211 72.1409 391.004 71.6919 390.086 71.9489C389.147 72.2109 389.045 72.8289 388.209 73.2679C386.595 74.1149 386.019 74.0679 384.161 73.8049C380.702 73.3149 381.047 72.4859 378.141 74.7069C375.266 76.9049 374.06 78.7859 370.383 78.9969C366.796 79.2029 365.622 80.9059 362.918 83.0199C360.668 84.7799 359.109 85.4149 356.36 85.2509C354.256 85.1259 354.826 84.5739 353.141 86.1479C351.845 87.3579 351.427 90.2309 349.086 90.1159C348.136 90.0689 348.089 88.7299 347.115 88.8739C345.719 89.0789 346.397 89.9989 345.916 90.9739C345.473 91.8709 345.152 93.3259 344.187 93.8489C343.283 94.3389 342.102 93.8779 341.116 94.1929C339.906 94.5789 337.914 96.2079 336.911 96.9459C335.634 97.8859 334.808 98.9699 333.438 99.7749C331.446 100.946 329.337 101.625 327.358 103.024C324.202 105.255 320.527 106.103 317.087 107.997C315.44 108.904 313.971 110.355 312.119 110.846C310.707 111.221 309.441 110.659 308.119 110.922C306.089 111.326 304.995 113.38 303.139 114.291C300.744 115.465 298.662 114.516 296.187 114.926C294.324 115.235 293.565 116.316 291.936 117.049C289.856 117.985 288.409 118.059 286.139 118.017C282.599 117.952 279.516 117.953 276.143 118.752C273.777 119.312 271.5 120.293 269.139 119.748C266.763 119.2 266.288 119.846 264.162 120.994C262.105 122.105 260.257 122.032 257.943 122.001C254.646 121.957 253.084 122.881 250.139 123.795C247.296 124.677 244.784 122.593 241.842 123.177C238.969 123.747 236.964 126.09 234.088 126.798C231.695 127.387 230.141 127.63 227.917 128.972C225.168 130.631 222.838 131.557 219.862 132.723C217.202 133.765 214.983 135.76 212.391 136.8C211.299 137.238 210.236 137.126 209.144 137.674C207.604 138.446 207.396 139.374 206.164 140.526C204.004 142.545 201.21 142.553 198.97 144.122C195.356 146.654 193.424 149.438 189.193 150.997C187.255 151.711 185.021 151.848 183.364 153.168C181.477 154.671 180.415 155.935 178.165 157.043C173.86 159.163 169.262 159.984 165.13 162.582C163.474 163.624 162.1 165.132 160.412 166.1C158.493 167.202 155.971 167.34 153.881 168C151.405 168.782 148.803 169.18 146.392 170.167C143.824 171.219 141.664 172.992 139.125 174.075C137.088 174.944 135.072 174.956 133.161 176.171C130.752 177.703 128.767 178.955 126.161 180.219C119.7 183.354 113.674 188.045 106.947 190.601C104.835 191.403 102.765 191.271 100.612 191.67C97.4928 192.248 94.8828 193.83 92.3378 195.679C87.2748 199.357 83.9068 204.345 77.4178 205.793C71.6238 207.086 67.4918 208.768 62.6398 212.247C60.4888 213.789 58.3628 215.352 56.1408 216.797C53.4258 218.564 50.2918 219.311 47.6428 221.171C42.0468 225.098 37.0108 229.307 31.0788 232.829C23.4998 237.33 15.5048 240.858 8.32276 246.044C6.56876 247.311 -4.19225 252.633 2.34575 254.087C5.90875 254.879 11.0738 253.549 14.4868 253.067C25.5138 251.512 36.6128 249.808 47.7338 249.108C74.5768 247.418 101.398 252.936 127.651 257.718C143.101 260.532 158.682 263.275 174.31 264.893C196.474 267.186 218.88 267.547 241.113 268.948C282.509 271.556 323.532 277.608 364.857 280.841C413.056 284.612 461.48 283.887 509.725 286.976C520.019 287.635 530.337 288.239 540.611 289.195C554.431 290.481 568.03 294.006 581.842 295.039C589.531 295.614 597.409 295.046 603.473 289.545C607.993 284.568 610.889 278.748 612.162 272.086C614.594 263.58 616.233 254.923 617.08 246.114C618.783 230.731 619.199 215.075 620.188 199.63C621.178 184.181 622.157 168.694 622.982 153.238C623.575 142.125 623.5 130.975 622.057 119.927C620.313 106.571 617.832 92.2559 614.021 79.3159C610.228 66.4399 604.054 54.4389 600.046 41.5879C598.258 35.8549 597.337 29.8299 595.898 23.9939C595.169 21.0389 594.307 18.0169 592.619 15.4479C590.889 12.8139 587.165 11.3789 586.248 8.36889C585.217 4.99989 585.655 0.57291 582.064 0.64291Z" fill="url(#paint0_linear_471_2542)"/>
<defs>
<linearGradient id="paint0_linear_471_2542" x1="301.203" y1="325.793" x2="320.702" y2="126.303" gradientUnits="userSpaceOnUse">
<stop stop-color="#010713"/>
<stop offset="1" stop-color="#010005"/>
</linearGradient>
</defs>
</svg>
