<svg width="740" height="331" viewBox="0 0 740 331" fill="none" xmlns="http://www.w3.org/2000/svg">
<path d="M717.171 333.073C711.214 328.704 704.928 324.445 698.413 320.663C698.644 320.568 698.903 320.393 698.989 320.249C698.955 320.306 698.108 320.187 697.367 320.047C697.186 319.944 697.002 319.849 696.821 319.747C697.224 319.744 697.623 319.734 697.41 319.498C698.066 319.709 697.832 319.104 698.162 318.661C697.725 318.575 696.685 319.309 696.422 318.599C696.615 318.543 696.777 318.637 696.975 318.615C696.927 318.486 696.847 318.38 696.734 318.296C697.116 318.253 697.202 318.208 697.222 317.845C696.889 317.996 695.433 318.14 695.138 317.757C695.312 317.788 695.958 317.615 696.335 317.517C696.197 317.391 696.06 317.264 695.923 317.138C696.012 317.141 697.379 316.915 697.02 316.702C697.484 316.536 697.479 316.427 697.007 316.374C697.293 316.049 695.86 316.304 696.09 316.258C695.954 316.062 696.501 316.09 696.343 315.924C696.28 315.943 694.423 316.376 694.083 315.44C695.543 316.108 696.121 315.099 696.979 314.508C696.111 314.272 696.087 314.536 695.263 314.294C695.661 314.142 693.513 314.003 693.123 313.45C693.413 313.562 694.41 313.736 694.541 313.425C694.53 313.95 695.527 313.367 695.545 313.37C695.499 313.287 695.435 312.871 695.479 312.836C695.694 312.994 696.609 312.773 696.482 312.478C695.388 312.478 696.458 311.974 695.383 312.573C695.292 312.433 695.269 312.374 695.407 312.155C694.561 312.15 694.333 313.006 693.299 311.919C693.467 311.716 693.968 312.357 693.888 311.89C693.963 311.946 694.928 312.065 695.166 312.001C694.397 311.23 695.063 311.766 695.491 311.859C695.538 311.678 695.806 311.531 695.558 311.365C695.851 311.365 695.951 311.4 696.15 311.184C695.827 311.003 694.48 311.068 694.678 310.764C694.25 310.863 694.392 310.885 694.325 310.601C694.009 310.968 693.63 311.053 693.189 310.856C693.412 310.652 693.118 310.529 692.811 310.396C692.871 310.388 692.933 310.308 692.992 310.113C693.166 310.232 693.34 310.35 693.513 310.469C693.399 310.19 694.503 310.454 695.155 310.139C694.573 309.538 694.18 309.284 693.504 309.521C693.34 309.127 694.808 309.032 693.452 308.788C693.616 308.538 694.036 308.497 694.371 308.29C694.206 308.133 694.107 308.144 693.905 308.061C694.499 307.382 694.108 307.729 694.108 307.002C693.339 307.268 693.354 308.025 692.363 308.351C692.344 308.036 692.006 307.056 692.611 307.083C692.611 307.561 692.9 307.145 693.297 307.145C693.087 306.981 692.877 306.816 692.667 306.652C692.898 306.604 693.329 306.759 693.512 306.586C693.456 306.423 693.317 306.337 693.095 306.328C693.471 306.223 693.589 306.094 693.448 305.943C692.945 306.386 692.726 306.385 692.791 305.938C692.718 306.26 692.552 306.488 692.294 306.623C692.45 306.303 692.768 305.249 692.809 305.296C692.632 305.088 692.4 305.648 692.286 305.63C692.26 305.493 692.112 304.695 691.986 304.695C691.986 305.988 692.223 306.077 691.466 305.359C691.407 305.396 691.917 306.659 691.876 306.868C691.64 306.44 691.742 306.357 691.488 306.021C691.221 306.468 691.261 306.114 690.856 306.094C690.861 306.903 691.429 306.973 691.429 307.423C691.304 307.299 691.162 307.242 691.003 307.252C690.871 307.41 691.238 307.685 691.291 307.734C690.733 307.933 690.602 307.559 690.054 307.492C690.094 307.747 690.174 307.818 690.386 307.948C690.218 307.933 690.108 307.995 690.058 308.133C690.056 308.217 690.571 308.395 690.634 308.62C690.433 308.602 690.273 308.665 690.154 308.809C690.167 309.133 691.09 309.015 691.263 308.939C691.338 309.061 691.262 309.153 691.035 309.216C691.237 309.424 692.205 309.124 692.041 309.53C691.877 309.936 689.673 309.034 690.538 309.636C689.538 309.509 689.517 308.925 688.631 309.58C688.948 309.658 689.264 309.735 689.581 309.813C688.837 310.455 689.993 309.833 690.1 309.9C689.076 310.588 690.561 310.134 690.761 310.085C690.798 310.146 690.399 310.422 690.342 310.547C690.764 310.701 691.532 310.525 692.049 309.957C692.798 311.451 689.867 310.214 690.187 310.952C689.978 310.893 688.959 310.729 688.864 311.154C688.854 311.152 689.934 311.817 689.88 312.044C689.617 311.903 689.349 311.895 689.074 312.019C689.309 312.141 689.367 312.32 689.249 312.554C688.526 312.031 688.989 312.554 688.032 312.44C687.949 312.925 689.272 312.948 689.253 313.395C689.64 312.971 689.993 313.817 690.413 314.044C689.726 314.226 688.561 313.894 688.088 314.395C688.341 314.76 689.06 315.303 689.497 315.269C689.477 315.384 689.022 315.435 688.588 315.459C687.32 314.855 686.047 314.267 684.767 313.714C674.897 309.454 665.364 304.103 656.043 298.373C655.997 298.289 655.934 297.875 655.978 297.84C656.193 297.998 657.108 297.777 656.981 297.482C655.887 297.482 656.957 296.978 655.882 297.577C655.791 297.437 655.768 297.378 655.906 297.159C655.303 297.155 655.01 297.579 654.52 297.435C654.355 297.333 654.189 297.232 654.024 297.129C653.951 297.066 653.881 297.01 653.798 296.923C653.966 296.72 654.467 297.361 654.387 296.894C654.462 296.95 655.427 297.069 655.665 297.005C654.896 296.234 655.562 296.77 655.99 296.863C656.037 296.682 656.305 296.535 656.057 296.369C656.35 296.369 656.45 296.404 656.649 296.188C656.326 296.007 654.979 296.072 655.177 295.768C654.749 295.867 654.891 295.889 654.824 295.605C654.508 295.972 654.129 296.057 653.688 295.86C653.911 295.656 653.617 295.533 653.31 295.4C653.37 295.392 653.432 295.312 653.491 295.117C653.665 295.236 653.839 295.354 654.012 295.473C653.898 295.194 655.002 295.458 655.654 295.143C655.072 294.542 654.679 294.288 654.003 294.525C653.839 294.131 655.307 294.036 653.951 293.792C654.115 293.542 654.535 293.501 654.87 293.294C654.705 293.137 654.606 293.148 654.404 293.065C654.998 292.386 654.607 292.733 654.607 292.006C653.839 292.272 653.853 293.029 652.862 293.355C652.843 293.04 652.505 292.06 653.11 292.087C653.11 292.565 653.399 292.149 653.796 292.149C653.586 291.985 653.376 291.82 653.166 291.656C653.397 291.608 653.828 291.763 654.011 291.59C653.955 291.427 653.816 291.341 653.594 291.332C653.97 291.227 654.088 291.098 653.947 290.947C653.444 291.39 653.225 291.389 653.29 290.942C653.217 291.264 653.051 291.492 652.793 291.627C652.949 291.307 653.267 290.253 653.308 290.3C653.131 290.092 652.899 290.652 652.785 290.634C652.759 290.497 652.611 289.699 652.485 289.699C652.485 290.992 652.722 291.081 651.965 290.363C651.906 290.4 652.416 291.663 652.375 291.872C652.139 291.444 652.241 291.361 651.987 291.025C651.72 291.472 651.76 291.118 651.355 291.098C651.36 291.907 651.928 291.977 651.928 292.427C651.803 292.303 651.661 292.246 651.502 292.256C651.37 292.414 651.737 292.689 651.79 292.738C651.232 292.937 651.101 292.563 650.553 292.496C650.593 292.751 650.673 292.822 650.885 292.952C650.717 292.937 650.607 292.999 650.557 293.137C650.555 293.221 651.07 293.399 651.133 293.624C650.932 293.606 650.772 293.669 650.653 293.813C650.666 294.137 651.589 294.019 651.762 293.943C651.837 294.065 651.761 294.157 651.534 294.22C651.736 294.428 652.704 294.128 652.54 294.534C652.376 294.94 650.172 294.038 651.037 294.64C650.244 294.539 650.061 294.161 649.579 294.331C643.265 290.314 637.036 286.198 630.86 282.203C626.012 279.067 623.415 276.092 619.468 272.191C618.297 271.033 616.725 269.55 615.09 269.267C613.273 268.953 611.462 269.759 609.409 270.456C607.761 271.016 605.665 271.583 603.838 272.264C600.647 273.453 598.583 275.404 595.165 276.162C592.822 276.682 590.41 276.685 588.082 277.176C585.626 277.694 583.293 278.488 580.935 279.21C580.496 279.16 580.057 279.111 580.176 278.928C579.748 279.027 579.89 279.049 579.823 278.765C579.507 279.132 579.128 279.217 578.687 279.02C578.91 278.816 578.616 278.693 578.309 278.56C578.369 278.552 578.431 278.471 578.49 278.277C578.664 278.396 578.838 278.514 579.011 278.633C578.897 278.354 580.001 278.618 580.653 278.303C580.071 277.702 579.678 277.448 579.002 277.685C578.838 277.292 580.306 277.196 578.95 276.952C579.114 276.702 579.534 276.661 579.869 276.454C579.704 276.298 579.605 276.308 579.403 276.226C579.997 275.547 579.606 275.894 579.606 275.167C578.838 275.433 578.852 276.19 577.861 276.516C577.842 276.2 577.504 275.221 578.109 275.248C578.109 275.726 578.398 275.31 578.795 275.31C578.585 275.146 578.375 274.981 578.165 274.817C578.396 274.769 578.827 274.924 579.01 274.751C578.954 274.588 578.815 274.502 578.593 274.493C578.969 274.388 579.087 274.259 578.946 274.108C578.443 274.551 578.224 274.55 578.289 274.103C578.216 274.425 578.05 274.653 577.792 274.788C577.948 274.468 578.266 273.413 578.307 273.461C578.13 273.253 577.898 273.813 577.784 273.795C577.758 273.657 577.61 272.86 577.484 272.86C577.484 274.153 577.721 274.242 576.964 273.524C576.905 273.561 577.415 274.824 577.374 275.033C577.138 274.605 577.24 274.522 576.986 274.186C576.719 274.633 576.759 274.279 576.354 274.259C576.359 275.068 576.927 275.138 576.927 275.588C576.802 275.464 576.66 275.407 576.501 275.418C576.369 275.576 576.736 275.851 576.789 275.9C576.231 276.098 576.1 275.725 575.552 275.658C575.592 275.913 575.672 275.983 575.884 276.113C575.716 276.098 575.606 276.16 575.556 276.298C575.554 276.382 576.069 276.56 576.132 276.785C575.931 276.768 575.771 276.831 575.652 276.974C575.665 277.298 576.588 277.18 576.761 277.103C576.836 277.225 576.76 277.317 576.533 277.38C576.735 277.588 577.703 277.287 577.539 277.694C577.375 278.1 575.171 277.198 576.036 277.8C575.036 277.673 575.015 277.089 574.129 277.744C574.446 277.822 574.762 277.899 575.079 277.977C574.335 278.619 575.491 277.997 575.598 278.064C574.574 278.752 576.059 278.298 576.259 278.249C576.296 278.31 575.897 278.587 575.84 278.711C576.262 278.865 577.03 278.689 577.547 278.121C578.296 279.615 575.365 278.378 575.685 279.116C575.476 279.057 574.457 278.893 574.362 279.317C574.352 279.316 575.432 279.98 575.378 280.207C575.115 280.066 574.847 280.058 574.572 280.182C574.783 280.292 574.843 280.45 574.769 280.651C574.735 280.655 574.7 280.658 574.665 280.662C574.074 280.252 574.442 280.712 573.53 280.604C573.52 280.663 573.533 280.714 573.559 280.76C571.351 280.909 568.92 280.83 566.999 280.623C565.041 280.412 562.916 278.932 561.077 278.933C559.059 278.934 557.277 280.539 555.077 280.628C553.046 280.71 551.833 280.76 549.842 281.323C547.168 282.08 544.366 283.322 541.572 283.665C538.584 284.032 535.709 283.337 532.679 283.892C530.878 284.222 529.07 284.638 527.268 285.094C526.761 285.02 526.024 285.001 526.174 284.77C525.746 284.869 525.888 284.891 525.821 284.607C525.505 284.974 525.126 285.059 524.685 284.862C524.908 284.658 524.614 284.535 524.307 284.402C524.367 284.394 524.429 284.314 524.488 284.119C524.662 284.238 524.836 284.356 525.009 284.475C524.895 284.196 525.999 284.46 526.651 284.145C526.069 283.544 525.676 283.29 525 283.527C524.836 283.133 526.304 283.038 524.948 282.794C525.112 282.544 525.532 282.503 525.867 282.296C525.702 282.139 525.603 282.15 525.401 282.067C525.995 281.388 525.604 281.735 525.604 281.008C524.836 281.274 524.85 282.031 523.859 282.357C523.84 282.042 523.502 281.062 524.107 281.089C524.107 281.567 524.396 281.151 524.793 281.151C524.583 280.987 524.373 280.822 524.163 280.658C524.394 280.61 524.825 280.765 525.008 280.592C524.952 280.429 524.813 280.343 524.591 280.334C524.967 280.229 525.085 280.1 524.944 279.949C524.441 280.392 524.222 280.391 524.287 279.944C524.214 280.266 524.048 280.494 523.79 280.629C523.946 280.309 524.264 279.255 524.305 279.302C524.128 279.094 523.896 279.654 523.782 279.636C523.756 279.499 523.608 278.701 523.482 278.701C523.482 279.994 523.719 280.083 522.962 279.365C522.903 279.402 523.413 280.665 523.372 280.874C523.136 280.446 523.238 280.363 522.984 280.027C522.717 280.474 522.757 280.12 522.352 280.1C522.357 280.909 522.925 280.979 522.925 281.429C522.8 281.305 522.658 281.248 522.499 281.258C522.367 281.416 522.734 281.691 522.787 281.74C522.229 281.939 522.098 281.565 521.55 281.498C521.59 281.753 521.67 281.824 521.882 281.954C521.714 281.939 521.604 282.001 521.554 282.139C521.552 282.223 522.067 282.401 522.13 282.626C521.929 282.608 521.769 282.671 521.65 282.815C521.663 283.139 522.586 283.021 522.759 282.945C522.834 283.067 522.758 283.159 522.531 283.222C522.733 283.43 523.701 283.13 523.537 283.536C523.373 283.942 521.169 283.04 522.034 283.642C521.034 283.515 521.013 282.931 520.127 283.586C520.444 283.664 520.76 283.741 521.077 283.819C520.333 284.461 521.489 283.839 521.596 283.906C520.572 284.594 522.057 284.14 522.257 284.091C522.294 284.152 521.895 284.428 521.838 284.553C522.26 284.707 523.028 284.531 523.545 283.963C524.294 285.457 521.363 284.22 521.683 284.958C521.474 284.899 520.455 284.735 520.36 285.16C520.35 285.158 521.43 285.823 521.376 286.05C521.113 285.909 520.845 285.901 520.57 286.025C520.804 286.147 520.863 286.326 520.745 286.56C520.022 286.037 520.485 286.56 519.528 286.446C519.468 286.798 520.146 286.908 520.516 287.112C519.643 287.416 518.768 287.717 517.916 288.049C514.202 289.496 510.309 291.82 506.387 292.526C499.591 293.75 494.536 289.739 488.782 286.962C482.464 283.914 475.973 281.676 469.719 278.28C468.533 277.636 467.309 277.065 466.064 276.533C466.039 276.389 466.024 276.227 466.051 276.206C466.266 276.364 467.181 276.142 467.054 275.848C465.96 275.848 467.03 275.344 465.956 275.943C465.865 275.803 465.842 275.744 465.98 275.525C465.134 275.52 464.906 276.376 463.872 275.288C464.04 275.085 464.541 275.726 464.461 275.259C464.536 275.315 465.501 275.434 465.739 275.37C464.97 274.599 465.636 275.135 466.064 275.228C466.11 275.047 466.379 274.9 466.131 274.734C466.424 274.734 466.524 274.769 466.723 274.553C466.4 274.372 465.053 274.437 465.251 274.133C464.823 274.232 464.965 274.253 464.898 273.97C464.582 274.337 464.203 274.422 463.762 274.225C463.985 274.021 463.691 273.898 463.384 273.764C463.444 273.757 463.506 273.676 463.565 273.481C463.739 273.6 463.913 273.718 464.086 273.837C463.972 273.558 465.076 273.822 465.728 273.507C465.146 272.906 464.753 272.652 464.077 272.889C463.913 272.495 465.381 272.401 464.025 272.156C464.189 271.906 464.609 271.865 464.944 271.658C464.779 271.501 464.68 271.512 464.478 271.43C465.072 270.751 464.681 271.098 464.681 270.371C463.912 270.637 463.927 271.394 462.936 271.72C462.917 271.404 462.579 270.425 463.184 270.452C463.184 270.93 463.473 270.514 463.87 270.514C463.66 270.35 463.45 270.185 463.24 270.021C463.471 269.973 463.902 270.128 464.085 269.955C464.029 269.792 463.89 269.706 463.668 269.697C464.044 269.592 464.162 269.463 464.021 269.311C463.518 269.754 463.299 269.753 463.364 269.306C463.291 269.628 463.125 269.856 462.867 269.991C463.023 269.671 463.341 268.616 463.382 268.664C463.205 268.456 462.973 269.016 462.859 268.998C462.833 268.86 462.685 268.063 462.559 268.063C462.559 269.356 462.796 269.445 462.039 268.727C461.98 268.764 462.49 270.027 462.449 270.236C462.213 269.808 462.316 269.725 462.061 269.389C461.794 269.836 461.834 269.482 461.429 269.462C461.434 270.271 462.002 270.341 462.002 270.791C461.877 270.667 461.735 270.611 461.576 270.62C461.445 270.778 461.811 271.053 461.864 271.102C461.306 271.301 461.175 270.927 460.627 270.86C460.667 271.115 460.747 271.186 460.959 271.316C460.791 271.301 460.682 271.363 460.631 271.501C460.629 271.585 461.143 271.763 461.207 271.988C461.006 271.97 460.846 272.033 460.727 272.177C460.74 272.501 461.663 272.383 461.836 272.306C461.911 272.428 461.835 272.52 461.608 272.583C461.81 272.791 462.778 272.49 462.614 272.896C462.45 273.302 460.246 272.4 461.111 273.002C460.112 272.875 460.09 272.291 459.204 272.946C459.521 273.024 459.837 273.101 460.154 273.179C459.41 273.821 460.566 273.199 460.673 273.266C459.649 273.954 461.134 273.5 461.334 273.451C461.371 273.512 460.972 273.789 460.915 273.913C461.337 274.067 462.105 273.891 462.622 273.323C463.371 274.817 460.44 273.58 460.76 274.318C460.645 274.286 460.286 274.225 459.969 274.244C454.882 272.507 449.698 270.937 445.102 268.22C441.252 265.944 437.643 263.59 433.575 261.465C427.472 258.278 423.023 260.449 416.68 261.161C413.245 261.546 410.815 260.339 407.793 259.818C407.763 259.812 407.735 259.808 407.707 259.803C407.277 259.731 406.833 259.675 406.374 259.638C406.5 259.494 404.563 259.342 404.194 258.819C404.484 258.931 405.481 259.105 405.612 258.793C405.601 259.318 406.598 258.735 406.616 258.738C406.57 258.655 406.506 258.239 406.55 258.204C406.765 258.362 407.68 258.14 407.553 257.846C406.459 257.846 407.529 257.342 406.455 257.941C406.364 257.801 406.341 257.742 406.479 257.523C405.633 257.518 405.405 258.374 404.371 257.286C404.539 257.083 405.04 257.724 404.96 257.257C405.035 257.313 406 257.432 406.238 257.368C405.469 256.597 406.135 257.133 406.563 257.226C406.609 257.045 406.878 256.898 406.63 256.732C406.923 256.732 407.023 256.767 407.222 256.551C406.899 256.37 405.552 256.435 405.75 256.131C405.322 256.23 405.464 256.251 405.397 255.968C405.081 256.335 404.702 256.42 404.261 256.223C404.484 256.019 404.19 255.896 403.883 255.762C403.943 255.755 404.005 255.674 404.064 255.479C404.238 255.598 404.412 255.716 404.585 255.835C404.471 255.556 405.575 255.82 406.227 255.505C405.645 254.904 405.252 254.65 404.576 254.887C404.412 254.493 405.88 254.399 404.524 254.154C404.688 253.904 405.108 253.863 405.443 253.656C405.278 253.499 405.179 253.51 404.977 253.428C405.571 252.749 405.18 253.096 405.18 252.369C404.411 252.635 404.426 253.392 403.435 253.718C403.416 253.402 403.078 252.423 403.683 252.45C403.683 252.928 403.972 252.512 404.369 252.512C404.159 252.348 403.949 252.183 403.739 252.019C403.97 251.971 404.401 252.126 404.584 251.953C404.528 251.79 404.389 251.704 404.167 251.695C404.543 251.59 404.661 251.461 404.52 251.309C404.017 251.752 403.798 251.751 403.863 251.304C403.79 251.626 403.624 251.854 403.366 251.989C403.522 251.669 403.84 250.614 403.881 250.662C403.704 250.454 403.472 251.014 403.358 250.996C403.332 250.858 403.184 250.061 403.058 250.061C403.058 251.354 403.295 251.443 402.538 250.725C402.479 250.762 402.989 252.025 402.948 252.234C402.712 251.806 402.815 251.723 402.56 251.387C402.293 251.834 402.333 251.48 401.928 251.46C401.933 252.269 402.501 252.339 402.501 252.789C402.376 252.665 402.234 252.609 402.075 252.618C401.944 252.776 402.31 253.051 402.363 253.1C401.805 253.299 401.674 252.925 401.126 252.858C401.166 253.113 401.246 253.184 401.458 253.314C401.29 253.299 401.181 253.361 401.13 253.499C401.128 253.583 401.642 253.761 401.706 253.986C401.505 253.968 401.345 254.031 401.226 254.175C401.239 254.499 402.162 254.381 402.335 254.304C402.41 254.426 402.334 254.518 402.107 254.581C402.309 254.789 403.277 254.488 403.113 254.894C402.949 255.3 400.745 254.398 401.61 255C400.611 254.873 400.589 254.289 399.703 254.944C400.02 255.022 400.336 255.099 400.653 255.177C399.909 255.819 401.065 255.197 401.172 255.264C400.148 255.952 401.633 255.498 401.833 255.449C401.87 255.51 401.471 255.787 401.414 255.911C401.836 256.065 402.604 255.889 403.121 255.321C403.87 256.815 400.939 255.578 401.259 256.316C401.05 256.257 400.031 256.093 399.936 256.518C399.926 256.516 401.006 257.181 400.952 257.408C400.689 257.267 400.421 257.259 400.146 257.383C400.38 257.505 400.439 257.684 400.321 257.918C399.598 257.395 400.061 257.918 399.104 257.804C399.021 258.289 400.344 258.311 400.325 258.759C400.712 258.335 401.065 259.181 401.485 259.408C401.427 259.424 401.361 259.431 401.297 259.44C396.112 259.064 391.12 258.057 385.911 258.048C378.31 258.035 370.177 257.162 362.755 255.499C358.833 254.621 354.552 254.424 350.721 253.332C347.36 252.374 344.525 249.856 341.223 248.648C338.447 247.633 332.671 248.731 332.717 244.797C332.116 244.69 331.749 244.924 331.615 245.499C330.5 242.519 327.463 240.911 325.514 238.555C324.025 236.755 323.161 235.126 321.236 233.751C313.78 228.424 305.401 223.101 297.098 219.056C296.413 218.723 295.756 218.389 295.11 218.054C295.175 218.003 295.24 217.95 295.308 217.903C294.993 217.817 294.791 217.798 294.619 217.796C294.136 217.542 293.661 217.285 293.194 217.027C293.483 216.979 293.864 216.762 293.875 216.764C293.829 216.681 293.765 216.265 293.809 216.23C294.024 216.388 294.939 216.166 294.812 215.872C293.718 215.872 294.787 215.368 293.713 215.967C293.622 215.827 293.599 215.768 293.737 215.549C292.891 215.544 292.663 216.4 291.629 215.312C291.797 215.109 292.298 215.75 292.218 215.284C292.293 215.34 293.258 215.459 293.496 215.395C292.727 214.624 293.393 215.16 293.821 215.253C293.867 215.072 294.136 214.926 293.888 214.759C294.181 214.759 294.281 214.794 294.48 214.578C294.157 214.397 292.81 214.462 293.008 214.158C292.58 214.257 292.722 214.279 292.655 213.995C292.339 214.362 291.96 214.447 291.519 214.25C291.742 214.046 291.448 213.923 291.141 213.789C291.201 213.781 291.263 213.701 291.322 213.506C291.496 213.625 291.67 213.743 291.843 213.862C291.729 213.583 292.833 213.847 293.485 213.532C292.903 212.931 292.51 212.677 291.834 212.914C291.67 212.52 293.138 212.425 291.782 212.181C291.946 211.931 292.366 211.89 292.701 211.683C292.536 211.526 292.437 211.537 292.235 211.455C292.829 210.776 292.438 211.123 292.438 210.396C291.669 210.662 291.684 211.419 290.693 211.745C290.674 211.43 290.337 210.45 290.941 210.477C290.941 210.955 291.23 210.539 291.627 210.539C291.417 210.374 291.207 210.21 290.997 210.046C291.228 209.998 291.659 210.153 291.842 209.98C291.787 209.817 291.647 209.731 291.425 209.722C291.801 209.617 291.918 209.489 291.777 209.337C291.274 209.78 291.055 209.779 291.12 209.332C291.047 209.654 290.881 209.882 290.623 210.017C290.779 209.697 291.097 208.642 291.138 208.69C290.961 208.482 290.729 209.042 290.615 209.024C290.589 208.886 290.441 208.089 290.315 208.089C290.315 209.382 290.552 209.471 289.795 208.753C289.736 208.79 290.246 210.053 290.205 210.262C289.969 209.834 290.072 209.751 289.817 209.415C289.55 209.862 289.59 209.508 289.185 209.488C289.19 210.297 289.758 210.367 289.758 210.817C289.633 210.693 289.491 210.636 289.332 210.646C289.2 210.804 289.567 211.079 289.62 211.128C289.062 211.326 288.931 210.953 288.383 210.886C288.423 211.141 288.503 211.212 288.715 211.342C288.547 211.327 288.438 211.389 288.387 211.527C288.385 211.611 288.899 211.789 288.963 212.014C288.762 211.996 288.602 212.059 288.483 212.203C288.496 212.527 289.419 212.409 289.592 212.332C289.667 212.454 289.591 212.546 289.364 212.609C289.566 212.817 290.534 212.517 290.37 212.923C290.206 213.329 288.002 212.427 288.867 213.029C287.868 212.902 287.846 212.318 286.96 212.973C287.276 213.05 287.593 213.128 287.91 213.205C287.166 213.847 288.322 213.225 288.429 213.292C287.405 213.98 288.89 213.526 289.09 213.477C289.127 213.538 288.728 213.815 288.671 213.939C289.093 214.093 289.861 213.917 290.378 213.349C291.073 214.734 288.607 213.774 288.499 214.215C287.319 213.452 286.133 212.649 284.901 211.776C282.19 209.855 279.237 207.271 276.119 205.621C276.503 205.471 276.489 205.37 276.045 205.32C276.252 205.085 275.564 205.153 275.252 205.191C275.206 205.169 275.159 205.149 275.113 205.128C275.149 205.013 275.515 205.01 275.381 204.87C275.358 204.877 275.096 204.938 274.759 204.968C274.407 204.818 274.053 204.687 273.698 204.568C274.75 204.762 275.283 203.959 276.017 203.453C275.149 203.217 275.125 203.481 274.302 203.239C274.7 203.087 272.552 202.948 272.162 202.395C272.452 202.507 273.449 202.681 273.58 202.369C273.569 202.893 274.566 202.311 274.584 202.314C274.538 202.231 274.474 201.815 274.518 201.78C274.733 201.938 275.648 201.716 275.521 201.422C274.427 201.422 275.496 200.918 274.422 201.516C274.331 201.376 274.308 201.317 274.446 201.098C273.6 201.093 273.372 201.949 272.338 200.861C272.506 200.658 273.007 201.299 272.927 200.832C273.002 200.888 273.967 201.007 274.205 200.943C273.436 200.172 274.102 200.708 274.53 200.801C274.576 200.62 274.845 200.473 274.597 200.307C274.89 200.307 274.99 200.342 275.189 200.126C274.866 199.945 273.519 200.01 273.717 199.706C273.289 199.805 273.431 199.827 273.364 199.543C273.048 199.91 272.669 199.995 272.228 199.798C272.451 199.594 272.157 199.471 271.85 199.337C271.91 199.33 271.972 199.249 272.031 199.054C272.205 199.173 272.379 199.291 272.552 199.41C272.439 199.131 273.542 199.395 274.194 199.08C273.612 198.479 273.219 198.225 272.543 198.462C272.379 198.068 273.847 197.973 272.491 197.729C272.655 197.479 273.075 197.438 273.41 197.231C273.245 197.074 273.146 197.085 272.944 197.003C273.538 196.324 273.147 196.671 273.147 195.944C272.378 196.21 272.393 196.967 271.402 197.293C271.383 196.978 271.046 195.998 271.65 196.025C271.65 196.503 271.939 196.087 272.336 196.087C272.126 195.923 271.916 195.758 271.706 195.594C271.937 195.546 272.368 195.701 272.551 195.528C272.495 195.365 272.356 195.279 272.134 195.27C272.51 195.165 272.628 195.036 272.486 194.885C271.983 195.328 271.764 195.327 271.829 194.88C271.756 195.202 271.59 195.43 271.332 195.565C271.488 195.245 271.806 194.19 271.847 194.238C271.67 194.03 271.439 194.59 271.324 194.572C271.298 194.434 271.15 193.637 271.024 193.637C271.024 194.93 271.261 195.019 270.504 194.301C270.445 194.338 270.955 195.601 270.914 195.81C270.678 195.382 270.781 195.299 270.526 194.963C270.259 195.41 270.299 195.056 269.894 195.036C269.899 195.845 270.467 195.915 270.467 196.365C270.342 196.241 270.2 196.184 270.041 196.194C269.909 196.352 270.276 196.627 270.329 196.676C269.771 196.874 269.64 196.501 269.092 196.434C269.132 196.689 269.212 196.76 269.424 196.89C269.256 196.875 269.147 196.937 269.096 197.075C269.094 197.159 269.608 197.337 269.672 197.562C269.471 197.545 269.311 197.607 269.192 197.751C269.205 198.075 270.128 197.957 270.301 197.88C270.376 198.002 270.3 198.094 270.073 198.157C270.275 198.365 271.243 198.065 271.079 198.471C270.915 198.877 268.711 197.975 269.576 198.577C268.576 198.45 268.555 197.866 267.668 198.521C267.985 198.599 268.301 198.676 268.618 198.754C267.874 199.396 269.03 198.774 269.137 198.841C268.113 199.529 269.598 199.075 269.798 199.026C269.835 199.087 269.436 199.363 269.379 199.488C269.801 199.642 270.569 199.466 271.086 198.898C271.835 200.392 268.904 199.155 269.224 199.893C269.015 199.834 267.996 199.67 267.901 200.094C267.891 200.092 268.971 200.757 268.917 200.984C268.654 200.843 268.386 200.835 268.111 200.959C268.346 201.081 268.404 201.26 268.286 201.494C267.563 200.971 268.026 201.494 267.069 201.38C266.987 201.865 268.309 201.887 268.29 202.335C268.677 201.911 269.03 202.757 269.45 202.984C269.336 203.014 269.205 203.028 269.069 203.036C260.26 199.639 253.126 193.774 245.885 187.535C244.34 186.203 242.609 184.968 240.82 183.755C240.833 183.739 240.855 183.722 240.864 183.708C240.858 183.718 240.814 183.719 240.766 183.719C240.394 183.467 240.021 183.216 239.645 182.966C239.853 182.852 239.795 182.444 240.036 182.119C239.736 182.06 239.156 182.379 238.734 182.36C238.593 182.267 238.452 182.173 238.311 182.08C238.307 182.071 238.3 182.067 238.296 182.057C238.489 182.001 238.651 182.095 238.849 182.073C238.801 181.944 238.721 181.838 238.608 181.754C238.99 181.711 239.076 181.666 239.096 181.303C238.811 181.433 237.706 181.554 237.208 181.346C237.143 181.302 237.077 181.259 237.012 181.215C237.187 181.246 237.832 181.073 238.208 180.975C238.071 180.849 237.933 180.722 237.796 180.596C237.885 180.599 239.251 180.373 238.893 180.16C239.357 179.994 239.352 179.885 238.88 179.832C239.165 179.507 237.733 179.762 237.963 179.716C237.827 179.52 238.374 179.548 238.216 179.382C238.153 179.401 236.296 179.834 235.956 178.898C237.416 179.566 237.994 178.557 238.852 177.966C237.984 177.73 237.96 177.994 237.137 177.752C237.535 177.6 235.387 177.461 234.997 176.908C235.287 177.02 236.284 177.194 236.415 176.882C236.403 177.407 237.401 176.824 237.419 176.827C237.373 176.744 237.309 176.328 237.353 176.293C237.568 176.451 238.483 176.229 238.356 175.935C237.262 175.935 238.332 175.431 237.257 176.03C237.166 175.89 237.143 175.831 237.281 175.612C236.434 175.607 236.207 176.463 235.173 175.375C235.341 175.172 235.842 175.812 235.762 175.346C235.837 175.402 236.802 175.521 237.04 175.457C236.271 174.686 236.937 175.222 237.365 175.315C237.411 175.134 237.68 174.987 237.432 174.821C237.725 174.821 237.825 174.856 238.024 174.64C237.701 174.459 236.354 174.524 236.552 174.22C236.124 174.319 236.266 174.341 236.199 174.057C235.883 174.424 235.504 174.509 235.063 174.312C235.286 174.108 234.992 173.985 234.685 173.852C234.745 173.844 234.807 173.764 234.866 173.569C235.04 173.688 235.214 173.806 235.387 173.925C235.274 173.646 236.377 173.91 237.029 173.595C236.447 172.994 236.054 172.74 235.378 172.977C235.214 172.583 236.682 172.488 235.326 172.244C235.49 171.994 235.91 171.953 236.245 171.746C236.08 171.589 235.981 171.6 235.779 171.517C236.373 170.838 235.982 171.185 235.982 170.458C235.213 170.724 235.228 171.481 234.237 171.807C234.218 171.491 233.881 170.512 234.485 170.539C234.485 171.017 234.774 170.601 235.171 170.601C234.961 170.437 234.751 170.272 234.541 170.108C234.772 170.06 235.203 170.215 235.386 170.042C235.33 169.879 235.191 169.793 234.969 169.784C235.345 169.679 235.462 169.55 235.321 169.399C234.818 169.842 234.599 169.841 234.664 169.394C234.591 169.716 234.425 169.944 234.167 170.079C234.323 169.759 234.641 168.704 234.682 168.752C234.504 168.544 234.273 169.104 234.159 169.086C234.133 168.948 233.985 168.151 233.859 168.151C233.859 169.444 234.096 169.533 233.339 168.815C233.28 168.852 233.79 170.115 233.749 170.324C233.513 169.896 233.616 169.813 233.361 169.477C233.094 169.924 233.134 169.57 232.729 169.55C232.734 170.359 233.302 170.429 233.302 170.879C233.177 170.755 233.035 170.699 232.876 170.708C232.744 170.866 233.111 171.141 233.164 171.191C232.606 171.389 232.475 171.016 231.927 170.949C231.967 171.204 232.047 171.275 232.259 171.405C232.091 171.39 231.982 171.452 231.931 171.589C231.929 171.673 232.443 171.851 232.507 172.076C232.306 172.059 232.146 172.121 232.027 172.265C232.04 172.589 232.963 172.471 233.136 172.394C233.211 172.516 233.135 172.608 232.908 172.671C233.11 172.879 234.078 172.578 233.914 172.984C233.75 173.39 231.546 172.488 232.411 173.09C231.411 172.963 231.39 172.379 230.504 173.034C230.82 173.112 231.137 173.189 231.454 173.267C230.71 173.909 231.866 173.287 231.973 173.354C230.949 174.042 232.434 173.588 232.634 173.539C232.671 173.6 232.272 173.877 232.215 174.001C232.637 174.155 233.405 173.979 233.922 173.411C234.671 174.905 231.74 173.668 232.06 174.406C231.851 174.347 230.832 174.183 230.737 174.608C230.727 174.606 231.807 175.271 231.753 175.498C231.49 175.357 231.222 175.349 230.947 175.473C231.181 175.595 231.24 175.774 231.122 176.008C230.428 175.506 230.813 175.961 230.002 175.9C229.291 175.237 228.619 174.55 228.003 173.826C225.244 170.584 224.24 166.142 221.776 162.696C219.799 159.931 217.434 158.81 214.762 157.659C214.404 157.328 214.086 157.16 213.694 157.2C213.597 157.158 213.499 157.115 213.401 157.072C213.639 156.831 214.398 156.731 213.297 156.532C213.461 156.282 213.881 156.241 214.216 156.034C214.051 155.877 213.952 155.888 213.75 155.805C214.344 155.126 213.953 155.473 213.953 154.746C213.184 155.012 213.199 155.769 212.208 156.095C212.189 155.779 211.852 154.8 212.456 154.827C212.456 155.305 212.745 154.889 213.142 154.889C212.932 154.725 212.722 154.56 212.512 154.396C212.743 154.348 213.174 154.503 213.357 154.33C213.302 154.167 213.162 154.081 212.94 154.072C213.316 153.967 213.434 153.839 213.293 153.687C212.79 154.13 212.571 154.129 212.636 153.682C212.563 154.004 212.397 154.232 212.139 154.367C212.295 154.047 212.613 152.993 212.654 153.04C212.477 152.832 212.246 153.392 212.131 153.374C212.105 153.236 211.957 152.439 211.831 152.439C211.831 153.732 212.068 153.821 211.311 153.103C211.252 153.14 211.762 154.403 211.721 154.612C211.485 154.184 211.588 154.101 211.333 153.765C211.066 154.212 211.106 153.858 210.701 153.838C210.706 154.647 211.274 154.717 211.274 155.167C211.149 155.043 211.007 154.986 210.848 154.996C210.717 155.154 211.083 155.429 211.136 155.479C210.594 155.672 210.449 155.329 209.939 155.248C205.522 152.091 203.974 146.259 201.081 141.689C200.076 140.101 198.836 138.727 197.52 137.418C197.647 137.334 197.761 137.241 197.81 137.159C197.792 137.189 197.545 137.168 197.219 137.125C196.985 136.895 196.75 136.665 196.513 136.438C196.811 136.385 196.716 135.928 196.983 135.57C196.722 135.519 196.246 135.757 195.849 135.808C195.742 135.707 195.636 135.605 195.529 135.504C195.615 135.518 195.702 135.535 195.797 135.524C195.749 135.395 195.669 135.289 195.556 135.205C195.938 135.162 196.024 135.117 196.044 134.754C195.867 134.835 195.371 134.91 194.902 134.908C194.786 134.798 194.67 134.688 194.555 134.577C194.766 134.528 194.988 134.47 195.157 134.426C195.02 134.299 194.882 134.173 194.745 134.047C194.834 134.05 196.2 133.824 195.842 133.611C196.306 133.445 196.301 133.336 195.829 133.283C196.115 132.958 194.682 133.213 194.912 133.167C194.776 132.971 195.323 132.999 195.165 132.833C195.102 132.852 193.245 133.285 192.905 132.349C194.365 133.017 194.943 132.008 195.801 131.417C194.933 131.181 194.909 131.445 194.086 131.203C194.484 131.051 192.336 130.912 191.946 130.359C192.236 130.471 193.233 130.645 193.364 130.333C193.352 130.858 194.35 130.275 194.368 130.278C194.322 130.195 194.258 129.779 194.302 129.744C194.517 129.902 195.432 129.68 195.305 129.386C194.211 129.386 195.281 128.882 194.207 129.481C194.116 129.341 194.093 129.282 194.231 129.063C193.385 129.058 193.157 129.914 192.123 128.826C192.291 128.623 192.792 129.264 192.712 128.797C192.787 128.854 193.752 128.972 193.99 128.908C193.221 128.137 193.887 128.673 194.315 128.766C194.361 128.585 194.63 128.439 194.382 128.272C194.675 128.272 194.775 128.307 194.974 128.091C194.651 127.91 193.304 127.975 193.502 127.671C193.074 127.77 193.216 127.791 193.149 127.508C192.833 127.875 192.454 127.96 192.013 127.763C192.236 127.559 191.942 127.436 191.635 127.303C191.695 127.295 191.757 127.215 191.816 127.02C191.99 127.138 192.164 127.257 192.337 127.376C192.223 127.097 193.327 127.361 193.979 127.046C193.397 126.445 193.004 126.191 192.328 126.428C192.164 126.034 193.632 125.939 192.276 125.694C192.44 125.444 192.86 125.403 193.195 125.196C193.03 125.04 192.931 125.05 192.729 124.968C193.323 124.289 192.932 124.635 192.932 123.909C192.163 124.175 192.178 124.932 191.187 125.258C191.168 124.943 190.831 123.963 191.435 123.99C191.435 124.468 191.724 124.052 192.121 124.052C191.911 123.888 191.701 123.723 191.491 123.559C191.722 123.511 192.153 123.666 192.336 123.493C192.281 123.33 192.141 123.244 191.919 123.235C192.295 123.13 192.413 123.002 192.272 122.85C191.769 123.293 191.55 123.292 191.615 122.845C191.542 123.167 191.376 123.395 191.118 123.53C191.274 123.21 191.592 122.155 191.633 122.203C191.456 121.995 191.225 122.555 191.11 122.537C191.084 122.399 190.936 121.602 190.81 121.602C190.81 122.895 191.047 122.984 190.29 122.266C190.231 122.303 190.741 123.566 190.7 123.775C190.464 123.347 190.567 123.264 190.312 122.928C190.045 123.375 190.085 123.021 189.68 123.001C189.685 123.81 190.253 123.88 190.253 124.33C190.128 124.206 189.986 124.149 189.827 124.159C189.696 124.317 190.062 124.592 190.115 124.642C189.557 124.84 189.426 124.467 188.878 124.4C188.918 124.655 188.998 124.726 189.21 124.856C189.042 124.841 188.933 124.903 188.882 125.041C188.88 125.125 189.394 125.303 189.458 125.528C189.257 125.511 189.097 125.573 188.978 125.717C188.991 126.041 189.914 125.923 190.087 125.846C190.162 125.968 190.086 126.06 189.859 126.123C190.061 126.331 191.029 126.031 190.865 126.437C190.701 126.843 188.497 125.941 189.363 126.543C188.484 126.431 188.36 125.968 187.74 126.303C185.314 122.788 183.032 119.21 180.027 116.143C177.633 113.7 176.819 110.532 174.487 108.031C172.341 105.729 170.988 106.528 168.001 105.883C165.254 105.289 164.157 103.433 161.857 102.061C157.973 99.7442 154.005 99.9052 149.721 100.26C148.47 100.364 146.885 100.405 145.321 100.235C145.425 100.179 145.466 100.119 145.366 100.059C145.83 99.8932 145.825 99.7842 145.353 99.7312C145.638 99.4062 144.206 99.6612 144.436 99.6152C144.3 99.4192 144.847 99.4472 144.689 99.2812C144.626 99.3002 142.769 99.7332 142.429 98.7972C143.889 99.4652 144.467 98.4562 145.325 97.8652C144.457 97.6292 144.433 97.8932 143.61 97.6512C144.008 97.4992 141.86 97.3602 141.47 96.8072C141.76 96.9192 142.757 97.0932 142.888 96.7812C142.876 97.3062 143.874 96.7232 143.892 96.7262C143.846 96.6432 143.782 96.2272 143.826 96.1922C144.041 96.3502 144.956 96.1282 144.829 95.8342C143.735 95.8342 144.804 95.3302 143.73 95.9292C143.639 95.7892 143.616 95.7302 143.754 95.5112C142.908 95.5062 142.68 96.3622 141.646 95.2752C141.814 95.0722 142.315 95.7122 142.235 95.2462C142.31 95.3022 143.275 95.4212 143.513 95.3572C142.744 94.5862 143.41 95.1222 143.838 95.2152C143.885 95.0342 144.153 94.8872 143.905 94.7212C144.198 94.7212 144.298 94.7562 144.497 94.5402C144.174 94.3592 142.827 94.4242 143.025 94.1202C142.597 94.2192 142.739 94.2412 142.672 93.9572C142.356 94.3242 141.977 94.4092 141.536 94.2122C141.759 94.0082 141.465 93.8852 141.158 93.7522C141.218 93.7442 141.28 93.6642 141.339 93.4692C141.513 93.5882 141.687 93.7062 141.86 93.8252C141.746 93.5462 142.85 93.8102 143.502 93.4952C142.92 92.8942 142.527 92.6402 141.851 92.8772C141.687 92.4832 143.155 92.3882 141.799 92.1442C141.963 91.8942 142.383 91.8532 142.718 91.6462C142.553 91.4892 142.454 91.5002 142.252 91.4182C142.846 90.7392 142.455 91.0862 142.455 90.3592C141.686 90.6252 141.701 91.3822 140.71 91.7082C140.691 91.3932 140.353 90.4132 140.958 90.4402C140.958 90.9182 141.247 90.5022 141.644 90.5022C141.434 90.3382 141.224 90.1732 141.014 90.0092C141.245 89.9612 141.676 90.1162 141.859 89.9432C141.804 89.7802 141.664 89.6942 141.442 89.6852C141.818 89.5802 141.936 89.4512 141.794 89.3002C141.291 89.7432 141.072 89.7422 141.137 89.2952C141.064 89.6172 140.898 89.8452 140.64 89.9802C140.796 89.6602 141.114 88.6052 141.155 88.6532C140.978 88.4452 140.747 89.0052 140.632 88.9872C140.606 88.8502 140.458 88.0522 140.332 88.0522C140.332 89.3452 140.569 89.4342 139.812 88.7162C139.753 88.7532 140.263 90.0162 140.222 90.2252C139.986 89.7972 140.089 89.7142 139.834 89.3782C139.567 89.8252 139.607 89.4712 139.202 89.4512C139.207 90.2602 139.775 90.3302 139.775 90.7802C139.65 90.6562 139.508 90.6002 139.349 90.6102C139.218 90.7682 139.584 91.0432 139.637 91.0922C139.079 91.2912 138.948 90.9172 138.4 90.8502C138.44 91.1052 138.52 91.1752 138.732 91.3062C138.564 91.2912 138.455 91.3532 138.404 91.4912C138.402 91.5752 138.916 91.7532 138.98 91.9782C138.779 91.9602 138.619 92.0242 138.5 92.1672C138.513 92.4912 139.436 92.3732 139.609 92.2962C139.684 92.4182 139.608 92.5102 139.381 92.5732C139.583 92.7812 140.551 92.4812 140.387 92.8872C140.223 93.2932 138.019 92.3912 138.884 92.9932C137.884 92.8662 137.863 92.2822 136.976 92.9372C137.293 93.0142 137.609 93.0922 137.926 93.1702C137.182 93.8122 138.338 93.1902 138.445 93.2572C137.421 93.9452 138.906 93.4912 139.106 93.4422C139.143 93.5032 138.744 93.7802 138.687 93.9042C139.109 94.0582 139.877 93.8822 140.394 93.3142C141.143 94.8082 138.212 93.5712 138.532 94.3092C138.38 94.2662 137.798 94.1702 137.456 94.2842C135.848 92.8402 133.959 91.9722 131.86 91.2212C128.053 89.8592 124.675 89.5522 121.243 87.2452C119.899 86.3412 118.618 85.3752 117.355 84.3882C117.563 84.3052 117.772 84.2212 117.98 84.1382C117.838 84.1482 117.375 84.0882 116.867 84.0062C116.605 83.7992 116.341 83.5932 116.08 83.3852C116.02 83.2792 116.194 83.2492 116.642 83.3082C116.491 83.2322 116.375 83.1742 116.259 83.1162C116.484 83.1462 117.001 82.8462 117.128 82.6332C117.078 82.7172 115.283 82.4242 114.638 82.2372C114.6 82.2062 114.561 82.1762 114.523 82.1462C114.957 82.1032 115.846 82.2112 115.548 81.8812C116.204 82.0922 115.97 81.4872 116.3 81.0442C115.863 80.9582 114.823 81.6922 114.56 80.9822C114.753 80.9262 114.915 81.0202 115.113 80.9982C115.065 80.8692 114.985 80.7632 114.872 80.6792C115.254 80.6362 115.34 80.5912 115.36 80.2282C115.027 80.3792 113.571 80.5232 113.276 80.1402C113.45 80.1712 114.096 79.9982 114.473 79.9002C114.335 79.7742 114.198 79.6472 114.061 79.5212C114.15 79.5242 115.516 79.2982 115.158 79.0852C115.622 78.9192 115.617 78.8102 115.145 78.7572C115.43 78.4322 113.998 78.6872 114.228 78.6412C114.092 78.4452 114.639 78.4732 114.481 78.3072C114.418 78.3262 112.561 78.7592 112.221 77.8232C113.681 78.4912 114.259 77.4822 115.117 76.8912C114.249 76.6552 114.225 76.9192 113.402 76.6772C113.8 76.5252 111.652 76.3862 111.262 75.8332C111.552 75.9452 112.549 76.1192 112.68 75.8082C112.668 76.3332 113.666 75.7502 113.684 75.7532C113.638 75.6702 113.574 75.2542 113.618 75.2192C113.833 75.3772 114.748 75.1552 114.621 74.8612C113.527 74.8612 114.597 74.3572 113.522 74.9552C113.431 74.8152 113.408 74.7562 113.546 74.5372C112.7 74.5322 112.472 75.3882 111.438 74.3012C111.606 74.0982 112.107 74.7382 112.027 74.2722C112.102 74.3292 113.067 74.4472 113.305 74.3832C112.536 73.6122 113.202 74.1482 113.63 74.2412C113.676 74.0602 113.945 73.9142 113.697 73.7472C113.99 73.7472 114.09 73.7822 114.289 73.5662C113.966 73.3852 112.619 73.4502 112.817 73.1462C112.389 73.2452 112.531 73.2662 112.464 72.9832C112.148 73.3502 111.769 73.4352 111.328 73.2382C111.551 73.0342 111.257 72.9112 110.95 72.7782C111.01 72.7702 111.072 72.6902 111.131 72.4952C111.305 72.6142 111.479 72.7322 111.652 72.8512C111.538 72.5722 112.642 72.8362 113.294 72.5212C112.712 71.9202 112.319 71.6662 111.643 71.9032C111.479 71.5092 112.947 71.4142 111.591 71.1692C111.755 70.9192 112.175 70.8782 112.51 70.6712C112.345 70.5152 112.246 70.5252 112.044 70.4432C112.638 69.7642 112.247 70.1112 112.247 69.3842C111.478 69.6502 111.493 70.4072 110.502 70.7332C110.483 70.4172 110.146 69.4382 110.75 69.4652C110.75 69.9432 111.039 69.5272 111.435 69.5272C111.225 69.3622 111.015 69.1982 110.805 69.0342C111.036 68.9862 111.467 69.1412 111.65 68.9682C111.595 68.8052 111.455 68.7192 111.233 68.7102C111.609 68.6052 111.727 68.4762 111.585 68.3242C111.082 68.7672 110.863 68.7662 110.928 68.3192C110.855 68.6412 110.689 68.8692 110.431 69.0042C110.587 68.6842 110.905 67.6292 110.946 67.6772C110.769 67.4692 110.537 68.0292 110.423 68.0112C110.397 67.8742 110.249 67.0762 110.123 67.0762C110.123 68.3692 110.36 68.4582 109.603 67.7402C109.544 67.7772 110.054 69.0402 110.013 69.2492C109.777 68.8212 109.88 68.7382 109.625 68.4022C109.358 68.8492 109.398 68.4952 108.993 68.4752C108.998 69.2842 109.566 69.3542 109.566 69.8042C109.441 69.6802 109.299 69.6242 109.14 69.6332C109.009 69.7912 109.375 70.0662 109.428 70.1152C108.87 70.3142 108.739 69.9402 108.191 69.8732C108.231 70.1282 108.311 70.1982 108.523 70.3292C108.355 70.3142 108.246 70.3762 108.195 70.5142C108.193 70.5982 108.707 70.7762 108.771 71.0012C108.57 70.9832 108.41 71.0462 108.291 71.1902C108.304 71.5142 109.227 71.3962 109.4 71.3202C109.475 71.4422 109.399 71.5342 109.172 71.5972C109.374 71.8052 110.342 71.5052 110.178 71.9102C110.014 72.3162 107.81 71.4142 108.675 72.0162C107.676 71.8892 107.654 71.3052 106.768 71.9602C107.085 72.0382 107.401 72.1152 107.718 72.1922C106.974 72.8342 108.13 72.2122 108.237 72.2792C107.213 72.9672 108.698 72.5132 108.898 72.4642C108.935 72.5252 108.536 72.8012 108.479 72.9262C108.901 73.0802 109.669 72.9042 110.186 72.3362C110.935 73.8302 108.004 72.5932 108.324 73.3312C108.115 73.2722 107.096 73.1082 107.001 73.5322C106.991 73.5302 108.071 74.1952 108.017 74.4232C107.754 74.2822 107.486 74.2742 107.211 74.3982C107.445 74.5202 107.504 74.6992 107.386 74.9332C106.663 74.4102 107.126 74.9332 106.169 74.8192C106.086 75.3042 107.409 75.3272 107.39 75.7742C107.777 75.3502 108.13 76.1962 108.55 76.4232C108.043 76.5582 107.277 76.4132 106.719 76.5292C104.491 75.0622 102.36 73.7072 99.6695 72.9222C97.5565 72.3052 95.3665 72.3232 93.2615 71.7692C89.5895 70.8032 87.4195 67.5452 83.9555 66.4192C84.1695 66.2402 84.3815 66.0512 84.6135 65.8912C83.7455 65.6552 83.7215 65.9192 82.8975 65.6772C83.2955 65.5252 81.1475 65.3862 80.7575 64.8332C81.0475 64.9452 82.0445 65.1192 82.1755 64.8082C82.1635 65.3332 83.1615 64.7502 83.1795 64.7532C83.1335 64.6702 83.0695 64.2542 83.1135 64.2192C83.3285 64.3772 84.2435 64.1552 84.1165 63.8612C83.0225 63.8612 84.0925 63.3572 83.0185 63.9552C82.9275 63.8152 82.9045 63.7562 83.0425 63.5372C82.1955 63.5322 81.9685 64.3882 80.9345 63.3012C81.1025 63.0982 81.6035 63.7382 81.5235 63.2722C81.5985 63.3292 82.5635 63.4472 82.8015 63.3832C82.0325 62.6122 82.6985 63.1482 83.1265 63.2412C83.1735 63.0602 83.4415 62.9142 83.1935 62.7472C83.4865 62.7472 83.5865 62.7822 83.7855 62.5662C83.4625 62.3852 82.1155 62.4502 82.3135 62.1462C81.8855 62.2452 82.0275 62.2662 81.9605 61.9832C81.6445 62.3502 81.2655 62.4352 80.8245 62.2382C81.0475 62.0342 80.7535 61.9112 80.4465 61.7782C80.5065 61.7702 80.5685 61.6902 80.6275 61.4952C80.8015 61.6142 80.9755 61.7322 81.1485 61.8512C81.0345 61.5722 82.1385 61.8362 82.7905 61.5212C82.2085 60.9202 81.8155 60.6662 81.1395 60.9032C80.9755 60.5092 82.4435 60.4142 81.0875 60.1692C81.2515 59.9192 81.6715 59.8782 82.0065 59.6712C81.8415 59.5152 81.7425 59.5252 81.5405 59.4432C82.1345 58.7642 81.7435 59.1112 81.7435 58.3842C80.9745 58.6502 80.9895 59.4072 79.9985 59.7332C79.9795 59.4172 79.6425 58.4382 80.2465 58.4652C80.2465 58.9432 80.5355 58.5272 80.9325 58.5272C80.7225 58.3622 80.5125 58.1982 80.3025 58.0342C80.5335 57.9862 80.9645 58.1412 81.1475 57.9682C81.0915 57.8052 80.9525 57.7192 80.7305 57.7102C81.1065 57.6052 81.2245 57.4762 81.0825 57.3242C80.5795 57.7672 80.3605 57.7662 80.4255 57.3192C80.3525 57.6412 80.1865 57.8692 79.9285 58.0042C80.0845 57.6842 80.4025 56.6292 80.4435 56.6772C80.2655 56.4692 80.0345 57.0292 79.9205 57.0112C79.8945 56.8742 79.7465 56.0762 79.6205 56.0762C79.6205 57.3692 79.8575 57.4582 79.1005 56.7402C79.0415 56.7772 79.5515 58.0402 79.5105 58.2492C79.2745 57.8212 79.3775 57.7382 79.1225 57.4022C78.8555 57.8492 78.8955 57.4952 78.4905 57.4752C78.4955 58.2842 79.0635 58.3542 79.0635 58.8042C78.9385 58.6802 78.7965 58.6242 78.6375 58.6332C78.5065 58.7912 78.8725 59.0662 78.9255 59.1152C78.3675 59.3142 78.2365 58.9402 77.6885 58.8732C77.7285 59.1282 77.8085 59.1982 78.0205 59.3292C77.8525 59.3142 77.7435 59.3762 77.6925 59.5142C77.6905 59.5982 78.2045 59.7762 78.2685 60.0012C78.0675 59.9832 77.9075 60.0462 77.7885 60.1902C77.8015 60.5142 78.7245 60.3962 78.8975 60.3202C78.9725 60.4422 78.8965 60.5342 78.6695 60.5972C78.8715 60.8052 79.8395 60.5052 79.6755 60.9102C79.5115 61.3162 77.3075 60.4142 78.1725 61.0162C77.1735 60.8892 77.1515 60.3052 76.2655 60.9602C76.5825 61.0382 76.8985 61.1152 77.2155 61.1922C76.4715 61.8342 77.6275 61.2122 77.7345 61.2792C76.7105 61.9672 78.1955 61.5132 78.3955 61.4642C78.4325 61.5252 78.0335 61.8012 77.9765 61.9262C78.3985 62.0802 79.1665 61.9042 79.6835 61.3362C80.4325 62.8302 77.5015 61.5932 77.8215 62.3312C77.6125 62.2722 76.5935 62.1082 76.4985 62.5322C76.4885 62.5302 77.5685 63.1952 77.5145 63.4232C77.2515 63.2822 76.9835 63.2742 76.7085 63.3982C76.9425 63.5202 77.0015 63.6992 76.8835 63.9332C76.1605 63.4102 76.6235 63.9332 75.6665 63.8192C75.5835 64.3042 76.9065 64.3272 76.8875 64.7742C77.2745 64.3502 77.6275 65.1962 78.0475 65.4232C77.4805 65.5732 76.5945 65.3802 76.0345 65.5872C73.9705 64.7532 73.4245 63.0162 71.7425 61.8952C67.4535 59.0342 61.6565 60.2152 56.9995 57.4752C55.0055 56.3022 55.0385 55.8642 52.6465 55.5592C49.5055 55.1592 47.6795 55.8722 44.6605 54.2352C40.3075 51.8752 38.3515 46.9622 34.8175 43.6692C31.5085 40.5852 27.3705 39.0122 23.8545 36.1592C20.7555 33.6452 17.9675 29.6902 14.3715 27.9402C11.0255 26.3122 8.48453 26.1452 5.96553 22.9692C3.71253 20.1292 0.974533 17.9062 -1.42147 15.2082C-6.19947 9.82816 -5.02847 3.39317 -12.4295 0.714174C-13.0265 0.498174 -13.5965 0.349164 -14.1405 0.260164C-22.6745 -1.12984 -24.9895 12.4032 -28.2635 18.2312C-33.2385 27.0852 -38.3625 35.8372 -41.6505 45.4942C-47.2455 61.9292 -48.3745 80.2242 -50.1965 97.3582C-52.2485 116.654 -54.0455 135.498 -53.9485 154.939C-53.8605 172.676 -54.2105 190.41 -53.5805 208.139C-52.4095 241.071 -53.8775 274.468 -48.7815 307.089C-45.9225 325.391 -41.7955 346.402 -30.1195 361.399C-20.2395 374.089 -7.57047 384.868 7.71453 390.413C15.1215 392.028 22.5285 393.642 29.9355 395.257C37.8975 395.91 45.8595 396.563 53.8225 397.216C72.2335 397.735 90.7215 395.398 108.914 392.902C139.245 388.74 169.245 381.653 199.442 376.591C224.387 372.409 249.293 369.787 274.581 369.112C328.151 367.682 381.527 373.14 435.072 373.199C486.054 373.255 536.631 367.013 587.032 359.861C624.089 354.602 661.164 348.838 698.663 348.323C710.549 348.16 721.433 349.522 733.183 350.863C735.227 351.096 737.566 351.672 739.579 351.024C733.714 343.886 724.562 338.493 717.171 333.073ZM189.604 126.988C189.641 127.049 189.242 127.326 189.185 127.45C189.607 127.604 190.375 127.428 190.892 126.86C191.641 128.354 188.71 127.117 189.03 127.855C188.99 127.844 188.914 127.829 188.827 127.815C188.634 127.544 188.435 127.277 188.244 127.005C188.418 126.979 188.877 126.762 188.942 126.803C187.919 127.491 189.404 127.037 189.604 126.988ZM188.424 126.716C188.286 126.835 188.229 126.9 188.203 126.944C188.124 126.831 188.047 126.717 187.969 126.604C188.12 126.642 188.272 126.679 188.424 126.716ZM231.145 176.845C231.532 176.421 231.885 177.267 232.305 177.494C232.192 177.524 232.064 177.537 231.931 177.545C231.474 177.178 231.033 176.8 230.6 176.417C230.886 176.528 231.154 176.643 231.145 176.845ZM292.879 216.812C292.879 216.827 292.887 216.833 292.888 216.846C292.879 216.841 292.87 216.836 292.861 216.831C292.866 216.824 292.876 216.82 292.879 216.812ZM652.552 294.954C652.92 295.687 652.401 295.762 651.815 295.736C651.714 295.672 651.613 295.609 651.512 295.546C651.866 295.469 652.249 295.285 652.552 294.954ZM651.264 295.082C651.282 295.112 651.195 295.194 651.096 295.284C651.038 295.247 650.979 295.211 650.921 295.174C651.076 295.133 651.212 295.094 651.264 295.082ZM650.602 294.897C650.58 294.912 650.565 294.924 650.545 294.938C650.529 294.928 650.513 294.918 650.497 294.907C650.547 294.894 650.587 294.887 650.602 294.897Z" fill="url(#paint0_linear_471_2574)"/>
<defs>
<linearGradient id="paint0_linear_471_2574" x1="-53.9362" y1="198.717" x2="739.612" y2="198.717" gradientUnits="userSpaceOnUse">
<stop stop-color="#001E32"/>
<stop offset="1" stop-color="#010713"/>
</linearGradient>
</defs>
</svg>
