<svg width="506" height="307" viewBox="0 0 506 307" fill="none" xmlns="http://www.w3.org/2000/svg">
<g clip-path="url(#clip0_509_2999)">
<path d="M503.82 66.6243C500.531 63.9788 496.527 62.3768 492.32 62.0243C488.22 61.7243 483.92 61.4243 480.02 63.4243C478.897 63.9935 477.726 64.462 476.52 64.8243C472.82 66.0243 468.92 67.0243 465.22 68.1243C460.72 69.4243 456.62 67.9243 452.52 66.1243C448.02 64.1243 443.72 61.7243 439.02 60.2243C433.321 58.3464 427.288 57.6989 421.32 58.3243C417.82 58.7243 414.32 58.8243 411.02 60.4243C408.62 61.5243 406.02 62.4243 403.52 63.3243C400.62 64.4243 397.72 65.4243 394.72 66.3243C389.02 68.0243 383.32 69.9243 377.52 71.1243C373.22 72.0243 368.72 71.9243 364.32 72.4243C362.049 72.5722 359.802 72.9747 357.62 73.6243C354.296 74.9201 351.057 76.4231 347.92 78.1243C343.12 80.5243 338.42 83.0243 333.72 85.6243C328.516 88.4526 323.016 90.6995 317.32 92.3243C311.72 94.0243 306.12 95.6243 300.12 95.6243C295.32 95.6243 290.62 96.1243 285.82 96.4243C284.988 96.5431 284.141 96.5093 283.32 96.3243C279.72 94.9243 276.32 93.1243 272.82 91.6243C267.62 89.4243 262.42 86.9243 257.42 84.3243C252.879 82.1055 248.501 79.5657 244.32 76.7243C239.42 73.3243 235.12 69.2243 230.42 65.5243C228.096 63.5812 225.659 61.778 223.12 60.1243C220.12 58.3243 216.82 57.0243 213.72 55.3243C213.12 55.0243 212.22 54.4243 212.32 54.0243C212.307 53.5613 212.389 53.1005 212.561 52.6704C212.733 52.2404 212.991 51.8503 213.32 51.5243C217.32 48.8243 221.52 46.3243 225.62 43.6243C227.12 42.6243 228.62 41.6243 230.02 40.6243C230.92 40.0243 231.42 39.2243 230.92 38.3243C230.62 37.8243 229.72 37.6243 229.12 37.4243C228.457 37.3386 227.789 37.3052 227.12 37.3243C223.52 37.3243 219.92 37.0243 216.82 35.1243C214.82 33.9243 213.02 32.4243 211.02 31.2243C209.702 30.3805 208.247 29.7715 206.72 29.4243C203.22 28.5243 199.62 28.0243 196.12 27.2243C193.02 26.5243 189.92 25.6243 186.72 25.0243C184.274 24.5537 181.741 25.0176 179.62 26.3243C172.32 30.4243 164.92 34.4243 157.62 38.4243C156.931 38.7841 156.359 39.3323 155.969 40.0051C155.579 40.6779 155.389 41.4475 155.42 42.2243C155.489 43.4638 155.249 44.7009 154.72 45.8243C154.02 47.2243 152.32 47.0243 151.62 45.6243C151.303 45.0047 151.132 44.3205 151.12 43.6243C151.02 41.0243 150.92 38.5243 151.02 35.9243C151.039 35.4333 151.155 34.9509 151.361 34.5047C151.567 34.0585 151.859 33.6574 152.22 33.3243C153.42 32.2243 153.42 31.5243 152.12 30.6243C151.285 30.0563 150.658 29.2318 150.333 28.2756C150.009 27.3194 150.004 26.2834 150.32 25.3243C150.712 24.1942 150.759 22.9735 150.457 21.8164C150.154 20.6594 149.515 19.6181 148.62 18.8243C147.452 17.7554 146.381 16.584 145.42 15.3243C145.16 14.7597 145.024 14.146 145.02 13.5243C145.02 13.3243 145.12 13.1243 145.32 13.1243C145.72 13.0243 146.12 13.0243 146.52 12.9243C146.844 12.8528 147.15 12.7167 147.42 12.5243C147.46 12.3851 147.462 12.2381 147.427 12.0977C147.392 11.9574 147.321 11.8287 147.22 11.7243C146.32 10.9243 145.42 10.2243 144.52 9.52433C141.567 6.94897 138.033 5.13008 134.22 4.22433C131.52 3.72433 128.72 3.42433 126.32 2.02433C126.228 1.97509 126.125 1.94933 126.02 1.94933C125.916 1.94933 125.813 1.97509 125.72 2.02433C123.72 2.52433 121.82 3.12433 119.82 3.72433C119.23 3.87282 118.628 3.97315 118.02 4.02433C117.901 4.03633 117.782 4.00116 117.689 3.92638C117.595 3.8516 117.535 3.74317 117.52 3.62433C117.504 3.0226 117.537 2.42053 117.62 1.82433C117.62 1.72433 117.82 1.52433 117.82 1.42433C118.22 0.324334 117.72 -0.275666 116.72 0.124334C115.12 0.724334 113.32 1.22433 112.12 2.42433C110.61 3.99444 108.727 5.15701 106.646 5.80392C104.565 6.45082 102.355 6.56104 100.22 6.12433C99.5444 5.93938 98.823 6.02355 98.2076 6.35918C97.5923 6.69481 97.131 7.25579 96.9204 7.92433C96.6153 9.00259 96.4144 10.1077 96.3204 11.2243C96.1204 12.6243 96.2204 14.0243 95.9204 15.4243C95.6338 16.1528 95.2283 16.8286 94.7205 17.4243C94.6205 17.6243 94.3205 17.5243 94.2205 17.3243C93.9205 16.6243 93.7204 15.8243 93.4204 15.1243C93.2479 14.6609 93.0123 14.2235 92.7205 13.8243C92.6615 13.7241 92.5683 13.6486 92.458 13.6118C92.3476 13.5751 92.2277 13.5795 92.1205 13.6243C91.7541 13.8054 91.4432 14.0817 91.2205 14.4243C90.5471 15.4864 90.0096 16.6286 89.6205 17.8243C89.4114 18.6935 89.4826 19.6065 89.8239 20.4327C90.1652 21.2589 90.759 21.956 91.5204 22.4243C92.356 22.8384 93.0051 23.5519 93.3386 24.4227C93.6721 25.2936 93.6656 26.258 93.3204 27.1243C92.7204 28.9243 92.1205 30.6243 91.6205 32.4243C90.9205 34.8243 90.4205 37.1243 88.1205 38.7243C87.5205 39.1243 87.5204 40.8243 87.8204 41.7243C88.3966 43.4268 89.2042 45.0419 90.2205 46.5243C92.1205 49.0243 91.8204 51.4243 90.5204 53.9243C89.0204 57.0243 89.7204 58.9243 92.8204 60.2243C93.0204 60.3243 93.2204 60.3243 93.4204 60.4243C93.9443 60.5394 94.4264 60.7961 94.8144 61.1664C95.2023 61.5367 95.4812 62.0064 95.6205 62.5243C96.7205 64.8243 97.7205 67.3243 99.6205 68.9243C101.145 70.1869 102.287 71.849 102.92 73.7243C103.42 75.2243 104.32 76.6243 105.92 76.9243C109.62 77.6243 113.32 77.5243 116.62 75.5243C118.82 74.2243 120.72 72.5243 122.92 71.2243C124.42 70.2243 125.82 70.8243 127.02 72.5243C128.12 73.9243 127.42 75.0243 126.32 75.9243C124.82 77.2243 123.12 78.3243 121.62 79.7243C121.187 80.2255 120.848 80.8016 120.62 81.4243C120.594 81.5039 120.587 81.5886 120.6 81.6714C120.612 81.7543 120.644 81.833 120.693 81.9012C120.742 81.9694 120.806 82.0251 120.88 82.0639C120.954 82.1027 121.037 82.1234 121.12 82.1243H121.62C124.12 81.7243 126.62 81.2243 129.12 80.9243C131.72 80.6243 132.52 81.8243 131.32 84.2243C130.349 85.9555 129.996 87.9659 130.32 89.9243C130.955 94.6317 130.006 99.4165 127.62 103.524C127.02 104.624 126.42 105.924 124.72 106.124C122.12 106.324 122.12 106.324 121.52 109.024C121.354 109.829 120.892 110.543 120.226 111.024C119.559 111.505 118.737 111.719 117.92 111.624C114.391 111.261 110.885 110.693 107.42 109.924C101.22 108.524 95.1204 106.824 88.9204 105.324C85.7204 104.524 82.5204 104.124 80.5204 101.124C80.2008 100.78 79.8141 100.505 79.3842 100.316C78.9542 100.127 78.4902 100.027 78.0204 100.024C75.1204 100.224 72.7204 98.5243 70.0204 97.9243C69.4204 97.8243 69.0204 97.2243 68.5204 96.7243C67.3204 95.4243 66.3204 93.7243 64.8204 93.0243C61.6204 91.4243 58.1204 90.4243 54.7204 89.1243C53.6929 88.6835 52.5736 88.4987 51.4588 88.5858C50.3441 88.6729 49.2671 89.0292 48.3204 89.6243C47.5884 90.0723 46.754 90.3258 45.8964 90.3608C45.0389 90.3958 44.1866 90.2112 43.4204 89.8243C42.3204 89.3243 41.0204 89.0243 39.9204 88.6243L22.5204 82.6243C19.7204 81.6243 16.9204 80.5243 14.0204 79.6243C10.9204 78.6243 7.72045 77.7243 4.52045 76.6243C4.01895 76.409 3.47105 76.3242 2.92793 76.3781C2.3848 76.4319 1.86419 76.6225 1.41474 76.9322C0.965278 77.2418 0.601646 77.6603 0.357815 78.1486C0.113984 78.6369 -0.00208715 79.179 0.0204465 79.7243C-0.179553 85.5243 1.12045 90.9243 5.82045 94.9243C8.72045 97.4243 11.8204 99.2243 15.7204 98.9243C18.3204 98.7243 20.9204 98.2243 23.4204 98.2243C27.2204 98.2243 31.0204 98.4243 34.8204 98.6243C35.6294 98.6595 36.4033 98.9639 37.0194 99.4894C37.6354 100.015 38.0582 100.731 38.2204 101.524C38.9204 104.424 40.7204 105.724 43.6204 105.824C44.3929 105.819 45.1473 106.058 45.7759 106.507C46.4045 106.956 46.8751 107.592 47.1204 108.324C47.6204 109.624 48.1204 110.924 48.5204 112.324C49.4204 115.124 50.3204 115.824 53.3204 116.224C54.9202 116.302 56.4864 116.711 57.9204 117.424C59.875 118.777 62.2656 119.348 64.6205 119.024C65.0861 118.956 65.5611 118.992 66.0109 119.13C66.4608 119.269 66.874 119.506 67.2205 119.824C69.3205 122.624 72.3204 123.624 75.4204 124.424C76.2014 124.58 76.9272 124.94 77.5243 125.467C78.1214 125.993 78.5686 126.669 78.8204 127.424C79.1153 128.302 79.5869 129.109 80.2061 129.797C80.8253 130.485 81.5789 131.039 82.4204 131.424C85.2204 132.824 88.0204 134.224 90.9204 135.424C95.4204 137.324 100.02 139.224 104.62 141.024C107.731 142.065 110.521 143.891 112.72 146.324C115.32 149.424 117.92 152.524 120.82 155.424C123.52 158.224 126.22 161.524 130.22 162.624C134.02 163.624 137.72 164.524 141.52 165.424C147.32 166.824 153.22 168.124 159.12 169.424C160.62 169.724 161.42 170.724 160.92 172.124C160.12 174.424 157.62 174.824 155.72 176.424C154.82 176.968 153.842 177.372 152.82 177.624C151.02 177.924 149.22 179.924 148.12 181.124C146.42 183.024 147.32 185.024 146.62 189.824C146.12 193.224 145.92 196.624 143.42 199.424C139.02 204.224 138.52 209.824 141.22 215.624C143.52 220.724 149.02 223.224 154.62 223.424C155.472 223.394 156.321 223.53 157.12 223.824C160.673 225.359 164.086 227.199 167.32 229.324C168.163 229.902 168.965 230.537 169.72 231.224C172.12 233.424 173.92 233.724 176.22 231.724C177.82 230.324 179.32 229.524 181.52 230.624C182.92 231.324 184.42 231.724 185.82 232.424C186.136 232.586 186.415 232.812 186.639 233.088C186.862 233.363 187.026 233.682 187.12 234.024C187.403 235.944 187.537 237.884 187.52 239.824C187.52 242.424 187.52 245.024 189.22 247.124C191.72 250.024 194.42 252.824 198.32 253.724C199.274 253.928 200.246 254.029 201.22 254.024C204.72 254.024 208.22 252.624 211.62 256.224C212.302 256.94 213.126 257.505 214.038 257.884C214.951 258.263 215.933 258.447 216.92 258.424C218.32 258.424 219.22 260.924 221.12 259.524C222.005 258.847 223.049 258.408 224.153 258.25C225.256 258.092 226.381 258.221 227.42 258.624C229.52 259.424 230.72 260.224 230.72 262.424C230.72 265.524 230.22 268.624 230.12 271.724C230.02 273.524 230.02 275.324 230.02 277.224C230.12 279.024 231.62 279.724 233.02 279.924C233.532 279.975 234.048 279.911 234.533 279.738C235.017 279.565 235.456 279.287 235.82 278.924C237.833 276.421 239.671 273.781 241.32 271.024C242.365 268.886 243.267 266.682 244.02 264.424C244.268 263.787 244.74 263.262 245.348 262.948C245.956 262.635 246.658 262.555 247.32 262.724C250.62 263.324 253.92 263.924 257.12 264.524C259.42 264.924 261.82 264.924 264.02 265.524C266.02 266.124 268.22 266.224 269.52 268.524C270.72 270.724 272.52 272.524 274.02 274.624C274.92 275.877 275.69 277.217 276.32 278.624C276.694 279.57 277.393 280.352 278.291 280.828C279.189 281.305 280.228 281.445 281.22 281.224C281.719 281.156 282.19 280.953 282.583 280.638C282.975 280.322 283.275 279.906 283.449 279.434C283.624 278.962 283.667 278.451 283.574 277.956C283.481 277.461 283.255 277.001 282.92 276.624C282.12 275.724 281.02 275.224 280.22 274.424C279.702 273.939 279.233 273.403 278.82 272.824C278.763 272.747 278.722 272.659 278.701 272.565C278.679 272.471 278.678 272.374 278.697 272.28C278.716 272.185 278.754 272.096 278.81 272.017C278.866 271.939 278.938 271.873 279.02 271.824C281.72 270.524 283.22 270.824 284.92 272.924C285.12 273.124 285.32 273.424 285.52 273.524C290.32 278.024 294.92 282.624 298.02 288.524C300.92 293.924 303.52 299.424 306.12 304.924C306.462 305.552 306.971 306.073 307.591 306.43C308.211 306.786 308.917 306.964 309.632 306.943C310.347 306.922 311.041 306.704 311.64 306.312C312.238 305.921 312.716 305.371 313.02 304.724C315.71 297.755 316.027 290.092 313.92 282.924C312.62 278.224 310.72 273.624 309.52 268.824C308.32 264.324 307.62 259.624 306.62 255.024C305.82 251.524 305.12 247.924 304.02 244.424C303.524 243.059 302.516 241.941 301.209 241.306C299.903 240.671 298.4 240.57 297.02 241.024C294.147 241.967 291.341 243.103 288.62 244.424C286.298 245.576 283.702 246.061 281.12 245.824C280.728 245.86 280.333 245.798 279.97 245.645C279.607 245.491 279.288 245.25 279.041 244.943C278.793 244.637 278.626 244.274 278.552 243.887C278.479 243.499 278.502 243.1 278.62 242.724C278.92 240.724 279.32 238.624 279.72 236.624C280.92 230.324 282.12 224.024 283.32 217.824C283.72 216.024 284.12 214.224 284.52 212.524C284.82 211.224 285.82 210.824 287.12 211.224C290.92 212.424 294.92 213.324 298.52 215.124C303.82 217.824 308.82 221.324 313.92 224.324C317.22 226.324 320.52 228.124 323.82 230.024C329.52 233.324 335.22 236.624 341.02 239.824C344.92 241.924 348.92 243.624 352.82 245.524C354.22 246.224 355.62 247.024 357.02 247.724C358.42 248.324 359.22 248.224 360.52 248.924C361.62 249.524 362.42 250.124 363.32 249.324C363.445 249.185 363.6 249.078 363.775 249.011C363.949 248.944 364.136 248.919 364.322 248.938C364.507 248.958 364.685 249.021 364.842 249.123C364.998 249.225 365.128 249.362 365.22 249.524C365.42 249.924 365.62 250.224 365.82 250.624C365.92 250.724 366.02 250.824 366.12 250.824C367.62 250.924 369.22 251.224 370.82 251.224C371.124 251.156 371.403 251.01 371.632 250.799C371.86 250.588 372.029 250.321 372.12 250.024C372.12 248.624 373.22 248.524 373.92 248.424C375.106 248.401 376.289 248.57 377.42 248.924C378.177 249.163 378.913 249.464 379.62 249.824C381.22 250.224 382.92 250.524 384.42 251.024C385.52 251.324 386.42 251.424 387.12 250.624C387.518 250.149 388.028 249.78 388.605 249.553C389.181 249.326 389.806 249.247 390.42 249.324C394.92 249.824 399.32 250.424 403.82 250.524C405.82 250.624 407.82 250.824 409.82 249.624C411.339 248.877 413.035 248.565 414.72 248.724C416.02 248.824 416.92 248.924 417.72 247.924C418.62 246.724 419.82 246.624 421.22 246.624C423.82 246.624 425.12 246.024 426.12 246.924C426.579 247.238 427.085 247.475 427.62 247.624C428.498 247.521 429.329 247.175 430.02 246.624C430.92 245.624 432.02 247.124 432.82 246.024C433.52 245.024 434.22 244.324 435.62 245.124C436.52 245.624 437.72 245.524 438.72 245.824C439.02 245.924 444.22 246.824 444.42 246.824C447.02 246.324 448.02 244.724 446.32 243.224C445.72 242.624 445.62 242.424 445.32 242.324C443.72 241.724 437.62 239.724 436.72 238.124C436.62 237.924 436.12 238.024 435.82 237.924C435.42 237.824 435.02 237.824 434.82 237.624C432.52 235.324 429.92 233.324 428.12 230.724C426.32 228.024 424.02 227.224 421.22 226.624C419.12 226.224 416.72 225.824 417.12 222.624C417.12 222.124 416.22 221.424 415.62 221.124C413.72 220.424 411.82 220.024 409.92 219.324C409.577 219.135 409.276 218.877 409.036 218.568C408.795 218.259 408.62 217.904 408.52 217.524C408.34 216.685 407.94 215.909 407.36 215.276C406.779 214.643 406.041 214.177 405.22 213.924C404.249 213.662 403.31 213.294 402.42 212.824C398.92 211.124 395.42 209.524 392.02 207.624C390.995 206.938 390.055 206.133 389.22 205.224C389.02 205.024 388.92 204.824 389.02 204.624C389.42 203.224 387.72 201.324 387.42 201.124C385.82 199.424 383.92 199.924 377.22 197.324C375.06 196.505 372.857 195.804 370.62 195.224C369.32 194.924 368.12 194.324 366.92 193.924C364.467 192.957 361.964 192.122 359.42 191.424C356.944 190.911 354.44 190.544 351.92 190.324C348.02 189.924 344.22 189.324 340.32 189.224C334.62 189.124 328.82 189.324 323.12 189.324C318.62 189.324 314.12 189.424 309.62 189.424C308.285 189.563 306.936 189.495 305.62 189.224C300.92 187.724 296.32 185.924 291.62 184.424C285.72 182.424 279.62 180.824 274.22 177.324C271.52 175.524 269.02 176.524 267.42 179.324C266.82 180.424 266.22 181.624 265.52 182.724C265.273 183.362 264.801 183.887 264.193 184.2C263.585 184.514 262.883 184.593 262.22 184.424C260.82 184.124 259.42 183.624 258.02 183.224C256.52 182.824 256.22 181.724 256.72 180.424C257.212 179.092 257.849 177.817 258.62 176.624C261.02 172.824 263.72 169.124 266.02 165.124C267.92 161.924 270.12 159.524 274.02 158.824C277.82 158.124 281.52 157.124 285.32 156.324C288.92 155.624 292.52 154.924 296.22 154.324C299.72 153.724 303.22 153.424 306.72 152.924C311.72 152.124 316.62 150.624 321.82 150.924C325.82 151.224 329.82 151.324 333.82 151.724C336.72 152.024 339.62 152.824 342.52 153.424C345.32 153.924 348.12 154.524 350.92 155.024C355.42 155.924 359.92 156.724 364.32 157.624C369.02 158.624 373.82 159.024 377.92 161.724C378.82 162.324 379.82 162.824 380.72 163.324C383.32 165.024 386.02 166.824 388.62 168.624C390.445 170.168 392.384 171.572 394.42 172.824C398.92 175.224 403.92 175.024 408.82 174.824C411.736 174.639 414.639 174.305 417.52 173.824C420.02 173.424 422.42 173.024 424.82 172.424C426.42 172.124 427.92 171.424 429.52 171.124C432.267 170.642 434.848 169.473 437.02 167.724C438.575 166.317 440.248 165.045 442.02 163.924C445.92 161.424 449.82 158.824 453.92 156.724C458.32 154.524 462.72 152.424 467.62 151.624C469.22 151.324 470.72 151.124 472.32 150.824C475.62 150.224 479.02 149.524 482.32 149.024C488.02 148.124 489.42 147.124 490.72 142.724C492.863 135.593 493.876 128.169 493.72 120.724C493.702 120.383 493.635 120.046 493.52 119.724C493.466 119.545 493.364 119.384 493.226 119.256C493.089 119.129 492.92 119.041 492.737 119C492.554 118.96 492.364 118.968 492.185 119.025C492.006 119.082 491.846 119.185 491.72 119.324C491.52 119.624 491.32 119.824 491.12 120.124C488.32 126.224 485.32 132.024 478.62 134.624C475.62 135.824 472.42 136.624 469.32 135.124C467.686 134.227 466.201 133.08 464.92 131.724C461.12 128.224 456.62 128.424 452.12 129.124C449.82 129.424 447.62 130.124 445.42 130.424C445.118 130.488 444.804 130.481 444.505 130.403C444.205 130.325 443.928 130.178 443.695 129.974C443.463 129.771 443.28 129.515 443.163 129.229C443.046 128.943 442.997 128.633 443.02 128.324C443.022 127.712 443.124 127.104 443.32 126.524C444.72 122.575 445.431 118.414 445.42 114.224C445.377 111.473 444.727 108.765 443.517 106.293C442.307 103.821 440.567 101.647 438.42 99.9243C435.387 97.5165 431.821 95.8705 428.02 95.1243C427.52 95.0243 426.62 94.3243 426.72 94.1243C426.986 93.4156 427.395 92.769 427.92 92.2243C428.245 92.0076 428.631 91.9023 429.02 91.9243C430.752 91.8243 432.489 91.8243 434.22 91.9243C437.981 92.2951 441.719 92.8626 445.42 93.6243C448.329 94.1938 451.152 95.1348 453.82 96.4243C457.82 98.3243 461.82 99.4243 466.22 98.2243C468.005 97.86 469.807 97.5929 471.62 97.4243C475.02 96.7243 477.92 95.2243 479.62 92.1243C481.32 89.1243 482.42 85.9243 484.22 83.0243C488.82 75.4243 493.82 73.7243 501.12 74.3243C503.12 74.5243 504.22 74.1243 504.82 72.5243C505.82 69.7243 505.22 67.7243 503.82 66.6243ZM29.3204 90.0243C29.2615 90.1246 29.1683 90.2001 29.0579 90.2368C28.9476 90.2736 28.8277 90.2692 28.7204 90.2243C26.6204 89.5243 24.8204 89.0243 23.0204 88.5243C18.8204 87.3243 14.7204 86.1243 10.5204 85.0243C8.02045 84.3243 7.22045 83.0243 8.42045 81.4243C8.6617 81.2038 8.9466 81.0364 9.25669 80.9331C9.56677 80.8297 9.89512 80.7927 10.2204 80.8243C12.4288 81.3052 14.6008 81.9401 16.7204 82.7243C20.7204 84.1243 24.6204 85.6243 28.5204 87.2243C29.1204 87.4243 29.5204 88.3243 29.7204 88.9243C29.8198 89.3243 29.5204 89.6243 29.3204 90.0243ZM65.4204 108.024C65.2818 108.283 65.0855 108.507 64.8468 108.678C64.608 108.85 64.3332 108.964 64.0434 109.012C63.7536 109.06 63.4566 109.041 63.1752 108.957C62.8938 108.872 62.6356 108.724 62.4204 108.524C60.3204 106.624 58.9204 104.624 60.4204 101.824C61.3204 100.124 61.1204 98.8243 59.6204 97.7243C58.7204 97.0243 57.7204 96.3243 56.7204 95.6243C56.0204 95.0243 55.4204 94.4243 54.7204 93.7243C54.656 93.6644 54.6064 93.5902 54.5758 93.5077C54.5451 93.4252 54.5342 93.3366 54.5439 93.2492C54.5537 93.1617 54.5837 93.0777 54.6317 93.0039C54.6798 92.9301 54.7444 92.8686 54.8204 92.8243C56.3204 92.0243 57.6204 92.6243 58.7204 93.0243C61.8085 94.0043 64.4146 96.1106 66.0204 98.9243C67.1198 100.724 66.7204 106.324 65.4204 108.024ZM72.3204 105.124C72.0204 105.124 71.3204 104.124 71.3204 103.524C71.2204 102.424 71.6204 101.224 72.9204 101.124C73.3204 101.124 73.7205 101.924 74.1205 102.524C74.211 102.635 74.2685 102.768 74.2862 102.91C74.3039 103.051 74.2811 103.195 74.2205 103.324C74.2029 103.814 73.9939 104.276 73.6384 104.613C73.2829 104.95 72.81 105.133 72.3204 105.124ZM80.0204 106.024C79.6894 106.613 79.322 107.181 78.9204 107.724C78.7204 107.924 78.4204 107.924 78.3204 107.724C77.9134 107.297 77.606 106.785 77.4204 106.224C77.356 105.208 77.4919 104.188 77.8204 103.224C77.9204 102.924 78.4205 102.424 78.7205 102.424C78.9456 102.486 79.1532 102.6 79.3268 102.756C79.5003 102.912 79.6351 103.107 79.7205 103.324C79.9281 103.905 80.0625 104.51 80.1205 105.124C80.0199 105.624 80.1204 105.824 80.0204 106.024ZM117.42 118.624C116.82 119.724 116.02 119.524 115.22 119.324C111.92 118.524 108.62 117.624 105.32 116.724C102.62 116.024 99.8205 115.324 97.1205 114.524C93.3205 113.424 89.5205 112.424 85.7205 111.224C85.0205 111.024 84.5205 110.024 84.2205 109.724C84.2205 107.624 85.1205 106.724 86.6205 107.124C92.2205 108.424 97.7204 109.724 103.32 111.124C107.32 112.124 111.22 113.124 115.22 114.124C117.72 114.824 118.52 116.624 117.42 118.624ZM159.82 183.324C158.32 186.124 156.52 188.624 155.02 191.424C153.886 193.081 153.103 194.953 152.72 196.924C152.61 199.179 151.959 201.375 150.82 203.324C148.02 207.924 148.42 212.224 151.72 216.524C152.22 217.124 151.92 218.324 151.92 219.124C151.92 219.224 151.12 219.624 150.92 219.424C147.72 217.524 144.52 215.624 143.82 211.424C143.02 207.024 144.22 203.224 146.72 199.624C147.814 198.231 148.691 196.68 149.32 195.024C150.007 192.357 150.541 189.653 150.92 186.924C151.545 184.172 152.972 181.666 155.02 179.724C155.408 179.452 155.85 179.266 156.316 179.179C156.782 179.093 157.261 179.108 157.72 179.224C160.02 179.824 160.92 181.224 159.82 183.324ZM287.42 249.624C287.72 248.924 288.22 247.924 288.92 247.724C291.22 246.824 293.62 246.224 296.02 245.424C300.02 245.524 302.82 248.524 301.52 251.824C301.38 252.1 301.165 252.33 300.9 252.489C300.634 252.649 300.33 252.73 300.02 252.724C298.946 252.591 297.899 252.288 296.92 251.824C295.931 251.414 295.018 250.839 294.22 250.124C294.061 249.911 293.858 249.735 293.624 249.607C293.39 249.479 293.132 249.403 292.866 249.385C292.601 249.366 292.334 249.404 292.085 249.497C291.835 249.59 291.609 249.736 291.42 249.924C290.434 250.446 289.336 250.72 288.22 250.724C288.02 250.824 287.32 249.824 287.42 249.624ZM221.12 63.3243C224.238 65.4586 227.212 67.7971 230.02 70.3243C235.12 75.1243 240.12 80.0243 244.92 85.0243C246.42 86.5243 248.12 88.1243 248.12 90.9243C248.02 91.1243 247.92 91.8243 247.72 91.9243C247.209 91.9279 246.714 91.7508 246.32 91.4243C242.22 87.9243 238.22 84.3243 233.92 80.9243C230.02 77.8243 226.02 74.8243 222.02 72.0243C217.62 69.0243 213.12 66.3243 208.62 63.4243C206.92 62.3243 206.92 58.4243 208.72 57.6243C209.596 57.4305 210.512 57.5361 211.32 57.9243C214.62 59.7243 218.02 61.2243 221.12 63.3243ZM206.52 33.1243C206.52 32.8243 207.12 32.6243 207.12 32.5243C209.02 32.5243 212.72 35.6243 212.82 37.0243C212.92 38.0243 212.32 38.6243 211.42 38.1243C209.776 37.1398 208.205 36.0369 206.72 34.8243C206.42 34.6243 206.52 33.7243 206.52 33.1243ZM163.52 38.3243C167.52 35.8243 171.72 33.5243 175.92 31.2243C178.22 30.0243 180.72 29.1243 183.02 28.0243C185.92 26.6243 188.72 27.3243 191.52 28.4243C192.32 28.7243 193.42 28.6243 193.62 30.0243C193.666 30.3196 193.644 30.6211 193.557 30.9069C193.471 31.1928 193.321 31.4556 193.12 31.6761C192.919 31.8967 192.67 32.0693 192.394 32.1815C192.117 32.2937 191.819 32.3425 191.52 32.3243C188.684 32.2745 185.847 32.3746 183.02 32.6243C181.469 32.9069 179.958 33.377 178.52 34.0243C177.42 34.5243 177.12 36.3243 177.72 37.6243C177.742 37.67 177.755 37.7197 177.756 37.7703C177.758 37.8209 177.749 37.8713 177.73 37.9183C177.712 37.9654 177.683 38.008 177.647 38.0434C177.611 38.0789 177.568 38.1064 177.52 38.1243C172.42 39.7243 167.42 41.2243 162.32 42.8243C162.201 42.8611 162.072 42.8504 161.96 42.7946C161.849 42.7387 161.763 42.6419 161.72 42.5243C161.12 40.7243 161.42 39.6243 163.52 38.3243ZM151.42 82.4243C152.22 80.3243 153.12 78.2243 154.02 76.1243C155.32 73.2243 156.72 70.3243 158.12 67.4243C159.12 65.3243 158.42 63.1243 156.02 62.6243C155.478 62.548 154.968 62.3228 154.547 61.9738C154.125 61.6248 153.808 61.1656 153.632 60.6473C153.456 60.1291 153.427 59.5722 153.549 59.0384C153.67 58.5047 153.937 58.0152 154.32 57.6243C154.603 57.3259 154.943 57.0878 155.32 56.9243C156.12 56.6243 160.42 58.0243 160.62 58.7243C160.735 59.5237 160.701 60.3373 160.52 61.1243C160.52 61.6243 160.12 62.3243 160.32 62.6243C162.32 65.2243 161.52 67.0243 159.82 70.0243C158.52 72.4243 157.32 74.8243 156.12 77.2243C156.046 77.3981 156.007 77.5852 156.007 77.7743C156.007 77.9634 156.046 78.1506 156.12 78.3243C156.12 78.6243 157.12 78.7243 157.32 78.5243C158.82 75.5243 160.02 72.4243 162.02 69.7243C164.02 66.9243 162.82 63.4243 163.62 60.4243C163.62 60.2243 163.82 60.1243 164.02 60.1243C164.53 60.1376 165.016 60.3392 165.385 60.6901C165.755 61.041 165.981 61.5164 166.02 62.0243C166.638 64.4076 166.498 66.9241 165.62 69.2243C163.32 74.4243 161.12 79.7243 158.82 84.9243C157.92 86.9243 157.42 87.1243 155.42 86.3243C154.82 86.1243 153.82 85.8243 153.22 85.6243C151.12 85.4243 150.62 84.4243 151.42 82.4243ZM144.72 105.524C145.82 101.324 148.12 97.9243 152.22 96.0243C152.49 95.8926 152.723 95.6955 152.898 95.4511C153.072 95.2066 153.183 94.9224 153.22 94.6243C153.22 94.3243 152.52 93.7243 152.02 93.6243C151.02 93.3243 150.02 93.3243 149.02 93.1243C148.603 93.0465 148.208 92.8761 147.865 92.6256C147.521 92.3752 147.239 92.0509 147.037 91.6768C146.836 91.3027 146.721 90.8882 146.701 90.4638C146.68 90.0394 146.755 89.6159 146.92 89.2243C147.52 87.3243 149.32 87.0243 151.72 88.2243C153.818 89.2319 156.096 89.8099 158.42 89.9243C160.42 90.0243 161.62 90.8243 161.62 93.0243C161.52 95.6243 159.82 97.2243 157.52 98.3243C153.442 100.273 149.93 103.234 147.32 106.924C146.952 107.335 146.512 107.674 146.02 107.924C145.92 107.991 145.804 108.031 145.683 108.041C145.563 108.051 145.442 108.03 145.332 107.98C145.222 107.93 145.126 107.852 145.054 107.755C144.982 107.658 144.936 107.544 144.92 107.424C144.711 106.814 144.643 106.165 144.72 105.524ZM141.12 112.824C142.72 112.524 144.42 111.124 146.12 113.124C148.32 115.524 148.72 117.124 146.92 119.124C146.709 119.286 146.468 119.405 146.21 119.474C145.953 119.542 145.684 119.56 145.42 119.524C143.814 118.832 142.067 118.524 140.32 118.624C139.82 118.624 139.32 118.124 138.92 117.324V117.124C139.035 116.768 139.102 116.398 139.12 116.024C139.12 115.824 139.12 115.724 139.22 115.624C139.82 114.524 140.32 112.924 141.12 112.824ZM125.42 109.024C125.741 108.523 126.243 108.165 126.82 108.024C127.22 107.924 127.72 108.324 128.22 108.424C128.509 108.521 128.814 108.559 129.118 108.536C129.422 108.513 129.718 108.429 129.988 108.289C130.259 108.149 130.498 107.956 130.693 107.721C130.887 107.487 131.033 107.216 131.12 106.924C131.92 102.424 132.52 97.9243 133.12 94.2243C132.92 88.6243 135.02 84.5243 137.82 80.7243C138.02 80.5243 138.22 80.2243 138.42 80.1243C138.72 80.0243 139.12 79.9243 139.42 79.8243C139.526 79.7949 139.636 79.7873 139.744 79.8019C139.852 79.8164 139.956 79.8529 140.05 79.9091C140.143 79.9652 140.224 80.0399 140.288 80.1285C140.352 80.2171 140.397 80.3177 140.42 80.4243C140.548 80.7761 140.583 81.1552 140.52 81.5243C138.62 85.5243 138.42 89.7243 137.72 94.0243C137.539 95.0368 137.201 96.015 136.72 96.9243C135.32 99.8243 135.12 102.824 134.82 105.924C134.62 108.324 132.02 111.724 129.62 111.924C128.22 112.024 126.72 111.224 125.42 110.724C125.269 110.168 125.269 109.581 125.42 109.024ZM126.82 129.424C126.126 128.796 125.667 127.949 125.52 127.024L125.22 125.824C125.143 125.295 125.11 124.76 125.12 124.224C125.206 123.648 125.34 123.079 125.52 122.524C125.72 121.324 126.62 120.924 127.82 121.424C129.32 122.224 130.82 123.024 132.42 123.824C134.92 125.024 136.22 124.724 137.92 122.524C138.92 121.224 139.52 120.924 141.22 121.624C141.512 121.776 141.812 121.91 142.12 122.024C144.72 122.824 145.22 124.224 143.72 126.424C142.62 128.024 141.22 129.424 140.02 130.924C137.42 134.124 135.32 133.224 132.42 132.324C130.385 131.726 128.484 130.742 126.82 129.424ZM171.52 160.124C170.32 161.424 169.32 162.424 167.62 161.924C161.82 160.424 156.02 158.924 150.22 157.524C146.62 156.624 143.12 155.924 139.52 155.024C138.486 154.676 137.482 154.241 136.52 153.724C136.276 153.577 136.071 153.373 135.922 153.13C135.773 152.887 135.685 152.611 135.665 152.326C135.646 152.042 135.695 151.757 135.809 151.495C135.923 151.234 136.098 151.004 136.32 150.824C137.967 149.484 139.27 147.77 140.12 145.824C140.4 145.33 140.808 144.921 141.301 144.639C141.793 144.358 142.353 144.214 142.92 144.224C145.72 144.124 148.52 143.524 150.72 141.424C152.12 140.224 153.52 140.824 154.72 141.724C156.669 143.187 158.507 144.792 160.22 146.524C162.22 148.724 163.22 149.324 166.02 149.724C169.341 150.351 172.777 149.785 175.72 148.124C175.929 148.045 176.114 147.915 176.26 147.746C176.407 147.578 176.509 147.376 176.558 147.158C176.608 146.94 176.603 146.714 176.544 146.499C176.485 146.284 176.374 146.086 176.22 145.924C173.92 143.324 176.22 141.724 177.12 139.024C177.89 136.888 178.826 134.815 179.92 132.824C180.52 131.624 181.32 130.924 182.72 132.024C184.02 133.024 185.62 133.724 186.92 134.824C187.443 135.392 187.881 136.032 188.22 136.724C188.302 136.913 188.336 137.119 188.32 137.324C188.12 138.024 187.92 138.524 187.82 139.024C187.72 140.524 187.72 142.024 187.52 143.524C187.303 144.442 186.772 145.255 186.02 145.824C181.82 150.124 177.42 154.224 173.02 158.524C172.42 159.024 172.02 159.624 171.52 160.124ZM180.12 164.724C179.385 164.419 178.611 164.218 177.82 164.124C174.72 163.924 173.52 162.124 175.22 159.924C176.507 158.288 177.984 156.811 179.62 155.524C182.32 153.524 185.12 151.624 187.92 149.924C189.72 148.824 191.22 149.124 191.82 150.424C193.22 153.224 192.42 154.724 190.52 155.724C188.22 156.824 185.92 157.824 183.62 159.024C183.31 159.202 183.038 159.44 182.82 159.724C182.586 160.02 182.45 160.381 182.432 160.758C182.414 161.135 182.515 161.508 182.72 161.824C182.76 161.862 182.807 161.891 182.859 161.908C182.911 161.926 182.966 161.931 183.02 161.924C184.712 161.154 186.449 160.486 188.22 159.924C188.845 159.774 189.496 159.774 190.12 159.924C190.32 159.924 190.52 160.124 190.42 160.324C190.394 160.911 190.259 161.488 190.02 162.024C188.02 165.524 183.92 166.524 180.12 164.724ZM189.02 202.624C187.22 202.924 186.32 202.124 186.32 200.424C186.365 199.55 186.637 198.702 187.111 197.965C187.585 197.228 188.243 196.628 189.02 196.224C190.571 195.266 192.212 194.462 193.92 193.824C196.02 193.024 195.72 193.324 195.92 195.524C195.943 195.795 195.909 196.068 195.82 196.324C195.42 197.624 195.02 198.924 194.52 200.224C193.82 201.924 193.32 202.624 191.42 202.524C190.619 202.503 189.817 202.537 189.02 202.624ZM197.12 199.024C199.42 190.924 201.92 182.924 204.42 174.924C204.92 173.324 205.32 171.724 205.92 170.124C206.356 169.17 206.893 168.265 207.52 167.424C207.566 167.352 207.626 167.29 207.696 167.24C207.766 167.191 207.845 167.156 207.929 167.138C208.013 167.119 208.099 167.117 208.183 167.132C208.268 167.147 208.348 167.178 208.42 167.224C209.803 167.81 210.907 168.905 211.503 170.283C212.099 171.661 212.141 173.216 211.62 174.624C209.42 181.624 207.12 188.524 204.92 195.524C203.62 199.424 202.32 203.324 201.12 207.324C200.42 209.624 199.52 210.724 198.22 210.424C196.22 210.024 196.12 208.324 196.22 206.824C196.168 204.196 196.471 201.572 197.12 199.024ZM217.22 224.924C217.22 225.324 216.92 225.524 216.52 225.624C216.02 225.624 215.52 225.724 215.22 225.524C211.82 223.524 208.52 221.424 204.62 220.424C204.12 220.324 203.72 220.124 203.22 220.024C200.22 219.324 199.32 220.124 199.32 223.224V224.424C198.92 226.624 200.12 228.224 202.32 229.324C206.22 231.224 208.92 234.524 211.82 237.524C212.022 237.719 212.183 237.952 212.292 238.209C212.402 238.467 212.458 238.744 212.458 239.024C212.458 239.304 212.402 239.582 212.292 239.839C212.183 240.097 212.022 240.33 211.82 240.524C210.92 241.424 210.32 240.424 209.52 240.024C206.42 238.324 203.32 236.724 200.12 235.324C198.92 234.824 196.72 236.324 195.92 238.124C195.32 239.624 195.02 241.224 194.52 242.724C194.425 243.407 194.258 244.077 194.02 244.724L193.72 245.024C193.543 245.24 193.315 245.407 193.056 245.513C192.798 245.618 192.517 245.658 192.24 245.628C191.962 245.598 191.696 245.5 191.466 245.342C191.236 245.185 191.048 244.972 190.92 244.724C190.882 244.685 190.854 244.638 190.837 244.586C190.819 244.534 190.814 244.479 190.82 244.424C189.42 240.324 190.02 236.124 190.72 232.024C191.253 228.983 191.287 225.876 190.82 222.824C190.52 220.524 190.32 218.224 190.22 215.824C190.12 213.024 190.82 212.524 193.52 212.624C200.42 213.024 207.02 214.724 212.72 218.924C214.344 220.036 215.822 221.346 217.12 222.824C217.366 223.498 217.401 224.23 217.22 224.924ZM239.72 233.624C239.42 235.724 239.02 237.724 238.62 239.824C238.52 240.224 238.02 240.924 237.62 240.924C236.014 241.027 234.401 240.926 232.82 240.624C231.32 240.124 231.72 238.424 231.72 237.224C231.72 234.124 231.92 231.024 232.12 228.024C232.114 227.444 232.216 226.867 232.42 226.324C233.02 224.924 233.82 224.624 235.12 225.424C239.42 227.724 239.82 226.824 239.72 233.624ZM270.62 238.024C270.585 238.32 270.466 238.6 270.277 238.831C270.089 239.062 269.838 239.235 269.555 239.329C269.273 239.424 268.969 239.436 268.679 239.364C268.39 239.292 268.127 239.14 267.92 238.924C264.72 236.124 260.92 234.724 257.12 233.224C256.02 232.824 255.62 231.724 256.12 230.424C257.22 227.724 262.92 224.824 265.82 225.024C269.12 225.224 270.02 227.424 270.62 229.924C270.92 231.224 270.92 232.524 271.12 234.124C271.034 235.433 270.867 236.736 270.62 238.024ZM278.72 211.424C277.82 215.724 277.02 219.824 275.92 224.024C275.42 226.024 274.72 226.124 273.22 224.724C272.166 223.716 270.99 222.843 269.72 222.124C268.02 221.124 267.42 219.624 268.82 218.124C271.12 215.524 273.52 213.024 275.92 210.524C276.039 210.34 276.214 210.199 276.42 210.124C276.975 209.839 277.604 209.735 278.22 209.824C278.52 209.924 278.62 210.624 278.72 211.124V211.424ZM293.92 189.124C294.42 188.224 295.02 186.624 296.42 187.324C297.72 188.024 297.22 189.424 296.92 190.524C295.72 194.024 294.42 197.524 293.22 201.124C292.72 202.724 292.42 204.424 291.92 205.924C291.737 206.346 291.421 206.697 291.02 206.924C290.968 206.964 290.908 206.994 290.845 207.011C290.781 207.027 290.715 207.031 290.649 207.022C290.584 207.012 290.521 206.99 290.465 206.956C290.408 206.922 290.359 206.878 290.32 206.824C289.72 206.524 289.82 206.124 289.62 205.624C289.527 204.929 289.493 204.226 289.52 203.524C289.841 198.446 291.348 193.514 293.92 189.124ZM290.42 185.624C290.708 186.081 290.893 186.595 290.962 187.13C291.031 187.666 290.983 188.21 290.82 188.724C288.827 193.134 287.512 197.821 286.92 202.624C286.72 204.924 285.02 205.524 283.02 204.424C281.52 203.524 280.62 202.724 281.02 201.124C281.333 196.072 282.768 191.153 285.22 186.724C286.52 184.124 288.42 183.524 290.42 185.624ZM274.62 198.824C275.354 193.269 277.3 187.944 280.32 183.224L280.92 182.624C281.199 182.429 281.53 182.324 281.87 182.324C282.21 182.324 282.542 182.429 282.82 182.624C283.12 182.724 283.32 183.424 283.32 183.724C283.165 184.306 282.965 184.874 282.72 185.424C282.22 186.724 281.82 187.824 281.42 188.924C280.22 192.524 279.22 196.024 278.02 199.624C277.62 200.724 277.12 202.124 275.82 201.724C275.12 201.424 274.52 199.724 274.62 198.824ZM259.22 192.724C259.713 192.905 260.148 193.213 260.482 193.617C260.816 194.021 261.036 194.507 261.12 195.024C261.165 195.179 261.171 195.343 261.136 195.5C261.101 195.657 261.027 195.803 260.92 195.924C260.536 196.614 260.065 197.253 259.52 197.824C258.42 198.724 258.32 199.424 259.42 200.324C262.22 202.724 265.62 203.624 269.22 203.924C269.736 203.94 270.243 204.064 270.709 204.288C271.174 204.512 271.587 204.831 271.92 205.224C272.62 206.324 272.02 207.624 271.02 208.524C267.02 212.124 262.92 215.824 258.92 219.424C257.82 220.424 256.62 221.324 255.42 222.324C254.956 222.677 254.411 222.907 253.834 222.995C253.258 223.082 252.668 223.023 252.12 222.824C250.452 222.409 248.716 222.341 247.02 222.624C245.32 222.924 243.82 224.224 242.02 224.524C240.72 224.724 239.22 224.024 237.92 223.624C235.72 222.924 233.52 222.024 231.22 221.424C228.92 220.924 228.12 219.324 229.62 217.424C230.439 216.406 231.419 215.528 232.52 214.824C234.547 213.499 236.009 211.468 236.62 209.124C237.908 205.091 239.981 201.352 242.72 198.124C244.32 196.124 245.92 194.024 247.52 192.024C247.875 191.499 248.38 191.094 248.969 190.862C249.558 190.63 250.203 190.582 250.82 190.724C253.705 190.961 256.538 191.636 259.22 192.724ZM279.92 112.024C276.02 112.324 272.12 112.024 268.22 112.424C265.019 112.822 261.846 113.423 258.72 114.224C256.32 114.724 254.02 115.324 251.62 115.924C247.92 116.924 244.22 118.024 240.62 119.024C237.32 119.924 234.12 120.824 230.82 121.724C228.82 122.224 226.92 122.824 224.82 123.224C222.579 123.711 220.307 124.045 218.02 124.224C215.62 124.524 215.32 124.424 213.32 124.624H212.22C211.52 124.624 210.12 124.624 209.82 125.124C209.52 125.624 209.52 126.224 210.02 126.424C210.52 126.624 211.02 126.824 211.42 127.024C219.52 129.424 227.02 133.224 234.82 136.224C237.62 137.324 240.82 137.624 243.72 138.324C245.22 138.724 246.72 139.024 248.22 139.324C252.82 140.124 257.32 140.824 261.92 141.624L264.62 142.224C265.82 142.424 265.82 143.324 265.82 144.224C265.82 145.224 265.02 145.124 264.32 145.124C260.52 144.924 256.62 145.024 252.82 144.624C249.52 144.324 246.22 143.624 242.92 143.124L235.72 142.224C232.318 141.807 228.988 140.933 225.82 139.624C221.42 137.824 217.02 136.424 212.62 134.724C209.32 133.524 206.12 132.124 202.82 130.824C200.664 130.021 198.46 129.353 196.22 128.824C192.32 127.924 188.42 127.224 184.42 126.424C182.52 126.024 182.02 123.824 183.62 122.224C184.791 120.962 186.225 119.972 187.82 119.324C194.42 117.124 201.42 116.824 208.32 116.424C214.62 116.024 220.82 115.224 227.02 114.524C230.12 114.124 233.22 113.624 236.32 113.024C242.72 111.824 249.02 110.424 255.42 109.424C263.506 108.009 271.74 107.639 279.92 108.324C281.137 108.461 282.341 108.695 283.52 109.024C283.786 109.09 284.025 109.235 284.206 109.439C284.387 109.644 284.502 109.899 284.534 110.171C284.567 110.442 284.516 110.717 284.388 110.959C284.261 111.201 284.063 111.398 283.82 111.524C282.72 112.324 281.22 111.924 279.92 112.024ZM446.82 134.124C450.42 133.224 454.02 132.624 457.62 131.824C459.32 131.424 460.72 132.124 462.12 132.924C464.72 134.524 467.22 136.224 469.82 137.724C470.326 138.017 470.862 138.252 471.42 138.424C471.657 138.523 471.86 138.69 472.002 138.903C472.145 139.117 472.221 139.368 472.22 139.624C472.02 141.424 471.22 142.024 468.62 141.724C464.911 141.209 461.161 141.041 457.42 141.224C453.671 141.634 449.96 142.336 446.32 143.324C443.501 144.069 440.755 145.074 438.12 146.324C435.92 147.324 433.82 148.624 431.72 149.824C427.02 152.424 422.12 154.724 416.82 155.224C413.051 155.541 409.258 155.407 405.52 154.824C403.42 154.524 401.42 153.324 399.32 152.624C398.854 152.506 398.413 152.302 398.02 152.024C397.42 151.624 396.42 151.024 396.52 150.624C396.468 150.023 396.63 149.422 396.978 148.928C397.325 148.434 397.836 148.078 398.42 147.924C403.52 146.524 408.52 145.124 413.52 143.624C420.42 141.624 427.32 139.724 434.32 137.724C438.32 136.624 442.52 135.224 446.82 134.124ZM430.42 98.9243C431.845 99.983 433.182 101.153 434.42 102.424C434.827 103.011 435.037 103.711 435.02 104.424C434.72 106.424 434.42 106.124 432.52 105.824C428.52 105.024 424.62 103.124 420.42 103.424C416.02 103.724 411.72 103.324 407.32 103.724C402.62 104.124 397.92 105.224 393.22 105.924C390.82 106.224 388.52 106.324 386.12 106.424C385.02 106.524 384.72 105.924 384.92 104.924C385.22 102.624 384.82 102.524 382.52 102.924C380.268 103.244 377.996 103.411 375.72 103.424C372.12 103.624 368.62 103.824 365.02 104.024C359.52 104.324 354.12 104.624 348.62 104.824C347.72 104.824 346.82 104.124 345.92 103.724C345.42 103.524 345.42 103.224 345.82 103.124C346.704 102.591 347.643 102.155 348.62 101.824C352.52 100.924 356.42 100.024 360.32 99.3243C364.32 98.6243 368.32 98.1243 372.32 97.8243C377.42 97.3243 382.62 97.1243 387.72 96.8243C388.72 96.7243 389.72 97.0243 390.62 96.9243C391.82 96.9243 393.12 96.6243 394.32 96.6243C403.12 96.5243 411.82 96.4243 420.62 96.6243C423.92 96.6243 427.52 96.7243 430.42 98.9243ZM433.02 66.6243C431.657 67.0263 430.242 67.2284 428.82 67.2243C425.02 67.3243 421.62 68.6243 418.22 70.0243C412.52 72.3243 406.92 74.8243 401.12 77.0243C396.32 78.8243 391.52 80.6243 386.42 81.2243C384.222 81.391 382.013 81.3575 379.82 81.1243C376.42 80.9243 373.02 80.7243 369.62 80.6243C368.406 80.5479 367.188 80.6833 366.02 81.0243C365.038 81.4568 364.253 82.2417 363.82 83.2243C363.71 83.6389 363.462 84.0035 363.116 84.258C362.771 84.5125 362.349 84.6417 361.92 84.6243C360.52 84.7243 359.22 84.7243 357.82 84.9243C356.72 85.0243 355.52 85.4243 354.42 85.6243C354.12 85.7243 354.12 86.0243 354.32 86.2243C354.766 86.4972 355.235 86.7314 355.72 86.9243C358.12 87.3243 360.52 87.7243 363.12 88.2243C363.175 88.2333 363.227 88.2541 363.273 88.2852C363.319 88.3164 363.358 88.3572 363.386 88.4048C363.415 88.4524 363.433 88.5056 363.439 88.5608C363.445 88.616 363.438 88.6718 363.42 88.7243C363.27 89.2637 362.941 89.7359 362.486 90.063C362.032 90.3902 361.48 90.5529 360.92 90.5243C355.82 90.8243 350.72 91.0243 345.62 91.3243C342.62 91.5243 339.62 92.2243 336.52 92.5243C335.946 92.5568 335.371 92.4891 334.82 92.3243C334.609 92.2696 334.428 92.1341 334.316 91.9471C334.204 91.76 334.169 91.5364 334.22 91.3243C334.42 90.5243 334.52 89.7243 335.02 89.3243C336.756 88.0397 338.596 86.9024 340.52 85.9243C344.62 83.7243 348.72 81.7243 352.72 79.5243C356.52 77.4243 360.22 75.2243 364.72 74.8243C368.02 74.5243 371.42 74.4243 374.72 73.8243C381.32 72.6243 387.92 71.4243 394.42 69.7243C400.12 68.2243 405.62 65.9243 411.22 64.2243C414.609 63.1424 418.17 62.7015 421.72 62.9243C425.02 63.2243 428.32 63.2243 431.62 63.3243C432.143 63.3503 432.654 63.4866 433.12 63.7243C433.62 64.0243 434.32 64.0243 434.32 64.7243C434.52 65.6243 433.621 66.4243 433.02 66.6243Z" fill="white"/>
</g>
<defs>
<clipPath id="clip0_509_2999">
<rect width="505.316" height="306.957" fill="white"/>
</clipPath>
</defs>
</svg>
