<svg width="612" height="266" viewBox="0 0 612 266" fill="none" xmlns="http://www.w3.org/2000/svg">
<path d="M386.154 210.998C386.178 212.404 386.584 212.924 387.18 212.954H387.801V213.902L381.549 213.932V212.771L381.86 212.801C382.814 212.832 383.196 212.496 383.196 211.12C383.22 209.501 383.22 207.331 383.172 205.528C383.172 205.467 383.172 205.436 383.172 205.375C383.148 202.441 382.957 199.507 381.597 199.507C380.333 199.507 380.022 202.105 379.903 204.091C379.903 204.122 379.903 204.153 379.879 204.183V204.947L379.688 207.575V207.606C379.617 209.256 380.07 209.837 380.953 209.867L380.929 210.57L374.821 210.295L374.845 209.592H375.06C375.585 209.623 376.467 209.195 376.658 207.942L376.897 204.489C377.088 201.585 376.921 198.774 375.513 198.529C374.296 198.315 373.652 200.241 373.652 202.227V211.579C373.652 213.199 373.819 213.993 374.917 214.054V214.727L368.689 214.757V213.596L369.715 213.688C370.646 213.657 371.218 213.351 371.218 212.098V200.424C371.218 198.621 369.739 198.193 369.119 198.193L369.5 198.132L368.594 198.193V197.521L373.652 197.215V198.835C374.177 197.551 375.06 196.848 376.253 196.848C377.613 196.848 378.973 197.979 379.569 200.516C379.999 198.835 380.953 197.735 382.48 197.765C384.198 197.765 386.154 199.904 386.154 205.467V210.998Z" fill="white"/>
<path d="M394.831 199.14L394.855 198.468L399.985 198.56L399.961 199.202H399.15C398.649 199.202 397.957 199.446 397.718 200.577L394.975 213.413C393.782 219.525 392.064 223.773 388.891 223.773C387.197 223.773 385.813 221.847 385.813 219.922C385.813 217.599 386.958 216.622 388.008 216.622C388.938 216.622 389.797 217.355 389.797 218.547C389.797 219.555 389.248 220.136 388.676 220.136C388.389 220.136 388.103 219.983 387.865 219.678C387.865 219.678 388.676 219.494 388.676 218.7C388.676 218.333 388.437 218.119 388.151 218.119C387.674 218.119 387.053 218.639 387.053 219.8C387.053 221.114 387.865 222 388.843 222C390.537 222 391.682 220.228 392.469 218.027L389.559 198.957C389.248 197.582 388.604 196.818 387.363 196.879L386.624 196.909L386.576 195.687L394.092 195.84V196.512L393.591 196.543H393.615C392.541 196.604 392.135 197.246 392.326 198.621C392.35 198.682 392.35 198.774 392.35 198.804L394.163 210.601L396.358 200.546C396.454 199.691 396.168 199.171 395.333 199.14H394.831Z" fill="white"/>
<path d="M402.951 198.651C402.951 202.594 408.462 204.733 408.462 210.479C408.462 213.871 406.601 215.888 404.168 215.888C402.354 215.919 400.47 214.574 400.47 211.671C400.47 209.623 401.496 208.737 402.378 208.737C403.046 208.737 403.619 209.226 403.619 210.112C403.619 210.907 403.213 211.334 402.784 211.334C402.593 211.334 402.402 211.243 402.259 211.029C402.259 211.029 402.808 210.937 402.832 210.387C402.832 210.112 402.641 209.959 402.378 209.959C401.949 209.959 401.4 210.387 401.4 211.548C401.4 212.71 402.14 213.749 403.309 213.779C404.693 213.779 405.313 212.679 405.313 211.09C405.313 206.872 400.422 205.314 400.422 200.271C400.422 196.359 402.903 195.29 404.526 195.29C408.367 195.29 408.367 200.241 408.367 200.241L405.432 201.341L405.337 200.699C406.434 200.271 406.625 199.263 406.458 198.315C406.172 196.848 405.48 196.421 404.717 196.421C403.524 196.421 402.951 197.368 402.951 198.651Z" fill="white"/>
<path d="M414.294 209.837C414.294 208.676 415.034 208.003 415.845 208.003C416.8 208.003 417.873 208.981 417.873 211.212C417.873 213.81 416.322 215.307 414.628 215.307C412.553 215.307 410.214 213.046 410.214 207.82V197.154L408.019 197.215L407.948 195.932L410.214 195.901V191.897L413.125 191.714V195.84L416.251 195.809L416.322 196.94L413.125 197.062V208.156C413.125 211.334 413.746 213.26 415.225 213.26C416.012 213.26 416.847 212.251 416.847 210.54C416.847 209.623 416.442 209.226 416.06 209.226C415.726 209.226 415.44 209.531 415.44 209.99C415.44 210.754 416.251 210.968 416.251 210.968C416.012 211.273 415.726 211.426 415.44 211.426C414.843 211.426 414.294 210.845 414.294 209.837Z" fill="white"/>
<path d="M421.287 195.045C420.452 195.045 419.807 194.19 419.807 193.15C419.807 192.111 420.452 191.256 421.287 191.256C422.098 191.256 422.742 192.111 422.742 193.15C422.742 194.19 422.098 195.045 421.287 195.045ZM420.452 200.424C420.452 198.621 418.948 198.163 418.352 198.163L417.827 198.193V197.521L425.534 196.971V197.643L424.412 197.735C423.601 197.857 422.909 198.315 422.909 199.568V210.204C422.909 211.793 423.172 212.74 424.508 212.924L425.629 213.046V213.718L417.923 213.382V212.221L418.686 212.312C419.831 212.312 420.452 212.068 420.452 210.723V200.424Z" fill="white"/>
<path d="M432.485 205.742L435.443 204.733C437.066 210.968 434.155 213.963 431.626 213.963C429.025 214.207 425.876 211.976 425.446 204.458C425.446 199.385 427.379 194.892 431.459 194.892C436.135 194.892 436.255 203.083 432.747 203.083C431.507 203.083 430.671 201.799 430.671 200.821C430.671 199.966 431.077 198.774 432.246 198.774C433.558 198.774 434.036 200.424 433.296 201.28C433.296 201.28 433.177 200.241 432.58 200.241C431.793 200.18 431.888 201.769 433.081 201.769C434.728 201.769 434.799 196.054 431.769 196.054C429.86 196.054 428.572 198.101 428.572 203.358C428.572 209.623 430.528 212.404 432.652 212.221C433.702 212.221 434.942 210.479 434.608 208.034C434.608 208.064 434.584 208.034 434.584 207.912C434.394 207.056 434.036 206.261 433.201 206.261C433.034 206.261 432.843 206.292 432.652 206.353L432.485 205.742Z" fill="white"/>
<path d="M456.293 196.604L456.34 195.932L461.255 196.023L461.231 196.665H460.182C459.728 196.696 459.275 196.94 459.132 197.918L458.034 206.536C457.772 209.348 458.893 209.715 460.325 209.684H460.802L460.73 210.968L452.547 210.937L452.499 209.776H453.191C454.217 209.654 454.241 208.217 454.002 206.903L453.119 201.922L451.831 208.584L451.783 208.951C451.425 210.723 451.616 211.609 452.976 211.762H453.215L453.167 213.046L445.198 212.71L445.126 211.579H445.771C446.964 211.548 447.488 209.99 447.345 208.645L446.415 200.271C446.2 198.682 445.556 197.735 444.196 197.796L443.552 197.826L443.504 196.634L450.996 196.787L451.02 197.46L450.495 197.49C449.421 197.521 449.015 198.499 449.206 199.904C449.206 199.966 449.206 199.996 449.206 200.057L450.28 209.378L452.57 197.765C452.881 196.176 452.451 195.351 450.9 195.443H450.924L450.471 195.473L450.447 194.251L456.841 194.434L456.865 195.076L455.839 195.167C454.432 195.351 454.527 197.154 454.742 198.438L456.579 208.645L457.867 198.132C457.963 197.093 457.438 196.665 456.507 196.604H456.293Z" fill="white"/>
<path d="M480.017 202.686C480.017 202.93 480.017 203.083 479.993 203.175C479.873 207.637 478.275 212.618 474.791 212.618C473.575 212.71 472.238 212.16 471.165 210.876C470.33 213.138 468.946 214.788 466.966 214.788C464.341 215.032 461.192 212.19 461.192 205.283C461.192 201.096 462.909 196.268 466.775 196.268C467.991 196.268 469.113 196.848 469.996 197.857C470.878 195.687 472.405 194.098 474.624 194.098C477.655 194.098 480.017 197.612 480.017 202.686ZM474.72 211.365C476.485 211.365 476.891 207.545 476.891 201.341C476.891 199.721 476.533 195.259 474.72 195.259C473.551 195.259 472.167 197.307 472.167 202.563C472.167 208.828 472.906 211.365 474.72 211.365ZM466.87 213.535C468.588 213.535 469.017 209.44 469.041 203.541V202.594C469.041 200.271 468.349 197.398 466.846 197.398C465.701 197.398 464.317 199.477 464.317 204.703C464.317 210.968 465.057 213.535 466.87 213.535Z" fill="white"/>
<path d="M492.696 216.835L492.719 217.997L487.542 218.394C487.089 219.341 486.421 219.983 485.562 220.075C482.77 220.258 480.79 217.202 480.575 212.526C480.551 212.282 480.551 212.068 480.575 211.854C480.503 206.781 482.794 204.703 484.416 204.58C485.204 204.519 485.872 204.672 486.444 205.1L485.633 195.595C485.609 195.565 485.609 195.412 485.586 195.106C485.466 193.731 484.536 193.364 483.247 193.364L482.603 193.395L482.579 192.753L490.691 192.386L490.739 193.059L489.665 193.089H490.19C488.616 193.212 488.258 193.639 488.282 194.984L489.904 214.177C489.904 214.146 489.904 214.146 489.904 214.146L489.928 214.543C490.047 215.857 490.334 217.263 491.765 217.019L492.696 216.835ZM486.087 218.027C486.946 217.966 487.256 216.194 487.256 214.818L486.683 207.973C486.444 207.025 485.92 206.231 485.18 206.292C483.796 206.383 483.438 209.317 483.557 212.251C483.557 212.373 483.557 212.496 483.557 212.618C483.796 216.408 484.941 218.119 486.087 218.027Z" fill="white"/>
<path d="M493.332 198.651C493.332 202.594 498.844 204.733 498.844 210.479C498.844 213.871 496.983 215.888 494.549 215.888C492.736 215.919 490.851 214.574 490.851 211.671C490.851 209.623 491.877 208.737 492.76 208.737C493.428 208.737 494 209.226 494 210.112C494 210.907 493.595 211.334 493.165 211.334C492.974 211.334 492.784 211.243 492.64 211.029C492.64 211.029 493.189 210.937 493.213 210.387C493.213 210.112 493.022 209.959 492.76 209.959C492.33 209.959 491.782 210.387 491.782 211.548C491.782 212.71 492.521 213.749 493.69 213.779C495.074 213.779 495.694 212.679 495.694 211.09C495.694 206.872 490.803 205.314 490.803 200.271C490.803 196.359 493.285 195.29 494.907 195.29C498.748 195.29 498.748 200.241 498.748 200.241L495.814 201.341L495.718 200.699C496.816 200.271 497.007 199.263 496.84 198.315C496.553 196.848 495.861 196.421 495.098 196.421C493.905 196.421 493.332 197.368 493.332 198.651Z" fill="white"/>
<path d="M93.4294 54.7563C93.4294 59.31 89.421 64.1692 88.6575 68.2033L90.1607 68.1116C91.5922 68.1116 92.7852 67.042 92.9045 65.1166L92.9284 64.0164L93.4294 64.0775L93.2624 69.4563L85.4127 69.7314C85.4127 64.0164 90.9003 57.9653 90.9003 53.1366C90.9003 51.853 90.3515 50.6 89.1347 50.6C88.3712 50.6 87.7032 51.0584 87.393 52.5254C87.2498 53.4422 87.4168 54.4507 88.5144 54.9092L88.4189 55.5509L85.6035 54.4507H85.4842V54.4202C85.5319 53.9618 85.8898 49.4998 89.5403 49.4998C91.1628 49.4998 93.4294 50.8445 93.4294 54.7563Z" fill="white"/>
<path d="M101.123 48.9803C103.724 48.9803 107.35 52.6476 107.35 60.1963C107.35 67.9283 103.724 71.0455 101.123 71.0455C98.4986 71.0455 94.8958 67.6532 94.8958 60.1351C94.8958 53.5339 97.2579 48.9803 101.123 48.9803ZM98.9758 67.317C100.503 64.4443 103.7 50.4472 101.123 50.4472C98.6417 50.4472 97.9975 55.4898 97.9975 60.1351C97.9975 62.9773 98.3316 65.575 98.9758 67.317ZM99.8109 68.9062C100.193 69.3341 100.622 69.5786 101.123 69.5786C103.223 69.5786 104.225 65.4834 104.225 60.1963C104.225 57.7208 103.986 55.3981 103.509 53.6256C103.509 56.4983 101.147 67.9894 99.8109 68.9062Z" fill="white"/>
<path d="M107.991 62.2133V60.0434H113.24V62.2133H107.991Z" fill="white"/>
<path d="M121.926 54.7563C121.926 59.31 117.917 64.1692 117.154 68.2033L118.657 68.1116C120.088 68.1116 121.281 67.042 121.401 65.1166L121.424 64.0164L121.926 64.0775L121.759 69.4563L113.909 69.7314C113.909 64.0164 119.396 57.9653 119.396 53.1366C119.396 51.853 118.848 50.6 117.631 50.6C116.867 50.6 116.199 51.0584 115.889 52.5254C115.746 53.4422 115.913 54.4507 117.01 54.9092L116.915 55.5509L114.1 54.4507H113.98V54.4202C114.028 53.9618 114.386 49.4998 118.036 49.4998C119.659 49.4998 121.926 50.8445 121.926 54.7563Z" fill="white"/>
<path d="M130.172 59.0655C131.962 59.6767 133.537 61.816 133.274 65.575C132.869 70.6788 130.292 72.6041 127.572 72.268C122.132 71.565 123.301 64.0775 123.301 64.0775L126.403 64.1692V65.1472L126.236 65.1166L126.26 65.1472C125.019 64.9638 124.685 66.1557 124.709 67.1337C124.709 67.2559 124.709 67.3476 124.733 67.4393C124.733 67.4698 124.733 67.5004 124.733 67.531C124.9 68.9368 125.496 70.526 127.333 70.7399C131.103 71.2289 132.129 60.7464 128.574 60.2879C127.572 60.1657 127.19 60.838 127.19 60.838L126.594 59.9823C126.641 59.9212 126.713 59.8295 126.784 59.7684C127.309 59.1572 130.005 57.568 130.268 54.3285C130.483 51.4252 129.218 50.1416 127.977 50.0194C124.876 49.5915 123.993 54.4507 125.949 55.5204C126.116 55.6121 126.26 55.6426 126.403 55.6426C127.286 55.6426 127.548 54.1146 126.856 54.0534C126.26 54.0229 126.069 55.0314 126.069 55.0314C125.448 54.1451 125.926 52.4643 126.856 52.5559C128.884 52.8004 128.741 57.2012 126.045 56.8345C122.657 56.4067 122.848 48.1857 128.383 48.9192C130.578 49.1942 133.083 50.9667 132.845 54.359C132.654 56.804 131.389 58.2403 130.172 59.0655Z" fill="white"/>
<path d="M138.432 61.1217C141.172 61.1217 141.449 66.2799 138.598 66.2799C137.45 66.2799 137.408 64.2946 138.335 64.2946C138.626 64.2946 138.847 64.6137 138.792 64.9682C138.792 64.9682 138.654 64.7909 138.501 64.7909C138.46 64.7909 138.405 64.8087 138.363 64.8441C138.156 65.0214 138.197 65.5709 138.64 65.5709C139.512 65.5709 139.678 62.1144 138.045 62.1144C136.91 62.1144 136.675 63.5856 136.675 64.7555V69.5236C136.675 70.4631 137.131 70.924 137.782 70.9771V71.3494L133.907 71.3671V70.6935L134.474 70.729C134.973 70.6935 135.249 70.5163 135.249 69.8427V63.2134C135.249 62.1676 134.364 61.9017 134.018 61.9017L133.727 61.9194V61.5472L136.675 61.3345V62.4512C137.035 61.6181 137.671 61.1217 138.432 61.1217Z" fill="white"/>
<path d="M153.111 75.0821L153.135 76.2435L147.957 76.6408C147.504 77.5882 146.836 78.2299 145.977 78.3216C143.185 78.505 141.205 75.4489 140.99 70.773C140.966 70.5285 140.966 70.3146 140.99 70.1006C140.919 65.0275 143.209 62.9493 144.832 62.8271C145.619 62.7659 146.287 62.9188 146.86 63.3466L146.048 53.8421C146.025 53.8115 146.025 53.6587 146.001 53.3531C145.881 51.9778 144.951 51.6111 143.662 51.6111L143.018 51.6416L142.994 50.9999L151.107 50.6331L151.154 51.3055L150.081 51.336H150.606C149.031 51.4583 148.673 51.8861 148.697 53.2308L150.319 72.4233C150.319 72.3927 150.319 72.3927 150.319 72.3927L150.343 72.79C150.462 74.1042 150.749 75.51 152.18 75.2655L153.111 75.0821ZM146.502 76.274C147.361 76.2129 147.671 74.4403 147.671 73.0651L147.098 66.2194C146.86 65.272 146.335 64.4774 145.595 64.5385C144.211 64.6302 143.853 67.5641 143.973 70.4979C143.973 70.6202 143.973 70.7424 143.973 70.8647C144.211 74.6543 145.356 76.3657 146.502 76.274Z" fill="white"/>
<path d="M159.538 49.8971C157.963 50.0499 157.939 52.4031 158.154 55.0925L158.249 56.8651L161.566 56.4983L161.637 57.7514L158.345 58.0875L159.204 71.0761C159.323 73.1237 160.11 73.2765 161.327 73.2459L161.375 73.9183L154.193 74.6823L154.122 73.521L155.267 73.4598C156.221 73.307 156.627 72.7264 156.532 71.5039L155.673 58.3626L153.835 58.5765L153.74 57.3541L155.577 57.1707C155.315 52.6782 155.84 49.0414 159.299 48.6747C162.162 48.369 163.212 51.3335 163.308 52.8004L161.375 53.9618C161.256 51.9753 161.136 49.7443 159.538 49.8971Z" fill="white"/>
<path d="M168.751 64.3831C167.367 64.3831 166.031 63.4969 165.673 61.9077C165.768 67.7754 167.105 70.1898 168.87 70.1898C170.326 70.1898 171.137 68.1422 171.137 65.9418L172.95 65.5445C172.926 69.5786 170.922 71.4428 168.727 71.4428C166.102 71.6873 162.547 68.8451 162.547 61.9077C162.547 57.7514 164.504 52.9227 168.345 52.9227C174.048 52.9227 175.121 64.3831 168.751 64.3831ZM165.697 60.2268C165.888 59.5545 166.341 58.9738 167.176 58.9738C168.488 58.9738 168.966 60.6241 168.226 61.5104C168.226 61.5104 168.083 60.4713 167.486 60.4407C166.723 60.3796 167.009 63.0384 168.727 63.0384C171.662 63.0384 171.638 54.0534 168.655 54.0534C167.606 54.0534 165.959 55.826 165.697 60.2268Z" fill="white"/>
<path d="M180.099 53.106C182.294 53.106 184.06 55.5509 184.06 62.2439C184.06 67.8671 182.485 71.6567 180.099 71.6567C179.168 71.6567 178.453 71.3205 177.928 70.7093H172.416V69.5786L173.418 69.6397C174.325 69.6091 174.778 69.2729 174.922 68.3561L174.564 49.9277C174.516 48.1246 174.182 47.5744 172.416 47.5744H171.868V46.9327H180.004V47.5744C178.381 47.5744 177.164 47.605 177.212 49.2248L177.331 55.0314C177.904 53.7784 178.858 53.106 180.099 53.106ZM179.216 69.3035C180.791 69.3035 181.077 65.4528 181.077 62.305V62.1827C181.101 58.6988 180.886 55.2148 179.001 55.2148C177.999 55.2148 177.427 56.7123 177.379 58.1486L177.546 65.9418C177.57 66.064 177.57 66.2474 177.57 66.3696V66.7669C177.618 68.2339 178.166 69.3035 179.216 69.3035Z" fill="white"/>
<path d="M338.903 63.9349C341.582 65.7965 344.549 66.8791 347.592 67.1056C347.532 67.806 347.055 67.7423 346.876 68.0734C345.902 68.5679 344.835 68.6744 343.814 68.379C343.231 68.322 342.66 68.1413 342.124 67.8442C339.638 67.0674 337.491 65.2974 335.165 63.9349C334.296 63.3731 333.392 62.9087 332.461 62.5469C332.133 62.4833 332.272 62.8016 332.242 62.6233C332.212 62.4451 332.242 62.5469 332.332 62.6233C333.807 63.1076 335.215 63.8808 336.507 64.9154C338.449 66.3451 340.458 67.6209 342.521 68.7356C343.147 69.0113 343.799 69.1742 344.46 69.2195C344.46 69.8816 343.873 69.4996 343.774 69.9453C342.767 70.5051 341.663 70.7163 340.573 70.5576C339.483 70.3989 338.444 69.876 337.561 69.0412C336.443 68.1433 335.371 67.1567 334.35 66.0869C333.717 65.458 333.053 64.8837 332.361 64.3679C332.789 64.6353 333.355 65.3229 334.041 65.8959C335.851 67.7933 337.63 69.7161 340.006 70.5438C340.205 70.6206 340.373 70.7943 340.474 71.0277C339.545 71.8621 338.498 72.4548 337.392 72.7722C335.334 73.3452 333.992 72.0082 332.958 69.9326C332.505 69.1192 332.125 68.2437 331.824 67.3221C332.363 68.5268 332.664 69.882 332.699 71.2696C332.779 73.167 331.844 74.2111 330.711 75.0898C330.576 75.1732 330.428 75.2166 330.279 75.2166C330.129 75.2166 329.981 75.1732 329.846 75.0898C328.405 74.8733 327.937 73.6126 327.798 71.9827C327.859 71.305 328.077 70.6663 328.425 70.149C329.289 68.5446 329.001 66.7364 328.932 64.9791C328.882 63.8458 328.763 62.7252 328.763 61.5919C328.702 60.1632 329.07 58.7587 329.79 57.6654C330.511 56.572 331.53 55.8722 332.64 55.7088C335.244 55.1486 337.779 55.8489 340.324 56.3965C346.011 57.6699 351.678 59.1343 357.483 59.0706C359.388 59.1625 361.281 58.6461 362.991 57.568C363.249 57.4279 363.458 57.4279 363.468 57.8991C362.195 60.0766 360.346 60.6878 358.388 60.9934C354.332 61.6555 350.335 60.7642 346.329 60.0893L340.99 59.1852C339.34 59.1852 337.72 58.6886 335.92 58.8286C337.346 58.6891 338.78 58.8965 340.145 59.4399C343.814 60.2421 347.423 61.5282 351.151 61.9866C352.941 62.199 354.744 62.1691 356.529 61.8975C356.807 61.8975 357.096 61.8975 357.652 61.8211C355.556 63.7486 352.958 64.5568 350.405 64.075C347.313 63.7439 344.381 62.4833 341.378 61.5919C338.913 61.2863 336.586 59.9874 334.24 59.8983C336.21 60.1406 338.155 60.6398 340.046 61.3881C340.239 61.4656 340.409 61.6167 340.533 61.8211C343.913 63.3492 347.283 64.9154 351.051 64.7371C350.688 65.2457 350.241 65.6436 349.742 65.9014C349.243 66.1592 348.705 66.2705 348.168 66.227C345.315 66.3671 342.73 64.9536 340.116 63.8585L339.539 63.6293C337.859 63.4256 336.427 62.2031 334.817 61.7065L333.246 61.1717C334.857 61.6679 336.431 62.3454 337.948 63.1964C338.314 63.3247 338.644 63.5804 338.903 63.9349Z" fill="white"/>
<path d="M285.408 66.2652C284.488 66.0688 283.614 65.6073 282.853 64.9154C284.437 64.8257 286.015 64.6003 287.575 64.2405C290.747 63.2982 293.739 61.5282 296.94 60.7005C298.123 60.3822 299.326 60.1402 300.509 59.7964C299.202 59.6228 297.881 59.7829 296.622 60.2676C292.715 61.3372 288.917 63.0308 284.961 63.8203C282.247 64.3551 279.612 64.4315 277.177 62.5469C277.034 62.4427 276.901 62.3189 276.779 62.1776C276.719 62.1012 276.56 62.0885 276.699 61.7956C277.574 61.8975 278.499 62.0503 279.423 62.1267C282.791 62.2283 286.153 61.7312 289.414 60.6496C292.29 59.8035 295.206 59.1995 298.143 58.8414C295.967 58.6707 293.783 58.8461 291.641 59.3635C287.293 60.3621 282.9 61.0128 278.489 61.3117C276.408 61.4935 274.325 61.0123 272.425 59.911C271.925 59.6433 271.48 59.234 271.122 58.714C271.003 58.4721 270.814 58.2556 270.933 57.95C271.053 57.6444 271.192 57.7845 271.341 57.95C274.751 59.6054 278.3 59.2998 281.799 58.8796C287.178 58.2429 292.437 56.6384 297.785 55.7852C299.228 55.4736 300.706 55.5868 302.11 56.1163C302.985 56.424 303.759 57.0865 304.317 58.0046C304.874 58.9227 305.184 60.0471 305.201 61.2099C305.279 62.5535 305.232 63.9042 305.062 65.2338C304.843 66.2867 304.814 67.3895 304.976 68.4592C305.138 69.5289 305.487 70.5377 305.997 71.4097C306.121 72.4083 305.932 73.4294 305.47 74.2493C305.167 74.6091 304.797 74.8639 304.396 74.9895C303.995 75.1151 303.575 75.1074 303.177 74.9672C302.779 74.8269 302.415 74.5586 302.12 74.1879C301.826 73.8171 301.61 73.3562 301.493 72.8486C301.066 71.346 301.622 70.0472 301.921 68.6846C302.13 68.0862 302 67.4113 302.289 66.9401C302.181 67.329 301.979 67.6637 301.712 67.8951C301.334 68.8247 301.006 69.767 300.589 70.6584C300.186 71.5741 299.547 72.2826 298.782 72.6634C298.018 73.0441 297.173 73.0736 296.393 72.7467C295.407 72.4096 294.465 71.886 293.6 71.1932C293.858 70.6457 294.475 71.0022 294.783 70.5183C297.059 68.8059 299.224 66.8597 301.255 64.6989C301.493 64.4952 301.752 64.3169 302 64.1259C301.622 64.3433 301.27 64.6307 300.956 64.9791C299.664 66.0869 298.471 67.3476 297.199 68.4809C296.314 69.411 295.249 70.0142 294.117 70.2254C293.123 70.1363 292.238 71.1932 291.204 70.5311C290.657 70.1745 290.011 70.0981 289.603 69.3341L291.522 68.7101C293.318 67.8313 295.054 66.7622 296.711 65.5139C298.315 64.2954 300.006 63.2763 301.762 62.4705C299.342 63.6405 296.99 65.0277 294.723 66.6218C293.641 67.3433 292.482 67.8581 291.283 68.1498C289.812 68.4809 288.301 68.9011 286.909 67.8951C286.82 67.8553 286.738 67.7915 286.67 67.7081C286.601 67.6246 286.547 67.5234 286.512 67.4113C286.84 67.0929 287.267 67.2203 287.635 67.0802C288.669 66.5354 289.745 66.1341 290.846 65.8832C293.351 64.89 295.668 63.3364 298.133 62.2286C299.127 61.8084 300.062 61.541 300.966 61.2481C298.56 61.9636 296.213 62.9743 293.958 64.266C292.466 64.9918 290.975 65.5394 289.404 66.1506C288.728 66.4435 288.062 66.0105 287.416 66.3289C286.754 66.5364 286.061 66.5145 285.408 66.2652Z" fill="white"/>
<path d="M319.298 91.9494L316.057 92.2168C315.143 92.2168 314.735 91.5165 314.507 90.4213C313.871 87.5106 313.087 84.6564 312.16 81.8769C311.755 80.5865 311.234 79.3603 310.61 78.2223C309.951 76.7886 308.88 75.7419 307.627 75.3063C307.39 75.2696 307.171 75.125 307.011 74.8988C305.788 74.5677 305.788 74.5677 306.414 72.352C306.534 71.5625 306.911 71.5752 307.408 71.8299C307.905 72.0846 308.402 72.7977 309.039 73.1033C310.386 74.2833 311.817 75.298 313.314 76.1339C314.755 76.904 316.319 77.2214 317.875 77.0597C319.432 76.898 320.935 76.2619 322.261 75.2044C323.656 74.207 325.007 73.1102 326.307 71.919C327.232 71.0659 327.47 71.1932 327.967 72.543C328.375 74.4531 328.375 74.4531 326.973 74.9752C325.81 75.49 324.818 76.4958 324.16 77.8276C322.945 80.224 322.014 82.8372 321.396 85.5825C320.978 87.0851 320.551 88.6004 320.243 90.1667C320.21 90.5396 320.107 90.8966 319.942 91.2071C319.778 91.5177 319.557 91.7724 319.298 91.9494Z" fill="white"/>
<path d="M316.316 62.9289C316.972 62.9289 317.638 62.6488 318.245 63.1581C319.239 64.4315 319.626 66.227 320.521 67.6023C320.67 67.8315 320.78 68.1116 320.919 68.3536C322.4 71.0659 323.603 71.6516 326.138 70.9003C326.496 70.7985 326.943 70.4546 327.132 71.2696C325.423 72.9184 323.611 74.3836 321.714 75.6501C320.15 76.6726 318.408 77.1639 316.653 77.0769C314.898 76.99 313.191 76.3277 311.693 75.1534C310.878 74.6159 310.097 73.9986 309.357 73.307C308.919 72.8741 308.303 72.7085 308.055 72.0336C308.055 71.7153 308.283 71.6134 308.492 71.5498C309.069 71.3588 309.625 71.779 310.202 71.6516C311.312 71.3736 312.297 70.5628 312.956 69.385C313.915 67.7059 314.788 65.9492 315.57 64.1259C315.753 63.6666 316.007 63.2594 316.316 62.9289Z" fill="white"/>
<path d="M307.498 69.7034C309.155 66.4668 311.692 64.1342 314.616 63.1581C314.964 62.9289 315.381 62.8271 315.61 63.1581C315.839 63.4892 315.61 63.9859 315.391 64.3424C314.596 65.9978 313.85 67.6914 312.946 69.2577C312.441 70.2254 311.698 70.9498 310.836 71.3165C309.974 71.6832 309.04 71.6712 308.184 71.2823C307.627 71.0404 307.11 70.6711 307.498 69.7034Z" fill="white"/>
<path d="M318.762 63.1836C320.389 63.4705 321.95 64.2023 323.337 65.3294C324.725 66.4564 325.907 67.9525 326.804 69.7161C327.192 70.2509 326.804 70.4674 326.546 70.6966C325.879 71.1196 325.139 71.3138 324.397 71.2602C323.654 71.2067 322.935 70.9071 322.311 70.391C320.877 68.4863 319.683 66.3084 318.771 63.9349C318.714 63.8238 318.683 63.6942 318.681 63.5611C318.679 63.4281 318.707 63.2971 318.762 63.1836Z" fill="white"/>
<path d="M308.89 86.9705C307.478 86.0154 306.971 84.2327 306.414 82.5009C306.414 81.9279 306.732 82.0679 306.971 82.1443C307.353 82.2987 307.715 82.5262 308.045 82.8192C309.257 83.6058 310.577 84.0816 311.932 84.2199C312.271 84.202 312.605 84.3395 312.873 84.6078C313.14 84.8761 313.325 85.2577 313.393 85.6843C313.542 86.3465 313.721 86.9577 313.86 87.6836C314.079 88.6768 313.86 89.1734 313.055 89.0843C311.526 88.9697 310.065 88.2287 308.89 86.9705Z" fill="white"/>
<path d="M327.868 82.7556C327.212 84.2963 326.725 85.99 325.472 86.9832C325.333 87.0851 325.184 87.1615 325.035 87.2506C324.025 88.1792 322.827 88.7142 321.585 88.7914C321.494 88.8234 321.4 88.8302 321.307 88.8113C321.214 88.7924 321.126 88.7482 321.048 88.6819C320.97 88.6155 320.903 88.5284 320.854 88.4265C320.804 88.3246 320.772 88.2102 320.76 88.091C320.966 87.0424 321.219 86.0093 321.515 84.9967C321.575 84.7213 321.706 84.4798 321.887 84.3112C322.067 84.1425 322.286 84.0566 322.509 84.0671C324.113 83.9271 325.672 83.3311 327.073 82.3226C327.589 81.9406 327.768 82.0807 327.868 82.7556Z" fill="white"/>
<path d="M306.444 81.444C306.209 81.0983 306.034 80.6923 305.931 80.2531C305.828 79.8139 305.8 79.3516 305.848 78.8972C306.166 78.5024 306.474 78.7953 306.782 78.8972C307.942 79.5051 309.187 79.804 310.441 79.7758C310.767 79.7238 311.097 79.8238 311.371 80.0575C311.645 80.2913 311.844 80.6432 311.932 81.0492C312.16 81.8133 312.399 82.5773 312.667 83.3286C312.936 84.0799 312.717 84.36 312.131 84.36C310.812 84.2529 309.523 83.8205 308.333 83.0866C307.756 82.4372 306.931 82.2589 306.444 81.444Z" fill="white"/>
<path d="M327.868 82.7556C327.818 82.4627 327.868 82.0934 327.46 82.4117C325.923 83.6199 324.172 84.3119 322.37 84.4237C321.933 84.4237 321.804 84.7166 321.694 85.175C321.456 86.13 321.167 87.0596 320.899 87.9892C320.78 88.4603 320.988 88.9569 320.809 89.4281C320.76 90.0903 320.243 90.8034 320.939 91.3891C320.471 91.9621 319.845 91.7202 319.298 91.8985C319.904 90.4556 320.352 88.9132 320.63 87.3143C321.625 83.8761 322.41 80.3743 324.07 77.3564C324.749 76.0343 325.77 75.0605 326.953 74.6059C328.226 74.1347 328.226 74.1475 327.888 72.543C327.749 72.2501 327.709 72.0209 328.077 72.0336C328.17 72.7076 328.388 73.3429 328.714 73.8859C329.039 74.4288 329.462 74.8636 329.946 75.1534C329.508 75.6119 328.951 74.9242 328.484 75.4591C327.544 75.3435 326.602 75.6464 325.816 76.3167C325.03 76.987 324.449 77.9838 324.17 79.1391C325.164 79.4702 326.158 78.7444 327.152 78.8463C327.351 78.9354 327.54 79.0373 327.51 79.3683C326.715 80.4125 325.621 80.2979 324.647 80.3871C324.206 80.3898 323.78 80.5899 323.442 80.9527C323.105 81.3155 322.877 81.8181 322.798 82.3736C322.549 83.3286 322.698 83.5578 323.504 83.3795C324.507 83.1492 325.476 82.7196 326.377 82.1061C326.695 81.8896 327.013 81.5458 327.371 81.9024C327.838 81.9533 328.325 81.9024 327.868 82.7556Z" fill="#231F20"/>
<path d="M327.411 81.9406C326.285 82.6248 325.118 83.1911 323.921 83.6342C323.349 83.8115 322.756 83.8546 322.171 83.7615C322.403 82.6698 322.737 81.6179 323.166 80.629C323.374 80.0814 323.673 80.1579 324.001 80.1324C325.19 80.1195 326.369 79.8527 327.49 79.3429C327.778 78.9354 328.096 78.6935 328.484 79.1264C328.506 79.6736 328.419 80.2188 328.231 80.7111C328.043 81.2033 327.761 81.6264 327.411 81.9406Z" fill="white"/>
<path d="M308.283 82.7556C309.606 83.7397 311.132 84.1839 312.657 84.0289C312.28 82.9084 311.912 81.826 311.554 80.7309C311.512 80.5424 311.419 80.3795 311.291 80.2719C311.163 80.1644 311.01 80.1193 310.858 80.1451C309.147 80.2099 307.447 79.7744 305.887 78.8717V78.2605C306.424 77.9422 306.882 78.3369 307.339 78.5661C308.079 78.8854 308.841 79.1115 309.615 79.241C310.281 79.4066 310.61 79.0627 310.48 78.2096C310.56 78.0186 310.659 77.8912 310.838 78.0058C312.439 80.8964 313.155 84.3091 314.149 87.6072C314.432 88.5818 314.671 89.5767 314.864 90.5869C314.91 90.9829 315.053 91.35 315.273 91.6342C315.493 91.9184 315.778 92.1047 316.087 92.1659C315.376 92.2321 314.664 92.0471 314.029 91.6311C314.278 90.3577 314.029 89.912 313.035 89.6573C311.796 89.4675 310.594 88.993 309.486 88.2566C309.377 88.0401 309.257 87.8109 309.029 87.8109C308.035 87.8109 308.611 87.3525 308.87 86.9705C309.923 87.6282 311.021 88.161 312.15 88.5622C312.319 88.5622 312.479 88.6895 312.638 88.7277C313.9 88.9951 313.94 88.9315 313.542 87.4543C313.466 87.2098 313.403 86.9588 313.353 86.703C313.145 85.2769 312.717 84.4619 311.365 84.5383C310.108 84.4936 308.89 83.9705 307.866 83.0357C307.866 82.5645 308.045 82.5773 308.283 82.7556Z" fill="#231F20"/>
<path d="M310.51 78.3369L310.977 79.5339C309.212 79.6466 307.452 79.2097 305.848 78.2605C305.848 77.662 305.848 77.0635 305.778 76.465C305.679 75.4209 306.046 75.0516 306.822 75.1916C307.611 75.1881 308.383 75.4852 309.04 76.0453C309.696 76.6054 310.208 77.4031 310.51 78.3369Z" fill="white"/>
<path d="M327.013 79.05C326.108 79.3971 325.163 79.5436 324.219 79.4829C323.961 79.4829 323.673 79.483 323.842 78.9099C324.229 77.9289 324.781 77.0698 325.459 76.394C326.136 75.7181 326.921 75.2424 327.758 75.0006C327.902 74.9644 328.051 74.9897 328.182 75.0725C328.313 75.1554 328.419 75.2912 328.484 75.4591C328.579 76.4017 328.579 77.356 328.484 78.2987C328.166 79.1009 327.53 78.8972 327.013 79.05Z" fill="white"/>
<path d="M328.067 72.0336C328 72.0865 327.947 72.1626 327.914 72.2529C327.88 72.3431 327.868 72.4438 327.878 72.543C327.609 71.537 327.271 71.3715 326.556 72.0973C325.106 73.5218 323.559 74.7749 321.933 75.8411C320.39 76.9071 318.66 77.4524 316.907 77.4256C315.154 77.3989 313.435 76.801 311.912 75.6883C310.872 75.0019 309.875 74.2143 308.929 73.3325C308.929 72.9123 309.079 72.8741 309.317 73.0906C310.978 74.4939 312.772 75.6193 314.656 76.4396C316.021 76.8866 317.445 76.9565 318.834 76.6448C320.222 76.333 321.543 75.6467 322.708 74.6314C324.15 73.5108 325.561 72.3393 326.993 71.1932C327.053 71.1531 327.119 71.1321 327.187 71.1321C327.254 71.1321 327.321 71.1531 327.381 71.1932C327.609 71.1932 327.868 71.4734 328.007 70.9767C328.146 70.4801 328.216 70.2764 328.554 70.1872C328.454 70.8494 327.908 71.2951 328.067 72.0336Z" fill="#231F20"/>
<path d="M307.498 69.7034C307.269 70.3655 307.597 70.6075 307.995 70.8367C308.74 71.2822 309.579 71.3989 310.381 71.1685C311.184 70.9381 311.904 70.3736 312.429 69.5633C313.695 67.6163 314.736 65.4464 315.521 63.1199H314.616C315.133 62.4451 315.759 63.1199 316.316 62.8907C315.403 65.0925 314.384 67.219 313.264 69.2577C312.791 70.2688 312.071 71.0516 311.215 71.4845C310.36 71.9174 309.416 71.9762 308.532 71.6516C308.26 71.6807 307.986 71.6305 307.731 71.5048C307.476 71.3791 307.247 71.1812 307.06 70.9258C307.299 70.6202 306.961 69.9198 307.498 69.7034Z" fill="#231F20"/>
<path d="M327.351 71.2187H326.963C326.954 71.1772 326.939 71.1386 326.917 71.1053C326.896 71.0721 326.87 71.0449 326.84 71.0257C326.81 71.0065 326.777 70.9956 326.743 70.9937C326.71 70.9919 326.676 70.9991 326.645 71.0149C323.444 72.1228 322.37 71.6771 320.551 68.3154C319.636 66.7334 318.862 65.0248 318.245 63.2218H318.762C319.58 65.6129 320.71 67.8089 322.102 69.7161C322.666 70.4476 323.404 70.9174 324.2 71.0511C324.996 71.1849 325.804 70.975 326.496 70.4547C326.734 70.2764 326.884 70.1236 326.804 69.7543C327.56 69.8816 327.331 70.6202 327.351 71.2187Z" fill="#231F20"/>
<path d="M309.506 88.2566C310.908 88.6259 312.27 89.1989 313.691 89.4536C314.188 89.53 314.745 90.9689 314.546 91.5037C314.437 91.7966 314.178 91.5037 314 91.6311C312.621 91.0081 311.314 90.1515 310.112 89.0843C309.874 88.8296 309.595 88.6641 309.506 88.2566Z" fill="white"/>
<path d="M320.939 91.3891C320.123 91.6311 320.014 91.2236 320.342 90.3577C320.439 90.0481 320.516 89.7286 320.571 89.4026C320.849 88.8805 321.267 88.8551 321.704 88.7532C322.494 88.5855 323.273 88.3343 324.03 88.0019C324.259 87.9 324.597 87.6454 324.766 88.0019C324.935 88.3585 324.567 88.6259 324.368 88.8805C324.32 88.9381 324.266 88.9893 324.209 89.0333C323.189 89.9678 322.092 90.7576 320.939 91.3891Z" fill="white"/>
<path d="M324.209 89.0333C324.309 88.6259 324.776 88.5622 324.786 87.9128C323.415 88.5539 322.005 89.0521 320.571 89.4026C320.77 88.9697 320.571 88.3967 320.899 87.9892C320.899 88.9697 321.505 88.5113 321.784 88.4221C322.877 88.091 323.951 87.6454 325.035 87.2506C325.561 88.4603 324.776 88.6641 324.209 89.0333Z" fill="#231F20"/>
<path d="M310.51 78.3369C309.622 76.7492 308.309 75.6345 306.822 75.2044L307.06 74.8988C307.84 74.9581 308.594 75.2756 309.25 75.8202C309.905 76.3648 310.439 77.1179 310.798 78.0058L310.51 78.3369Z" fill="#231F20"/>
<path d="M309.287 73.0906C309.138 73.0906 308.969 73.0906 308.9 73.3325C308.317 73.0272 307.779 72.5966 307.309 72.0591C306.842 71.6134 306.693 72.0591 306.464 72.3393C306.225 71.588 306.812 71.5752 307.06 71.2441C307.263 71.2562 307.459 71.3323 307.633 71.4657C307.806 71.599 307.951 71.7854 308.055 72.0082C308.514 72.2678 308.932 72.6348 309.287 73.0906Z" fill="#231F20"/>
<path d="M308.283 82.7556C308.134 82.7556 307.945 82.7556 307.866 83.023C307.369 82.9338 307.021 82.0934 306.414 82.5009C305.947 82.1316 306.543 81.8005 306.414 81.444C307.096 81.7261 307.73 82.1711 308.283 82.7556Z" fill="#231F20"/>
<path d="M271.341 57.8863C270.754 57.8863 271.192 58.4212 271.122 58.6886C270.881 58.5273 270.673 58.2938 270.518 58.0077C270.362 57.7217 270.262 57.3918 270.228 57.0459C270.667 57.1398 271.064 57.4392 271.341 57.8863Z" fill="#414042"/>
<path d="M327.013 79.05L328.484 78.2987V79.1264L327.49 79.3429C327.381 79.0755 327.172 79.1391 327.013 79.05Z" fill="#231F20"/>
<path d="M363.468 57.95C363.408 57.5935 363.17 57.6826 362.991 57.6189C363.257 57.2378 363.602 56.9599 363.985 56.8167C364.013 57.0528 363.977 57.2942 363.883 57.5004C363.789 57.7066 363.642 57.8653 363.468 57.95Z" fill="#58595B"/>
<path d="M308.094 71.9955L307.1 71.2314C307.077 71.2006 307.064 71.1595 307.064 71.1168C307.064 71.0741 307.077 71.033 307.1 71.0022L308.572 71.728L308.094 71.9955Z" fill="#231F20"/>
<path d="M68.2478 150.372L25.2114 192.127C13.7523 167.983 8.4502 153.573 9.30516 148.895C10.5308 147.482 11.8629 146.228 13.2817 145.151C17.6957 141.561 24.3598 136.938 33.2739 131.284L35.6897 135.69C33.4834 136.892 31.5086 138.697 29.9032 140.977C28.2977 143.258 27.1002 145.96 26.3945 148.895C26.1482 150.575 26.0217 152.28 26.0167 153.989C26.0167 161.273 28.2237 165.347 32.6377 166.213C35.017 166.646 37.6481 163.93 40.5311 158.064C43.2128 152.701 45.3917 146.952 47.0229 140.937C47.726 138.053 48.0616 135.043 48.017 132.023C48.026 127.444 47.3511 122.906 46.0287 118.652L12.9835 125.58C10.3872 117.289 8.37115 108.719 6.95899 99.9717C6.26616 91.5031 6.97413 82.9426 9.03675 74.8478L49.5381 29.0059C62.4288 51.9269 68.5825 65.7346 67.9993 70.4292C66.8549 71.9641 65.6183 73.3819 64.3011 74.6696C58.1519 80.3665 51.7776 85.6539 45.2036 90.5105L42.5294 86.2701C44.6558 83.9094 46.2948 80.9134 47.3013 77.5474C48.1427 74.3136 48.5527 70.9214 48.5141 67.5131C48.5141 59.7964 46.9434 55.8277 43.8019 55.607C40.9189 55.3862 37.9066 57.2327 34.7651 61.1462C31.6737 64.9299 29.6937 69.9616 29.1582 75.3954C29.0786 75.718 28.4159 80.2852 27.1699 89.097C26.2354 95.6168 25.8543 99.5855 26.0266 101.003C37.4858 100.46 45.3395 100.621 49.5878 101.487C53.3928 102.437 57.1014 103.936 60.6426 105.957C63.5046 107.799 65.9131 110.62 67.6016 114.106C69.9256 119.606 71.068 125.798 70.9121 132.048C70.8854 138.311 69.9831 144.517 68.2478 150.372Z" fill="white"/>
<path d="M144.906 98.6601C132.512 128.024 122.24 150.699 114.088 166.684C110.602 174.325 105.081 185.632 97.5253 200.607C88.3659 218.766 80.8568 232.845 74.998 242.846C45.0346 239.45 26.6562 237.93 19.8629 238.287C16.4762 236.759 11.4691 234.148 4.84147 230.456C1.61382 228.163 0 225.663 0 222.955C0.0192594 222.136 0.146998 221.326 0.377774 220.561C1.12301 218.367 2.06375 216.29 3.18125 214.373C6.6234 208.815 10.7543 204.019 15.4092 200.174L37.5686 204.415L35.7891 209.101C32.9868 208.343 30.112 208.124 27.2594 208.451C24.7308 208.57 22.3072 209.777 20.3799 211.877C19.5592 212.66 18.8833 213.665 18.4005 214.82C17.9176 215.976 17.6397 217.253 17.5864 218.562C17.5917 219.38 17.7508 220.184 18.0502 220.907C18.3495 221.63 18.7804 222.249 19.3062 222.713C20.4462 223.859 22.8421 224.865 26.4939 225.731C35.2423 227.794 49.0841 229.534 68.0191 230.952L96.4317 175.28L83.3488 103.524L71.946 97.0429V94.1014L105.309 93.7703L106.582 99.4751L99.7024 101.602L107.854 149.71L132.221 96.5463L124.586 88.715L156.08 87.7345L144.906 98.6601Z" fill="white"/>
<path d="M217.111 126.063C217.408 127.387 217.535 128.763 217.488 130.138C217.488 135.478 216.279 145.865 213.86 161.298C211.441 176.731 210.231 184.996 210.231 186.091C210.231 187.288 211.166 190.115 213.035 194.572L190.368 193.426C191.023 193.232 191.632 192.844 192.148 192.292C194.305 190.179 196.234 187.708 197.884 184.945L201.96 142.21C202.198 139.939 202.324 137.651 202.338 135.359C202.338 126.658 200.386 122.311 196.482 122.32C195.801 122.307 195.124 122.472 194.494 122.804C188.698 125.43 183.076 128.649 177.683 132.43L174.372 182.5C177.686 189.24 180.191 192.882 181.888 193.426L150.692 194.572C148.392 195.556 150.894 191.532 158.198 182.5L164.819 118.079L151.706 126.229C159.142 116.11 164.855 108.172 168.845 102.417C171.39 99.2586 173.981 95.7229 176.619 91.8093L178.011 117.099L200.677 103.41C201.323 102.876 202.076 102.593 202.845 102.595C205.39 102.595 208.193 105.638 211.255 111.725C213.571 116.246 215.532 121.049 217.111 126.063Z" fill="white"/>
<path d="M266.768 152.817L254.421 173.37C252.801 174.23 250.998 174.342 249.321 173.688C248.386 172.72 247.163 170.161 245.632 166.048C241.132 169.325 237.991 171.774 236.208 173.395C235.116 174.475 233.77 175.049 232.39 175.025C231.039 175.074 229.716 174.516 228.653 173.446C227.638 172.41 226.366 168.743 224.835 162.444C223.628 157.931 222.733 153.291 222.161 148.577C221.319 138.899 221.7 132.048 223.304 128.024C223.967 126.182 226.813 121.832 231.844 114.972L243.684 115.622V119.047C239.707 121.22 237.388 123.504 236.725 125.898C236.621 127.035 236.578 128.179 236.596 129.323C236.615 134.835 236.917 140.34 237.5 145.801C238.107 152.868 238.922 156.79 239.956 157.542C240.587 157.994 241.301 158.222 242.024 158.204C243.485 158.149 244.888 157.457 246 156.243V92.9554C245.231 91.1132 243.611 90.6888 241.139 91.682C238.743 92.6498 237.461 93.1973 237.292 93.3119C235.942 94.0615 234.702 95.0992 233.623 96.3808C233.064 97.1055 232.589 97.9288 232.212 98.8257C231.129 101.223 230.474 103.897 230.293 106.657C228.662 103.261 227.039 99.6194 225.422 95.7314C224.539 93.0493 224.102 90.1609 224.139 87.2506C224.141 85.9364 224.228 84.6246 224.398 83.3286L242.57 70.9385L262.185 96.0497V152.817H266.768Z" fill="white"/>
<path d="M317.569 132.43C316.72 123.092 315.703 116.458 314.517 112.527C312.528 107.086 310.447 104.369 308.273 104.378C307.41 104.383 306.569 104.72 305.858 105.345L290.707 109.166L289.554 91.873L286.502 91.2236L267.424 112.043L278.36 114.323L276.003 235.626V240.388L275.934 244.055V250.932C279.387 250.711 282.83 250.371 286.263 249.913C286.953 249.741 287.665 249.79 288.337 250.057C289.008 250.324 289.617 250.799 290.11 251.441C290.309 251.696 290.508 251.95 290.717 252.18V250.766L290.816 235.485V234.097L291.174 181.545C296.271 179.151 301.324 176.812 306.335 174.528C312.101 171.481 316.077 167.839 318.264 163.603C318.592 162.839 318.771 160.012 318.771 155.122C318.687 147.536 318.286 139.961 317.569 132.43ZM304.824 150.856C303.538 155.101 301.613 157.873 299.048 159.171C296.224 160.148 293.358 161.183 290.448 162.279V121.657C293.627 121.911 296.763 122.734 299.763 124.102C300.602 124.562 301.389 125.166 302.1 125.898C304.943 129.387 306.365 134.336 306.365 140.746C306.354 144.21 305.831 147.641 304.824 150.856Z" fill="white"/>
<path d="M362.862 150.372L335.781 176.63C328.564 161.4 325.21 152.321 325.72 149.392C326.317 148.543 331.371 144.846 340.881 138.301L342.402 141.077C339.181 142.919 337.229 145.691 336.547 149.392C336.295 150.448 336.168 151.547 336.169 152.652C336.169 157.223 337.571 159.77 340.364 160.292C343.158 160.814 346.329 155.402 349.54 144.311C349.981 142.515 350.196 140.641 350.176 138.759C350.178 135.838 349.7 132.948 348.775 130.278L328.146 134.684C326.474 129.469 325.192 124.063 324.319 118.538C323.878 113.209 324.315 107.821 325.601 102.722L351.061 73.8673C359.213 88.299 363.12 97.0005 362.782 99.9717C362.265 100.948 357.467 105.193 348.387 112.706L346.737 109.93C347.971 108.412 348.905 106.539 349.461 104.467C349.954 102.435 350.195 100.317 350.176 98.189C350.176 93.2992 349.182 90.7906 347.293 90.6888C345.544 90.5741 343.714 91.6693 341.796 93.9486C339.849 96.4112 338.576 99.6138 338.167 103.079C338.167 103.295 337.789 106.186 337.044 111.725C336.606 114.189 336.353 116.7 336.288 119.225C343.506 118.911 348.43 119.022 351.061 119.556C356.913 121.305 360.734 123.967 362.524 127.541C363.943 131.005 364.629 134.887 364.512 138.797C364.491 142.749 363.932 146.666 362.862 150.372Z" fill="white"/>
<path d="M412.946 122.154L406.196 120.881L398.303 118.601L386.97 113.508C386.207 125.393 385.826 135.287 385.826 143.19C385.729 147.557 385.942 151.926 386.462 156.243C387.735 162.762 389.392 166.022 391.433 166.022C392.269 165.93 393.057 165.482 393.67 164.749C394.711 163.535 395.553 162.068 396.145 160.432C398.134 155.432 400.172 147.983 402.259 138.084C406.899 144.027 409.235 147.94 409.268 149.825C408.196 152.554 406.96 155.173 405.57 157.656C399.38 167.988 395.264 173.752 393.223 174.949C391.354 175.271 388.338 174.783 384.176 173.484L368.389 151.837L370.685 91.8093C377.644 82.8956 384.391 76.6433 390.926 73.0524C392.071 72.5235 393.278 72.248 394.495 72.2374C397.544 72.2374 400.768 74.088 404.168 77.7894C406.156 80.3361 408.145 82.7938 410.133 85.2896C412.009 88.8805 412.946 101.169 412.946 122.154ZM397.657 107.803C397.06 103.881 395.957 98.1168 394.346 90.5105C393.945 88.9506 393.344 87.4874 392.567 86.181C391.632 84.5001 390.777 83.6342 390.022 83.6342C389.266 83.6342 388.53 84.6656 388.103 86.7285C386.954 93.1467 386.4 99.7161 386.453 106.3L397.657 107.803Z" fill="white"/>
<path d="M529.48 134.799C530.258 134.465 531.074 134.297 531.895 134.302C533.814 134.246 535.678 135.119 537.115 136.747C537.822 137.536 538.383 138.517 538.758 139.618C539.133 140.719 539.312 141.913 539.282 143.114C539.282 146.807 537.986 150.423 535.395 153.963C532.78 157.53 529.764 160.577 526.448 163.004C523.836 165.084 521.008 166.679 518.047 167.741C514.497 166.909 511.006 165.708 507.609 164.15C506.923 163.934 505.252 163.31 502.578 162.279C500.128 161.318 497.639 160.527 495.122 159.91C493.111 159.4 491.068 159.128 489.018 159.095C483.153 159.095 479.077 161.977 476.79 167.741H475.518C475.652 161.765 476.965 155.93 479.335 150.78C481.445 146.261 484.188 142.281 487.427 139.039C491.413 135.224 495.555 131.684 499.834 128.432C503.969 125.377 507.953 122.001 511.764 118.321C514.55 115.602 516.798 112.082 518.325 108.045C519.593 104.805 520.247 101.228 520.234 97.6032C520.166 92.0204 518.742 86.6035 516.158 82.1061C511.747 79.9787 507.508 77.3046 503.503 74.122C501.634 72.7128 499.722 71.38 497.767 70.1236C496.133 69.0396 494.43 68.1365 492.677 67.424V79.3429C492.799 84.079 491.628 88.7216 489.366 92.4715C487.548 95.55 485.279 98.1452 482.685 100.112C480.432 101.674 477.397 103.55 473.579 105.74L472.814 104.263C474.514 103.728 475.637 102.035 476.184 99.1695C476.817 95.3667 477.097 91.4814 477.019 87.5944V80.3107L490.002 66.7746L502.359 53.7478C503.95 53.8186 505.512 54.3176 506.942 55.2122C508.633 56.1927 510.76 57.6062 513.305 59.4526C516.434 61.7362 519.668 63.7773 522.988 65.5648C525.607 66.9798 528.417 67.7239 531.259 67.7551C533.71 67.9103 536.131 67.0141 538.139 65.2083C538.971 64.4757 539.651 63.4922 540.117 62.3442C540.584 61.1962 540.823 59.9189 540.813 58.6249C540.86 57.5867 540.723 56.5483 540.413 55.587C540.104 54.6258 539.628 53.7664 539.023 53.0729C537.733 51.7272 536.103 51.034 534.44 51.1247C533.67 51.0848 532.899 51.1921 532.154 51.443V50.4625C532.934 50.139 533.75 49.9757 534.57 49.9786C536.503 49.9266 538.38 50.8189 539.819 52.4744C540.526 53.2634 541.088 54.244 541.462 55.3452C541.837 56.4464 542.016 57.6407 541.986 58.8414C542.11 65.3281 540.264 71.6234 536.836 76.4014C533.397 81.1893 528.877 83.5833 523.276 83.5833C526.45 86.2252 529.214 89.5971 531.428 93.5284C533.576 97.204 534.737 101.671 534.739 106.262C534.775 108.766 534.438 111.255 533.745 113.597C532.638 117.587 530.669 121.093 528.068 123.708C525.523 126.295 522.665 128.334 519.608 129.743C516.546 131.161 512.513 132.685 507.509 134.315C502.357 135.947 497.295 138.019 492.358 140.516C488.583 142.45 485.22 145.505 482.546 149.43C483.551 148.466 484.619 147.614 485.737 146.883C489.173 144.152 493.147 142.738 497.19 142.808C499.918 142.809 502.635 143.237 505.282 144.082C508.039 144.931 511.327 146.179 515.144 147.826C518.286 149.141 520.937 150.147 523.097 150.843C525.042 151.521 527.047 151.876 529.062 151.9C531.43 152.03 533.763 151.133 535.683 149.354C536.48 148.62 537.127 147.652 537.57 146.53C538.013 145.409 538.239 144.167 538.228 142.91C538.275 141.872 538.138 140.834 537.829 139.872C537.519 138.911 537.044 138.052 536.439 137.358C535.148 136.013 533.518 135.319 531.856 135.41C531.085 135.37 530.315 135.477 529.569 135.728L529.48 134.799Z" fill="white"/>
<path d="M562.684 96.6227C570.916 93.3629 578.087 91.7329 584.197 91.7329C590.308 91.7329 595.212 93.2016 598.911 96.1388C602.291 98.6335 604.999 102.386 606.675 106.899C608.128 110.941 608.887 115.336 608.902 119.786V150.13L593.244 159.91L578.978 168.225C576.476 166.834 574.088 165.128 571.85 163.132C568.781 160.62 565.616 158.308 562.366 156.204C560.106 154.655 557.601 153.784 555.039 153.658C554.129 153.626 553.224 153.835 552.38 154.274C551.537 154.712 550.773 155.369 550.138 156.204C549.518 156.965 549.024 157.875 548.682 158.883C548.341 159.891 548.16 160.976 548.15 162.075C548.096 163.149 548.228 164.224 548.536 165.226C548.843 166.227 549.319 167.129 549.929 167.869C551.2 169.268 552.838 169.997 554.512 169.906C555.286 169.946 556.06 169.839 556.809 169.588V170.556C555.506 171.101 554.115 171.199 552.774 170.842C551.433 170.484 550.188 169.683 549.164 168.518C548.441 167.66 547.873 166.611 547.499 165.443C547.124 164.275 546.953 163.017 546.996 161.756C546.996 159.031 547.888 155.984 549.671 152.613C551.535 149.161 553.943 146.246 556.739 144.056C559.402 141.825 562.505 140.61 565.686 140.555C568.6 140.613 571.444 141.711 573.898 143.725C575.986 145.202 578.726 147.35 582.119 150.169C585.635 153.263 589.339 155.993 593.194 158.331V119.786C593.225 114.171 591.963 108.67 589.566 103.97C587.153 99.1822 582.182 96.7883 574.653 96.7883C567.363 96.7883 558.151 99.56 547.016 105.103V80.3107L560.01 66.7746L572.387 53.7478C573.978 53.8171 575.54 54.3161 576.97 55.2122C578.673 56.1885 580.797 57.6019 583.342 59.4526C586.469 61.7334 589.699 63.7744 593.015 65.5648C595.638 66.978 598.451 67.722 601.297 67.7551C603.747 67.9103 606.168 67.0141 608.176 65.2083C609.002 64.4818 609.677 63.5084 610.143 62.3723C610.609 61.2363 610.852 59.9719 610.85 58.6886C610.897 57.6504 610.76 56.612 610.451 55.6507C610.141 54.6894 609.666 53.8301 609.061 53.1366C607.766 51.7582 606.12 51.0416 604.438 51.1247C603.668 51.0848 602.897 51.1921 602.151 51.443V50.4625C603.458 49.9309 604.85 49.8367 606.193 50.1888C607.537 50.541 608.787 51.3279 609.826 52.4744C610.533 53.2634 611.095 54.244 611.47 55.3452C611.845 56.4464 612.023 57.6407 611.993 58.8414C612.125 65.3473 610.275 71.6635 606.834 76.4523C603.394 81.2402 598.874 83.6342 593.274 83.6342C592.424 83.6482 591.573 83.5929 590.729 83.4687C588.031 83.0808 585.403 82.1167 582.955 80.6163C580.304 79.0373 577.165 76.8895 573.54 74.1729C571.671 72.7637 569.759 71.4309 567.804 70.1745C566.162 69.0711 564.449 68.1509 562.684 67.424V96.6227Z" fill="white"/>
<path d="M608.216 235.562C607.917 234.479 606.844 234.594 606.029 234.467C605.728 234.423 605.424 234.423 605.124 234.467C596.584 235.638 588.015 235.333 579.455 235.447C574.385 235.511 569.285 235.167 564.235 235.664C560.348 236.046 556.65 235.918 553.15 233.741C551.535 232.644 549.734 232.07 547.906 232.07C546.078 232.07 544.277 232.644 542.662 233.741C540.647 234.88 538.472 235.482 536.27 235.511C522.053 236.721 507.827 236.084 493.611 235.511C492.11 235.511 490.489 235.715 489.227 234.403C486.334 231.385 482.805 231.143 479.365 230.736C476.9 230.443 474.295 230.226 472.028 231.907C467.803 235.053 463.22 235.727 458.458 235.842C452.394 235.957 446.33 236.135 440.295 236.695C433.406 237.345 426.526 237.969 419.647 236.988C416.525 236.542 413.076 237.192 410.362 234.836C407.814 232.528 404.866 231.05 401.773 230.529C398.679 230.007 395.533 230.459 392.606 231.844C385.965 234.721 379.066 235.142 372.236 235.664C356.127 236.905 339.976 236.969 323.861 235.855C321.526 235.822 319.228 235.108 317.141 233.766C308.194 227.603 299.306 227.107 290.597 233.957C290.289 234.187 289.991 234.429 289.693 234.683C289.018 235.122 288.257 235.295 287.506 235.18L275.994 235.511C273.697 235.511 271.411 235.651 269.114 235.74C255.634 236.224 242.183 236.721 228.782 234.021C226.76 233.746 224.84 232.744 223.244 231.13C221.614 229.399 219.954 227.654 217.707 227.399C211.606 226.557 205.471 226.192 199.335 226.304C198.653 226.308 197.982 226.528 197.382 226.943C196.782 227.358 196.272 227.957 195.896 228.686C194.424 231.232 192.834 233.715 191.283 236.211C191.074 236.674 190.772 237.057 190.408 237.319C190.044 237.581 189.632 237.713 189.215 237.701C185.885 237.421 182.564 237.561 179.224 237.281C171.619 236.619 164.003 235.154 156.359 236.975C153.683 237.745 150.879 237.223 148.485 235.511C144.518 232.733 139.915 231.832 135.482 232.964C134.286 233.223 133.075 233.342 131.863 233.321C130.955 233.243 130.048 233.493 129.245 234.042C128.441 234.591 127.775 235.418 127.32 236.428C125.391 240.248 123.005 242.133 119.128 240.834C113.054 238.796 106.781 237.727 101.631 232.468C99.8714 230.672 96.8294 232.327 96.0738 235.307C93.7972 244.221 93.6083 253.135 96.3621 262.048C97.6446 266.187 98.1217 266.645 101.124 264.595C107.335 260.543 113.855 257.317 120.579 254.968C121.231 254.6 121.956 254.497 122.655 254.675C123.354 254.853 123.994 255.302 124.486 255.962C126.952 259.183 130.153 260.24 133.533 260.724C139.389 261.577 145.135 262.239 150.304 257.184C152.13 255.586 154.278 254.702 156.488 254.637C161.26 254.204 166.032 254.637 170.793 254.319C177.598 253.641 184.439 253.889 191.203 255.057C192.07 255.137 192.915 255.445 193.685 255.962C194.455 256.479 195.133 257.194 195.677 258.063C196.512 259.485 197.719 260.475 199.077 260.851C205.767 262.609 212.508 262.812 219.069 260.125C223.781 258.19 227.788 254 232.987 253.287C237.858 252.6 242.66 251.135 247.501 250.053C249.301 249.673 251.142 249.746 252.919 250.269C256.033 250.944 259.205 251.06 262.344 250.613C262.702 251.135 263.179 250.906 263.616 250.919C267.653 251.084 271.689 251.008 275.725 250.753C279.178 250.533 282.621 250.193 286.054 249.735C286.744 249.562 287.457 249.612 288.128 249.879C288.799 250.145 289.409 250.621 289.902 251.263C290.1 251.517 290.299 251.772 290.508 252.001C292.056 253.942 294.029 255.23 296.165 255.694C302.337 256.899 308.651 255.72 314.298 252.307C318.012 249.929 322.078 248.587 326.227 248.372C332.123 248.207 338.038 248.372 343.943 248.372C357.046 248.372 370.159 248.27 383.261 248.69C386.122 248.63 388.945 249.539 391.443 251.326C393.246 252.664 395.338 253.223 397.408 252.918C401.196 252.472 404.924 251.645 408.284 249.098C410.938 247.132 414.017 246.315 417.062 246.768C421.725 247.395 426.422 247.502 431.099 247.086C442.035 246.055 453.04 246.819 464.006 246.653C465.454 246.58 466.897 246.919 468.231 247.646C475.677 252.129 482.705 250.053 489.575 245.482C490.364 244.92 491.221 244.528 492.11 244.323C496.703 243.393 501.336 244.234 505.938 243.661C518.075 241.976 530.331 242.34 542.394 244.743C545.026 245.307 547.714 245.307 550.347 244.743C554.204 243.915 557.932 242.196 561.928 242.196C564.573 242.196 567.217 241.814 569.882 241.801C580.946 241.801 591.942 240.006 603.006 239.968C604.535 240.111 606.048 239.496 607.232 238.249C607.848 237.739 608.534 236.721 608.216 235.562ZM285.985 248.079C285.338 248.181 284.702 248.245 284.066 248.283C285.234 248.012 286.278 247.184 286.989 245.965C287.595 244.756 287.794 243.648 286.7 242.706C285.11 241.343 285.706 240.222 286.949 239.229C287.446 238.834 287.943 238.452 288.609 237.956C288.609 240.286 288.48 242.489 288.44 244.705C288.4 246.92 287.695 247.825 285.985 248.079ZM275.745 248.219C275.457 248.219 275.158 248.219 274.87 248.219C273.985 248.219 273.031 247.825 272.305 248.869C272.277 248.935 272.26 249.009 272.256 249.085C272.256 249.314 272.415 249.467 272.554 249.645C272.246 249.645 271.937 249.569 271.629 249.569C271.331 249.55 271.033 249.55 270.734 249.569C270.287 249.569 269.84 249.569 269.392 249.569C269.528 249.479 269.649 249.358 269.75 249.213C269.745 249.132 269.745 249.051 269.75 248.971V248.869C269.88 247.353 270.685 246.92 271.838 246.997C273.15 247.086 274.463 247.099 275.815 247.226C276.163 247.226 276.52 247.29 276.868 247.341C278.161 247.532 278.389 246.411 278.28 245.074C278.171 243.737 277.674 243.189 276.59 243.712C276.358 243.826 276.119 243.911 275.874 243.966C274.552 244.31 273.19 243.966 271.848 244.144C270.506 244.323 269.701 244.043 269.86 242.031C269.929 241.203 269.581 240.757 268.915 240.757C268.249 240.757 267.921 240.986 267.792 241.865C267.742 242.374 268.1 243.024 267.434 243.431C267.036 242.425 267.076 239.968 265.585 241.776C264.839 242.693 265.028 242.451 264.591 241.661C264.153 240.872 263.497 241.203 263.09 242.031C262.851 242.515 263.02 243.406 262.215 243.521C262.263 242.904 262.188 242.281 261.996 241.712C261.979 241.661 261.955 241.614 261.926 241.572C261.793 241.381 261.622 241.24 261.431 241.164C261.241 241.087 261.037 241.079 260.843 241.139C259.212 241.368 258.487 240.019 257.493 238.44C258.626 238.44 259.948 237.587 260.216 238.694C260.273 238.942 260.357 239.177 260.465 239.395C260.972 240.452 261.807 240.133 262.543 240.171C263.825 240.248 265.118 240.248 266.4 240.388C267.861 240.554 269.084 240.388 268.07 237.841C268.624 237.629 269.205 237.56 269.78 237.637C270.287 237.637 270.824 237.408 271.341 237.867C270.894 238.86 269.82 239.879 271.242 240.936C271.376 241.08 271.537 241.177 271.71 241.215C271.883 241.254 272.06 241.234 272.225 241.156C272.389 241.079 272.535 240.947 272.647 240.774C272.759 240.601 272.833 240.393 272.862 240.171C273.608 237.268 274.562 237.625 275.685 239.815C275.759 239.967 275.853 240.1 275.964 240.21C276.087 240.338 276.236 240.421 276.394 240.447C276.552 240.474 276.713 240.445 276.858 240.363C277.069 240.259 277.246 240.066 277.36 239.816C277.474 239.566 277.518 239.274 277.485 238.987C277.485 238.452 276.55 237.714 277.574 237.396C277.858 237.237 278.175 237.204 278.475 237.301C278.776 237.397 279.043 237.619 279.234 237.93C279.609 238.543 280.076 239.054 280.606 239.433C281.779 240.388 281.948 241.177 280.706 242.464C280.372 242.786 280.11 243.214 279.946 243.706C279.781 244.198 279.72 244.737 279.768 245.268C279.817 245.8 279.973 246.306 280.221 246.737C280.469 247.167 280.801 247.507 281.183 247.723C281.468 247.927 281.777 248.073 282.098 248.156C279.93 248.334 277.833 248.168 275.745 248.219ZM265.505 249.849H265.267C264.193 249.696 263.02 249.072 262.284 250.804C261.658 248.971 260.187 249.786 259.153 249.2C259.051 249.159 258.957 249.094 258.874 249.009H258.805C258.474 248.926 258.132 248.952 257.811 249.085C258.144 248.942 258.461 248.745 258.755 248.499L258.874 248.334C259.221 247.87 259.68 247.569 260.177 247.481C260.482 247.409 260.792 247.384 261.101 247.404L261.34 247.328C261.794 247.157 262.26 247.042 262.732 246.984H263.249C263.535 247.045 263.824 247.088 264.114 247.111H264.213C264.309 247.098 264.405 247.098 264.501 247.111C265.217 247.264 265.177 248.003 265.177 248.716C265.172 248.792 265.172 248.869 265.177 248.945C265.172 249 265.172 249.056 265.177 249.111C265.239 249.315 265.346 249.492 265.485 249.62L265.575 249.696C265.751 249.75 265.931 249.78 266.112 249.786H265.446L265.505 249.849ZM268.001 249.442C268.136 249.564 268.283 249.662 268.438 249.735C267.732 249.735 267.026 249.849 266.321 249.849C266.467 249.843 266.611 249.795 266.742 249.709C266.872 249.624 266.987 249.502 267.076 249.353C267.145 249.223 267.19 249.075 267.205 248.92C267.205 248.843 267.205 248.767 267.205 248.69C267.191 248.477 267.224 248.263 267.302 248.074C267.379 247.884 267.498 247.727 267.643 247.621C267.829 248 267.903 248.451 267.852 248.894C267.847 248.915 267.847 248.937 267.852 248.958C267.87 249.128 267.921 249.29 268.001 249.429V249.442Z" fill="#0F0F0F"/>
<path d="M156.468 249.76C154.241 251.428 152.064 253.224 149.767 254.714C148.654 255.452 148.893 257.184 147.779 257.948C145.721 259.31 143.723 260.495 141.327 260.253C138.683 260.024 136.038 259.82 133.374 259.667C130.034 259.448 126.879 257.63 124.536 254.574C124.172 254.048 123.692 253.676 123.16 253.506C122.628 253.335 122.068 253.375 121.554 253.618C115.012 256.089 108.501 258.61 102.476 262.863C99.096 265.232 98.2411 264.671 96.9089 259.998C96.0665 257.286 95.6542 254.385 95.6961 251.466C95.875 247.162 96.0738 242.846 96.3124 238.542C96.4333 237.273 96.8729 236.088 97.565 235.167C99.4141 232.366 99.941 232.277 102.168 234.53C103.897 236.267 105.853 237.599 107.944 238.465C111.831 240.095 115.897 241.012 119.794 242.374C121.163 243.012 122.667 242.987 124.023 242.302C125.378 241.617 126.491 240.32 127.151 238.656C129.069 234.53 131.903 234.543 134.975 234.416C136.416 234.352 135.213 235.689 135.7 236.02C138.206 233.155 141.059 234.823 143.743 235.116C145.88 235.345 147.719 236.988 149.638 238.147C150.783 238.912 152.091 239.184 153.366 238.924C162.025 237.166 170.724 237.65 179.423 238.542C181.751 238.902 184.101 238.983 186.441 238.784C186.809 240.452 185.646 240.057 185.119 240.222C179.641 242.4 173.955 242.616 168.298 242.909C166.061 243.037 163.834 243.533 161.588 243.444C164.053 243.444 166.509 243.011 168.964 242.909C174.631 242.655 180.288 242.196 185.775 240.121C186.325 239.78 186.947 239.682 187.545 239.84C189.404 239.407 192.446 239.624 192.853 238.401C193.569 236.237 194.653 234.301 195.359 232.124C196.353 229.042 198.103 227.59 200.976 227.54C206.723 227.584 212.46 228.154 218.144 229.246C219.809 229.55 221.356 230.517 222.568 232.009C223.221 232.809 223.904 233.565 224.616 234.276C225.987 235.429 227.631 235.925 229.259 235.676C234.538 235.511 239.747 237.561 245.076 237.446C245.98 237.446 246.895 237.446 247.8 237.357C251.955 236.886 251.349 236.937 251.468 241.534C251.528 243.839 252.283 246.717 251.239 248.321C250.196 249.926 247.859 248.932 246.09 249.098C239.964 249.728 233.914 251.249 228.056 253.631C227.549 252.995 228.901 252.358 228.056 251.823C227.539 251.492 227.211 252.027 226.883 252.383C224.56 255.013 221.93 257.161 219.089 258.75C212.687 261.895 206.165 260.889 199.614 259.896C198.811 259.781 198.044 259.406 197.384 258.807C196.725 258.207 196.196 257.404 195.846 256.471C195.438 255.478 195.07 254.319 194.106 253.924C190.998 252.334 187.783 251.107 184.503 250.257C186.948 251.123 190.1 251.67 192.933 253.568C193.001 253.616 193.051 253.695 193.075 253.79C193.099 253.884 193.095 253.987 193.062 254.077C193.062 254.255 192.913 254.344 192.734 254.37C178.724 252.289 164.565 252.481 150.593 254.943L156.697 250.206C158.983 248.449 161.618 247.735 163.894 246.271C161.479 247.635 158.999 248.8 156.468 249.76Z" fill="#FDFDFD"/>
<path d="M549.899 243.953C548.08 243.686 545.923 245.545 544.432 242.68C543.717 242.875 542.993 243.011 542.264 243.088C533.128 242.374 524.032 240.885 514.826 241.814C507.966 242.527 501.077 242.591 494.198 242.998C492.02 243.234 489.905 244.045 487.984 245.38C481.453 249.454 474.683 250.282 467.883 246.182L464.264 244.055C464.542 245.087 465.328 245.851 463.757 245.864C455.744 245.965 447.741 244.947 439.719 245.774C432.835 246.29 425.934 246.29 419.05 245.774C414.865 245.571 410.789 246.118 406.982 248.831C403.462 251.377 399.526 251.963 395.539 251.925C393.318 251.786 391.195 250.716 389.495 248.881C388.031 247.339 386.167 246.561 384.275 246.704C370.546 248.64 356.787 246.704 343.068 247.506C336.487 247.901 329.916 246.589 323.335 247.506C320.4 247.936 317.545 249.008 314.894 250.677C309.04 254.208 302.536 255.592 296.105 254.675C293.55 254.332 291.761 252.129 289.902 250.104C289.285 249.454 289.454 248.538 289.623 247.672C290.321 244.379 290.427 240.926 289.931 237.574C289.845 237.16 289.871 236.72 290.004 236.327C290.138 235.934 290.372 235.61 290.667 235.409C294.307 232.055 298.737 230.409 303.213 230.748C305.47 230.85 307.746 230.481 309.943 231.321C310.649 231.589 312.17 231.029 311.753 233.308C311.653 233.843 312.349 233.945 312.618 233.639C313.612 232.506 314.606 233.117 315.411 233.932C319.189 237.688 323.702 237.166 328.027 237.396C344.758 238.261 361.48 238.019 378.201 236.797C380.15 236.541 382.088 236.158 384.007 235.651C384.444 237.077 383.381 236.988 382.904 237.205C378.877 239.115 375.08 241.891 372.356 242.298C375.656 241.61 380.001 238.554 384.574 236.288C385.309 235.793 386.15 235.618 386.97 235.791C388.731 235.205 390.448 234.416 392.099 233.435C396.076 231.321 400.112 231.818 404.188 232.468C404.775 232.569 405.679 232.468 405.421 233.894C405.341 234.378 405.818 234.696 405.968 234.518C407.538 232.608 408.383 234.861 409.318 235.587C413.235 238.631 417.559 238.554 421.884 238.745C429.996 239.089 438.068 237.854 446.161 237.701C451.241 237.612 456.301 237.268 461.371 236.95C464.636 236.825 467.848 235.859 470.815 234.11C476.78 230.456 482.576 231.321 488.213 235.18C489.45 236.082 490.837 236.592 492.259 236.67C503.91 237.179 515.562 238.019 527.223 237.408C532.048 237.315 536.863 236.822 541.638 235.931L537.502 238.478C540.216 238.249 542.404 236.288 544.63 234.772C545.731 233.916 546.986 233.439 548.274 233.388C549.561 233.336 550.837 233.712 551.977 234.479C555.954 237.026 560.079 237.166 564.374 237.026C576.304 236.644 588.293 236.491 600.253 236.211C602.072 236.211 603.881 235.931 605.691 235.804C606.198 235.804 606.874 235.498 607.092 236.275C607.311 237.052 606.734 237.727 606.267 238.16C605.449 238.891 604.458 239.234 603.464 239.127C591.534 238.185 579.763 240.655 567.913 241.165C562.535 241.394 557.147 241.267 552.007 243.597C551.092 242.464 550.526 243.482 549.899 243.953Z" fill="#FCFCFC"/>
<path d="M269.83 249.009C269.094 248.678 269.064 247.952 269.184 247.137C269.333 246.105 269.979 246.398 270.446 246.437C272.822 246.64 275.258 245.864 277.584 247.188C277.878 246.102 277.927 244.932 277.723 243.813C275.198 245.838 272.464 244.794 269.84 244.819C268.617 244.819 269.561 243.253 269.303 242.489C269.164 242.094 269.88 241.649 269.303 241.343C269.163 241.268 269.012 241.229 268.861 241.229C268.709 241.229 268.558 241.268 268.418 241.343C267.891 241.687 268.339 242.056 268.418 242.476C268.617 243.279 268.796 244.221 268.13 244.794C267.955 244.889 267.768 244.938 267.578 244.938C267.389 244.938 267.201 244.889 267.026 244.794C266.112 244.335 266.47 243.406 266.668 242.616C266.818 242.043 266.798 241.636 266.281 241.623C265.764 241.61 265.505 241.916 265.595 242.718C265.684 243.52 266.42 244.832 265.008 244.807C263.597 244.781 264.442 243.482 264.442 242.693C264.442 242.324 264.571 241.878 264.104 241.891C263.636 241.903 263.298 241.891 263.388 242.642C263.507 243.559 263.964 244.641 262.732 244.845C262.304 244.909 261.638 244.934 261.459 244.628C260.902 243.661 261.807 242.922 261.996 241.636C258.735 243.61 257.86 239.56 255.355 237.93C257.343 237.765 258.735 237.587 260.127 237.548C260.664 237.548 261.489 236.848 261.678 237.969C261.867 239.089 260.634 238.491 260.425 239.522L268.06 239.853C268.06 238.58 266.191 239.229 266.788 237.663C267.215 236.53 268.11 237.192 268.776 237.128C269.899 237.014 271.043 237.128 272.226 237.128C272.261 237.549 272.204 237.974 272.062 238.356C271.92 238.738 271.698 239.062 271.42 239.293C271.043 239.535 270.685 239.649 270.953 240.235C271.141 240.542 271.409 240.751 271.709 240.821C272.027 240.923 272.256 240.668 272.305 240.197C272.314 239.911 272.364 239.631 272.454 239.369C272.822 238.452 273.001 237.217 273.985 237.064C274.97 236.912 275.139 238.452 275.854 238.949C276.332 239.28 275.636 240.49 276.52 240.413C276.668 240.382 276.808 240.309 276.93 240.198C277.052 240.088 277.154 239.944 277.226 239.777C277.614 238.707 276.57 239.038 276.371 238.503C276.196 238.064 276 237.639 275.785 237.23C276.779 236.517 277.912 237.115 278.926 236.772C280.328 236.3 279.572 238.452 280.676 239.051C283.181 240.413 283.102 241.025 280.915 243.177C279.384 244.692 279.841 245.965 281.014 247.15C282.823 248.996 286.362 247.455 287.178 244.603C287.516 243.444 286.681 243.661 286.432 243.215C285.925 242.336 284.364 242.247 284.692 240.999C284.917 240.284 285.274 239.649 285.733 239.149C286.192 238.65 286.739 238.302 287.327 238.134C288.003 237.93 288.629 238.287 287.993 237.001C287.893 236.797 287.874 236.466 288.241 236.504C288.609 236.542 288.858 236.644 288.917 237.09C289.373 240.73 289.248 244.451 288.55 248.028C288.39 248.945 287.357 248.678 286.71 248.729C282.326 249.136 277.942 248.971 273.558 248.856C273.12 248.856 272.633 248.64 272.246 249.111C271.401 250.18 270.615 249.658 269.83 249.009Z" fill="#FAFAFA"/>
<path d="M187.505 239.789C181.302 242.591 174.84 243.049 168.348 243.355C165.853 243.482 163.377 243.699 160.842 243.622C161.836 242.68 162.95 242.871 164.023 242.769C171.151 242.043 178.379 242.553 185.308 239.637C185.716 239.458 186.481 239.904 186.402 238.733C186.978 238.72 188.111 237.765 187.505 239.789Z" fill="#4F4F4F"/>
<path d="M253.685 249.187C253.069 249.187 252.303 249.467 252.303 248.028C252.303 244.934 252.303 241.827 252.224 238.733C252.224 237.192 252.979 237.739 253.566 237.587C254.639 237.294 254.331 238.045 254.301 238.86C254.182 241.763 254.182 244.667 254.093 247.57C254.083 248.117 254.232 248.78 253.685 249.187Z" fill="#F3F3F3"/>
<path d="M386.92 235.842C381.382 237.956 376.402 242.209 370.437 242.706C374.682 241.432 378.509 238.885 382.556 236.924C383.132 236.657 383.709 236.491 383.957 235.651C384.951 235.435 385.985 234.199 386.92 235.842Z" fill="#5F5F5F"/>
<path d="M286.999 236.581L284.493 239.662C283.927 240.363 283.38 240.579 282.754 239.662C282.127 238.745 280.845 238.389 281.074 237.205C281.302 236.02 282.595 236.644 283.39 236.504C284.593 236.435 285.798 236.46 286.999 236.581Z" fill="#EFEFEF"/>
<path d="M282.267 243.393C283.927 240.948 284.812 243.24 285.786 244.03C286.512 244.628 285.915 245.303 285.398 245.838C283.986 247.226 281.64 247.29 280.924 245.609C280.209 243.928 282.058 244.132 282.267 243.393Z" fill="#EDEDED"/>
<path d="M255.882 240.795C259.65 243.864 259.69 245.023 256.19 247.697C256.111 247.532 255.972 247.379 255.972 247.213C255.932 245.1 255.912 242.986 255.882 240.795Z" fill="#F2F2F2"/>
<path d="M265.436 250.244C264.442 250.702 263.259 249.862 262.294 250.804C261.171 249.887 259.7 250.46 258.586 249.442C258.656 248.971 259.521 248.321 258.417 248.105C258.994 246.666 259.819 246.093 261.032 246.895C261.956 248.168 262.612 248.168 262.841 246.271L264.133 246.577C264.591 247.324 264.975 248.141 265.277 249.009C265.343 249.041 265.402 249.096 265.446 249.168C265.489 249.24 265.517 249.326 265.525 249.416C265.744 249.747 265.575 249.989 265.436 250.244Z" fill="#525252"/>
<path d="M192.734 254.332C191.74 252.562 190.13 252.625 188.758 252.116C186.767 251.619 184.849 250.73 183.071 249.48C186.72 251.084 190.766 250.995 194.116 253.886C193.689 254.204 193.331 254.866 192.734 254.332Z" fill="#494949"/>
<path d="M156.468 249.76C159.019 247.998 161.754 246.711 164.59 245.94C162.104 247.761 159.453 249.185 156.697 250.18L156.567 249.989L156.468 249.76Z" fill="#5E5E5E"/>
<path d="M265.436 250.244L265.545 249.416L267.006 249.136C267.166 248.499 267.424 248.372 267.812 248.869C268.448 249.684 269.124 249.429 269.8 249.009C270.635 248.13 271.391 249.709 272.206 249.123C272.464 249.276 272.892 249.365 272.941 249.595C273.14 250.359 272.594 250.168 272.305 250.168C270.039 250.219 267.752 250.231 265.436 250.244Z" fill="#B2B2B2"/>
<path d="M262.881 246.271C263.013 246.404 263.122 246.571 263.202 246.76C263.283 246.949 263.332 247.157 263.348 247.371C263.364 247.585 263.346 247.801 263.294 248.006C263.243 248.211 263.16 248.401 263.05 248.563C262.692 249.213 261.917 249.034 261.4 248.818C260.604 248.487 261.4 247.544 261.071 246.895C261.519 245.927 262.294 246.538 262.881 246.271Z" fill="#EDEDED"/>
<path d="M262.652 238.643C262.394 237.905 262.583 237.37 262.791 237.37C263.855 237.37 264.968 236.657 265.943 237.676C266.032 237.778 265.833 238.618 265.754 238.618C264.68 238.682 263.607 238.643 262.652 238.643Z" fill="#E2E2E2"/>
<path d="M267.832 248.869C267.494 248.601 267.245 248.792 267.026 249.136C266.509 248.245 266.181 247.277 267.026 246.5C267.295 246.258 268.16 246.437 268.229 246.678C268.468 247.417 269.005 248.474 267.832 248.869Z" fill="#E3E3E3"/>
<path d="M265.316 249.009C263.616 249.213 264.163 247.735 264.173 246.577C264.799 246.284 265.555 245.978 265.873 246.882C265.954 247.067 266.003 247.27 266.018 247.481C266.034 247.691 266.015 247.903 265.962 248.103C265.91 248.304 265.825 248.488 265.714 248.643C265.603 248.799 265.467 248.924 265.316 249.009Z" fill="#E9E9E9"/>
<path d="M549.899 243.953C550.595 243.393 549.899 241.61 551.062 241.585C552.057 241.585 551.649 242.858 551.927 243.533C551.64 243.805 551.306 243.985 550.953 244.058C550.6 244.131 550.239 244.095 549.899 243.953Z" fill="#7B7B7B"/>
<path d="M258.477 248.105C259.113 248.105 259.411 246.831 260.177 247.353C260.296 247.455 260.316 247.875 260.316 248.143C260.316 249.709 259.103 248.792 258.646 249.416L257.721 249.009L258.477 248.105Z" fill="#EBEBEB"/>
<path d="M119.217 246.386C115.55 246.92 111.843 246.835 108.192 246.131C103.48 245.265 102.327 246.87 103.759 252.498C103.149 252.014 102.696 251.265 102.482 250.388C102.268 249.511 102.309 248.565 102.595 247.723C103.122 245.774 104.236 244.335 105.797 244.705C110.113 245.641 114.498 245.957 118.869 245.647C118.939 245.673 119.019 246.029 119.217 246.386Z" fill="#464646"/>
<path d="M101.919 260.125C106.956 256.258 112.419 253.386 118.124 251.607C112.706 254.37 107.367 257.209 101.919 260.125Z" fill="#4F4F4F"/>
<path d="M106.701 254.344C111.374 252.307 115.857 249.48 120.838 248.767C116.076 250.448 111.652 253.491 106.701 254.344Z" fill="#5B5B5B"/>
<path d="M108.998 241.279L117.388 242.655L117.319 243.368C114.481 243.203 111.663 242.674 108.908 241.789C108.749 241.572 108.779 241.394 108.998 241.279Z" fill="#424242"/>
<path d="M213.452 242.107C213.134 241.496 212.915 240.732 213.641 240.286C214.367 239.84 215.073 240.031 215.261 241.037C215.331 241.458 216.106 242.387 215.092 242.731C214.476 242.947 213.79 243.482 213.452 242.107Z" fill="#202020"/>
<path d="M108.908 241.789C106.537 241.639 104.181 241.212 101.87 240.515L101.949 239.751L108.998 241.318C108.96 241.472 108.93 241.629 108.908 241.789Z" fill="#3E3E3E"/>
<path d="M200.449 255.77C200.147 255.955 199.809 256.021 199.478 255.96C199.148 255.899 198.838 255.713 198.59 255.427C198.093 254.65 198.749 254.026 199.156 253.529C199.26 253.39 199.386 253.283 199.526 253.216C199.666 253.148 199.816 253.122 199.965 253.139C200.114 253.156 200.259 253.216 200.387 253.315C200.516 253.413 200.625 253.547 200.707 253.708C200.879 254.028 200.948 254.421 200.9 254.805C200.852 255.189 200.69 255.535 200.449 255.77Z" fill="#222222"/>
<path d="M198.828 240.936C198.182 241.063 197.596 241.343 197.367 240.464C197.138 239.586 196.86 238.707 197.784 238.338C198.222 238.172 198.967 237.879 199.117 238.745C199.266 239.611 199.465 240.388 198.828 240.936Z" fill="#2E2E2E"/>
<path d="M206.891 256.929C206.145 257.528 205.588 257.528 205.181 256.738C204.773 255.949 204.803 255.465 205.38 255.006C205.956 254.548 206.443 254.675 206.652 255.49C206.781 255.974 207.716 256.471 206.891 256.929Z" fill="#141414"/>
<path d="M214.397 250.766C214.019 249.735 214.804 249.251 215.082 248.563C215.132 248.432 215.207 248.319 215.3 248.235C215.393 248.151 215.501 248.098 215.614 248.082C215.727 248.065 215.841 248.086 215.946 248.141C216.052 248.196 216.144 248.284 216.216 248.398C216.763 249.251 216.335 249.989 215.838 250.601C215.652 250.841 215.405 250.99 215.141 251.02C214.877 251.051 214.613 250.961 214.397 250.766Z" fill="#222222"/>
<path d="M205.131 247.952C205.262 248.193 205.312 248.491 205.271 248.78C205.23 249.069 205.101 249.325 204.912 249.493C204.097 250.269 203.67 249.213 203.222 248.729C202.775 248.245 203.123 247.583 203.531 247.366C203.81 247.219 204.12 247.196 204.41 247.303C204.701 247.409 204.955 247.638 205.131 247.952Z" fill="#252525"/>
<path d="M224.676 243.852C224.845 242.018 225.62 241.903 226.585 242.171C226.933 242.26 227.211 242.578 227.062 242.909C226.495 244.144 225.541 243.482 224.676 243.852Z" fill="#6B6B6B"/>
<path d="M182.276 249.696L177.743 247.863L177.902 247.175L182.455 248.894L182.276 249.696Z" fill="#404040"/>
<path d="M209.943 231.589C210.072 231.029 210.072 230.163 210.4 229.832C211.026 229.182 211.176 230.239 211.504 230.647C212.09 231.36 211.553 231.602 211.205 231.844C211.01 232.018 210.769 232.088 210.534 232.041C210.299 231.993 210.087 231.831 209.943 231.589Z" fill="#313131"/>
<path d="M201.324 230.048C201.602 230.723 201.174 231.08 200.916 231.436C200.858 231.56 200.774 231.662 200.674 231.729C200.574 231.797 200.461 231.828 200.348 231.818C200.235 231.809 200.126 231.76 200.033 231.677C199.941 231.594 199.868 231.48 199.822 231.347C199.524 230.761 199.266 230.137 199.872 229.628C200.479 229.118 200.817 230.048 201.324 230.048Z" fill="#4B4B4B"/>
<path d="M213.661 257.897C213.025 258.343 212.428 258.534 212.03 257.744C211.633 256.955 212.16 256.7 212.518 256.394C213.174 255.834 213.671 256.509 214.019 257.006C214.367 257.502 213.661 257.566 213.661 257.897Z" fill="#181818"/>
<path d="M142.669 237.319C142.013 237.637 141.516 237.599 141.178 236.912C141.112 236.822 141.062 236.715 141.033 236.598C141.003 236.481 140.994 236.358 141.006 236.236C141.019 236.114 141.052 235.997 141.104 235.893C141.156 235.79 141.226 235.703 141.307 235.638C141.417 235.543 141.543 235.482 141.675 235.46C141.806 235.438 141.94 235.455 142.065 235.511C142.191 235.567 142.304 235.659 142.397 235.78C142.49 235.902 142.559 236.049 142.6 236.211C142.749 236.581 143.087 237.014 142.669 237.319Z" fill="#3F3F3F"/>
<path d="M125.331 247.01C125.137 247.151 124.909 247.196 124.69 247.135C124.472 247.074 124.279 246.911 124.148 246.678C124.059 246.592 123.99 246.477 123.947 246.345C123.903 246.213 123.888 246.069 123.902 245.927C123.916 245.785 123.959 245.65 124.027 245.536C124.095 245.422 124.184 245.333 124.288 245.278C124.489 245.149 124.723 245.128 124.937 245.218C125.151 245.309 125.329 245.504 125.431 245.762C125.493 245.849 125.54 245.952 125.57 246.065C125.599 246.177 125.609 246.296 125.599 246.414C125.59 246.532 125.561 246.646 125.515 246.749C125.469 246.851 125.406 246.94 125.331 247.01Z" fill="#494949"/>
<path d="M207.895 241.725C207.378 242.133 206.901 242.387 206.583 241.852C206.482 241.599 206.458 241.307 206.515 241.032C206.572 240.758 206.706 240.519 206.891 240.363C207.249 239.968 207.656 239.777 207.994 240.363C208.332 240.948 208.362 241.483 207.895 241.725Z" fill="#383838"/>
<path d="M141.407 253.249C140.9 253.593 140.472 253.631 140.303 253.135C140.207 252.874 140.191 252.577 140.257 252.301C140.323 252.026 140.467 251.792 140.661 251.645C140.979 251.39 141.347 251.148 141.526 251.836C141.705 252.523 141.775 252.969 141.407 253.249Z" fill="#363636"/>
<path d="M452.195 241.254C443.019 241.789 434.022 244.794 424.578 244.972C425.99 243.966 449.74 240.63 452.195 241.254Z" fill="#484848"/>
<path d="M338.515 242.756C342.975 243.036 347.44 242.387 351.737 240.834C356.327 239.296 361.078 238.695 365.814 239.051C364.82 239.191 363.915 239.369 362.971 239.471C358.003 240.067 353.08 241.166 348.248 242.756C344.995 243.764 341.625 243.997 338.306 243.444C338.098 243.088 338.008 242.782 338.515 242.756Z" fill="#494949"/>
<path d="M338.515 242.756L338.326 243.444C335.215 243.317 332.093 243.126 328.971 243.24C332.101 242.316 335.338 242.152 338.515 242.756Z" fill="#4B4B4B"/>
<path d="M404.059 248.576C403.691 248.792 403.254 249.353 403.065 248.436C402.926 247.888 402.448 247.162 403.065 246.742C403.29 246.577 403.552 246.514 403.809 246.565C404.065 246.616 404.301 246.777 404.476 247.022C404.993 247.863 404.427 248.194 404.059 248.576Z" fill="#363636"/>
<path d="M299.306 234.467C298.64 235.74 298.063 236.237 297.238 235.957C297.144 235.824 297.077 235.665 297.043 235.492C297.008 235.318 297.007 235.137 297.039 234.963C297.547 234.047 298.242 234.327 299.306 234.467Z" fill="#363636"/>
<path d="M305.549 244.425C305.452 244.521 305.341 244.591 305.222 244.631C305.103 244.671 304.98 244.68 304.858 244.658C304.737 244.635 304.62 244.581 304.515 244.5C304.41 244.418 304.319 244.31 304.247 244.183C304.163 244.085 304.099 243.961 304.061 243.824C304.023 243.686 304.013 243.539 304.03 243.395C304.048 243.251 304.094 243.115 304.163 242.999C304.232 242.883 304.322 242.791 304.426 242.731C304.616 242.568 304.848 242.505 305.074 242.555C305.3 242.605 305.502 242.764 305.639 242.998C305.808 243.368 305.589 244.017 305.549 244.425Z" fill="#353535"/>
<path d="M395.36 247.697C395.807 247.57 396.354 247.252 396.712 247.952C397.07 248.652 396.563 249.034 396.106 249.225C395.648 249.416 395.37 250.104 395.052 249.225C394.873 248.64 394.674 248.066 395.36 247.697Z" fill="#333333"/>
<path d="M477.277 246.271C477.645 245.609 477.755 244.374 478.619 245.074C478.878 245.278 479.365 245.685 479.126 246.144C478.649 247.086 477.943 246.207 477.277 246.271Z" fill="#505050"/>
<path d="M297.994 244.246C297.208 244.017 296.344 244.132 296.125 242.973C296.045 242.527 296.393 242.171 296.841 242.133C298.143 242.018 297.755 243.329 297.994 244.246Z" fill="#424242"/>
<path d="M307.975 248.767C307.438 249.047 306.981 249.213 306.693 248.55C306.404 247.888 306.693 247.595 307.07 247.43C307.448 247.264 308.174 247.099 308.462 247.812C308.75 248.525 308.184 248.576 307.975 248.767Z" fill="#3F3F3F"/>
<path d="M393.461 242.897C393.386 242.679 393.37 242.436 393.415 242.205C393.46 241.975 393.564 241.77 393.71 241.623C393.877 241.427 394.095 241.318 394.321 241.318C394.548 241.318 394.766 241.427 394.933 241.623C395.017 241.691 395.086 241.785 395.134 241.896C395.183 242.007 395.208 242.133 395.208 242.26C395.208 242.387 395.183 242.512 395.134 242.624C395.086 242.735 395.017 242.829 394.933 242.897C394.72 243.099 394.462 243.209 394.197 243.209C393.932 243.209 393.674 243.099 393.461 242.897Z" fill="#363636"/>
<path d="M550.048 238.185C549.362 239.573 548.706 239.357 548.06 238.682C547.941 238.567 547.891 238.007 547.971 237.93C548.766 237.192 549.283 238.032 550.048 238.185Z" fill="#585858"/>
<path d="M479.087 241.521C478.778 241.649 478.381 242.094 478.252 241.305C478.152 240.745 478.053 240.031 478.53 239.739C478.689 239.624 479.107 239.879 479.285 240.108C479.683 240.63 479.594 241.139 479.087 241.521Z" fill="#515151"/>
<path d="M310.987 241.496C311.325 242.209 310.987 242.515 310.729 242.769C310.644 242.86 310.546 242.928 310.441 242.969C310.335 243.011 310.224 243.024 310.115 243.008C310.005 242.993 309.899 242.949 309.803 242.879C309.707 242.81 309.623 242.716 309.556 242.604C309.258 242.222 309.138 241.661 309.556 241.483C310.03 241.388 310.514 241.392 310.987 241.496Z" fill="#505050"/>
<path d="M390.698 239.751C390.519 240.452 390.698 241.458 389.793 241.445C389.634 241.445 389.326 241.139 389.326 240.974C389.316 239.789 390.071 239.904 390.698 239.751Z" fill="#6E6E6E"/>
<path d="M283.827 245.278C283.767 245.336 283.698 245.376 283.624 245.394C283.55 245.413 283.474 245.41 283.401 245.385C283.329 245.361 283.261 245.316 283.204 245.253C283.147 245.19 283.102 245.111 283.072 245.023C283.006 244.902 282.961 244.764 282.939 244.619C282.916 244.475 282.917 244.326 282.941 244.181C282.965 244.037 283.012 243.9 283.079 243.78C283.146 243.66 283.232 243.559 283.33 243.482C283.718 243.151 284.046 243.584 284.205 244.03C284.364 244.476 284.136 244.959 283.827 245.278Z" fill="#474747"/>
<path d="M449.889 0.265625L463.528 57.0459L435.871 47.4064L436.368 89.5554L422.54 31.9729L450.585 41.6125L449.889 0.265625Z" fill="white"/>
</svg>
