<svg width="207" height="357" viewBox="0 0 207 357" fill="none" xmlns="http://www.w3.org/2000/svg">
<path d="M167.257 237.241C172.389 233.728 177.68 233.327 183.131 236.038C176.871 232.201 178.449 230.899 187.865 232.13C185.707 231.047 184.047 230.214 182.387 229.381C185.602 229.806 192.988 225.52 194.812 222.471C193.98 223.861 159.427 217.989 156.145 215.67C161.558 214.578 176.825 216.812 172.231 211.727C181.612 214.74 178.266 206.093 182.984 199.763C176.737 198.534 161.873 209.031 158.118 198.879C160.87 198.079 163.194 199.416 166.026 199.109C165.347 197.267 164.2 195.748 162.586 194.551C168.041 193.937 169.282 193.295 169.567 188.109C164.809 190.27 143.991 192.321 139.773 186.854C142.268 187.297 151.501 184.818 156.878 183.427C154.913 181.619 152.948 179.811 150.983 178.004C152.259 178.049 171.79 174.812 166.667 171.769C173.294 169.397 173.233 167.834 166.485 167.079C170.565 162.432 150.093 166.075 153.373 165.421C151.431 162.617 159.249 163.017 156.987 160.65C156.092 160.923 129.542 167.115 124.685 153.732C145.562 163.283 153.817 148.855 166.088 140.409C153.685 137.04 153.338 140.81 141.564 137.349C147.255 135.172 116.544 133.193 110.974 125.28C115.116 126.885 129.37 129.365 131.242 124.915C131.078 132.413 145.341 124.08 145.595 124.132C144.939 122.947 144.023 117.004 144.654 116.503C147.728 118.758 160.81 115.595 158.992 111.38C143.347 111.38 158.642 104.175 143.287 112.732C141.988 110.735 141.656 109.892 143.631 106.751C131.529 106.678 128.275 118.92 113.495 103.369C115.894 100.469 123.061 109.623 121.919 102.961C122.993 103.768 136.784 105.463 140.193 104.543C129.197 93.5262 138.72 101.183 144.838 102.516C145.503 99.9242 149.343 97.8342 145.798 95.4562C149.983 95.4562 151.416 95.9542 154.26 92.8722C149.642 90.2832 130.383 91.2142 133.212 86.8642C127.092 88.2772 129.126 88.5872 128.17 84.5332C123.648 89.7832 118.234 90.9972 111.929 88.1762C115.118 85.2562 110.914 83.4982 106.528 81.5932C107.389 81.4852 108.277 80.3292 109.111 77.5462C111.596 79.2412 114.081 80.9372 116.566 82.6322C114.943 78.6482 130.718 82.4212 140.044 77.9152C131.719 69.3192 126.109 65.6862 116.439 69.0822C114.094 63.4552 135.081 62.0972 115.696 58.5972C118.041 55.0272 124.042 54.4322 128.839 51.4792C126.474 49.2412 125.067 49.3962 122.173 48.2132C130.67 38.5072 125.079 43.4612 125.075 33.0692C114.088 36.8712 114.297 47.6992 100.134 52.3512C99.8644 47.8402 95.0384 33.8332 103.683 34.2272C103.683 41.0592 107.811 35.1192 113.483 35.1192C110.48 32.7692 107.477 30.4182 104.474 28.0682C107.781 27.3812 113.943 29.6032 116.552 27.1252C115.758 24.8002 113.769 23.5702 110.587 23.4362C115.963 21.9342 117.643 20.0982 115.626 17.9262C108.434 24.2632 105.303 24.2402 106.235 17.8582C105.19 22.4602 102.82 25.7232 99.1354 27.6552C101.359 23.0742 105.916 8.00517 106.493 8.68217C103.957 5.70417 100.654 13.7122 99.0214 13.4582C98.6544 11.4912 96.5344 0.097168 94.7314 0.097168C94.7314 18.5872 98.1154 19.8562 87.2934 9.59016C86.4504 10.1252 93.7434 28.1782 93.1524 31.1602C89.7774 25.0352 91.2444 23.8562 87.6084 19.0542C83.7894 25.4472 84.3614 20.3842 78.5714 20.0992C78.6404 31.6592 86.7664 32.6692 86.7664 39.0932C84.9784 37.3252 82.9474 36.5132 80.6724 36.6562C78.7924 38.9182 84.0304 42.8462 84.7884 43.5532C76.8114 46.3902 74.9444 41.0492 67.1064 40.0912C67.6764 43.7372 68.8234 44.7442 71.8524 46.6032C69.4474 46.3932 67.8864 47.2732 67.1694 49.2422C67.1434 50.4412 74.4944 52.9822 75.4024 56.2092C72.5304 55.9592 70.2454 56.8582 68.5454 58.9082C68.7344 63.5422 81.9264 61.8482 84.4014 60.7582C85.4694 62.5032 84.3834 63.8222 81.1454 64.7152C84.0384 67.6872 97.8694 63.3922 95.5224 69.1962C93.1744 75.0042 61.6674 62.1042 74.0434 70.7172C59.7534 68.9002 59.4394 60.5542 46.7744 69.9222C51.3004 71.0302 55.8254 72.1382 60.3504 73.2462C49.7134 82.4212 66.2454 73.5312 67.7704 74.4862C53.1374 84.3262 74.3664 77.8272 77.2204 77.1302C77.7514 78.0032 72.0464 81.9552 71.2324 83.7292C77.2634 85.9332 88.2384 83.4182 95.6384 75.3002C106.347 96.6572 64.4494 78.9702 69.0224 89.5272C66.0394 88.6872 51.4694 86.3432 50.1084 92.4072C49.9644 92.3852 65.4024 101.883 64.6364 105.136C60.8824 103.125 57.0424 103.006 53.1174 104.777C56.4684 106.527 57.3024 109.077 55.6174 112.426C45.2814 104.947 51.9004 112.421 38.2214 110.802C37.0404 117.738 55.9434 118.057 55.6804 124.449C61.2144 118.389 66.2634 130.486 72.2584 133.721C62.4354 136.325 45.7814 131.579 39.0244 138.741C42.6364 143.952 52.9124 151.715 59.1594 151.229C58.6564 154.17 38.2604 154.233 35.3624 154.233C33.4794 162.021 55.4564 165.087 63.3674 164.781C55.8954 167.849 39.7744 179.574 27.4884 180.72C43.1434 198.927 59.3844 190.313 74.4764 188.924C72.6994 194.655 58.4024 196.297 53.4744 196.748C55.6194 199.791 58.5424 201.227 62.2434 201.055C52.4784 209.087 26.3034 197.238 18.7814 206.887C20.7744 209.082 23.2524 210.302 26.2144 210.549C14.8494 219.061 31.5024 218.147 35.3134 215.208C36.6624 216.648 32.6034 218.11 33.8874 220.075C40.7164 217.715 41.4504 222.39 47.8124 218.166C47.1384 225.702 46.7894 224.527 53.9714 220.486C52.8814 224.983 63.1754 225.905 67.6614 225.905C60.0834 235.476 45.1404 231.073 35.4174 230.389C41.7254 239.026 34.4724 233.05 16.5894 230.5C20.1124 233.811 23.6604 235.548 27.8644 236.029C18.2844 237.408 30.6904 245.138 39.9424 243.309C36.8724 247.304 43.7474 247.883 46.5684 245.197C41.8694 251.76 43.8664 252.72 52.5574 248.076C46.8294 260.798 7.14239 252.497 13.7354 260.71C9.43139 258.506 5.39339 258.469 1.62239 260.599C2.66939 261.504 15.6384 279.809 22.7494 273.735C32.6404 280.608 13.6674 281.575 10.9914 282.225C14.3014 284.926 17.9924 285.667 22.0664 284.448C18.1444 286.828 14.0744 291.491 21.2024 289.224C18.3404 292.644 27.9194 291.57 29.5064 291.037C30.8084 293.676 27.4524 294.152 36.1364 294.429C31.1274 299.732 14.1474 296.121 7.38339 296.895C22.0554 304.878 3.29539 297.299 2.56539 303.755C2.19039 307.067 13.9914 304.182 16.2374 303.537C8.75139 312.722 22.8664 313.492 27.8134 310.365C27.9004 312.404 27.7664 314.428 27.4314 316.438C17.3294 318.81 5.05039 320.895 4.28839 321.102C4.25339 323.533 6.13939 324.239 9.94539 323.221C8.98339 324.229 -0.0586106 327.759 0.825389 330.193C4.59239 329.314 8.35939 328.435 12.1254 327.556C8.09539 333.342 9.96639 336.659 18.1624 332.391C17.4164 338.002 28.1014 333.37 36.3654 334.477C31.8644 335.928 25.9204 336.2 22.6624 339.729C24.8874 340.772 27.1634 340.917 29.4904 340.17C25.9534 341.831 24.9894 343.754 26.6034 345.941C30.0834 344.811 33.5634 343.682 37.0434 342.552C31.5044 352.854 47.3374 350.427 51.2614 345.906C52.7674 352.99 54.0124 350.7 59.2564 345.453C61.9634 361.916 83.4844 333.116 82.2134 342.037C84.0684 340.095 85.9224 338.152 87.7774 336.21C90.4184 339.953 89.7934 336.888 90.6044 332.025C100.698 336.755 93.5374 348.459 90.7254 356.5C98.2994 356.5 105.872 356.5 113.446 356.5C113.656 350.696 111.358 345.506 111.51 339.581C115.259 339.037 118.113 349.475 117.06 342.104C124.5 350.174 151.622 353.65 145.124 343.349C149.427 345.05 174.43 354.888 169.911 341.115C173.084 343.151 185.182 347.709 189.367 346.767C183.557 337.389 197.303 346.998 187.215 337.988C190.567 339.135 193.92 340.282 197.272 341.429C193.884 345.594 189.294 352.931 204.877 335.835C196.309 334.807 186.291 334.275 178.796 329.639C181.126 325.965 188.04 333.346 182.842 326.915C190.382 326.915 192.657 328.112 187.515 323.939C197.639 323.651 198.808 322.529 191.023 320.574C197.272 320.492 198.023 319.2 193.276 316.697C198.776 319.631 201.875 319.419 202.573 316.063C193.626 312.338 194.127 312.918 204.035 312.373C204.469 307.695 200.449 306.695 191.975 309.375C192.043 306.291 207.865 306.702 205.42 302.253C200.847 303.156 196.273 304.059 191.7 304.962C196.464 303.372 197.95 301.527 196.157 299.429C178.978 302.703 159.198 307.548 146.282 289.695C159.944 298.373 148.456 286.663 159.288 296.35C158.023 287.366 158.168 290.227 168.277 295.917C167.439 287.227 176.354 290.973 181.481 294.972C183.934 293.203 182.964 291.089 178.57 288.63C179.461 287.856 198.71 284.707 200.181 284.966C197.208 283.299 194.234 281.632 191.261 279.965C196.279 279.675 201.11 282.351 205.727 279.73C203.438 277.664 200.665 276.877 197.407 277.368C202.11 274.819 153.631 270.248 144.947 261.803C177.686 258.53 175.404 265.572 204.397 253.168C201.095 252.115 200.212 248.534 197.715 247.71C200.807 246.471 203.899 245.231 206.992 243.992C202.047 244.348 170.138 238.809 167.257 237.241Z" fill="url(#paint0_linear_471_2600)"/>
<defs>
<linearGradient id="paint0_linear_471_2600" x1="0.759289" y1="178.297" x2="206.99" y2="178.297" gradientUnits="userSpaceOnUse">
<stop stop-color="#010713"/>
<stop offset="1" stop-color="#010005"/>
</linearGradient>
</defs>
</svg>
